M48
; DRILL file {KiCad 8.0.0} date 2024-03-22T10:14:50-0400
; FORMAT={-:-/ absolute / inch / decimal}
; #@! TF.CreationDate,2024-03-22T10:14:50-04:00
; #@! TF.GenerationSoftware,Kicad,Pcbnew,8.0.0
; #@! TF.FileFunction,MixedPlating,1,2
FMAT,2
INCH
; #@! TA.AperFunction,Plated,PTH,ComponentDrill
T1C0.0394
; #@! TA.AperFunction,NonPlated,NPTH,ComponentDrill
T2C0.1260
%
G90
G05
T1
X0.1102Y-0.4248
X0.1102Y-0.5248
X0.1102Y-0.6248
X0.1102Y-0.7248
X0.1102Y-0.9839
X0.1102Y-1.0839
X0.1102Y-1.1839
X0.1102Y-1.2839
X1.0787Y-0.4248
X1.0787Y-0.5248
X1.0787Y-0.6248
X1.0787Y-0.7248
X1.0787Y-0.9839
X1.0787Y-1.0839
X1.0787Y-1.1839
X1.0787Y-1.2839
T2
X0.1772Y-0.1772
X0.1772Y-1.5315
X1.0118Y-0.1772
X1.0118Y-1.5315
M30
