%TF.GenerationSoftware,KiCad,Pcbnew,8.0.0*%
%TF.CreationDate,2024-03-22T10:14:47-04:00*%
%TF.ProjectId,lgs5145_dcdc,6c677335-3134-4355-9f64-6364632e6b69,rev?*%
%TF.SameCoordinates,PX74a2660PY490d2c0*%
%TF.FileFunction,Copper,L2,Bot*%
%TF.FilePolarity,Positive*%
%FSLAX46Y46*%
G04 Gerber Fmt 4.6, Leading zero omitted, Abs format (unit mm)*
G04 Created by KiCad (PCBNEW 8.0.0) date 2024-03-22 10:14:47*
%MOMM*%
%LPD*%
G01*
G04 APERTURE LIST*
G04 Aperture macros list*
%AMRoundRect*
0 Rectangle with rounded corners*
0 $1 Rounding radius*
0 $2 $3 $4 $5 $6 $7 $8 $9 X,Y pos of 4 corners*
0 Add a 4 corners polygon primitive as box body*
4,1,4,$2,$3,$4,$5,$6,$7,$8,$9,$2,$3,0*
0 Add four circle primitives for the rounded corners*
1,1,$1+$1,$2,$3*
1,1,$1+$1,$4,$5*
1,1,$1+$1,$6,$7*
1,1,$1+$1,$8,$9*
0 Add four rect primitives between the rounded corners*
20,1,$1+$1,$2,$3,$4,$5,0*
20,1,$1+$1,$4,$5,$6,$7,0*
20,1,$1+$1,$6,$7,$8,$9,0*
20,1,$1+$1,$8,$9,$2,$3,0*%
G04 Aperture macros list end*
%TA.AperFunction,SMDPad,CuDef*%
%ADD10RoundRect,0.250000X0.337500X0.475000X-0.337500X0.475000X-0.337500X-0.475000X0.337500X-0.475000X0*%
%TD*%
%TA.AperFunction,SMDPad,CuDef*%
%ADD11RoundRect,0.150000X0.512500X0.150000X-0.512500X0.150000X-0.512500X-0.150000X0.512500X-0.150000X0*%
%TD*%
%TA.AperFunction,SMDPad,CuDef*%
%ADD12RoundRect,0.237500X-0.237500X0.250000X-0.237500X-0.250000X0.237500X-0.250000X0.237500X0.250000X0*%
%TD*%
%TA.AperFunction,SMDPad,CuDef*%
%ADD13RoundRect,0.237500X-0.250000X-0.237500X0.250000X-0.237500X0.250000X0.237500X-0.250000X0.237500X0*%
%TD*%
%TA.AperFunction,SMDPad,CuDef*%
%ADD14R,2.413000X3.429000*%
%TD*%
%TA.AperFunction,ComponentPad*%
%ADD15R,2.040000X2.040000*%
%TD*%
%TA.AperFunction,ComponentPad*%
%ADD16O,2.040000X2.040000*%
%TD*%
%TA.AperFunction,SMDPad,CuDef*%
%ADD17RoundRect,0.250000X-0.650000X1.500000X-0.650000X-1.500000X0.650000X-1.500000X0.650000X1.500000X0*%
%TD*%
%TA.AperFunction,SMDPad,CuDef*%
%ADD18RoundRect,0.250000X-1.100000X0.412500X-1.100000X-0.412500X1.100000X-0.412500X1.100000X0.412500X0*%
%TD*%
%TA.AperFunction,SMDPad,CuDef*%
%ADD19RoundRect,0.250000X-0.412500X-1.100000X0.412500X-1.100000X0.412500X1.100000X-0.412500X1.100000X0*%
%TD*%
%TA.AperFunction,Conductor*%
%ADD20C,0.500000*%
%TD*%
G04 APERTURE END LIST*
D10*
%TO.P,C2,1*%
%TO.N,Net-(U1-BST)*%
X10137500Y-18200000D03*
%TO.P,C2,2*%
%TO.N,Net-(D1-K)*%
X8062500Y-18200000D03*
%TD*%
D11*
%TO.P,U1,1,BST*%
%TO.N,Net-(U1-BST)*%
X10237498Y-20350000D03*
%TO.P,U1,2,GND*%
%TO.N,GND*%
X10237498Y-21300000D03*
%TO.P,U1,3,FB*%
%TO.N,Net-(U1-FB)*%
X10237498Y-22250000D03*
%TO.P,U1,4,EN*%
%TO.N,Net-(U1-EN)*%
X7962498Y-22250000D03*
%TO.P,U1,5,Vin*%
%TO.N,VCC*%
X7962498Y-21300000D03*
%TO.P,U1,6,SW*%
%TO.N,Net-(D1-K)*%
X7962498Y-20350000D03*
%TD*%
D12*
%TO.P,R3,1*%
%TO.N,Net-(U1-FB)*%
X13400000Y-23987500D03*
%TO.P,R3,2*%
%TO.N,GND*%
X13400000Y-25812500D03*
%TD*%
%TO.P,R2,1*%
%TO.N,+5V*%
X13400000Y-19687500D03*
%TO.P,R2,2*%
%TO.N,Net-(U1-FB)*%
X13400000Y-21512500D03*
%TD*%
D13*
%TO.P,R1,2*%
%TO.N,Net-(U1-EN)*%
X9312498Y-29200000D03*
%TO.P,R1,1*%
%TO.N,VCC*%
X7487498Y-29200000D03*
%TD*%
D14*
%TO.P,L1,1,1*%
%TO.N,Net-(D1-K)*%
X8079000Y-12400000D03*
%TO.P,L1,2,2*%
%TO.N,+5V*%
X13921000Y-12400000D03*
%TD*%
D15*
%TO.P,J4,1,Pin_1*%
%TO.N,+5V*%
X27400000Y-10790000D03*
D16*
%TO.P,J4,2,Pin_2*%
X27400000Y-13330000D03*
%TO.P,J4,3,Pin_3*%
X27400000Y-15870000D03*
%TO.P,J4,4,Pin_4*%
X27400000Y-18410000D03*
%TD*%
D15*
%TO.P,J3,1,Pin_1*%
%TO.N,GND*%
X27400000Y-24990000D03*
D16*
%TO.P,J3,2,Pin_2*%
X27400000Y-27530000D03*
%TO.P,J3,3,Pin_3*%
X27400000Y-30070000D03*
%TO.P,J3,4,Pin_4*%
X27400000Y-32610000D03*
%TD*%
%TO.P,J2,4,Pin_4*%
%TO.N,GND*%
X2800000Y-32610000D03*
%TO.P,J2,3,Pin_3*%
X2800000Y-30070000D03*
%TO.P,J2,2,Pin_2*%
X2800000Y-27530000D03*
D15*
%TO.P,J2,1,Pin_1*%
X2800000Y-24990000D03*
%TD*%
%TO.P,J1,1,Pin_1*%
%TO.N,VCC*%
X2800000Y-10790000D03*
D16*
%TO.P,J1,2,Pin_2*%
X2800000Y-13330000D03*
%TO.P,J1,3,Pin_3*%
X2800000Y-15870000D03*
%TO.P,J1,4,Pin_4*%
X2800000Y-18410000D03*
%TD*%
D17*
%TO.P,D1,1,K*%
%TO.N,Net-(D1-K)*%
X16900000Y-20800000D03*
%TO.P,D1,2,A*%
%TO.N,GND*%
X16900000Y-25800000D03*
%TD*%
D18*
%TO.P,C3,1*%
%TO.N,+5V*%
X22300000Y-21737500D03*
%TO.P,C3,2*%
%TO.N,GND*%
X22300000Y-24862500D03*
%TD*%
D19*
%TO.P,C1,2*%
%TO.N,GND*%
X10662498Y-25800000D03*
%TO.P,C1,1*%
%TO.N,VCC*%
X7537498Y-25800000D03*
%TD*%
D20*
%TO.N,VCC*%
X7962498Y-21300000D02*
X5400000Y-21300000D01*
%TO.N,Net-(U1-BST)*%
X10137500Y-18200000D02*
X10137500Y-20250002D01*
X10137500Y-20250002D02*
X10237498Y-20350000D01*
%TO.N,GND*%
X10237498Y-21300000D02*
X9574999Y-21300000D01*
X9574999Y-21300000D02*
X9100000Y-21774999D01*
X9100000Y-21774999D02*
X9100000Y-23966619D01*
X9100000Y-23966619D02*
X10662498Y-25529117D01*
X10662498Y-25529117D02*
X10662498Y-25800000D01*
%TO.N,Net-(U1-EN)*%
X7962498Y-22250000D02*
X7962498Y-23762498D01*
X7962498Y-23762498D02*
X8609998Y-24409998D01*
X8609998Y-28497500D02*
X9312498Y-29200000D01*
X8609998Y-24409998D02*
X8609998Y-28497500D01*
%TO.N,Net-(U1-FB)*%
X13400000Y-21512500D02*
X13400000Y-23987500D01*
X10237498Y-22250000D02*
X12662500Y-22250000D01*
X12662500Y-22250000D02*
X13400000Y-21512500D01*
%TO.N,+5V*%
X13400000Y-19687500D02*
X14700000Y-20987500D01*
X14700000Y-20987500D02*
X14700000Y-22500000D01*
X14700000Y-22500000D02*
X15500000Y-23300000D01*
X15500000Y-23300000D02*
X20737500Y-23300000D01*
X20737500Y-23300000D02*
X22300000Y-21737500D01*
%TD*%
%TA.AperFunction,Conductor*%
%TO.N,VCC*%
G36*
X5337539Y-8725185D02*
G01*
X5383294Y-8777989D01*
X5394500Y-8829500D01*
X5394500Y-20425507D01*
X5399289Y-20470041D01*
X5400000Y-20483297D01*
X5400000Y-21000000D01*
X5755076Y-21000000D01*
X5806589Y-21011206D01*
X5814541Y-21014838D01*
X5881580Y-21034523D01*
X5881584Y-21034524D01*
X6024000Y-21055000D01*
X7076638Y-21055000D01*
X7139758Y-21072267D01*
X7189600Y-21101744D01*
X7231222Y-21113836D01*
X7347424Y-21147597D01*
X7347427Y-21147597D01*
X7347429Y-21147598D01*
X7384304Y-21150500D01*
X7384312Y-21150500D01*
X8088498Y-21150500D01*
X8155537Y-21170185D01*
X8200000Y-21221497D01*
X8200000Y-21368063D01*
X8192813Y-21392539D01*
X8140009Y-21438294D01*
X8088498Y-21449500D01*
X7384296Y-21449500D01*
X7347430Y-21452401D01*
X7347424Y-21452402D01*
X7189604Y-21498254D01*
X7189601Y-21498255D01*
X7131304Y-21532732D01*
X7068183Y-21550000D01*
X6802703Y-21550000D01*
X6802702Y-21550001D01*
X6802897Y-21552488D01*
X6802898Y-21552494D01*
X6848714Y-21710193D01*
X6848718Y-21710203D01*
X6849425Y-21711398D01*
X6849693Y-21712454D01*
X6851814Y-21717356D01*
X6851022Y-21717698D01*
X6866601Y-21779123D01*
X6850991Y-21832284D01*
X6851353Y-21832441D01*
X6850085Y-21835369D01*
X6849425Y-21837620D01*
X6848257Y-21839594D01*
X6848252Y-21839607D01*
X6802400Y-21997426D01*
X6802399Y-21997432D01*
X6799498Y-22034298D01*
X6799498Y-22465701D01*
X6802399Y-22502567D01*
X6802400Y-22502573D01*
X6848252Y-22660393D01*
X6848253Y-22660396D01*
X6931915Y-22801862D01*
X6931921Y-22801870D01*
X7048127Y-22918076D01*
X7048131Y-22918079D01*
X7048133Y-22918081D01*
X7048136Y-22918082D01*
X7048139Y-22918085D01*
X7151118Y-22978986D01*
X7198802Y-23030054D01*
X7211998Y-23085718D01*
X7211998Y-23826000D01*
X7192313Y-23893039D01*
X7139509Y-23938794D01*
X7088006Y-23950000D01*
X7075030Y-23950000D01*
X7075010Y-23950001D01*
X6972300Y-23960494D01*
X6805878Y-24015641D01*
X6805873Y-24015643D01*
X6656652Y-24107684D01*
X6532682Y-24231654D01*
X6440641Y-24380875D01*
X6440639Y-24380880D01*
X6385492Y-24547302D01*
X6385491Y-24547309D01*
X6374998Y-24650013D01*
X6374998Y-25550000D01*
X7663498Y-25550000D01*
X7730537Y-25569685D01*
X7776292Y-25622489D01*
X7787498Y-25674000D01*
X7787498Y-27649999D01*
X7823179Y-27685680D01*
X7856664Y-27747003D01*
X7859498Y-27773361D01*
X7859498Y-28101000D01*
X7839813Y-28168039D01*
X7787009Y-28213794D01*
X7738054Y-28224443D01*
X7737498Y-28225000D01*
X7737498Y-29326000D01*
X7717813Y-29393039D01*
X7665009Y-29438794D01*
X7613498Y-29450000D01*
X6499999Y-29450000D01*
X6499999Y-29486654D01*
X6510317Y-29587652D01*
X6564544Y-29751300D01*
X6564549Y-29751311D01*
X6655050Y-29898034D01*
X6655053Y-29898038D01*
X6745334Y-29988319D01*
X6778819Y-30049642D01*
X6773835Y-30119334D01*
X6731963Y-30175267D01*
X6666499Y-30199684D01*
X6657653Y-30200000D01*
X6024000Y-30200000D01*
X5956961Y-30180315D01*
X5911206Y-30127511D01*
X5900000Y-30076000D01*
X5900000Y-28950000D01*
X6499998Y-28950000D01*
X7237498Y-28950000D01*
X7237498Y-28225000D01*
X7237497Y-28224999D01*
X7188359Y-28225000D01*
X7188341Y-28225001D01*
X7087345Y-28235319D01*
X6923697Y-28289546D01*
X6923686Y-28289551D01*
X6776963Y-28380052D01*
X6776959Y-28380055D01*
X6655053Y-28501961D01*
X6655050Y-28501965D01*
X6564549Y-28648688D01*
X6564544Y-28648699D01*
X6510317Y-28812347D01*
X6499998Y-28913345D01*
X6499998Y-28950000D01*
X5900000Y-28950000D01*
X5900000Y-26050000D01*
X6374999Y-26050000D01*
X6374999Y-26949986D01*
X6385492Y-27052697D01*
X6440639Y-27219119D01*
X6440641Y-27219124D01*
X6532682Y-27368345D01*
X6656652Y-27492315D01*
X6805873Y-27584356D01*
X6805878Y-27584358D01*
X6972300Y-27639505D01*
X6972307Y-27639506D01*
X7075017Y-27649999D01*
X7287497Y-27649999D01*
X7287498Y-27649998D01*
X7287498Y-26050000D01*
X6374999Y-26050000D01*
X5900000Y-26050000D01*
X5900000Y-22800000D01*
X1624500Y-22800000D01*
X1557461Y-22780315D01*
X1511706Y-22727511D01*
X1500500Y-22676000D01*
X1500500Y-19565046D01*
X1520185Y-19498007D01*
X1572989Y-19452252D01*
X1642147Y-19442308D01*
X1705703Y-19471333D01*
X1718793Y-19484518D01*
X1721873Y-19488125D01*
X1903801Y-19643506D01*
X1903806Y-19643510D01*
X2107800Y-19768518D01*
X2328843Y-19860076D01*
X2549999Y-19913170D01*
X2550000Y-19913170D01*
X2550000Y-18843012D01*
X2607007Y-18875925D01*
X2734174Y-18910000D01*
X2865826Y-18910000D01*
X2992993Y-18875925D01*
X3050000Y-18843012D01*
X3050000Y-19913170D01*
X3271156Y-19860076D01*
X3492199Y-19768518D01*
X3696193Y-19643510D01*
X3696198Y-19643506D01*
X3878125Y-19488125D01*
X4033506Y-19306198D01*
X4033510Y-19306193D01*
X4158518Y-19102199D01*
X4250075Y-18881160D01*
X4303171Y-18660000D01*
X3233012Y-18660000D01*
X3265925Y-18602993D01*
X3300000Y-18475826D01*
X3300000Y-18344174D01*
X3265925Y-18217007D01*
X3233012Y-18160000D01*
X4303171Y-18160000D01*
X4303170Y-18159999D01*
X4250075Y-17938839D01*
X4158518Y-17717800D01*
X4033510Y-17513806D01*
X4033506Y-17513801D01*
X3878123Y-17331871D01*
X3763870Y-17234290D01*
X3725676Y-17175784D01*
X3725177Y-17105916D01*
X3762531Y-17046869D01*
X3763870Y-17045710D01*
X3878123Y-16948128D01*
X4033506Y-16766198D01*
X4033510Y-16766193D01*
X4158518Y-16562199D01*
X4250075Y-16341160D01*
X4303171Y-16120000D01*
X3233012Y-16120000D01*
X3265925Y-16062993D01*
X3300000Y-15935826D01*
X3300000Y-15804174D01*
X3265925Y-15677007D01*
X3233012Y-15620000D01*
X4303171Y-15620000D01*
X4303170Y-15619999D01*
X4250075Y-15398839D01*
X4158518Y-15177800D01*
X4033510Y-14973806D01*
X4033506Y-14973801D01*
X3878123Y-14791871D01*
X3763870Y-14694290D01*
X3725676Y-14635784D01*
X3725177Y-14565916D01*
X3762531Y-14506869D01*
X3763870Y-14505710D01*
X3878123Y-14408128D01*
X4033506Y-14226198D01*
X4033510Y-14226193D01*
X4158518Y-14022199D01*
X4250075Y-13801160D01*
X4303171Y-13580000D01*
X3233012Y-13580000D01*
X3265925Y-13522993D01*
X3300000Y-13395826D01*
X3300000Y-13264174D01*
X3265925Y-13137007D01*
X3233012Y-13080000D01*
X4303171Y-13080000D01*
X4303170Y-13079999D01*
X4250075Y-12858839D01*
X4158518Y-12637800D01*
X4033511Y-12433809D01*
X4030648Y-12429868D01*
X4032592Y-12428455D01*
X4007981Y-12373789D01*
X4018296Y-12304685D01*
X4056501Y-12257535D01*
X4177191Y-12167186D01*
X4263350Y-12052093D01*
X4263354Y-12052086D01*
X4313596Y-11917379D01*
X4313598Y-11917372D01*
X4319999Y-11857844D01*
X4320000Y-11857827D01*
X4320000Y-11040000D01*
X3233012Y-11040000D01*
X3265925Y-10982993D01*
X3300000Y-10855826D01*
X3300000Y-10724174D01*
X3265925Y-10597007D01*
X3233012Y-10540000D01*
X4320000Y-10540000D01*
X4320000Y-9722172D01*
X4319999Y-9722155D01*
X4313598Y-9662627D01*
X4313596Y-9662620D01*
X4263354Y-9527913D01*
X4263350Y-9527906D01*
X4177190Y-9412812D01*
X4177187Y-9412809D01*
X4062093Y-9326649D01*
X4062086Y-9326645D01*
X3927379Y-9276403D01*
X3927372Y-9276401D01*
X3867844Y-9270000D01*
X3050000Y-9270000D01*
X3050000Y-10356988D01*
X2992993Y-10324075D01*
X2865826Y-10290000D01*
X2734174Y-10290000D01*
X2607007Y-10324075D01*
X2550000Y-10356988D01*
X2550000Y-9270000D01*
X1732155Y-9270000D01*
X1672627Y-9276401D01*
X1672615Y-9276404D01*
X1667827Y-9278190D01*
X1598135Y-9283171D01*
X1536814Y-9249682D01*
X1503332Y-9188357D01*
X1500500Y-9162006D01*
X1500500Y-8829500D01*
X1520185Y-8762461D01*
X1572989Y-8716706D01*
X1624500Y-8705500D01*
X5270500Y-8705500D01*
X5337539Y-8725185D01*
G37*
%TD.AperFunction*%
%TA.AperFunction,Conductor*%
G36*
X3050000Y-17976988D02*
G01*
X2992993Y-17944075D01*
X2865826Y-17910000D01*
X2734174Y-17910000D01*
X2607007Y-17944075D01*
X2550000Y-17976988D01*
X2550000Y-16303012D01*
X2607007Y-16335925D01*
X2734174Y-16370000D01*
X2865826Y-16370000D01*
X2992993Y-16335925D01*
X3050000Y-16303012D01*
X3050000Y-17976988D01*
G37*
%TD.AperFunction*%
%TA.AperFunction,Conductor*%
G36*
X3050000Y-15436988D02*
G01*
X2992993Y-15404075D01*
X2865826Y-15370000D01*
X2734174Y-15370000D01*
X2607007Y-15404075D01*
X2550000Y-15436988D01*
X2550000Y-13763012D01*
X2607007Y-13795925D01*
X2734174Y-13830000D01*
X2865826Y-13830000D01*
X2992993Y-13795925D01*
X3050000Y-13763012D01*
X3050000Y-15436988D01*
G37*
%TD.AperFunction*%
%TA.AperFunction,Conductor*%
G36*
X3050000Y-12896988D02*
G01*
X2992993Y-12864075D01*
X2865826Y-12830000D01*
X2734174Y-12830000D01*
X2607007Y-12864075D01*
X2550000Y-12896988D01*
X2550000Y-11223012D01*
X2607007Y-11255925D01*
X2734174Y-11290000D01*
X2865826Y-11290000D01*
X2992993Y-11255925D01*
X3050000Y-11223012D01*
X3050000Y-12896988D01*
G37*
%TD.AperFunction*%
%TD*%
%TA.AperFunction,Conductor*%
%TO.N,Net-(D1-K)*%
G36*
X10443039Y-8719685D02*
G01*
X10488794Y-8772489D01*
X10500000Y-8824000D01*
X10500000Y-15600000D01*
X19176000Y-15600000D01*
X19243039Y-15619685D01*
X19288794Y-15672489D01*
X19300000Y-15724000D01*
X19300000Y-22425500D01*
X19280315Y-22492539D01*
X19227511Y-22538294D01*
X19176000Y-22549500D01*
X18416930Y-22549500D01*
X18349891Y-22529815D01*
X18304136Y-22477011D01*
X18293572Y-22412897D01*
X18299999Y-22349986D01*
X18300000Y-22349973D01*
X18300000Y-21050000D01*
X16774000Y-21050000D01*
X16706961Y-21030315D01*
X16661206Y-20977511D01*
X16650000Y-20926000D01*
X16650000Y-18550000D01*
X17150000Y-18550000D01*
X17150000Y-20550000D01*
X18299999Y-20550000D01*
X18299999Y-19250028D01*
X18299998Y-19250013D01*
X18289505Y-19147302D01*
X18234358Y-18980880D01*
X18234356Y-18980875D01*
X18142315Y-18831654D01*
X18018345Y-18707684D01*
X17869124Y-18615643D01*
X17869119Y-18615641D01*
X17702697Y-18560494D01*
X17702690Y-18560493D01*
X17599986Y-18550000D01*
X17150000Y-18550000D01*
X16650000Y-18550000D01*
X16200028Y-18550000D01*
X16200012Y-18550001D01*
X16097302Y-18560494D01*
X15930880Y-18615641D01*
X15930875Y-18615643D01*
X15781654Y-18707684D01*
X15711681Y-18777658D01*
X15650358Y-18811143D01*
X15580666Y-18806159D01*
X15524733Y-18764287D01*
X15500316Y-18698823D01*
X15500000Y-18689977D01*
X15500000Y-17000000D01*
X10693070Y-17000000D01*
X10654067Y-16993706D01*
X10627801Y-16985002D01*
X10627798Y-16985001D01*
X10627797Y-16985001D01*
X10627793Y-16985000D01*
X10627790Y-16985000D01*
X10525010Y-16974500D01*
X9749998Y-16974500D01*
X9749980Y-16974501D01*
X9647203Y-16985000D01*
X9626982Y-16991701D01*
X9620932Y-16993706D01*
X9581929Y-17000000D01*
X8616484Y-17000000D01*
X8577482Y-16993707D01*
X8552695Y-16985493D01*
X8449986Y-16975000D01*
X8312500Y-16975000D01*
X8312500Y-18326000D01*
X8292815Y-18393039D01*
X8240011Y-18438794D01*
X8188500Y-18450000D01*
X6975001Y-18450000D01*
X6975001Y-18724986D01*
X6985494Y-18827697D01*
X7040641Y-18994119D01*
X7040643Y-18994124D01*
X7132684Y-19143345D01*
X7256654Y-19267315D01*
X7362707Y-19332729D01*
X7409431Y-19384677D01*
X7420654Y-19453640D01*
X7392810Y-19517722D01*
X7334742Y-19556578D01*
X7332206Y-19557344D01*
X7189802Y-19598716D01*
X7189801Y-19598717D01*
X7048445Y-19682314D01*
X7048436Y-19682321D01*
X6932319Y-19798438D01*
X6932312Y-19798447D01*
X6848716Y-19939801D01*
X6802897Y-20097513D01*
X6802702Y-20099998D01*
X6802703Y-20100000D01*
X8088498Y-20100000D01*
X8155537Y-20119685D01*
X8201292Y-20172489D01*
X8212498Y-20224000D01*
X8212498Y-20375500D01*
X8192813Y-20442539D01*
X8140009Y-20488294D01*
X8088498Y-20499500D01*
X7384296Y-20499500D01*
X7347430Y-20502401D01*
X7347424Y-20502402D01*
X7202265Y-20544576D01*
X7167670Y-20549500D01*
X6024000Y-20549500D01*
X5956961Y-20529815D01*
X5911206Y-20477011D01*
X5900000Y-20425500D01*
X5900000Y-17950000D01*
X6975000Y-17950000D01*
X7812500Y-17950000D01*
X7812500Y-16975000D01*
X7675027Y-16975000D01*
X7675012Y-16975001D01*
X7572302Y-16985494D01*
X7405880Y-17040641D01*
X7405875Y-17040643D01*
X7256654Y-17132684D01*
X7132684Y-17256654D01*
X7040643Y-17405875D01*
X7040641Y-17405880D01*
X6985494Y-17572302D01*
X6985493Y-17572309D01*
X6975000Y-17675013D01*
X6975000Y-17950000D01*
X5900000Y-17950000D01*
X5900000Y-12650000D01*
X6372500Y-12650000D01*
X6372500Y-14162344D01*
X6378901Y-14221872D01*
X6378903Y-14221879D01*
X6429145Y-14356586D01*
X6429149Y-14356593D01*
X6515309Y-14471687D01*
X6515312Y-14471690D01*
X6630406Y-14557850D01*
X6630413Y-14557854D01*
X6765120Y-14608096D01*
X6765127Y-14608098D01*
X6824655Y-14614499D01*
X6824672Y-14614500D01*
X7829000Y-14614500D01*
X7829000Y-12650000D01*
X8329000Y-12650000D01*
X8329000Y-14614500D01*
X9333328Y-14614500D01*
X9333344Y-14614499D01*
X9392872Y-14608098D01*
X9392879Y-14608096D01*
X9527586Y-14557854D01*
X9527593Y-14557850D01*
X9642687Y-14471690D01*
X9642690Y-14471687D01*
X9728850Y-14356593D01*
X9728854Y-14356586D01*
X9779096Y-14221879D01*
X9779098Y-14221872D01*
X9785499Y-14162344D01*
X9785500Y-14162327D01*
X9785500Y-12650000D01*
X8329000Y-12650000D01*
X7829000Y-12650000D01*
X6372500Y-12650000D01*
X5900000Y-12650000D01*
X5900000Y-12150000D01*
X6372500Y-12150000D01*
X7829000Y-12150000D01*
X7829000Y-10185500D01*
X8329000Y-10185500D01*
X8329000Y-12150000D01*
X9785500Y-12150000D01*
X9785500Y-10637672D01*
X9785499Y-10637655D01*
X9779098Y-10578127D01*
X9779096Y-10578120D01*
X9728854Y-10443413D01*
X9728850Y-10443406D01*
X9642690Y-10328312D01*
X9642687Y-10328309D01*
X9527593Y-10242149D01*
X9527586Y-10242145D01*
X9392879Y-10191903D01*
X9392872Y-10191901D01*
X9333344Y-10185500D01*
X8329000Y-10185500D01*
X7829000Y-10185500D01*
X6824655Y-10185500D01*
X6765127Y-10191901D01*
X6765120Y-10191903D01*
X6630413Y-10242145D01*
X6630406Y-10242149D01*
X6515312Y-10328309D01*
X6515309Y-10328312D01*
X6429149Y-10443406D01*
X6429145Y-10443413D01*
X6378903Y-10578120D01*
X6378901Y-10578127D01*
X6372500Y-10637655D01*
X6372500Y-12150000D01*
X5900000Y-12150000D01*
X5900000Y-8824000D01*
X5919685Y-8756961D01*
X5972489Y-8711206D01*
X6024000Y-8700000D01*
X10376000Y-8700000D01*
X10443039Y-8719685D01*
G37*
%TD.AperFunction*%
%TD*%
%TA.AperFunction,Conductor*%
%TO.N,+5V*%
G36*
X28642539Y-8719685D02*
G01*
X28688294Y-8772489D01*
X28699500Y-8824000D01*
X28699500Y-9162006D01*
X28679815Y-9229045D01*
X28627011Y-9274800D01*
X28557853Y-9284744D01*
X28532173Y-9278190D01*
X28527384Y-9276404D01*
X28527372Y-9276401D01*
X28467844Y-9270000D01*
X27650000Y-9270000D01*
X27650000Y-10356988D01*
X27592993Y-10324075D01*
X27465826Y-10290000D01*
X27334174Y-10290000D01*
X27207007Y-10324075D01*
X27150000Y-10356988D01*
X27150000Y-9270000D01*
X26332155Y-9270000D01*
X26272627Y-9276401D01*
X26272620Y-9276403D01*
X26137913Y-9326645D01*
X26137906Y-9326649D01*
X26022812Y-9412809D01*
X26022809Y-9412812D01*
X25936649Y-9527906D01*
X25936645Y-9527913D01*
X25886403Y-9662620D01*
X25886401Y-9662627D01*
X25880000Y-9722155D01*
X25880000Y-10540000D01*
X26966988Y-10540000D01*
X26934075Y-10597007D01*
X26900000Y-10724174D01*
X26900000Y-10855826D01*
X26934075Y-10982993D01*
X26966988Y-11040000D01*
X25880000Y-11040000D01*
X25880000Y-11857844D01*
X25886401Y-11917372D01*
X25886403Y-11917379D01*
X25936645Y-12052086D01*
X25936649Y-12052093D01*
X26022809Y-12167186D01*
X26143497Y-12257534D01*
X26185368Y-12313468D01*
X26190352Y-12383160D01*
X26167849Y-12428765D01*
X26169357Y-12429860D01*
X26166489Y-12433806D01*
X26041481Y-12637800D01*
X25949924Y-12858839D01*
X25896829Y-13079999D01*
X25896829Y-13080000D01*
X26966988Y-13080000D01*
X26934075Y-13137007D01*
X26900000Y-13264174D01*
X26900000Y-13395826D01*
X26934075Y-13522993D01*
X26966988Y-13580000D01*
X25896829Y-13580000D01*
X25949924Y-13801160D01*
X26041481Y-14022199D01*
X26166489Y-14226193D01*
X26166493Y-14226198D01*
X26321874Y-14408125D01*
X26436130Y-14505710D01*
X26474323Y-14564217D01*
X26474821Y-14634085D01*
X26437467Y-14693131D01*
X26436130Y-14694290D01*
X26321874Y-14791874D01*
X26166493Y-14973801D01*
X26166489Y-14973806D01*
X26041481Y-15177800D01*
X25949924Y-15398839D01*
X25896829Y-15619999D01*
X25896829Y-15620000D01*
X26966988Y-15620000D01*
X26934075Y-15677007D01*
X26900000Y-15804174D01*
X26900000Y-15935826D01*
X26934075Y-16062993D01*
X26966988Y-16120000D01*
X25896829Y-16120000D01*
X25949924Y-16341160D01*
X26041481Y-16562199D01*
X26166489Y-16766193D01*
X26166493Y-16766198D01*
X26321874Y-16948125D01*
X26436130Y-17045710D01*
X26474323Y-17104217D01*
X26474821Y-17174085D01*
X26437467Y-17233131D01*
X26436130Y-17234290D01*
X26321874Y-17331874D01*
X26166493Y-17513801D01*
X26166489Y-17513806D01*
X26041481Y-17717800D01*
X25949924Y-17938839D01*
X25896829Y-18159999D01*
X25896829Y-18160000D01*
X26966988Y-18160000D01*
X26934075Y-18217007D01*
X26900000Y-18344174D01*
X26900000Y-18475826D01*
X26934075Y-18602993D01*
X26966988Y-18660000D01*
X25896829Y-18660000D01*
X25949924Y-18881160D01*
X26041481Y-19102199D01*
X26166489Y-19306193D01*
X26166493Y-19306198D01*
X26321874Y-19488125D01*
X26503801Y-19643506D01*
X26503806Y-19643510D01*
X26707800Y-19768518D01*
X26928843Y-19860076D01*
X27149999Y-19913170D01*
X27150000Y-19913170D01*
X27150000Y-18843012D01*
X27207007Y-18875925D01*
X27334174Y-18910000D01*
X27465826Y-18910000D01*
X27592993Y-18875925D01*
X27650000Y-18843012D01*
X27650000Y-19913170D01*
X27871156Y-19860076D01*
X28092199Y-19768518D01*
X28296193Y-19643510D01*
X28296198Y-19643506D01*
X28478126Y-19488125D01*
X28481207Y-19484518D01*
X28539712Y-19446323D01*
X28609580Y-19445821D01*
X28668628Y-19483173D01*
X28698108Y-19546519D01*
X28699500Y-19565046D01*
X28699500Y-22776000D01*
X28679815Y-22843039D01*
X28627011Y-22888794D01*
X28575500Y-22900000D01*
X24010023Y-22900000D01*
X23942984Y-22880315D01*
X23897229Y-22827511D01*
X23887285Y-22758353D01*
X23916310Y-22694797D01*
X23922342Y-22688319D01*
X23992315Y-22618345D01*
X24084356Y-22469124D01*
X24084358Y-22469119D01*
X24139505Y-22302697D01*
X24139506Y-22302690D01*
X24149999Y-22199986D01*
X24150000Y-22199973D01*
X24150000Y-21987500D01*
X20450001Y-21987500D01*
X20450001Y-22199986D01*
X20460494Y-22302697D01*
X20515641Y-22469119D01*
X20515643Y-22469124D01*
X20607684Y-22618345D01*
X20677658Y-22688319D01*
X20711143Y-22749642D01*
X20706159Y-22819334D01*
X20664287Y-22875267D01*
X20598823Y-22899684D01*
X20589977Y-22900000D01*
X20124000Y-22900000D01*
X20056961Y-22880315D01*
X20011206Y-22827511D01*
X20000000Y-22776000D01*
X20000000Y-21487500D01*
X20450000Y-21487500D01*
X22050000Y-21487500D01*
X22050000Y-20575000D01*
X22550000Y-20575000D01*
X22550000Y-21487500D01*
X24149999Y-21487500D01*
X24149999Y-21275028D01*
X24149998Y-21275013D01*
X24139505Y-21172302D01*
X24084358Y-21005880D01*
X24084356Y-21005875D01*
X23992315Y-20856654D01*
X23868345Y-20732684D01*
X23719124Y-20640643D01*
X23719119Y-20640641D01*
X23552697Y-20585494D01*
X23552690Y-20585493D01*
X23449986Y-20575000D01*
X22550000Y-20575000D01*
X22050000Y-20575000D01*
X21150028Y-20575000D01*
X21150012Y-20575001D01*
X21047302Y-20585494D01*
X20880880Y-20640641D01*
X20880875Y-20640643D01*
X20731654Y-20732684D01*
X20607684Y-20856654D01*
X20515643Y-21005875D01*
X20515641Y-21005880D01*
X20460494Y-21172302D01*
X20460493Y-21172309D01*
X20450000Y-21275013D01*
X20450000Y-21487500D01*
X20000000Y-21487500D01*
X20000000Y-15100000D01*
X11124000Y-15100000D01*
X11056961Y-15080315D01*
X11011206Y-15027511D01*
X11000000Y-14976000D01*
X11000000Y-12650000D01*
X12214500Y-12650000D01*
X12214500Y-14162344D01*
X12220901Y-14221872D01*
X12220903Y-14221879D01*
X12271145Y-14356586D01*
X12271149Y-14356593D01*
X12357309Y-14471687D01*
X12357312Y-14471690D01*
X12472406Y-14557850D01*
X12472413Y-14557854D01*
X12607120Y-14608096D01*
X12607127Y-14608098D01*
X12666655Y-14614499D01*
X12666672Y-14614500D01*
X13671000Y-14614500D01*
X13671000Y-12650000D01*
X14171000Y-12650000D01*
X14171000Y-14614500D01*
X15175328Y-14614500D01*
X15175344Y-14614499D01*
X15234872Y-14608098D01*
X15234879Y-14608096D01*
X15369586Y-14557854D01*
X15369593Y-14557850D01*
X15484687Y-14471690D01*
X15484690Y-14471687D01*
X15570850Y-14356593D01*
X15570854Y-14356586D01*
X15621096Y-14221879D01*
X15621098Y-14221872D01*
X15627499Y-14162344D01*
X15627500Y-14162327D01*
X15627500Y-12650000D01*
X14171000Y-12650000D01*
X13671000Y-12650000D01*
X12214500Y-12650000D01*
X11000000Y-12650000D01*
X11000000Y-12150000D01*
X12214500Y-12150000D01*
X13671000Y-12150000D01*
X13671000Y-10185500D01*
X14171000Y-10185500D01*
X14171000Y-12150000D01*
X15627500Y-12150000D01*
X15627500Y-10637672D01*
X15627499Y-10637655D01*
X15621098Y-10578127D01*
X15621096Y-10578120D01*
X15570854Y-10443413D01*
X15570850Y-10443406D01*
X15484690Y-10328312D01*
X15484687Y-10328309D01*
X15369593Y-10242149D01*
X15369586Y-10242145D01*
X15234879Y-10191903D01*
X15234872Y-10191901D01*
X15175344Y-10185500D01*
X14171000Y-10185500D01*
X13671000Y-10185500D01*
X12666655Y-10185500D01*
X12607127Y-10191901D01*
X12607120Y-10191903D01*
X12472413Y-10242145D01*
X12472406Y-10242149D01*
X12357312Y-10328309D01*
X12357309Y-10328312D01*
X12271149Y-10443406D01*
X12271145Y-10443413D01*
X12220903Y-10578120D01*
X12220901Y-10578127D01*
X12214500Y-10637655D01*
X12214500Y-12150000D01*
X11000000Y-12150000D01*
X11000000Y-8824000D01*
X11019685Y-8756961D01*
X11072489Y-8711206D01*
X11124000Y-8700000D01*
X28575500Y-8700000D01*
X28642539Y-8719685D01*
G37*
%TD.AperFunction*%
%TA.AperFunction,Conductor*%
G36*
X27650000Y-17976988D02*
G01*
X27592993Y-17944075D01*
X27465826Y-17910000D01*
X27334174Y-17910000D01*
X27207007Y-17944075D01*
X27150000Y-17976988D01*
X27150000Y-16303012D01*
X27207007Y-16335925D01*
X27334174Y-16370000D01*
X27465826Y-16370000D01*
X27592993Y-16335925D01*
X27650000Y-16303012D01*
X27650000Y-17976988D01*
G37*
%TD.AperFunction*%
%TA.AperFunction,Conductor*%
G36*
X27650000Y-15436988D02*
G01*
X27592993Y-15404075D01*
X27465826Y-15370000D01*
X27334174Y-15370000D01*
X27207007Y-15404075D01*
X27150000Y-15436988D01*
X27150000Y-13763012D01*
X27207007Y-13795925D01*
X27334174Y-13830000D01*
X27465826Y-13830000D01*
X27592993Y-13795925D01*
X27650000Y-13763012D01*
X27650000Y-15436988D01*
G37*
%TD.AperFunction*%
%TA.AperFunction,Conductor*%
G36*
X27650000Y-12896988D02*
G01*
X27592993Y-12864075D01*
X27465826Y-12830000D01*
X27334174Y-12830000D01*
X27207007Y-12864075D01*
X27150000Y-12896988D01*
X27150000Y-11223012D01*
X27207007Y-11255925D01*
X27334174Y-11290000D01*
X27465826Y-11290000D01*
X27592993Y-11255925D01*
X27650000Y-11223012D01*
X27650000Y-12896988D01*
G37*
%TD.AperFunction*%
%TD*%
%TA.AperFunction,Conductor*%
%TO.N,GND*%
G36*
X9177665Y-22768006D02*
G01*
X9201853Y-22795921D01*
X9202137Y-22795702D01*
X9206177Y-22800911D01*
X9206730Y-22801548D01*
X9206917Y-22801865D01*
X9206919Y-22801867D01*
X9206921Y-22801870D01*
X9323127Y-22918076D01*
X9323131Y-22918079D01*
X9323133Y-22918081D01*
X9464600Y-23001744D01*
X9477267Y-23005424D01*
X9622424Y-23047597D01*
X9622427Y-23047597D01*
X9622429Y-23047598D01*
X9659304Y-23050500D01*
X9659312Y-23050500D01*
X10815684Y-23050500D01*
X10815692Y-23050500D01*
X10852567Y-23047598D01*
X10852569Y-23047597D01*
X10852571Y-23047597D01*
X10997731Y-23005424D01*
X11032326Y-23000500D01*
X12525500Y-23000500D01*
X12592539Y-23020185D01*
X12638294Y-23072989D01*
X12649500Y-23124500D01*
X12649500Y-23155448D01*
X12629815Y-23222487D01*
X12613181Y-23243129D01*
X12579661Y-23276648D01*
X12489093Y-23423481D01*
X12489091Y-23423486D01*
X12472155Y-23474596D01*
X12434826Y-23587247D01*
X12434826Y-23587248D01*
X12434825Y-23587248D01*
X12424500Y-23688315D01*
X12424500Y-24286669D01*
X12424501Y-24286687D01*
X12434825Y-24387752D01*
X12468707Y-24490000D01*
X12489092Y-24551516D01*
X12549845Y-24650013D01*
X12579661Y-24698351D01*
X12693982Y-24812672D01*
X12727467Y-24873995D01*
X12722483Y-24943687D01*
X12693983Y-24988034D01*
X12580052Y-25101965D01*
X12489551Y-25248688D01*
X12489546Y-25248699D01*
X12435319Y-25412347D01*
X12425000Y-25513345D01*
X12425000Y-25562500D01*
X14374999Y-25562500D01*
X14374999Y-25513360D01*
X14374998Y-25513345D01*
X14364680Y-25412347D01*
X14310453Y-25248699D01*
X14310448Y-25248688D01*
X14219947Y-25101965D01*
X14219944Y-25101961D01*
X14106017Y-24988034D01*
X14072532Y-24926711D01*
X14077516Y-24857019D01*
X14106013Y-24812676D01*
X14220340Y-24698350D01*
X14310908Y-24551516D01*
X14365174Y-24387753D01*
X14375500Y-24286677D01*
X14375499Y-23688324D01*
X14367785Y-23612812D01*
X14365174Y-23587247D01*
X14365172Y-23587242D01*
X14350984Y-23544425D01*
X14348581Y-23474596D01*
X14384312Y-23414554D01*
X14446832Y-23383361D01*
X14516291Y-23390920D01*
X14556370Y-23417738D01*
X15021586Y-23882954D01*
X15050696Y-23902404D01*
X15094364Y-23931580D01*
X15094366Y-23931583D01*
X15094367Y-23931583D01*
X15144496Y-23965079D01*
X15144511Y-23965087D01*
X15266565Y-24015643D01*
X15281087Y-24021658D01*
X15407874Y-24046878D01*
X15469785Y-24079263D01*
X15504359Y-24139978D01*
X15507041Y-24181097D01*
X15500000Y-24250011D01*
X15500000Y-25550000D01*
X18299999Y-25550000D01*
X18299999Y-25112500D01*
X20450001Y-25112500D01*
X20450001Y-25324986D01*
X20460494Y-25427697D01*
X20515641Y-25594119D01*
X20515643Y-25594124D01*
X20607684Y-25743345D01*
X20731654Y-25867315D01*
X20880875Y-25959356D01*
X20880880Y-25959358D01*
X21047302Y-26014505D01*
X21047309Y-26014506D01*
X21150019Y-26024999D01*
X22049999Y-26024999D01*
X22050000Y-26024998D01*
X22050000Y-25112500D01*
X22550000Y-25112500D01*
X22550000Y-26024999D01*
X23449972Y-26024999D01*
X23449986Y-26024998D01*
X23552697Y-26014505D01*
X23719119Y-25959358D01*
X23719124Y-25959356D01*
X23868345Y-25867315D01*
X23992315Y-25743345D01*
X24084356Y-25594124D01*
X24084358Y-25594119D01*
X24139505Y-25427697D01*
X24139506Y-25427690D01*
X24149999Y-25324986D01*
X24150000Y-25324973D01*
X24150000Y-25112500D01*
X22550000Y-25112500D01*
X22050000Y-25112500D01*
X20450001Y-25112500D01*
X18299999Y-25112500D01*
X18299999Y-24250028D01*
X18299998Y-24250010D01*
X18293572Y-24187101D01*
X18306342Y-24118408D01*
X18354223Y-24067524D01*
X18416930Y-24050500D01*
X20370557Y-24050500D01*
X20437596Y-24070185D01*
X20483351Y-24122989D01*
X20493295Y-24192147D01*
X20488263Y-24213504D01*
X20460494Y-24297302D01*
X20460493Y-24297309D01*
X20450000Y-24400013D01*
X20450000Y-24612500D01*
X22050000Y-24612500D01*
X22050000Y-23700000D01*
X22550000Y-23700000D01*
X22550000Y-24612500D01*
X24149999Y-24612500D01*
X24149999Y-24400028D01*
X24149998Y-24400013D01*
X24139505Y-24297302D01*
X24084358Y-24130880D01*
X24084356Y-24130875D01*
X23992315Y-23981654D01*
X23868345Y-23857684D01*
X23719124Y-23765643D01*
X23719119Y-23765641D01*
X23552697Y-23710494D01*
X23552690Y-23710493D01*
X23449986Y-23700000D01*
X22550000Y-23700000D01*
X22050000Y-23700000D01*
X21698228Y-23700000D01*
X21631189Y-23680315D01*
X21585434Y-23627511D01*
X21575490Y-23558353D01*
X21604515Y-23494797D01*
X21610525Y-23488342D01*
X22162049Y-22936817D01*
X22223372Y-22903333D01*
X22249730Y-22900499D01*
X23304356Y-22900499D01*
X23371395Y-22920184D01*
X23417150Y-22972988D01*
X23423333Y-22989563D01*
X23437410Y-23037504D01*
X23445762Y-23050500D01*
X23515194Y-23158537D01*
X23515202Y-23158548D01*
X23560946Y-23211340D01*
X23560949Y-23211343D01*
X23560953Y-23211347D01*
X23669687Y-23305567D01*
X23669690Y-23305568D01*
X23669691Y-23305569D01*
X23749063Y-23341818D01*
X23800564Y-23365338D01*
X23867603Y-23385023D01*
X23867607Y-23385024D01*
X24010023Y-23405500D01*
X24010026Y-23405500D01*
X25930760Y-23405500D01*
X25997799Y-23425185D01*
X26043554Y-23477989D01*
X26053498Y-23547147D01*
X26027102Y-23604946D01*
X26028125Y-23605712D01*
X26024604Y-23610414D01*
X26024473Y-23610703D01*
X26024043Y-23611164D01*
X25936649Y-23727906D01*
X25936645Y-23727913D01*
X25886403Y-23862620D01*
X25886401Y-23862627D01*
X25880000Y-23922155D01*
X25880000Y-24740000D01*
X26966988Y-24740000D01*
X26934075Y-24797007D01*
X26900000Y-24924174D01*
X26900000Y-25055826D01*
X26934075Y-25182993D01*
X26966988Y-25240000D01*
X25880000Y-25240000D01*
X25880000Y-26057844D01*
X25886401Y-26117372D01*
X25886403Y-26117379D01*
X25936645Y-26252086D01*
X25936649Y-26252093D01*
X26022809Y-26367186D01*
X26143497Y-26457534D01*
X26185368Y-26513468D01*
X26190352Y-26583160D01*
X26167849Y-26628765D01*
X26169357Y-26629860D01*
X26166489Y-26633806D01*
X26041481Y-26837800D01*
X25949924Y-27058839D01*
X25896829Y-27279999D01*
X25896829Y-27280000D01*
X26966988Y-27280000D01*
X26934075Y-27337007D01*
X26900000Y-27464174D01*
X26900000Y-27595826D01*
X26934075Y-27722993D01*
X26966988Y-27780000D01*
X25896829Y-27780000D01*
X25949924Y-28001160D01*
X26041481Y-28222199D01*
X26166489Y-28426193D01*
X26166493Y-28426198D01*
X26321874Y-28608125D01*
X26436130Y-28705710D01*
X26474323Y-28764217D01*
X26474821Y-28834085D01*
X26437467Y-28893131D01*
X26436130Y-28894290D01*
X26321874Y-28991874D01*
X26166493Y-29173801D01*
X26166489Y-29173806D01*
X26041481Y-29377800D01*
X25949924Y-29598839D01*
X25896829Y-29819999D01*
X25896829Y-29820000D01*
X26966988Y-29820000D01*
X26934075Y-29877007D01*
X26900000Y-30004174D01*
X26900000Y-30135826D01*
X26934075Y-30262993D01*
X26966988Y-30320000D01*
X25896829Y-30320000D01*
X25949924Y-30541160D01*
X26041481Y-30762199D01*
X26166489Y-30966193D01*
X26166493Y-30966198D01*
X26321874Y-31148125D01*
X26436130Y-31245710D01*
X26474323Y-31304217D01*
X26474821Y-31374085D01*
X26437467Y-31433131D01*
X26436130Y-31434290D01*
X26321874Y-31531874D01*
X26166493Y-31713801D01*
X26166489Y-31713806D01*
X26041481Y-31917800D01*
X25949924Y-32138839D01*
X25896829Y-32359999D01*
X25896829Y-32360000D01*
X26966988Y-32360000D01*
X26934075Y-32417007D01*
X26900000Y-32544174D01*
X26900000Y-32675826D01*
X26934075Y-32802993D01*
X26966988Y-32860000D01*
X25896829Y-32860000D01*
X25949924Y-33081160D01*
X26041481Y-33302199D01*
X26166489Y-33506193D01*
X26166493Y-33506198D01*
X26321874Y-33688125D01*
X26503801Y-33843506D01*
X26503806Y-33843510D01*
X26707800Y-33968518D01*
X26928843Y-34060076D01*
X27149999Y-34113170D01*
X27150000Y-34113170D01*
X27150000Y-33043012D01*
X27207007Y-33075925D01*
X27334174Y-33110000D01*
X27465826Y-33110000D01*
X27592993Y-33075925D01*
X27650000Y-33043012D01*
X27650000Y-34113170D01*
X27871156Y-34060076D01*
X28092199Y-33968518D01*
X28296193Y-33843510D01*
X28296198Y-33843506D01*
X28478126Y-33688125D01*
X28481207Y-33684518D01*
X28539712Y-33646323D01*
X28609580Y-33645821D01*
X28668628Y-33683173D01*
X28698108Y-33746519D01*
X28699500Y-33765046D01*
X28699500Y-38896753D01*
X28699330Y-38903243D01*
X28683407Y-39207046D01*
X28682050Y-39219953D01*
X28634971Y-39517205D01*
X28632273Y-39529902D01*
X28554374Y-39820623D01*
X28550363Y-39832966D01*
X28442510Y-40113935D01*
X28437231Y-40125793D01*
X28300591Y-40393963D01*
X28294101Y-40405203D01*
X28130187Y-40657608D01*
X28122558Y-40668109D01*
X27933149Y-40902010D01*
X27924464Y-40911655D01*
X27711655Y-41124464D01*
X27702010Y-41133149D01*
X27468109Y-41322558D01*
X27457608Y-41330187D01*
X27205203Y-41494101D01*
X27193963Y-41500591D01*
X26925793Y-41637231D01*
X26913935Y-41642510D01*
X26632966Y-41750363D01*
X26620623Y-41754374D01*
X26329902Y-41832273D01*
X26317205Y-41834971D01*
X26019953Y-41882050D01*
X26007046Y-41883407D01*
X25703244Y-41899330D01*
X25696754Y-41899500D01*
X4503246Y-41899500D01*
X4496756Y-41899330D01*
X4192953Y-41883407D01*
X4180046Y-41882050D01*
X3882794Y-41834971D01*
X3870097Y-41832273D01*
X3579376Y-41754374D01*
X3567033Y-41750363D01*
X3286064Y-41642510D01*
X3274206Y-41637231D01*
X3006036Y-41500591D01*
X2994796Y-41494101D01*
X2742391Y-41330187D01*
X2731890Y-41322558D01*
X2497989Y-41133149D01*
X2488344Y-41124464D01*
X2275535Y-40911655D01*
X2266850Y-40902010D01*
X2077441Y-40668109D01*
X2069812Y-40657608D01*
X2008517Y-40563222D01*
X1905896Y-40405199D01*
X1899408Y-40393963D01*
X1762768Y-40125793D01*
X1757489Y-40113935D01*
X1686994Y-39930289D01*
X1649635Y-39832965D01*
X1645625Y-39820623D01*
X1644626Y-39816895D01*
X1567724Y-39529896D01*
X1565028Y-39517205D01*
X1561685Y-39496100D01*
X1517949Y-39219953D01*
X1516592Y-39207046D01*
X1506857Y-39021288D01*
X2649500Y-39021288D01*
X2681161Y-39261785D01*
X2743947Y-39496104D01*
X2757947Y-39529902D01*
X2836776Y-39720212D01*
X2958064Y-39930289D01*
X2958066Y-39930292D01*
X2958067Y-39930293D01*
X3105733Y-40122736D01*
X3105739Y-40122743D01*
X3277256Y-40294260D01*
X3277262Y-40294265D01*
X3469711Y-40441936D01*
X3679788Y-40563224D01*
X3903900Y-40656054D01*
X4138211Y-40718838D01*
X4318586Y-40742584D01*
X4378711Y-40750500D01*
X4378712Y-40750500D01*
X4621289Y-40750500D01*
X4669388Y-40744167D01*
X4861789Y-40718838D01*
X5096100Y-40656054D01*
X5320212Y-40563224D01*
X5530289Y-40441936D01*
X5722738Y-40294265D01*
X5894265Y-40122738D01*
X6041936Y-39930289D01*
X6163224Y-39720212D01*
X6256054Y-39496100D01*
X6318838Y-39261789D01*
X6350500Y-39021288D01*
X23849500Y-39021288D01*
X23881161Y-39261785D01*
X23943947Y-39496104D01*
X23957947Y-39529902D01*
X24036776Y-39720212D01*
X24158064Y-39930289D01*
X24158066Y-39930292D01*
X24158067Y-39930293D01*
X24305733Y-40122736D01*
X24305739Y-40122743D01*
X24477256Y-40294260D01*
X24477262Y-40294265D01*
X24669711Y-40441936D01*
X24879788Y-40563224D01*
X25103900Y-40656054D01*
X25338211Y-40718838D01*
X25518586Y-40742584D01*
X25578711Y-40750500D01*
X25578712Y-40750500D01*
X25821289Y-40750500D01*
X25869388Y-40744167D01*
X26061789Y-40718838D01*
X26296100Y-40656054D01*
X26520212Y-40563224D01*
X26730289Y-40441936D01*
X26922738Y-40294265D01*
X27094265Y-40122738D01*
X27241936Y-39930289D01*
X27363224Y-39720212D01*
X27456054Y-39496100D01*
X27518838Y-39261789D01*
X27550500Y-39021288D01*
X27550500Y-38778712D01*
X27518838Y-38538211D01*
X27456054Y-38303900D01*
X27363224Y-38079788D01*
X27241936Y-37869711D01*
X27094265Y-37677262D01*
X27094260Y-37677256D01*
X26922743Y-37505739D01*
X26922736Y-37505733D01*
X26730293Y-37358067D01*
X26730292Y-37358066D01*
X26730289Y-37358064D01*
X26520212Y-37236776D01*
X26520205Y-37236773D01*
X26296104Y-37143947D01*
X26061785Y-37081161D01*
X25821289Y-37049500D01*
X25821288Y-37049500D01*
X25578712Y-37049500D01*
X25578711Y-37049500D01*
X25338214Y-37081161D01*
X25103895Y-37143947D01*
X24879794Y-37236773D01*
X24879785Y-37236777D01*
X24669706Y-37358067D01*
X24477263Y-37505733D01*
X24477256Y-37505739D01*
X24305739Y-37677256D01*
X24305733Y-37677263D01*
X24158067Y-37869706D01*
X24036777Y-38079785D01*
X24036773Y-38079794D01*
X23943947Y-38303895D01*
X23881161Y-38538214D01*
X23849500Y-38778711D01*
X23849500Y-39021288D01*
X6350500Y-39021288D01*
X6350500Y-38778712D01*
X6318838Y-38538211D01*
X6256054Y-38303900D01*
X6163224Y-38079788D01*
X6041936Y-37869711D01*
X5894265Y-37677262D01*
X5894260Y-37677256D01*
X5722743Y-37505739D01*
X5722736Y-37505733D01*
X5530293Y-37358067D01*
X5530292Y-37358066D01*
X5530289Y-37358064D01*
X5320212Y-37236776D01*
X5320205Y-37236773D01*
X5096104Y-37143947D01*
X4861785Y-37081161D01*
X4621289Y-37049500D01*
X4621288Y-37049500D01*
X4378712Y-37049500D01*
X4378711Y-37049500D01*
X4138214Y-37081161D01*
X3903895Y-37143947D01*
X3679794Y-37236773D01*
X3679785Y-37236777D01*
X3469706Y-37358067D01*
X3277263Y-37505733D01*
X3277256Y-37505739D01*
X3105739Y-37677256D01*
X3105733Y-37677263D01*
X2958067Y-37869706D01*
X2836777Y-38079785D01*
X2836773Y-38079794D01*
X2743947Y-38303895D01*
X2681161Y-38538214D01*
X2649500Y-38778711D01*
X2649500Y-39021288D01*
X1506857Y-39021288D01*
X1500670Y-38903243D01*
X1500500Y-38896753D01*
X1500500Y-33765046D01*
X1520185Y-33698007D01*
X1572989Y-33652252D01*
X1642147Y-33642308D01*
X1705703Y-33671333D01*
X1718793Y-33684518D01*
X1721873Y-33688125D01*
X1903801Y-33843506D01*
X1903806Y-33843510D01*
X2107800Y-33968518D01*
X2328843Y-34060076D01*
X2549999Y-34113170D01*
X2550000Y-34113170D01*
X2550000Y-33043012D01*
X2607007Y-33075925D01*
X2734174Y-33110000D01*
X2865826Y-33110000D01*
X2992993Y-33075925D01*
X3050000Y-33043012D01*
X3050000Y-34113170D01*
X3271156Y-34060076D01*
X3492199Y-33968518D01*
X3696193Y-33843510D01*
X3696198Y-33843506D01*
X3878125Y-33688125D01*
X4033506Y-33506198D01*
X4033510Y-33506193D01*
X4158518Y-33302199D01*
X4250075Y-33081160D01*
X4303171Y-32860000D01*
X3233012Y-32860000D01*
X3265925Y-32802993D01*
X3300000Y-32675826D01*
X3300000Y-32544174D01*
X3265925Y-32417007D01*
X3233012Y-32360000D01*
X4303171Y-32360000D01*
X4303170Y-32359999D01*
X4250075Y-32138839D01*
X4158518Y-31917800D01*
X4033510Y-31713806D01*
X4033506Y-31713801D01*
X3878123Y-31531871D01*
X3763870Y-31434290D01*
X3725676Y-31375784D01*
X3725177Y-31305916D01*
X3762531Y-31246869D01*
X3763870Y-31245710D01*
X3878123Y-31148128D01*
X4033506Y-30966198D01*
X4033510Y-30966193D01*
X4158518Y-30762199D01*
X4250075Y-30541160D01*
X4303171Y-30320000D01*
X3233012Y-30320000D01*
X3265925Y-30262993D01*
X3300000Y-30135826D01*
X3300000Y-30004174D01*
X3265925Y-29877007D01*
X3233012Y-29820000D01*
X4303171Y-29820000D01*
X4303170Y-29819999D01*
X4250075Y-29598839D01*
X4158518Y-29377800D01*
X4033510Y-29173806D01*
X4033506Y-29173801D01*
X3878123Y-28991871D01*
X3763870Y-28894290D01*
X3725676Y-28835784D01*
X3725177Y-28765916D01*
X3762531Y-28706869D01*
X3763870Y-28705710D01*
X3878123Y-28608128D01*
X4033506Y-28426198D01*
X4033510Y-28426193D01*
X4158518Y-28222199D01*
X4250075Y-28001160D01*
X4303171Y-27780000D01*
X3233012Y-27780000D01*
X3265925Y-27722993D01*
X3300000Y-27595826D01*
X3300000Y-27464174D01*
X3265925Y-27337007D01*
X3233012Y-27280000D01*
X4303171Y-27280000D01*
X4303170Y-27279999D01*
X4250075Y-27058839D01*
X4158518Y-26837800D01*
X4033511Y-26633809D01*
X4030648Y-26629868D01*
X4032592Y-26628455D01*
X4007981Y-26573789D01*
X4018296Y-26504685D01*
X4056501Y-26457535D01*
X4177191Y-26367186D01*
X4263350Y-26252093D01*
X4263354Y-26252086D01*
X4313596Y-26117379D01*
X4313598Y-26117372D01*
X4319999Y-26057844D01*
X4320000Y-26057827D01*
X4320000Y-25240000D01*
X3233012Y-25240000D01*
X3265925Y-25182993D01*
X3300000Y-25055826D01*
X3300000Y-24924174D01*
X3265925Y-24797007D01*
X3233012Y-24740000D01*
X4320000Y-24740000D01*
X4320000Y-23922172D01*
X4319999Y-23922155D01*
X4313598Y-23862627D01*
X4313596Y-23862620D01*
X4263354Y-23727913D01*
X4263350Y-23727906D01*
X4177190Y-23612812D01*
X4177187Y-23612809D01*
X4064921Y-23528766D01*
X4023050Y-23472832D01*
X4018066Y-23403141D01*
X4051552Y-23341818D01*
X4112875Y-23308334D01*
X4139232Y-23305500D01*
X5270500Y-23305500D01*
X5337539Y-23325185D01*
X5383294Y-23377989D01*
X5394500Y-23429500D01*
X5394500Y-30076000D01*
X5394501Y-30076009D01*
X5406052Y-30183450D01*
X5406054Y-30183462D01*
X5417260Y-30234972D01*
X5451383Y-30337497D01*
X5451386Y-30337503D01*
X5529171Y-30458537D01*
X5529179Y-30458548D01*
X5574923Y-30511340D01*
X5574926Y-30511343D01*
X5574930Y-30511347D01*
X5683664Y-30605567D01*
X5683667Y-30605568D01*
X5683668Y-30605569D01*
X5778536Y-30648895D01*
X5814541Y-30665338D01*
X5881580Y-30685023D01*
X5881584Y-30685024D01*
X6024000Y-30705500D01*
X6024003Y-30705500D01*
X6657672Y-30705500D01*
X6675654Y-30705179D01*
X6675664Y-30705178D01*
X6675699Y-30705178D01*
X6684545Y-30704862D01*
X6702562Y-30703896D01*
X6843154Y-30673312D01*
X6908618Y-30648895D01*
X7034893Y-30579944D01*
X7136633Y-30478207D01*
X7178505Y-30422274D01*
X7178511Y-30422266D01*
X7247464Y-30295985D01*
X7252433Y-30273139D01*
X7285917Y-30211819D01*
X7347240Y-30178333D01*
X7373599Y-30175499D01*
X7786668Y-30175499D01*
X7786674Y-30175499D01*
X7887751Y-30165174D01*
X8051514Y-30110908D01*
X8198348Y-30020340D01*
X8312317Y-29906371D01*
X8373640Y-29872886D01*
X8443332Y-29877870D01*
X8487679Y-29906371D01*
X8601648Y-30020340D01*
X8748482Y-30110908D01*
X8912245Y-30165174D01*
X9013321Y-30175500D01*
X9611674Y-30175499D01*
X9611682Y-30175498D01*
X9611685Y-30175498D01*
X9667028Y-30169844D01*
X9712751Y-30165174D01*
X9876514Y-30110908D01*
X10023348Y-30020340D01*
X10145338Y-29898350D01*
X10235906Y-29751516D01*
X10290172Y-29587753D01*
X10300498Y-29486677D01*
X10300497Y-28913324D01*
X10290172Y-28812247D01*
X10235906Y-28648484D01*
X10145338Y-28501650D01*
X10023348Y-28379660D01*
X9876514Y-28289092D01*
X9712751Y-28234826D01*
X9712749Y-28234825D01*
X9611682Y-28224500D01*
X9611675Y-28224500D01*
X9484498Y-28224500D01*
X9417459Y-28204815D01*
X9371704Y-28152011D01*
X9360498Y-28100500D01*
X9360498Y-27323771D01*
X9380183Y-27256732D01*
X9432987Y-27210977D01*
X9502145Y-27201033D01*
X9565701Y-27230058D01*
X9590037Y-27258675D01*
X9657680Y-27368343D01*
X9781652Y-27492315D01*
X9930873Y-27584356D01*
X9930878Y-27584358D01*
X10097300Y-27639505D01*
X10097307Y-27639506D01*
X10200017Y-27649999D01*
X10412497Y-27649999D01*
X10412498Y-27649998D01*
X10412498Y-26050000D01*
X10912498Y-26050000D01*
X10912498Y-27649999D01*
X11124970Y-27649999D01*
X11124984Y-27649998D01*
X11227695Y-27639505D01*
X11394117Y-27584358D01*
X11394122Y-27584356D01*
X11543343Y-27492315D01*
X11667313Y-27368345D01*
X11759354Y-27219124D01*
X11759356Y-27219119D01*
X11814503Y-27052697D01*
X11814504Y-27052690D01*
X11824997Y-26949986D01*
X11824998Y-26949973D01*
X11824998Y-26062500D01*
X12425001Y-26062500D01*
X12425001Y-26111654D01*
X12435319Y-26212652D01*
X12489546Y-26376300D01*
X12489551Y-26376311D01*
X12580052Y-26523034D01*
X12580055Y-26523038D01*
X12701961Y-26644944D01*
X12701965Y-26644947D01*
X12848688Y-26735448D01*
X12848699Y-26735453D01*
X13012347Y-26789680D01*
X13113352Y-26799999D01*
X13150000Y-26799999D01*
X13150000Y-26062500D01*
X13650000Y-26062500D01*
X13650000Y-26799999D01*
X13686640Y-26799999D01*
X13686654Y-26799998D01*
X13787652Y-26789680D01*
X13951300Y-26735453D01*
X13951311Y-26735448D01*
X14098034Y-26644947D01*
X14098038Y-26644944D01*
X14219944Y-26523038D01*
X14219947Y-26523034D01*
X14310448Y-26376311D01*
X14310453Y-26376300D01*
X14364680Y-26212652D01*
X14374999Y-26111654D01*
X14375000Y-26111641D01*
X14375000Y-26062500D01*
X13650000Y-26062500D01*
X13150000Y-26062500D01*
X12425001Y-26062500D01*
X11824998Y-26062500D01*
X11824998Y-26050000D01*
X15500001Y-26050000D01*
X15500001Y-27349986D01*
X15510494Y-27452697D01*
X15565641Y-27619119D01*
X15565643Y-27619124D01*
X15657684Y-27768345D01*
X15781654Y-27892315D01*
X15930875Y-27984356D01*
X15930880Y-27984358D01*
X16097302Y-28039505D01*
X16097309Y-28039506D01*
X16200019Y-28049999D01*
X16649999Y-28049999D01*
X16650000Y-28049998D01*
X16650000Y-26050000D01*
X17150000Y-26050000D01*
X17150000Y-28049999D01*
X17599972Y-28049999D01*
X17599986Y-28049998D01*
X17702697Y-28039505D01*
X17869119Y-27984358D01*
X17869124Y-27984356D01*
X18018345Y-27892315D01*
X18142315Y-27768345D01*
X18234356Y-27619124D01*
X18234358Y-27619119D01*
X18289505Y-27452697D01*
X18289506Y-27452690D01*
X18299999Y-27349986D01*
X18300000Y-27349973D01*
X18300000Y-26050000D01*
X17150000Y-26050000D01*
X16650000Y-26050000D01*
X15500001Y-26050000D01*
X11824998Y-26050000D01*
X10912498Y-26050000D01*
X10412498Y-26050000D01*
X10412498Y-23950000D01*
X10912498Y-23950000D01*
X10912498Y-25550000D01*
X11824997Y-25550000D01*
X11824997Y-24650028D01*
X11824996Y-24650013D01*
X11814503Y-24547302D01*
X11759356Y-24380880D01*
X11759354Y-24380875D01*
X11667313Y-24231654D01*
X11543343Y-24107684D01*
X11394122Y-24015643D01*
X11394117Y-24015641D01*
X11227695Y-23960494D01*
X11227688Y-23960493D01*
X11124984Y-23950000D01*
X10912498Y-23950000D01*
X10412498Y-23950000D01*
X10200027Y-23950000D01*
X10200010Y-23950001D01*
X10097300Y-23960494D01*
X9930878Y-24015641D01*
X9930873Y-24015643D01*
X9781652Y-24107684D01*
X9657680Y-24231656D01*
X9582870Y-24352942D01*
X9530922Y-24399666D01*
X9461959Y-24410887D01*
X9397877Y-24383044D01*
X9359022Y-24324975D01*
X9355715Y-24312035D01*
X9339726Y-24231654D01*
X9331656Y-24191085D01*
X9310487Y-24139978D01*
X9275085Y-24054509D01*
X9275078Y-24054496D01*
X9192950Y-23931583D01*
X9144319Y-23882952D01*
X9088414Y-23827047D01*
X8749317Y-23487949D01*
X8715832Y-23426626D01*
X8712998Y-23400268D01*
X8712998Y-23085718D01*
X8732683Y-23018679D01*
X8773878Y-22978986D01*
X8876856Y-22918085D01*
X8876855Y-22918085D01*
X8876863Y-22918081D01*
X8993079Y-22801865D01*
X8993265Y-22801549D01*
X8993475Y-22801353D01*
X8997859Y-22795702D01*
X8998770Y-22796409D01*
X9044334Y-22753866D01*
X9113075Y-22741362D01*
X9177665Y-22768006D01*
G37*
%TD.AperFunction*%
%TA.AperFunction,Conductor*%
G36*
X3050000Y-32176988D02*
G01*
X2992993Y-32144075D01*
X2865826Y-32110000D01*
X2734174Y-32110000D01*
X2607007Y-32144075D01*
X2550000Y-32176988D01*
X2550000Y-30503012D01*
X2607007Y-30535925D01*
X2734174Y-30570000D01*
X2865826Y-30570000D01*
X2992993Y-30535925D01*
X3050000Y-30503012D01*
X3050000Y-32176988D01*
G37*
%TD.AperFunction*%
%TA.AperFunction,Conductor*%
G36*
X27650000Y-32176988D02*
G01*
X27592993Y-32144075D01*
X27465826Y-32110000D01*
X27334174Y-32110000D01*
X27207007Y-32144075D01*
X27150000Y-32176988D01*
X27150000Y-30503012D01*
X27207007Y-30535925D01*
X27334174Y-30570000D01*
X27465826Y-30570000D01*
X27592993Y-30535925D01*
X27650000Y-30503012D01*
X27650000Y-32176988D01*
G37*
%TD.AperFunction*%
%TA.AperFunction,Conductor*%
G36*
X3050000Y-29636988D02*
G01*
X2992993Y-29604075D01*
X2865826Y-29570000D01*
X2734174Y-29570000D01*
X2607007Y-29604075D01*
X2550000Y-29636988D01*
X2550000Y-27963012D01*
X2607007Y-27995925D01*
X2734174Y-28030000D01*
X2865826Y-28030000D01*
X2992993Y-27995925D01*
X3050000Y-27963012D01*
X3050000Y-29636988D01*
G37*
%TD.AperFunction*%
%TA.AperFunction,Conductor*%
G36*
X27650000Y-29636988D02*
G01*
X27592993Y-29604075D01*
X27465826Y-29570000D01*
X27334174Y-29570000D01*
X27207007Y-29604075D01*
X27150000Y-29636988D01*
X27150000Y-27963012D01*
X27207007Y-27995925D01*
X27334174Y-28030000D01*
X27465826Y-28030000D01*
X27592993Y-27995925D01*
X27650000Y-27963012D01*
X27650000Y-29636988D01*
G37*
%TD.AperFunction*%
%TA.AperFunction,Conductor*%
G36*
X3050000Y-27096988D02*
G01*
X2992993Y-27064075D01*
X2865826Y-27030000D01*
X2734174Y-27030000D01*
X2607007Y-27064075D01*
X2550000Y-27096988D01*
X2550000Y-25423012D01*
X2607007Y-25455925D01*
X2734174Y-25490000D01*
X2865826Y-25490000D01*
X2992993Y-25455925D01*
X3050000Y-25423012D01*
X3050000Y-27096988D01*
G37*
%TD.AperFunction*%
%TA.AperFunction,Conductor*%
G36*
X27650000Y-27096988D02*
G01*
X27592993Y-27064075D01*
X27465826Y-27030000D01*
X27334174Y-27030000D01*
X27207007Y-27064075D01*
X27150000Y-27096988D01*
X27150000Y-25423012D01*
X27207007Y-25455925D01*
X27334174Y-25490000D01*
X27465826Y-25490000D01*
X27592993Y-25455925D01*
X27650000Y-25423012D01*
X27650000Y-27096988D01*
G37*
%TD.AperFunction*%
%TA.AperFunction,Conductor*%
G36*
X14937539Y-17525185D02*
G01*
X14983294Y-17577989D01*
X14994500Y-17629500D01*
X14994500Y-18689996D01*
X14994820Y-18707978D01*
X14995139Y-18716894D01*
X14996103Y-18734880D01*
X14996105Y-18734895D01*
X15026686Y-18875471D01*
X15026688Y-18875478D01*
X15041847Y-18916122D01*
X15051105Y-18940943D01*
X15051107Y-18940947D01*
X15080257Y-18994331D01*
X15120056Y-19067217D01*
X15221793Y-19168957D01*
X15277726Y-19210829D01*
X15277734Y-19210835D01*
X15404015Y-19279788D01*
X15404021Y-19279789D01*
X15412327Y-19282888D01*
X15411660Y-19284673D01*
X15463175Y-19312797D01*
X15496664Y-19374118D01*
X15499500Y-19400485D01*
X15499500Y-20426393D01*
X15479815Y-20493432D01*
X15427011Y-20539187D01*
X15357853Y-20549131D01*
X15294297Y-20520106D01*
X15287513Y-20513139D01*
X15287260Y-20513393D01*
X14411818Y-19637950D01*
X14378333Y-19576627D01*
X14375499Y-19550269D01*
X14375499Y-19388330D01*
X14375498Y-19388313D01*
X14365174Y-19287247D01*
X14358700Y-19267710D01*
X14310908Y-19123484D01*
X14220340Y-18976650D01*
X14098350Y-18854660D01*
X13951516Y-18764092D01*
X13787753Y-18709826D01*
X13787751Y-18709825D01*
X13686678Y-18699500D01*
X13113330Y-18699500D01*
X13113312Y-18699501D01*
X13012247Y-18709825D01*
X12848484Y-18764092D01*
X12848481Y-18764093D01*
X12701648Y-18854661D01*
X12579661Y-18976648D01*
X12489093Y-19123481D01*
X12489091Y-19123486D01*
X12482407Y-19143657D01*
X12434826Y-19287247D01*
X12434826Y-19287248D01*
X12434825Y-19287248D01*
X12424500Y-19388315D01*
X12424500Y-19986669D01*
X12424501Y-19986687D01*
X12434825Y-20087752D01*
X12489092Y-20251515D01*
X12489093Y-20251518D01*
X12579661Y-20398351D01*
X12693629Y-20512319D01*
X12727114Y-20573642D01*
X12722130Y-20643334D01*
X12693629Y-20687681D01*
X12579661Y-20801648D01*
X12489093Y-20948481D01*
X12489092Y-20948484D01*
X12434826Y-21112247D01*
X12434826Y-21112248D01*
X12434825Y-21112248D01*
X12424500Y-21213315D01*
X12424500Y-21375270D01*
X12404815Y-21442309D01*
X12388181Y-21462951D01*
X12387951Y-21463181D01*
X12326628Y-21496666D01*
X12300270Y-21499500D01*
X11032326Y-21499500D01*
X10997731Y-21494576D01*
X10852571Y-21452402D01*
X10852565Y-21452401D01*
X10815699Y-21449500D01*
X10815692Y-21449500D01*
X10111498Y-21449500D01*
X10044459Y-21429815D01*
X9998704Y-21377011D01*
X9987498Y-21325500D01*
X9987498Y-21274500D01*
X10007183Y-21207461D01*
X10059987Y-21161706D01*
X10111498Y-21150500D01*
X10815684Y-21150500D01*
X10815692Y-21150500D01*
X10852567Y-21147598D01*
X10852569Y-21147597D01*
X10852571Y-21147597D01*
X10894189Y-21135505D01*
X11010396Y-21101744D01*
X11068692Y-21067268D01*
X11131813Y-21050000D01*
X11397293Y-21050000D01*
X11397293Y-21049998D01*
X11397098Y-21047511D01*
X11397097Y-21047505D01*
X11351281Y-20889806D01*
X11351279Y-20889801D01*
X11350576Y-20888612D01*
X11350308Y-20887558D01*
X11348182Y-20882644D01*
X11348974Y-20882300D01*
X11333393Y-20820888D01*
X11349007Y-20767714D01*
X11348644Y-20767557D01*
X11349918Y-20764612D01*
X11350577Y-20762369D01*
X11351740Y-20760401D01*
X11351742Y-20760398D01*
X11397596Y-20602569D01*
X11400498Y-20565694D01*
X11400498Y-20134306D01*
X11397596Y-20097431D01*
X11394784Y-20087753D01*
X11351743Y-19939606D01*
X11351742Y-19939603D01*
X11351742Y-19939602D01*
X11268079Y-19798135D01*
X11268077Y-19798133D01*
X11268074Y-19798129D01*
X11151868Y-19681923D01*
X11151860Y-19681917D01*
X11010394Y-19598255D01*
X10977403Y-19588670D01*
X10918518Y-19551063D01*
X10889313Y-19487590D01*
X10888000Y-19469594D01*
X10888000Y-19371248D01*
X10907685Y-19304209D01*
X10938996Y-19273471D01*
X10937987Y-19272195D01*
X10943654Y-19267713D01*
X10943653Y-19267713D01*
X10943656Y-19267712D01*
X11067712Y-19143656D01*
X11159814Y-18994334D01*
X11214999Y-18827797D01*
X11225500Y-18725009D01*
X11225499Y-17674992D01*
X11222139Y-17642101D01*
X11234908Y-17573410D01*
X11282789Y-17522525D01*
X11345497Y-17505500D01*
X14870500Y-17505500D01*
X14937539Y-17525185D01*
G37*
%TD.AperFunction*%
%TD*%
%TA.AperFunction,NonConductor*%
G36*
X25703244Y-1500670D02*
G01*
X26007046Y-1516592D01*
X26019953Y-1517949D01*
X26151089Y-1538718D01*
X26317209Y-1565028D01*
X26329896Y-1567724D01*
X26620625Y-1645625D01*
X26632965Y-1649635D01*
X26913938Y-1757490D01*
X26925790Y-1762767D01*
X27193968Y-1899411D01*
X27205199Y-1905896D01*
X27457608Y-2069812D01*
X27468109Y-2077441D01*
X27702010Y-2266850D01*
X27711655Y-2275535D01*
X27924464Y-2488344D01*
X27933149Y-2497989D01*
X28122558Y-2731890D01*
X28130187Y-2742391D01*
X28294101Y-2994796D01*
X28300591Y-3006036D01*
X28437231Y-3274206D01*
X28442510Y-3286064D01*
X28550363Y-3567033D01*
X28554374Y-3579376D01*
X28632273Y-3870097D01*
X28634971Y-3882794D01*
X28682050Y-4180046D01*
X28683407Y-4192953D01*
X28699330Y-4496756D01*
X28699500Y-4503246D01*
X28699500Y-8076000D01*
X28679815Y-8143039D01*
X28627011Y-8188794D01*
X28575500Y-8200000D01*
X1624500Y-8200000D01*
X1557461Y-8180315D01*
X1511706Y-8127511D01*
X1500500Y-8076000D01*
X1500500Y-4621288D01*
X2649500Y-4621288D01*
X2681161Y-4861785D01*
X2743947Y-5096104D01*
X2836773Y-5320205D01*
X2836776Y-5320212D01*
X2958064Y-5530289D01*
X2958066Y-5530292D01*
X2958067Y-5530293D01*
X3105733Y-5722736D01*
X3105739Y-5722743D01*
X3277256Y-5894260D01*
X3277262Y-5894265D01*
X3469711Y-6041936D01*
X3679788Y-6163224D01*
X3903900Y-6256054D01*
X4138211Y-6318838D01*
X4318586Y-6342584D01*
X4378711Y-6350500D01*
X4378712Y-6350500D01*
X4621289Y-6350500D01*
X4669388Y-6344167D01*
X4861789Y-6318838D01*
X5096100Y-6256054D01*
X5320212Y-6163224D01*
X5530289Y-6041936D01*
X5722738Y-5894265D01*
X5894265Y-5722738D01*
X6041936Y-5530289D01*
X6163224Y-5320212D01*
X6256054Y-5096100D01*
X6318838Y-4861789D01*
X6350500Y-4621288D01*
X23849500Y-4621288D01*
X23881161Y-4861785D01*
X23943947Y-5096104D01*
X24036773Y-5320205D01*
X24036776Y-5320212D01*
X24158064Y-5530289D01*
X24158066Y-5530292D01*
X24158067Y-5530293D01*
X24305733Y-5722736D01*
X24305739Y-5722743D01*
X24477256Y-5894260D01*
X24477262Y-5894265D01*
X24669711Y-6041936D01*
X24879788Y-6163224D01*
X25103900Y-6256054D01*
X25338211Y-6318838D01*
X25518586Y-6342584D01*
X25578711Y-6350500D01*
X25578712Y-6350500D01*
X25821289Y-6350500D01*
X25869388Y-6344167D01*
X26061789Y-6318838D01*
X26296100Y-6256054D01*
X26520212Y-6163224D01*
X26730289Y-6041936D01*
X26922738Y-5894265D01*
X27094265Y-5722738D01*
X27241936Y-5530289D01*
X27363224Y-5320212D01*
X27456054Y-5096100D01*
X27518838Y-4861789D01*
X27550500Y-4621288D01*
X27550500Y-4378712D01*
X27518838Y-4138211D01*
X27456054Y-3903900D01*
X27363224Y-3679788D01*
X27241936Y-3469711D01*
X27094265Y-3277262D01*
X27094260Y-3277256D01*
X26922743Y-3105739D01*
X26922736Y-3105733D01*
X26730293Y-2958067D01*
X26730292Y-2958066D01*
X26730289Y-2958064D01*
X26520212Y-2836776D01*
X26520205Y-2836773D01*
X26296104Y-2743947D01*
X26061785Y-2681161D01*
X25821289Y-2649500D01*
X25821288Y-2649500D01*
X25578712Y-2649500D01*
X25578711Y-2649500D01*
X25338214Y-2681161D01*
X25103895Y-2743947D01*
X24879794Y-2836773D01*
X24879785Y-2836777D01*
X24669706Y-2958067D01*
X24477263Y-3105733D01*
X24477256Y-3105739D01*
X24305739Y-3277256D01*
X24305733Y-3277263D01*
X24158067Y-3469706D01*
X24036777Y-3679785D01*
X24036773Y-3679794D01*
X23943947Y-3903895D01*
X23881161Y-4138214D01*
X23849500Y-4378711D01*
X23849500Y-4621288D01*
X6350500Y-4621288D01*
X6350500Y-4378712D01*
X6318838Y-4138211D01*
X6256054Y-3903900D01*
X6163224Y-3679788D01*
X6041936Y-3469711D01*
X5894265Y-3277262D01*
X5894260Y-3277256D01*
X5722743Y-3105739D01*
X5722736Y-3105733D01*
X5530293Y-2958067D01*
X5530292Y-2958066D01*
X5530289Y-2958064D01*
X5320212Y-2836776D01*
X5320205Y-2836773D01*
X5096104Y-2743947D01*
X4861785Y-2681161D01*
X4621289Y-2649500D01*
X4621288Y-2649500D01*
X4378712Y-2649500D01*
X4378711Y-2649500D01*
X4138214Y-2681161D01*
X3903895Y-2743947D01*
X3679794Y-2836773D01*
X3679785Y-2836777D01*
X3469706Y-2958067D01*
X3277263Y-3105733D01*
X3277256Y-3105739D01*
X3105739Y-3277256D01*
X3105733Y-3277263D01*
X2958067Y-3469706D01*
X2836777Y-3679785D01*
X2836773Y-3679794D01*
X2743947Y-3903895D01*
X2681161Y-4138214D01*
X2649500Y-4378711D01*
X2649500Y-4621288D01*
X1500500Y-4621288D01*
X1500500Y-4503246D01*
X1500670Y-4496756D01*
X1516592Y-4192953D01*
X1517949Y-4180046D01*
X1554904Y-3946715D01*
X1565029Y-3882786D01*
X1567723Y-3870107D01*
X1645627Y-3579368D01*
X1649636Y-3567033D01*
X1757493Y-3286054D01*
X1762763Y-3274215D01*
X1899415Y-3006023D01*
X1905891Y-2994808D01*
X2069819Y-2742380D01*
X2077434Y-2731899D01*
X2266858Y-2497979D01*
X2275525Y-2488354D01*
X2488354Y-2275525D01*
X2497979Y-2266858D01*
X2731899Y-2077434D01*
X2742380Y-2069819D01*
X2994808Y-1905891D01*
X3006023Y-1899415D01*
X3274215Y-1762763D01*
X3286054Y-1757493D01*
X3567040Y-1649633D01*
X3579368Y-1645627D01*
X3870107Y-1567723D01*
X3882786Y-1565029D01*
X4180046Y-1517949D01*
X4192951Y-1516592D01*
X4496756Y-1500669D01*
X4503246Y-1500500D01*
X4565892Y-1500500D01*
X25634108Y-1500500D01*
X25696754Y-1500500D01*
X25703244Y-1500670D01*
G37*
%TD.AperFunction*%
M02*
