G04 #@! TF.GenerationSoftware,KiCad,Pcbnew,9.0.7*
G04 #@! TF.CreationDate,2026-03-11T09:13:10-04:00*
G04 #@! TF.ProjectId,lcd_3digit,6c63645f-3364-4696-9769-742e6b696361,rev?*
G04 #@! TF.SameCoordinates,PX8677d40PY2bde780*
G04 #@! TF.FileFunction,Copper,L2,Bot*
G04 #@! TF.FilePolarity,Positive*
%FSLAX46Y46*%
G04 Gerber Fmt 4.6, Leading zero omitted, Abs format (unit mm)*
G04 Created by KiCad (PCBNEW 9.0.7) date 2026-03-11 09:13:10*
%MOMM*%
%LPD*%
G01*
G04 APERTURE LIST*
G04 Aperture macros list*
%AMRoundRect*
0 Rectangle with rounded corners*
0 $1 Rounding radius*
0 $2 $3 $4 $5 $6 $7 $8 $9 X,Y pos of 4 corners*
0 Add a 4 corners polygon primitive as box body*
4,1,4,$2,$3,$4,$5,$6,$7,$8,$9,$2,$3,0*
0 Add four circle primitives for the rounded corners*
1,1,$1+$1,$2,$3*
1,1,$1+$1,$4,$5*
1,1,$1+$1,$6,$7*
1,1,$1+$1,$8,$9*
0 Add four rect primitives between the rounded corners*
20,1,$1+$1,$2,$3,$4,$5,0*
20,1,$1+$1,$4,$5,$6,$7,0*
20,1,$1+$1,$6,$7,$8,$9,0*
20,1,$1+$1,$8,$9,$2,$3,0*%
G04 Aperture macros list end*
G04 #@! TA.AperFunction,ComponentPad*
%ADD10O,2.040000X3.000000*%
G04 #@! TD*
G04 #@! TA.AperFunction,ComponentPad*
%ADD11R,2.040000X3.000000*%
G04 #@! TD*
G04 #@! TA.AperFunction,SMDPad,CuDef*
%ADD12RoundRect,0.225000X0.525000X1.775000X-0.525000X1.775000X-0.525000X-1.775000X0.525000X-1.775000X0*%
G04 #@! TD*
G04 #@! TA.AperFunction,Conductor*
%ADD13C,1.000000*%
G04 #@! TD*
G04 APERTURE END LIST*
D10*
G04 #@! TO.P,J1,1,Pin_1*
G04 #@! TO.N,Net-(D1-COM1)*
X14080000Y-4000000D03*
G04 #@! TO.P,J1,2,Pin_2*
G04 #@! TO.N,Net-(D1-COM2)*
X11540000Y-4000000D03*
G04 #@! TO.P,J1,3,Pin_3*
G04 #@! TO.N,Net-(D1-COM3)*
X9000000Y-4000000D03*
G04 #@! TO.P,J1,4,Pin_4*
G04 #@! TO.N,Net-(D1-COM4)*
X6460000Y-4000000D03*
G04 #@! TO.P,J1,5,Pin_5*
G04 #@! TO.N,Net-(J1-Pin_5)*
X3920000Y-4000000D03*
G04 #@! TD*
G04 #@! TO.P,J2,2,Pin_2*
G04 #@! TO.N,Net-(J2-Pin_2)*
X11540000Y-24000000D03*
D11*
G04 #@! TO.P,J2,1,Pin_1*
G04 #@! TO.N,Net-(J2-Pin_1)*
X14080000Y-24000000D03*
D10*
G04 #@! TO.P,J2,3,Pin_3*
G04 #@! TO.N,Net-(J2-Pin_3)*
X9000000Y-24000000D03*
G04 #@! TO.P,J2,4,Pin_4*
G04 #@! TO.N,Net-(J2-Pin_4)*
X6460000Y-24000000D03*
G04 #@! TO.P,J2,5,Pin_5*
G04 #@! TO.N,Net-(J2-Pin_5)*
X3920000Y-24000000D03*
G04 #@! TD*
D12*
G04 #@! TO.P,D1,1*
G04 #@! TO.N,Net-(J2-Pin_1)*
X13000000Y-19000000D03*
G04 #@! TO.P,D1,2*
G04 #@! TO.N,Net-(J2-Pin_2)*
X11000000Y-19000000D03*
G04 #@! TO.P,D1,3*
G04 #@! TO.N,Net-(J2-Pin_3)*
X9000000Y-19000000D03*
G04 #@! TO.P,D1,4*
G04 #@! TO.N,Net-(J2-Pin_4)*
X7000000Y-19000000D03*
G04 #@! TO.P,D1,5*
G04 #@! TO.N,Net-(J2-Pin_5)*
X5000000Y-19000000D03*
G04 #@! TO.P,D1,6*
G04 #@! TO.N,Net-(J1-Pin_5)*
X5000000Y-9000000D03*
G04 #@! TO.P,D1,7,COM4*
G04 #@! TO.N,Net-(D1-COM4)*
X7000000Y-9000000D03*
G04 #@! TO.P,D1,8,COM3*
G04 #@! TO.N,Net-(D1-COM3)*
X9000000Y-9000000D03*
G04 #@! TO.P,D1,9,COM2*
G04 #@! TO.N,Net-(D1-COM2)*
X11000000Y-9000000D03*
G04 #@! TO.P,D1,10,COM1*
G04 #@! TO.N,Net-(D1-COM1)*
X13000000Y-9000000D03*
G04 #@! TD*
D13*
G04 #@! TO.N,Net-(J2-Pin_1)*
X13000000Y-19000000D02*
X14080000Y-20080000D01*
X14080000Y-20080000D02*
X14080000Y-24000000D01*
G04 #@! TO.N,Net-(J2-Pin_5)*
X5000000Y-19000000D02*
X3920000Y-20080000D01*
X3920000Y-20080000D02*
X3920000Y-24000000D01*
G04 #@! TO.N,Net-(J2-Pin_4)*
X7000000Y-19000000D02*
X7000000Y-23460000D01*
X7000000Y-23460000D02*
X6460000Y-24000000D01*
G04 #@! TO.N,Net-(J2-Pin_2)*
X11000000Y-19000000D02*
X11000000Y-23460000D01*
X11000000Y-23460000D02*
X11540000Y-24000000D01*
G04 #@! TO.N,Net-(J2-Pin_3)*
X9000000Y-19000000D02*
X9000000Y-24000000D01*
G04 #@! TO.N,Net-(J1-Pin_5)*
X5000000Y-9000000D02*
X3920000Y-7920000D01*
X3920000Y-7920000D02*
X3920000Y-4000000D01*
G04 #@! TO.N,Net-(D1-COM4)*
X7000000Y-9000000D02*
X7000000Y-4540000D01*
X7000000Y-4540000D02*
X6460000Y-4000000D01*
G04 #@! TO.N,Net-(D1-COM3)*
X9000000Y-9000000D02*
X9000000Y-4000000D01*
G04 #@! TO.N,Net-(D1-COM2)*
X11000000Y-9000000D02*
X11000000Y-4540000D01*
X11000000Y-4540000D02*
X11540000Y-4000000D01*
G04 #@! TO.N,Net-(D1-COM1)*
X13000000Y-9000000D02*
X14080000Y-7920000D01*
X14080000Y-7920000D02*
X14080000Y-4000000D01*
G04 #@! TD*
G04 #@! TA.AperFunction,NonConductor*
G36*
X16345788Y-1519454D02*
G01*
X16426570Y-1573430D01*
X16480546Y-1654212D01*
X16499500Y-1749500D01*
X16499500Y-26250500D01*
X16480546Y-26345788D01*
X16426570Y-26426570D01*
X16345788Y-26480546D01*
X16250500Y-26499500D01*
X1749500Y-26499500D01*
X1654212Y-26480546D01*
X1573430Y-26426570D01*
X1519454Y-26345788D01*
X1500500Y-26250500D01*
X1500500Y-23400338D01*
X2399500Y-23400338D01*
X2399500Y-24599661D01*
X2399501Y-24599677D01*
X2436937Y-24836045D01*
X2436939Y-24836051D01*
X2510895Y-25063665D01*
X2510899Y-25063675D01*
X2619551Y-25276915D01*
X2619552Y-25276916D01*
X2760227Y-25470539D01*
X2929461Y-25639773D01*
X3123084Y-25780448D01*
X3336330Y-25889103D01*
X3563949Y-25963061D01*
X3563952Y-25963061D01*
X3563954Y-25963062D01*
X3723902Y-25988394D01*
X3800334Y-26000500D01*
X3800338Y-26000500D01*
X4039662Y-26000500D01*
X4039666Y-26000500D01*
X4276051Y-25963061D01*
X4503670Y-25889103D01*
X4716916Y-25780448D01*
X4910539Y-25639773D01*
X5013933Y-25536378D01*
X5094712Y-25482405D01*
X5190000Y-25463451D01*
X5285288Y-25482405D01*
X5366066Y-25536378D01*
X5469461Y-25639773D01*
X5663084Y-25780448D01*
X5876330Y-25889103D01*
X6103949Y-25963061D01*
X6103952Y-25963061D01*
X6103954Y-25963062D01*
X6263902Y-25988394D01*
X6340334Y-26000500D01*
X6340338Y-26000500D01*
X6579662Y-26000500D01*
X6579666Y-26000500D01*
X6816051Y-25963061D01*
X7043670Y-25889103D01*
X7256916Y-25780448D01*
X7450539Y-25639773D01*
X7553933Y-25536378D01*
X7634712Y-25482405D01*
X7730000Y-25463451D01*
X7825288Y-25482405D01*
X7906066Y-25536378D01*
X8009461Y-25639773D01*
X8203084Y-25780448D01*
X8416330Y-25889103D01*
X8643949Y-25963061D01*
X8643952Y-25963061D01*
X8643954Y-25963062D01*
X8803902Y-25988394D01*
X8880334Y-26000500D01*
X8880338Y-26000500D01*
X9119662Y-26000500D01*
X9119666Y-26000500D01*
X9356051Y-25963061D01*
X9583670Y-25889103D01*
X9796916Y-25780448D01*
X9990539Y-25639773D01*
X10093933Y-25536378D01*
X10174712Y-25482405D01*
X10270000Y-25463451D01*
X10365288Y-25482405D01*
X10446066Y-25536378D01*
X10549461Y-25639773D01*
X10743084Y-25780448D01*
X10956330Y-25889103D01*
X11183949Y-25963061D01*
X11183952Y-25963061D01*
X11183954Y-25963062D01*
X11343902Y-25988394D01*
X11420334Y-26000500D01*
X11420338Y-26000500D01*
X11659662Y-26000500D01*
X11659666Y-26000500D01*
X11896051Y-25963061D01*
X12123670Y-25889103D01*
X12336916Y-25780448D01*
X12337705Y-25779875D01*
X12338299Y-25779601D01*
X12345261Y-25775335D01*
X12345765Y-25776158D01*
X12425935Y-25739198D01*
X12523015Y-25735382D01*
X12614166Y-25769007D01*
X12683400Y-25832093D01*
X12702454Y-25857546D01*
X12817669Y-25943796D01*
X12952517Y-25994091D01*
X13012127Y-26000500D01*
X15147872Y-26000499D01*
X15207483Y-25994091D01*
X15342331Y-25943796D01*
X15457546Y-25857546D01*
X15543796Y-25742331D01*
X15594091Y-25607483D01*
X15600500Y-25547873D01*
X15600499Y-22452128D01*
X15594091Y-22392517D01*
X15543796Y-22257669D01*
X15457546Y-22142454D01*
X15342331Y-22056204D01*
X15342330Y-22056203D01*
X15342328Y-22056202D01*
X15242483Y-22018962D01*
X15159826Y-21967903D01*
X15103001Y-21889100D01*
X15080659Y-21794549D01*
X15080500Y-21785662D01*
X15080500Y-19981460D01*
X15080499Y-19981455D01*
X15074121Y-19949388D01*
X15074121Y-19949389D01*
X15042052Y-19788165D01*
X14966632Y-19606086D01*
X14857140Y-19442219D01*
X14717780Y-19302859D01*
X14323429Y-18908507D01*
X14269453Y-18827726D01*
X14250499Y-18732438D01*
X14250499Y-17176657D01*
X14250499Y-17176655D01*
X14240349Y-17077292D01*
X14187003Y-16916303D01*
X14097968Y-16771956D01*
X13978044Y-16652032D01*
X13833697Y-16562997D01*
X13672708Y-16509651D01*
X13573345Y-16499500D01*
X13573341Y-16499500D01*
X12426657Y-16499500D01*
X12357222Y-16506593D01*
X12327292Y-16509651D01*
X12327290Y-16509651D01*
X12327286Y-16509652D01*
X12166307Y-16562994D01*
X12130717Y-16584947D01*
X12039664Y-16618838D01*
X11942574Y-16615304D01*
X11869283Y-16584947D01*
X11833697Y-16562997D01*
X11672708Y-16509651D01*
X11573345Y-16499500D01*
X11573341Y-16499500D01*
X10426657Y-16499500D01*
X10357222Y-16506593D01*
X10327292Y-16509651D01*
X10327290Y-16509651D01*
X10327286Y-16509652D01*
X10166307Y-16562994D01*
X10130717Y-16584947D01*
X10039664Y-16618838D01*
X9942574Y-16615304D01*
X9869283Y-16584947D01*
X9833697Y-16562997D01*
X9672708Y-16509651D01*
X9573345Y-16499500D01*
X9573341Y-16499500D01*
X8426657Y-16499500D01*
X8357222Y-16506593D01*
X8327292Y-16509651D01*
X8327290Y-16509651D01*
X8327286Y-16509652D01*
X8166307Y-16562994D01*
X8130717Y-16584947D01*
X8039664Y-16618838D01*
X7942574Y-16615304D01*
X7869283Y-16584947D01*
X7833697Y-16562997D01*
X7672708Y-16509651D01*
X7573345Y-16499500D01*
X7573341Y-16499500D01*
X6426657Y-16499500D01*
X6357222Y-16506593D01*
X6327292Y-16509651D01*
X6327290Y-16509651D01*
X6327286Y-16509652D01*
X6166307Y-16562994D01*
X6130717Y-16584947D01*
X6039664Y-16618838D01*
X5942574Y-16615304D01*
X5869283Y-16584947D01*
X5833697Y-16562997D01*
X5672708Y-16509651D01*
X5573345Y-16499500D01*
X5573341Y-16499500D01*
X4426657Y-16499500D01*
X4357222Y-16506593D01*
X4327292Y-16509651D01*
X4327290Y-16509651D01*
X4327286Y-16509652D01*
X4166306Y-16562995D01*
X4021958Y-16652030D01*
X3902030Y-16771958D01*
X3812997Y-16916303D01*
X3759651Y-17077293D01*
X3759651Y-17077294D01*
X3749500Y-17176652D01*
X3749500Y-18732439D01*
X3730546Y-18827727D01*
X3676570Y-18908509D01*
X3282220Y-19302859D01*
X3282218Y-19302861D01*
X3282217Y-19302860D01*
X3142862Y-19442216D01*
X3142860Y-19442219D01*
X3033369Y-19606084D01*
X3033365Y-19606091D01*
X2957949Y-19788164D01*
X2957947Y-19788169D01*
X2919500Y-19981454D01*
X2919500Y-22267048D01*
X2900546Y-22362336D01*
X2846571Y-22443117D01*
X2760225Y-22529463D01*
X2619551Y-22723084D01*
X2510899Y-22936324D01*
X2510895Y-22936334D01*
X2436939Y-23163948D01*
X2436937Y-23163954D01*
X2399501Y-23400322D01*
X2399500Y-23400338D01*
X1500500Y-23400338D01*
X1500500Y-3400338D01*
X2399500Y-3400338D01*
X2399500Y-4599661D01*
X2399501Y-4599677D01*
X2436937Y-4836045D01*
X2436939Y-4836051D01*
X2510895Y-5063665D01*
X2510899Y-5063675D01*
X2619551Y-5276915D01*
X2619552Y-5276916D01*
X2760227Y-5470539D01*
X2846572Y-5556884D01*
X2900546Y-5637663D01*
X2919500Y-5732951D01*
X2919500Y-8018545D01*
X2957947Y-8211830D01*
X2957949Y-8211835D01*
X3033365Y-8393908D01*
X3033366Y-8393909D01*
X3033368Y-8393914D01*
X3142861Y-8557782D01*
X3282218Y-8697139D01*
X3282220Y-8697140D01*
X3676573Y-9091494D01*
X3730546Y-9172271D01*
X3749500Y-9267559D01*
X3749500Y-10823342D01*
X3759652Y-10922713D01*
X3812995Y-11083693D01*
X3812996Y-11083695D01*
X3812997Y-11083697D01*
X3902032Y-11228044D01*
X4021956Y-11347968D01*
X4166303Y-11437003D01*
X4327292Y-11490349D01*
X4426655Y-11500500D01*
X5573344Y-11500499D01*
X5672708Y-11490349D01*
X5833697Y-11437003D01*
X5869283Y-11415052D01*
X5960332Y-11381162D01*
X6057423Y-11384694D01*
X6130715Y-11415052D01*
X6166303Y-11437003D01*
X6327292Y-11490349D01*
X6426655Y-11500500D01*
X7573344Y-11500499D01*
X7672708Y-11490349D01*
X7833697Y-11437003D01*
X7869283Y-11415052D01*
X7960332Y-11381162D01*
X8057423Y-11384694D01*
X8130715Y-11415052D01*
X8166303Y-11437003D01*
X8327292Y-11490349D01*
X8426655Y-11500500D01*
X9573344Y-11500499D01*
X9672708Y-11490349D01*
X9833697Y-11437003D01*
X9869283Y-11415052D01*
X9960332Y-11381162D01*
X10057423Y-11384694D01*
X10130715Y-11415052D01*
X10166303Y-11437003D01*
X10327292Y-11490349D01*
X10426655Y-11500500D01*
X11573344Y-11500499D01*
X11672708Y-11490349D01*
X11833697Y-11437003D01*
X11869283Y-11415052D01*
X11960332Y-11381162D01*
X12057423Y-11384694D01*
X12130715Y-11415052D01*
X12166303Y-11437003D01*
X12327292Y-11490349D01*
X12426655Y-11500500D01*
X13573344Y-11500499D01*
X13672708Y-11490349D01*
X13833697Y-11437003D01*
X13978044Y-11347968D01*
X14097968Y-11228044D01*
X14187003Y-11083697D01*
X14240349Y-10922708D01*
X14250500Y-10823345D01*
X14250499Y-9267558D01*
X14269453Y-9172271D01*
X14323429Y-9091490D01*
X14323430Y-9091489D01*
X14703591Y-8711329D01*
X14857140Y-8557781D01*
X14966632Y-8393914D01*
X15042052Y-8211835D01*
X15080500Y-8018540D01*
X15080500Y-7821459D01*
X15080500Y-5732951D01*
X15099454Y-5637663D01*
X15153427Y-5556884D01*
X15239773Y-5470539D01*
X15380448Y-5276916D01*
X15489103Y-5063670D01*
X15563061Y-4836051D01*
X15600500Y-4599666D01*
X15600500Y-3400334D01*
X15563061Y-3163949D01*
X15489103Y-2936330D01*
X15380448Y-2723084D01*
X15239773Y-2529461D01*
X15070539Y-2360227D01*
X14876916Y-2219552D01*
X14876917Y-2219552D01*
X14876915Y-2219551D01*
X14663675Y-2110899D01*
X14663665Y-2110895D01*
X14436051Y-2036939D01*
X14436045Y-2036937D01*
X14199677Y-1999501D01*
X14199668Y-1999500D01*
X14199666Y-1999500D01*
X13960334Y-1999500D01*
X13960331Y-1999500D01*
X13960322Y-1999501D01*
X13723954Y-2036937D01*
X13723948Y-2036939D01*
X13496334Y-2110895D01*
X13496324Y-2110899D01*
X13283084Y-2219551D01*
X13089464Y-2360224D01*
X13089461Y-2360226D01*
X13089461Y-2360227D01*
X12986066Y-2463621D01*
X12905288Y-2517595D01*
X12810000Y-2536549D01*
X12714712Y-2517595D01*
X12633933Y-2463621D01*
X12530539Y-2360227D01*
X12336916Y-2219552D01*
X12336917Y-2219552D01*
X12336915Y-2219551D01*
X12123675Y-2110899D01*
X12123665Y-2110895D01*
X11896051Y-2036939D01*
X11896045Y-2036937D01*
X11659677Y-1999501D01*
X11659668Y-1999500D01*
X11659666Y-1999500D01*
X11420334Y-1999500D01*
X11420331Y-1999500D01*
X11420322Y-1999501D01*
X11183954Y-2036937D01*
X11183948Y-2036939D01*
X10956334Y-2110895D01*
X10956324Y-2110899D01*
X10743084Y-2219551D01*
X10549464Y-2360224D01*
X10549461Y-2360226D01*
X10549461Y-2360227D01*
X10446066Y-2463621D01*
X10365288Y-2517595D01*
X10270000Y-2536549D01*
X10174712Y-2517595D01*
X10093933Y-2463621D01*
X9990539Y-2360227D01*
X9796916Y-2219552D01*
X9796917Y-2219552D01*
X9796915Y-2219551D01*
X9583675Y-2110899D01*
X9583665Y-2110895D01*
X9356051Y-2036939D01*
X9356045Y-2036937D01*
X9119677Y-1999501D01*
X9119668Y-1999500D01*
X9119666Y-1999500D01*
X8880334Y-1999500D01*
X8880331Y-1999500D01*
X8880322Y-1999501D01*
X8643954Y-2036937D01*
X8643948Y-2036939D01*
X8416334Y-2110895D01*
X8416324Y-2110899D01*
X8203084Y-2219551D01*
X8009464Y-2360224D01*
X8009461Y-2360226D01*
X8009461Y-2360227D01*
X7906066Y-2463621D01*
X7825288Y-2517595D01*
X7730000Y-2536549D01*
X7634712Y-2517595D01*
X7553933Y-2463621D01*
X7450539Y-2360227D01*
X7256916Y-2219552D01*
X7256917Y-2219552D01*
X7256915Y-2219551D01*
X7043675Y-2110899D01*
X7043665Y-2110895D01*
X6816051Y-2036939D01*
X6816045Y-2036937D01*
X6579677Y-1999501D01*
X6579668Y-1999500D01*
X6579666Y-1999500D01*
X6340334Y-1999500D01*
X6340331Y-1999500D01*
X6340322Y-1999501D01*
X6103954Y-2036937D01*
X6103948Y-2036939D01*
X5876334Y-2110895D01*
X5876324Y-2110899D01*
X5663084Y-2219551D01*
X5469464Y-2360224D01*
X5469461Y-2360226D01*
X5469461Y-2360227D01*
X5366066Y-2463621D01*
X5285288Y-2517595D01*
X5190000Y-2536549D01*
X5094712Y-2517595D01*
X5013933Y-2463621D01*
X4910539Y-2360227D01*
X4716916Y-2219552D01*
X4716917Y-2219552D01*
X4716915Y-2219551D01*
X4503675Y-2110899D01*
X4503665Y-2110895D01*
X4276051Y-2036939D01*
X4276045Y-2036937D01*
X4039677Y-1999501D01*
X4039668Y-1999500D01*
X4039666Y-1999500D01*
X3800334Y-1999500D01*
X3800331Y-1999500D01*
X3800322Y-1999501D01*
X3563954Y-2036937D01*
X3563948Y-2036939D01*
X3336334Y-2110895D01*
X3336324Y-2110899D01*
X3123084Y-2219551D01*
X2929464Y-2360224D01*
X2760224Y-2529464D01*
X2619551Y-2723084D01*
X2510899Y-2936324D01*
X2510895Y-2936334D01*
X2436939Y-3163948D01*
X2436937Y-3163954D01*
X2399501Y-3400322D01*
X2399500Y-3400338D01*
X1500500Y-3400338D01*
X1500500Y-1749500D01*
X1519454Y-1654212D01*
X1573430Y-1573430D01*
X1654212Y-1519454D01*
X1749500Y-1500500D01*
X16250500Y-1500500D01*
X16345788Y-1519454D01*
G37*
G04 #@! TD.AperFunction*
M02*
