M48
; DRILL file {KiCad 8.0.3} date 2024-06-24T15:37:04-0400
; FORMAT={-:-/ absolute / inch / decimal}
; #@! TF.CreationDate,2024-06-24T15:37:04-04:00
; #@! TF.GenerationSoftware,Kicad,Pcbnew,8.0.3
; #@! TF.FileFunction,MixedPlating,1,2
FMAT,2
INCH
; #@! TA.AperFunction,Plated,PTH,ComponentDrill
T1C0.0315
; #@! TA.AperFunction,Plated,PTH,ComponentDrill
T2C0.0394
; #@! TA.AperFunction,Plated,PTH,ComponentDrill
T3C0.0630
; #@! TA.AperFunction,NonPlated,NPTH,ComponentDrill
T4C0.1260
%
G90
G05
T1
X0.3161Y-0.4795
X0.3331Y-1.0823
X0.3335Y-0.5815
X0.3335Y-0.9815
X0.4358Y-0.9606
X0.5343Y-0.9606
X0.7161Y-0.4795
X0.7331Y-1.0823
T2
X0.3457Y-0.3476
X0.3626Y-1.2142
X0.3626Y-1.4165
X0.4457Y-0.3476
X0.4626Y-1.2142
X0.4626Y-1.4165
X0.5457Y-0.3476
X0.5626Y-1.2142
X0.5626Y-1.4165
X0.6457Y-0.3476
X0.6626Y-1.2142
X0.6626Y-1.4165
X0.9587Y-1.2111
X0.9587Y-1.408
X0.9646Y-0.431
X0.9646Y-0.6279
X1.2437Y-0.3189
X1.2437Y-0.4189
X1.2437Y-0.5189
X1.2437Y-0.6189
T3
X1.2783Y-0.7646
X1.2783Y-1.3646
T4
X0.1772Y-0.1772
X0.1772Y-1.5748
X1.437Y-0.1772
X1.437Y-1.5748
M30
