M48
; DRILL file {KiCad 8.0.1} date 2024-04-12T18:06:20-0400
; FORMAT={-:-/ absolute / inch / decimal}
; #@! TF.CreationDate,2024-04-12T18:06:20-04:00
; #@! TF.GenerationSoftware,Kicad,Pcbnew,8.0.1
; #@! TF.FileFunction,MixedPlating,1,2
FMAT,2
INCH
; #@! TA.AperFunction,Plated,PTH,ComponentDrill
T1C0.0315
; #@! TA.AperFunction,Plated,PTH,ComponentDrill
T2C0.0354
; #@! TA.AperFunction,Plated,PTH,ComponentDrill
T3C0.0394
%
G90
G05
T1
X0.4331Y-0.715
X0.6299Y-0.715
T2
X0.4252Y-1.4699
X0.4252Y-1.5699
T3
X0.1315Y-0.1319
X0.1315Y-0.2319
X0.1315Y-0.3319
X0.1315Y-0.4319
X0.1315Y-0.6762
X0.1315Y-0.7762
X0.1315Y-0.8762
X0.1315Y-0.9762
X0.1315Y-1.0762
X0.1315Y-1.1762
X0.1315Y-1.2762
X0.1315Y-1.3762
X0.1315Y-1.4762
X0.1315Y-1.5762
X0.4309Y-0.1319
X0.5309Y-0.1319
X0.6309Y-0.1319
X0.9315Y-0.1319
X0.9315Y-0.2319
X0.9315Y-0.3319
X0.9315Y-0.4319
X0.9315Y-0.6762
X0.9315Y-0.7762
X0.9315Y-0.8762
X0.9315Y-0.9762
X0.9315Y-1.0762
X0.9315Y-1.1762
X0.9315Y-1.2762
X0.9315Y-1.3762
X0.9315Y-1.4762
X0.9315Y-1.5762
M30
