%TF.GenerationSoftware,KiCad,Pcbnew,8.0.1*%
%TF.CreationDate,2024-04-05T10:51:27-04:00*%
%TF.ProjectId,attiny416_breakout,61747469-6e79-4343-9136-5f627265616b,rev?*%
%TF.SameCoordinates,PX822d320PY4417a40*%
%TF.FileFunction,Copper,L2,Bot*%
%TF.FilePolarity,Positive*%
%FSLAX46Y46*%
G04 Gerber Fmt 4.6, Leading zero omitted, Abs format (unit mm)*
G04 Created by KiCad (PCBNEW 8.0.1) date 2024-04-05 10:51:27*
%MOMM*%
%LPD*%
G01*
G04 APERTURE LIST*
G04 Aperture macros list*
%AMRoundRect*
0 Rectangle with rounded corners*
0 $1 Rounding radius*
0 $2 $3 $4 $5 $6 $7 $8 $9 X,Y pos of 4 corners*
0 Add a 4 corners polygon primitive as box body*
4,1,4,$2,$3,$4,$5,$6,$7,$8,$9,$2,$3,0*
0 Add four circle primitives for the rounded corners*
1,1,$1+$1,$2,$3*
1,1,$1+$1,$4,$5*
1,1,$1+$1,$6,$7*
1,1,$1+$1,$8,$9*
0 Add four rect primitives between the rounded corners*
20,1,$1+$1,$2,$3,$4,$5,0*
20,1,$1+$1,$4,$5,$6,$7,0*
20,1,$1+$1,$6,$7,$8,$9,0*
20,1,$1+$1,$8,$9,$2,$3,0*%
G04 Aperture macros list end*
%TA.AperFunction,ComponentPad*%
%ADD10C,1.800000*%
%TD*%
%TA.AperFunction,ComponentPad*%
%ADD11R,1.800000X1.800000*%
%TD*%
%TA.AperFunction,ComponentPad*%
%ADD12C,1.600000*%
%TD*%
%TA.AperFunction,ComponentPad*%
%ADD13R,2.040000X2.040000*%
%TD*%
%TA.AperFunction,ComponentPad*%
%ADD14O,2.040000X2.040000*%
%TD*%
%TA.AperFunction,SMDPad,CuDef*%
%ADD15RoundRect,0.150000X0.875000X0.150000X-0.875000X0.150000X-0.875000X-0.150000X0.875000X-0.150000X0*%
%TD*%
%TA.AperFunction,SMDPad,CuDef*%
%ADD16RoundRect,0.237500X-0.237500X0.250000X-0.237500X-0.250000X0.237500X-0.250000X0.237500X0.250000X0*%
%TD*%
%TA.AperFunction,Conductor*%
%ADD17C,0.600000*%
%TD*%
G04 APERTURE END LIST*
D10*
%TO.P,D1,2,A*%
%TO.N,+5V*%
X10800000Y-37335000D03*
D11*
%TO.P,D1,1,K*%
%TO.N,Net-(D1-K)*%
X10800000Y-39875000D03*
%TD*%
D12*
%TO.P,C1,1*%
%TO.N,+5V*%
X16000000Y-18160000D03*
%TO.P,C1,2*%
%TO.N,GND*%
X11000000Y-18160000D03*
%TD*%
D13*
%TO.P,J2,1,Pin_1*%
%TO.N,+5V*%
X23660000Y-3350000D03*
D14*
%TO.P,J2,2,Pin_2*%
X23660000Y-5890000D03*
%TO.P,J2,3,Pin_3*%
X23660000Y-8430000D03*
%TO.P,J2,4,Pin_4*%
X23660000Y-10970000D03*
%TD*%
D13*
%TO.P,J4,1,Pin_1*%
%TO.N,+5V*%
X23660000Y-17175000D03*
D14*
%TO.P,J4,2,Pin_2*%
%TO.N,/PA4*%
X23660000Y-19715000D03*
%TO.P,J4,3,Pin_3*%
%TO.N,/PA5*%
X23660000Y-22255000D03*
%TO.P,J4,4,Pin_4*%
%TO.N,/PA6*%
X23660000Y-24795000D03*
%TO.P,J4,5,Pin_5*%
%TO.N,/PA7*%
X23660000Y-27335000D03*
%TO.P,J4,6,Pin_6*%
%TO.N,/PB5*%
X23660000Y-29875000D03*
%TO.P,J4,7,Pin_7*%
%TO.N,/PB4*%
X23660000Y-32415000D03*
%TO.P,J4,8,Pin_8*%
%TO.N,/PB3*%
X23660000Y-34955000D03*
%TO.P,J4,9,Pin_9*%
%TO.N,/PB2*%
X23660000Y-37495000D03*
%TO.P,J4,10,Pin_10*%
%TO.N,/PB1*%
X23660000Y-40035000D03*
%TD*%
%TO.P,J1,3,Pin_3*%
%TO.N,GND*%
X10945000Y-3350000D03*
%TO.P,J1,2,Pin_2*%
%TO.N,/UPDI*%
X13485000Y-3350000D03*
D13*
%TO.P,J1,1,Pin_1*%
%TO.N,+5V*%
X16025000Y-3350000D03*
%TD*%
%TO.P,J3,1,Pin_1*%
%TO.N,GND*%
X3340000Y-3350000D03*
D14*
%TO.P,J3,2,Pin_2*%
X3340000Y-5890000D03*
%TO.P,J3,3,Pin_3*%
X3340000Y-8430000D03*
%TO.P,J3,4,Pin_4*%
X3340000Y-10970000D03*
%TD*%
D13*
%TO.P,J5,1,Pin_1*%
%TO.N,GND*%
X3340000Y-17175000D03*
D14*
%TO.P,J5,2,Pin_2*%
%TO.N,/PA3*%
X3340000Y-19715000D03*
%TO.P,J5,3,Pin_3*%
%TO.N,/PA2*%
X3340000Y-22255000D03*
%TO.P,J5,4,Pin_4*%
%TO.N,/PA1*%
X3340000Y-24795000D03*
%TO.P,J5,5,Pin_5*%
%TO.N,unconnected-(J5-Pin_5-Pad5)*%
X3340000Y-27335000D03*
%TO.P,J5,6,Pin_6*%
%TO.N,/PC3*%
X3340000Y-29875000D03*
%TO.P,J5,7,Pin_7*%
%TO.N,/PC2*%
X3340000Y-32415000D03*
%TO.P,J5,8,Pin_8*%
%TO.N,/PC1*%
X3340000Y-34955000D03*
%TO.P,J5,9,Pin_9*%
%TO.N,/PC0*%
X3340000Y-37495000D03*
%TO.P,J5,10,Pin_10*%
%TO.N,/PB0*%
X3340000Y-40035000D03*
%TD*%
D15*
%TO.P,U1,1,VCC*%
%TO.N,+5V*%
X18150000Y-22885000D03*
%TO.P,U1,2,PA4*%
%TO.N,/PA4*%
X18150000Y-24155000D03*
%TO.P,U1,3,PA5*%
%TO.N,/PA5*%
X18150000Y-25425000D03*
%TO.P,U1,4,PA6*%
%TO.N,/PA6*%
X18150000Y-26695000D03*
%TO.P,U1,5,PA7*%
%TO.N,/PA7*%
X18150000Y-27965000D03*
%TO.P,U1,6,PB5*%
%TO.N,/PB5*%
X18150000Y-29235000D03*
%TO.P,U1,7,PB4*%
%TO.N,/PB4*%
X18150000Y-30505000D03*
%TO.P,U1,8,PB3*%
%TO.N,/PB3*%
X18150000Y-31775000D03*
%TO.P,U1,9,PB2*%
%TO.N,/PB2*%
X18150000Y-33045000D03*
%TO.P,U1,10,PB1*%
%TO.N,/PB1*%
X18150000Y-34315000D03*
%TO.P,U1,11,PB0*%
%TO.N,/PB0*%
X8850000Y-34315000D03*
%TO.P,U1,12,PC0*%
%TO.N,/PC0*%
X8850000Y-33045000D03*
%TO.P,U1,13,PC1*%
%TO.N,/PC1*%
X8850000Y-31775000D03*
%TO.P,U1,14,PC2*%
%TO.N,/PC2*%
X8850000Y-30505000D03*
%TO.P,U1,15,PC3*%
%TO.N,/PC3*%
X8850000Y-29235000D03*
%TO.P,U1,16,~{RESET}/PA0*%
%TO.N,/UPDI*%
X8850000Y-27965000D03*
%TO.P,U1,17,PA1*%
%TO.N,/PA1*%
X8850000Y-26695000D03*
%TO.P,U1,18,PA2*%
%TO.N,/PA2*%
X8850000Y-25425000D03*
%TO.P,U1,19,PA3*%
%TO.N,/PA3*%
X8850000Y-24155000D03*
%TO.P,U1,20,GND*%
%TO.N,GND*%
X8850000Y-22885000D03*
%TD*%
D16*
%TO.P,R1,1*%
%TO.N,/PB5*%
X15300000Y-37587500D03*
%TO.P,R1,2*%
%TO.N,Net-(D1-K)*%
X15300000Y-39412500D03*
%TD*%
D17*
%TO.N,GND*%
X11000000Y-18160000D02*
X11000000Y-22200000D01*
X11000000Y-22200000D02*
X10315000Y-22885000D01*
X10315000Y-22885000D02*
X8850000Y-22885000D01*
X3340000Y-3350000D02*
X10945000Y-3350000D01*
X3340000Y-5890000D02*
X3340000Y-3350000D01*
X3340000Y-8430000D02*
X3340000Y-5890000D01*
X3340000Y-10970000D02*
X3340000Y-8430000D01*
X3340000Y-17175000D02*
X3340000Y-10970000D01*
X3340000Y-17175000D02*
X10015000Y-17175000D01*
X10015000Y-17175000D02*
X11000000Y-18160000D01*
%TO.N,+5V*%
X23660000Y-17175000D02*
X16985000Y-17175000D01*
X16985000Y-17175000D02*
X16000000Y-18160000D01*
X18150000Y-22885000D02*
X16385000Y-22885000D01*
X16385000Y-22885000D02*
X16000000Y-22500000D01*
X10800000Y-37335000D02*
X14244000Y-33891000D01*
X14244000Y-33891000D02*
X14244000Y-24256000D01*
X14244000Y-24256000D02*
X16000000Y-22500000D01*
X16000000Y-22500000D02*
X16000000Y-18160000D01*
X23660000Y-10970000D02*
X23660000Y-17175000D01*
X23660000Y-8430000D02*
X23660000Y-10970000D01*
X23660000Y-5890000D02*
X23660000Y-8430000D01*
X23660000Y-3350000D02*
X23660000Y-5890000D01*
X16025000Y-3350000D02*
X23660000Y-3350000D01*
%TO.N,/UPDI*%
X11900000Y-25106590D02*
X11900000Y-27200000D01*
X13485000Y-23521590D02*
X11900000Y-25106590D01*
X13485000Y-3350000D02*
X13485000Y-23521590D01*
X11900000Y-27200000D02*
X11135000Y-27965000D01*
X11135000Y-27965000D02*
X8850000Y-27965000D01*
%TO.N,Net-(D1-K)*%
X10800000Y-39875000D02*
X14837500Y-39875000D01*
X14837500Y-39875000D02*
X15300000Y-39412500D01*
%TO.N,/PB5*%
X15300000Y-37587500D02*
X15300000Y-30200000D01*
X16265000Y-29235000D02*
X18150000Y-29235000D01*
X15300000Y-30200000D02*
X16265000Y-29235000D01*
%TO.N,/PB2*%
X19210000Y-33045000D02*
X23660000Y-37495000D01*
X18150000Y-33045000D02*
X19210000Y-33045000D01*
%TO.N,/PA7*%
X18150000Y-27965000D02*
X23030000Y-27965000D01*
X23030000Y-27965000D02*
X23660000Y-27335000D01*
%TO.N,/PB3*%
X18150000Y-31775000D02*
X20480000Y-31775000D01*
X20480000Y-31775000D02*
X23660000Y-34955000D01*
%TO.N,/PA6*%
X21760000Y-26695000D02*
X23660000Y-24795000D01*
X18150000Y-26695000D02*
X21760000Y-26695000D01*
%TO.N,/PB4*%
X18150000Y-30505000D02*
X21750000Y-30505000D01*
X21750000Y-30505000D02*
X23660000Y-32415000D01*
%TO.N,/PB1*%
X23660000Y-39271000D02*
X23660000Y-40035000D01*
X21884000Y-38230644D02*
X22924356Y-39271000D01*
X21884000Y-37212410D02*
X21884000Y-38230644D01*
X18150000Y-34315000D02*
X18986590Y-34315000D01*
X18986590Y-34315000D02*
X21884000Y-37212410D01*
X22924356Y-39271000D02*
X23660000Y-39271000D01*
%TO.N,/PB5*%
X18150000Y-29235000D02*
X23020000Y-29235000D01*
X23020000Y-29235000D02*
X23660000Y-29875000D01*
%TO.N,/PA5*%
X18150000Y-25425000D02*
X20490000Y-25425000D01*
X20490000Y-25425000D02*
X23660000Y-22255000D01*
%TO.N,/PA4*%
X18150000Y-24155000D02*
X19220000Y-24155000D01*
X19220000Y-24155000D02*
X23660000Y-19715000D01*
%TO.N,/PA3*%
X7780000Y-24155000D02*
X3340000Y-19715000D01*
X8850000Y-24155000D02*
X7780000Y-24155000D01*
%TO.N,/PA1*%
X7333180Y-26695000D02*
X5433180Y-24795000D01*
X8850000Y-26695000D02*
X7333180Y-26695000D01*
X5433180Y-24795000D02*
X3340000Y-24795000D01*
%TO.N,/PC1*%
X3345000Y-34955000D02*
X3340000Y-34955000D01*
X8850000Y-31775000D02*
X6525000Y-31775000D01*
X6525000Y-31775000D02*
X3345000Y-34955000D01*
%TO.N,/PC0*%
X7790000Y-33045000D02*
X3340000Y-37495000D01*
X8850000Y-33045000D02*
X7790000Y-33045000D01*
%TO.N,/PC2*%
X8850000Y-30505000D02*
X5250000Y-30505000D01*
X5250000Y-30505000D02*
X3340000Y-32415000D01*
%TO.N,/PB0*%
X8850000Y-34315000D02*
X8013410Y-34315000D01*
X3340000Y-39271000D02*
X3340000Y-40035000D01*
X4075644Y-39271000D02*
X3340000Y-39271000D01*
X8013410Y-34315000D02*
X5116000Y-37212410D01*
X5116000Y-38230644D02*
X4075644Y-39271000D01*
X5116000Y-37212410D02*
X5116000Y-38230644D01*
%TO.N,/PC3*%
X3980000Y-29235000D02*
X3340000Y-29875000D01*
X8850000Y-29235000D02*
X3980000Y-29235000D01*
%TO.N,/PA2*%
X7556590Y-25425000D02*
X4386590Y-22255000D01*
X4386590Y-22255000D02*
X3340000Y-22255000D01*
X8850000Y-25425000D02*
X7556590Y-25425000D01*
%TD*%
M02*
