%TF.GenerationSoftware,KiCad,Pcbnew,8.0.6*%
%TF.CreationDate,2024-11-22T18:19:45-05:00*%
%TF.ProjectId,triple_555,74726970-6c65-45f3-9535-352e6b696361,rev?*%
%TF.SameCoordinates,PX75c75e0PY4add0a0*%
%TF.FileFunction,Copper,L2,Bot*%
%TF.FilePolarity,Positive*%
%FSLAX46Y46*%
G04 Gerber Fmt 4.6, Leading zero omitted, Abs format (unit mm)*
G04 Created by KiCad (PCBNEW 8.0.6) date 2024-11-22 18:19:45*
%MOMM*%
%LPD*%
G01*
G04 APERTURE LIST*
%TA.AperFunction,ComponentPad*%
%ADD10R,1.600000X1.600000*%
%TD*%
%TA.AperFunction,ComponentPad*%
%ADD11O,1.600000X1.600000*%
%TD*%
%TA.AperFunction,ComponentPad*%
%ADD12C,1.600000*%
%TD*%
%TA.AperFunction,ComponentPad*%
%ADD13O,1.700000X1.700000*%
%TD*%
%TA.AperFunction,ComponentPad*%
%ADD14R,1.700000X1.700000*%
%TD*%
%TA.AperFunction,ComponentPad*%
%ADD15C,1.800000*%
%TD*%
%TA.AperFunction,ComponentPad*%
%ADD16R,1.800000X1.800000*%
%TD*%
%TA.AperFunction,Conductor*%
%ADD17C,0.800000*%
%TD*%
G04 APERTURE END LIST*
D10*
%TO.P,U3,1,GND*%
%TO.N,GND*%
X32700000Y-25300000D03*
D11*
%TO.P,U3,2,TR*%
%TO.N,Net-(U3-THR)*%
X35240000Y-25300000D03*
%TO.P,U3,3,Q*%
%TO.N,Net-(U3-Q)*%
X37780000Y-25300000D03*
%TO.P,U3,4,R*%
%TO.N,VCC*%
X40320000Y-25300000D03*
%TO.P,U3,5,CV*%
%TO.N,unconnected-(U3-CV-Pad5)*%
X40320000Y-17680000D03*
%TO.P,U3,6,THR*%
%TO.N,Net-(U3-THR)*%
X37780000Y-17680000D03*
%TO.P,U3,7,DIS*%
%TO.N,Net-(U3-DIS)*%
X35240000Y-17680000D03*
%TO.P,U3,8,VCC*%
%TO.N,VCC*%
X32700000Y-17680000D03*
%TD*%
%TO.P,U2,8,VCC*%
%TO.N,VCC*%
X21700000Y-17680000D03*
%TO.P,U2,7,DIS*%
%TO.N,Net-(U2-DIS)*%
X24240000Y-17680000D03*
%TO.P,U2,6,THR*%
%TO.N,Net-(U2-THR)*%
X26780000Y-17680000D03*
%TO.P,U2,5,CV*%
%TO.N,unconnected-(U2-CV-Pad5)*%
X29320000Y-17680000D03*
%TO.P,U2,4,R*%
%TO.N,VCC*%
X29320000Y-25300000D03*
%TO.P,U2,3,Q*%
%TO.N,Net-(U2-Q)*%
X26780000Y-25300000D03*
%TO.P,U2,2,TR*%
%TO.N,Net-(U2-THR)*%
X24240000Y-25300000D03*
D10*
%TO.P,U2,1,GND*%
%TO.N,GND*%
X21700000Y-25300000D03*
%TD*%
D11*
%TO.P,U1,8,VCC*%
%TO.N,VCC*%
X10700000Y-17680000D03*
%TO.P,U1,7,DIS*%
%TO.N,Net-(U1-DIS)*%
X13240000Y-17680000D03*
%TO.P,U1,6,THR*%
%TO.N,Net-(U1-THR)*%
X15780000Y-17680000D03*
%TO.P,U1,5,CV*%
%TO.N,unconnected-(U1-CV-Pad5)*%
X18320000Y-17680000D03*
%TO.P,U1,4,R*%
%TO.N,VCC*%
X18320000Y-25300000D03*
%TO.P,U1,3,Q*%
%TO.N,Net-(U1-Q)*%
X15780000Y-25300000D03*
%TO.P,U1,2,TR*%
%TO.N,Net-(U1-THR)*%
X13240000Y-25300000D03*
D10*
%TO.P,U1,1,GND*%
%TO.N,GND*%
X10700000Y-25300000D03*
%TD*%
D11*
%TO.P,R9,2*%
%TO.N,Net-(D3-A)*%
X38500000Y-38580000D03*
D12*
%TO.P,R9,1*%
%TO.N,Net-(U3-Q)*%
X38500000Y-28420000D03*
%TD*%
D11*
%TO.P,R8,2*%
%TO.N,Net-(U3-THR)*%
X38500000Y-4420000D03*
D12*
%TO.P,R8,1*%
%TO.N,Net-(U3-DIS)*%
X38500000Y-14580000D03*
%TD*%
D11*
%TO.P,R7,2*%
%TO.N,Net-(U3-DIS)*%
X34500000Y-4420000D03*
D12*
%TO.P,R7,1*%
%TO.N,VCC*%
X34500000Y-14580000D03*
%TD*%
D11*
%TO.P,R6,2*%
%TO.N,Net-(D2-A)*%
X27500000Y-38580000D03*
D12*
%TO.P,R6,1*%
%TO.N,Net-(U2-Q)*%
X27500000Y-28420000D03*
%TD*%
D11*
%TO.P,R5,2*%
%TO.N,Net-(U2-THR)*%
X27500000Y-4420000D03*
D12*
%TO.P,R5,1*%
%TO.N,Net-(U2-DIS)*%
X27500000Y-14580000D03*
%TD*%
D11*
%TO.P,R4,2*%
%TO.N,Net-(U2-DIS)*%
X23500000Y-4420000D03*
D12*
%TO.P,R4,1*%
%TO.N,VCC*%
X23500000Y-14580000D03*
%TD*%
%TO.P,R3,1*%
%TO.N,Net-(U1-Q)*%
X16500000Y-28420000D03*
D11*
%TO.P,R3,2*%
%TO.N,Net-(D1-A)*%
X16500000Y-38580000D03*
%TD*%
%TO.P,R2,2*%
%TO.N,Net-(U1-THR)*%
X16500000Y-4420000D03*
D12*
%TO.P,R2,1*%
%TO.N,Net-(U1-DIS)*%
X16500000Y-14580000D03*
%TD*%
%TO.P,R1,1*%
%TO.N,VCC*%
X12500000Y-14580000D03*
D11*
%TO.P,R1,2*%
%TO.N,Net-(U1-DIS)*%
X12500000Y-4420000D03*
%TD*%
D13*
%TO.P,J2,4,Pin_4*%
%TO.N,GND*%
X4500000Y-32120000D03*
%TO.P,J2,3,Pin_3*%
X4500000Y-29580000D03*
%TO.P,J2,2,Pin_2*%
X4500000Y-27040000D03*
D14*
%TO.P,J2,1,Pin_1*%
X4500000Y-24500000D03*
%TD*%
%TO.P,J1,1,Pin_1*%
%TO.N,VCC*%
X4500000Y-18500000D03*
D13*
%TO.P,J1,2,Pin_2*%
X4500000Y-15960000D03*
%TO.P,J1,3,Pin_3*%
X4500000Y-13420000D03*
%TO.P,J1,4,Pin_4*%
X4500000Y-10880000D03*
%TD*%
D15*
%TO.P,D3,2,A*%
%TO.N,Net-(D3-A)*%
X34500000Y-37500000D03*
D16*
%TO.P,D3,1,K*%
%TO.N,GND*%
X31960000Y-37500000D03*
%TD*%
D15*
%TO.P,D2,2,A*%
%TO.N,Net-(D2-A)*%
X23500000Y-37500000D03*
D16*
%TO.P,D2,1,K*%
%TO.N,GND*%
X20960000Y-37500000D03*
%TD*%
D15*
%TO.P,D1,2,A*%
%TO.N,Net-(D1-A)*%
X12500000Y-37500000D03*
D16*
%TO.P,D1,1,K*%
%TO.N,GND*%
X9960000Y-37500000D03*
%TD*%
D12*
%TO.P,C3,2*%
%TO.N,GND*%
X32000000Y-30500000D03*
D10*
%TO.P,C3,1*%
%TO.N,Net-(U3-THR)*%
X34500000Y-30500000D03*
%TD*%
D12*
%TO.P,C2,2*%
%TO.N,GND*%
X21000000Y-30500000D03*
D10*
%TO.P,C2,1*%
%TO.N,Net-(U2-THR)*%
X23500000Y-30500000D03*
%TD*%
%TO.P,C1,1*%
%TO.N,Net-(U1-THR)*%
X12500000Y-30500000D03*
D12*
%TO.P,C1,2*%
%TO.N,GND*%
X10000000Y-30500000D03*
%TD*%
D17*
%TO.N,VCC*%
X40320000Y-25300000D02*
X41974000Y-23646000D01*
X41974000Y-23646000D02*
X41974000Y-16391424D01*
X41408000Y-15825424D02*
X41408000Y-4908000D01*
X41974000Y-16391424D02*
X41408000Y-15825424D01*
X41408000Y-4908000D02*
X39266000Y-2766000D01*
X39266000Y-2766000D02*
X33814890Y-2766000D01*
X18320000Y-25300000D02*
X18320000Y-21060000D01*
X18320000Y-21060000D02*
X21700000Y-17680000D01*
X29320000Y-25300000D02*
X29320000Y-21060000D01*
X29320000Y-21060000D02*
X32700000Y-17680000D01*
X11814890Y-2766000D02*
X33814890Y-2766000D01*
%TO.N,Net-(D3-A)*%
X38500000Y-38580000D02*
X35580000Y-38580000D01*
X35580000Y-38580000D02*
X34500000Y-37500000D01*
%TO.N,Net-(D1-A)*%
X16500000Y-38580000D02*
X13580000Y-38580000D01*
X13580000Y-38580000D02*
X12500000Y-37500000D01*
%TO.N,Net-(D2-A)*%
X27500000Y-38580000D02*
X24580000Y-38580000D01*
X24580000Y-38580000D02*
X23500000Y-37500000D01*
%TO.N,VCC*%
X11814890Y-2766000D02*
X10846000Y-3734890D01*
X10846000Y-3734890D02*
X10846000Y-12926000D01*
X10846000Y-12926000D02*
X12500000Y-14580000D01*
X22814890Y-2766000D02*
X21846000Y-3734890D01*
X21846000Y-3734890D02*
X21846000Y-12926000D01*
X21846000Y-12926000D02*
X23500000Y-14580000D01*
X32846000Y-3734890D02*
X32846000Y-12926000D01*
X33814890Y-2766000D02*
X32846000Y-3734890D01*
X32846000Y-12926000D02*
X34500000Y-14580000D01*
%TO.N,Net-(U3-THR)*%
X35240000Y-25300000D02*
X35240000Y-20220000D01*
X35240000Y-20220000D02*
X37780000Y-17680000D01*
X37780000Y-17680000D02*
X40154000Y-15306000D01*
X40154000Y-15306000D02*
X40154000Y-6074000D01*
X40154000Y-6074000D02*
X38500000Y-4420000D01*
%TO.N,Net-(U3-DIS)*%
X38500000Y-14580000D02*
X38500000Y-8420000D01*
X38500000Y-8420000D02*
X34500000Y-4420000D01*
X35240000Y-17680000D02*
X35400000Y-17680000D01*
X35400000Y-17680000D02*
X38500000Y-14580000D01*
%TO.N,VCC*%
X32700000Y-17680000D02*
X32700000Y-16380000D01*
X32700000Y-16380000D02*
X34500000Y-14580000D01*
%TO.N,Net-(U2-THR)*%
X26780000Y-17680000D02*
X29154000Y-15306000D01*
X29154000Y-15306000D02*
X29154000Y-6074000D01*
X29154000Y-6074000D02*
X27500000Y-4420000D01*
%TO.N,Net-(U2-DIS)*%
X27500000Y-14580000D02*
X27500000Y-8420000D01*
X27500000Y-8420000D02*
X23500000Y-4420000D01*
X24240000Y-17680000D02*
X24400000Y-17680000D01*
X24400000Y-17680000D02*
X27500000Y-14580000D01*
%TO.N,VCC*%
X21700000Y-17680000D02*
X21700000Y-16380000D01*
X21700000Y-16380000D02*
X23500000Y-14580000D01*
%TO.N,Net-(U2-THR)*%
X24240000Y-25300000D02*
X24240000Y-20220000D01*
X24240000Y-20220000D02*
X26780000Y-17680000D01*
%TO.N,Net-(U1-THR)*%
X13240000Y-25300000D02*
X13240000Y-20220000D01*
X13240000Y-20220000D02*
X15780000Y-17680000D01*
X15780000Y-17680000D02*
X18154000Y-15306000D01*
X18154000Y-15306000D02*
X18154000Y-6074000D01*
X18154000Y-6074000D02*
X16500000Y-4420000D01*
%TO.N,Net-(U1-DIS)*%
X16500000Y-14580000D02*
X16500000Y-8420000D01*
X16500000Y-8420000D02*
X12500000Y-4420000D01*
X13240000Y-17680000D02*
X13400000Y-17680000D01*
X13400000Y-17680000D02*
X16500000Y-14580000D01*
%TO.N,VCC*%
X10700000Y-17680000D02*
X10700000Y-16380000D01*
X10700000Y-16380000D02*
X12500000Y-14580000D01*
X9880000Y-18500000D02*
X10700000Y-17680000D01*
X4500000Y-15960000D02*
X4500000Y-18500000D01*
X4500000Y-13420000D02*
X4500000Y-15960000D01*
X4500000Y-10880000D02*
X4500000Y-13420000D01*
%TO.N,Net-(U3-Q)*%
X37780000Y-27700000D02*
X38500000Y-28420000D01*
X37780000Y-25300000D02*
X37780000Y-27700000D01*
%TO.N,Net-(U2-Q)*%
X26780000Y-25300000D02*
X26780000Y-27700000D01*
X26780000Y-27700000D02*
X27500000Y-28420000D01*
%TO.N,Net-(U1-Q)*%
X15780000Y-25300000D02*
X15780000Y-27700000D01*
X15780000Y-27700000D02*
X16500000Y-28420000D01*
%TO.N,Net-(U3-THR)*%
X35240000Y-29760000D02*
X34500000Y-30500000D01*
X35240000Y-25300000D02*
X35240000Y-29760000D01*
%TO.N,Net-(U2-THR)*%
X24240000Y-29760000D02*
X23500000Y-30500000D01*
X24240000Y-25300000D02*
X24240000Y-29760000D01*
%TO.N,Net-(U1-THR)*%
X13240000Y-29760000D02*
X12500000Y-30500000D01*
X13240000Y-25300000D02*
X13240000Y-29760000D01*
%TO.N,VCC*%
X4500000Y-18500000D02*
X9880000Y-18500000D01*
%TD*%
%TA.AperFunction,Conductor*%
%TO.N,GND*%
G36*
X44503244Y-1500670D02*
G01*
X44807046Y-1516592D01*
X44819953Y-1517949D01*
X44951089Y-1538718D01*
X45117209Y-1565028D01*
X45129896Y-1567724D01*
X45420625Y-1645625D01*
X45432965Y-1649635D01*
X45713938Y-1757490D01*
X45725790Y-1762767D01*
X45993968Y-1899411D01*
X46005199Y-1905896D01*
X46100816Y-1967990D01*
X46257608Y-2069812D01*
X46268109Y-2077441D01*
X46502010Y-2266850D01*
X46511655Y-2275535D01*
X46724464Y-2488344D01*
X46733149Y-2497989D01*
X46922558Y-2731890D01*
X46930187Y-2742391D01*
X47094101Y-2994796D01*
X47100591Y-3006036D01*
X47237231Y-3274206D01*
X47242510Y-3286064D01*
X47350363Y-3567033D01*
X47354374Y-3579376D01*
X47432273Y-3870097D01*
X47434971Y-3882794D01*
X47482050Y-4180046D01*
X47483407Y-4192953D01*
X47499330Y-4496756D01*
X47499500Y-4503246D01*
X47499500Y-38496753D01*
X47499330Y-38503243D01*
X47483407Y-38807046D01*
X47482050Y-38819953D01*
X47434971Y-39117205D01*
X47432273Y-39129902D01*
X47354374Y-39420623D01*
X47350363Y-39432966D01*
X47242510Y-39713935D01*
X47237231Y-39725793D01*
X47100591Y-39993963D01*
X47094101Y-40005203D01*
X46930187Y-40257608D01*
X46922558Y-40268109D01*
X46733149Y-40502010D01*
X46724464Y-40511655D01*
X46511655Y-40724464D01*
X46502010Y-40733149D01*
X46268109Y-40922558D01*
X46257608Y-40930187D01*
X46005203Y-41094101D01*
X45993963Y-41100591D01*
X45725793Y-41237231D01*
X45713935Y-41242510D01*
X45432966Y-41350363D01*
X45420623Y-41354374D01*
X45129902Y-41432273D01*
X45117205Y-41434971D01*
X44819953Y-41482050D01*
X44807046Y-41483407D01*
X44503244Y-41499330D01*
X44496754Y-41499500D01*
X4503246Y-41499500D01*
X4496756Y-41499330D01*
X4192953Y-41483407D01*
X4180046Y-41482050D01*
X3882794Y-41434971D01*
X3870097Y-41432273D01*
X3579376Y-41354374D01*
X3567033Y-41350363D01*
X3286064Y-41242510D01*
X3274206Y-41237231D01*
X3006036Y-41100591D01*
X2994796Y-41094101D01*
X2742391Y-40930187D01*
X2731890Y-40922558D01*
X2497989Y-40733149D01*
X2488344Y-40724464D01*
X2275535Y-40511655D01*
X2266850Y-40502010D01*
X2077441Y-40268109D01*
X2069812Y-40257608D01*
X2008517Y-40163222D01*
X1905896Y-40005199D01*
X1899408Y-39993963D01*
X1834021Y-39865635D01*
X1762767Y-39725790D01*
X1757489Y-39713935D01*
X1686994Y-39530289D01*
X1649635Y-39432965D01*
X1645625Y-39420623D01*
X1645228Y-39419141D01*
X1567724Y-39129896D01*
X1565028Y-39117205D01*
X1561685Y-39096100D01*
X1517949Y-38819953D01*
X1516592Y-38807046D01*
X1500670Y-38503243D01*
X1500500Y-38496753D01*
X1500500Y-38378711D01*
X2649500Y-38378711D01*
X2649500Y-38621288D01*
X2681161Y-38861785D01*
X2743947Y-39096104D01*
X2819898Y-39279465D01*
X2836776Y-39320212D01*
X2958064Y-39530289D01*
X2958066Y-39530292D01*
X2958067Y-39530293D01*
X3105733Y-39722736D01*
X3105739Y-39722743D01*
X3277256Y-39894260D01*
X3277262Y-39894265D01*
X3469711Y-40041936D01*
X3679788Y-40163224D01*
X3903900Y-40256054D01*
X4138211Y-40318838D01*
X4318586Y-40342584D01*
X4378711Y-40350500D01*
X4378712Y-40350500D01*
X4621289Y-40350500D01*
X4669388Y-40344167D01*
X4861789Y-40318838D01*
X5096100Y-40256054D01*
X5320212Y-40163224D01*
X5530289Y-40041936D01*
X5722738Y-39894265D01*
X5894265Y-39722738D01*
X6041936Y-39530289D01*
X6163224Y-39320212D01*
X6256054Y-39096100D01*
X6318838Y-38861789D01*
X6350500Y-38621288D01*
X6350500Y-38439324D01*
X8460001Y-38439324D01*
X8475442Y-38556628D01*
X8475444Y-38556633D01*
X8535899Y-38702585D01*
X8632075Y-38827924D01*
X8757413Y-38924100D01*
X8903365Y-38984554D01*
X8903369Y-38984555D01*
X9020676Y-38999999D01*
X9559999Y-38999999D01*
X9560000Y-38999998D01*
X9560000Y-37900000D01*
X8460001Y-37900000D01*
X8460001Y-38439324D01*
X6350500Y-38439324D01*
X6350500Y-38378712D01*
X6318838Y-38138211D01*
X6256054Y-37903900D01*
X6163224Y-37679788D01*
X6041936Y-37469711D01*
X6019718Y-37440756D01*
X9510000Y-37440756D01*
X9510000Y-37559244D01*
X9540667Y-37673694D01*
X9599910Y-37776306D01*
X9683694Y-37860090D01*
X9786306Y-37919333D01*
X9900756Y-37950000D01*
X10019244Y-37950000D01*
X10133694Y-37919333D01*
X10236306Y-37860090D01*
X10320090Y-37776306D01*
X10360000Y-37707179D01*
X10360000Y-38999999D01*
X10899324Y-38999999D01*
X11016628Y-38984557D01*
X11016633Y-38984555D01*
X11162585Y-38924100D01*
X11287924Y-38827924D01*
X11384099Y-38702587D01*
X11414658Y-38628809D01*
X11458498Y-38574405D01*
X11524792Y-38552339D01*
X11592492Y-38569617D01*
X11605375Y-38578402D01*
X11731374Y-38676470D01*
X11935497Y-38786936D01*
X12031672Y-38819953D01*
X12155015Y-38862297D01*
X12155017Y-38862297D01*
X12155019Y-38862298D01*
X12383951Y-38900500D01*
X12383952Y-38900500D01*
X12575639Y-38900500D01*
X12642678Y-38920185D01*
X12663320Y-38936819D01*
X12880536Y-39154035D01*
X13005965Y-39279464D01*
X13153453Y-39378013D01*
X13201452Y-39397895D01*
X13317334Y-39445895D01*
X13491304Y-39480499D01*
X13491308Y-39480500D01*
X13491309Y-39480500D01*
X13668692Y-39480500D01*
X15509952Y-39480500D01*
X15576991Y-39500185D01*
X15597628Y-39516814D01*
X15660861Y-39580047D01*
X15847266Y-39710568D01*
X16053504Y-39806739D01*
X16273308Y-39865635D01*
X16435230Y-39879801D01*
X16499998Y-39885468D01*
X16500000Y-39885468D01*
X16500002Y-39885468D01*
X16556673Y-39880509D01*
X16726692Y-39865635D01*
X16946496Y-39806739D01*
X17152734Y-39710568D01*
X17339139Y-39580047D01*
X17500047Y-39419139D01*
X17630568Y-39232734D01*
X17726739Y-39026496D01*
X17785635Y-38806692D01*
X17805468Y-38580000D01*
X17793160Y-38439324D01*
X19460001Y-38439324D01*
X19475442Y-38556628D01*
X19475444Y-38556633D01*
X19535899Y-38702585D01*
X19632075Y-38827924D01*
X19757413Y-38924100D01*
X19903365Y-38984554D01*
X19903369Y-38984555D01*
X20020676Y-38999999D01*
X20559999Y-38999999D01*
X20560000Y-38999998D01*
X20560000Y-37900000D01*
X19460001Y-37900000D01*
X19460001Y-38439324D01*
X17793160Y-38439324D01*
X17785635Y-38353308D01*
X17726739Y-38133504D01*
X17630568Y-37927266D01*
X17500047Y-37740861D01*
X17500045Y-37740858D01*
X17339141Y-37579954D01*
X17152734Y-37449432D01*
X17152732Y-37449431D01*
X17134129Y-37440756D01*
X20510000Y-37440756D01*
X20510000Y-37559244D01*
X20540667Y-37673694D01*
X20599910Y-37776306D01*
X20683694Y-37860090D01*
X20786306Y-37919333D01*
X20900756Y-37950000D01*
X21019244Y-37950000D01*
X21133694Y-37919333D01*
X21236306Y-37860090D01*
X21320090Y-37776306D01*
X21360000Y-37707179D01*
X21360000Y-38999999D01*
X21899324Y-38999999D01*
X22016628Y-38984557D01*
X22016633Y-38984555D01*
X22162585Y-38924100D01*
X22287924Y-38827924D01*
X22384099Y-38702587D01*
X22414658Y-38628809D01*
X22458498Y-38574405D01*
X22524792Y-38552339D01*
X22592492Y-38569617D01*
X22605375Y-38578402D01*
X22731374Y-38676470D01*
X22935497Y-38786936D01*
X23031672Y-38819953D01*
X23155015Y-38862297D01*
X23155017Y-38862297D01*
X23155019Y-38862298D01*
X23383951Y-38900500D01*
X23383952Y-38900500D01*
X23575639Y-38900500D01*
X23642678Y-38920185D01*
X23663320Y-38936819D01*
X23880536Y-39154035D01*
X24005965Y-39279464D01*
X24153453Y-39378013D01*
X24201452Y-39397895D01*
X24317334Y-39445895D01*
X24491304Y-39480499D01*
X24491308Y-39480500D01*
X24491309Y-39480500D01*
X24668692Y-39480500D01*
X26509952Y-39480500D01*
X26576991Y-39500185D01*
X26597628Y-39516814D01*
X26660861Y-39580047D01*
X26847266Y-39710568D01*
X27053504Y-39806739D01*
X27273308Y-39865635D01*
X27435230Y-39879801D01*
X27499998Y-39885468D01*
X27500000Y-39885468D01*
X27500002Y-39885468D01*
X27556673Y-39880509D01*
X27726692Y-39865635D01*
X27946496Y-39806739D01*
X28152734Y-39710568D01*
X28339139Y-39580047D01*
X28500047Y-39419139D01*
X28630568Y-39232734D01*
X28726739Y-39026496D01*
X28785635Y-38806692D01*
X28805468Y-38580000D01*
X28793160Y-38439324D01*
X30460001Y-38439324D01*
X30475442Y-38556628D01*
X30475444Y-38556633D01*
X30535899Y-38702585D01*
X30632075Y-38827924D01*
X30757413Y-38924100D01*
X30903365Y-38984554D01*
X30903369Y-38984555D01*
X31020676Y-38999999D01*
X31559999Y-38999999D01*
X31560000Y-38999998D01*
X31560000Y-37900000D01*
X30460001Y-37900000D01*
X30460001Y-38439324D01*
X28793160Y-38439324D01*
X28785635Y-38353308D01*
X28726739Y-38133504D01*
X28630568Y-37927266D01*
X28500047Y-37740861D01*
X28500045Y-37740858D01*
X28339141Y-37579954D01*
X28152734Y-37449432D01*
X28152732Y-37449431D01*
X28134129Y-37440756D01*
X31510000Y-37440756D01*
X31510000Y-37559244D01*
X31540667Y-37673694D01*
X31599910Y-37776306D01*
X31683694Y-37860090D01*
X31786306Y-37919333D01*
X31900756Y-37950000D01*
X32019244Y-37950000D01*
X32133694Y-37919333D01*
X32236306Y-37860090D01*
X32320090Y-37776306D01*
X32360000Y-37707179D01*
X32360000Y-38999999D01*
X32899324Y-38999999D01*
X33016628Y-38984557D01*
X33016633Y-38984555D01*
X33162585Y-38924100D01*
X33287924Y-38827924D01*
X33384099Y-38702587D01*
X33414658Y-38628809D01*
X33458498Y-38574405D01*
X33524792Y-38552339D01*
X33592492Y-38569617D01*
X33605375Y-38578402D01*
X33731374Y-38676470D01*
X33935497Y-38786936D01*
X34031672Y-38819953D01*
X34155015Y-38862297D01*
X34155017Y-38862297D01*
X34155019Y-38862298D01*
X34383951Y-38900500D01*
X34383952Y-38900500D01*
X34575639Y-38900500D01*
X34642678Y-38920185D01*
X34663320Y-38936819D01*
X34880536Y-39154035D01*
X35005965Y-39279464D01*
X35153453Y-39378013D01*
X35201452Y-39397895D01*
X35317334Y-39445895D01*
X35491304Y-39480499D01*
X35491308Y-39480500D01*
X35491309Y-39480500D01*
X35668692Y-39480500D01*
X37509952Y-39480500D01*
X37576991Y-39500185D01*
X37597628Y-39516814D01*
X37660861Y-39580047D01*
X37847266Y-39710568D01*
X38053504Y-39806739D01*
X38273308Y-39865635D01*
X38435230Y-39879801D01*
X38499998Y-39885468D01*
X38500000Y-39885468D01*
X38500002Y-39885468D01*
X38556673Y-39880509D01*
X38726692Y-39865635D01*
X38946496Y-39806739D01*
X39152734Y-39710568D01*
X39339139Y-39580047D01*
X39500047Y-39419139D01*
X39630568Y-39232734D01*
X39726739Y-39026496D01*
X39785635Y-38806692D01*
X39805468Y-38580000D01*
X39787857Y-38378711D01*
X42649500Y-38378711D01*
X42649500Y-38621288D01*
X42681161Y-38861785D01*
X42743947Y-39096104D01*
X42819898Y-39279465D01*
X42836776Y-39320212D01*
X42958064Y-39530289D01*
X42958066Y-39530292D01*
X42958067Y-39530293D01*
X43105733Y-39722736D01*
X43105739Y-39722743D01*
X43277256Y-39894260D01*
X43277262Y-39894265D01*
X43469711Y-40041936D01*
X43679788Y-40163224D01*
X43903900Y-40256054D01*
X44138211Y-40318838D01*
X44318586Y-40342584D01*
X44378711Y-40350500D01*
X44378712Y-40350500D01*
X44621289Y-40350500D01*
X44669388Y-40344167D01*
X44861789Y-40318838D01*
X45096100Y-40256054D01*
X45320212Y-40163224D01*
X45530289Y-40041936D01*
X45722738Y-39894265D01*
X45894265Y-39722738D01*
X46041936Y-39530289D01*
X46163224Y-39320212D01*
X46256054Y-39096100D01*
X46318838Y-38861789D01*
X46350500Y-38621288D01*
X46350500Y-38378712D01*
X46318838Y-38138211D01*
X46256054Y-37903900D01*
X46163224Y-37679788D01*
X46041936Y-37469711D01*
X45931898Y-37326306D01*
X45894266Y-37277263D01*
X45894260Y-37277256D01*
X45722743Y-37105739D01*
X45722736Y-37105733D01*
X45530293Y-36958067D01*
X45530292Y-36958066D01*
X45530289Y-36958064D01*
X45320212Y-36836776D01*
X45306632Y-36831151D01*
X45096104Y-36743947D01*
X44861785Y-36681161D01*
X44621289Y-36649500D01*
X44621288Y-36649500D01*
X44378712Y-36649500D01*
X44378711Y-36649500D01*
X44138214Y-36681161D01*
X43903895Y-36743947D01*
X43679794Y-36836773D01*
X43679785Y-36836777D01*
X43469706Y-36958067D01*
X43277263Y-37105733D01*
X43277256Y-37105739D01*
X43105739Y-37277256D01*
X43105733Y-37277263D01*
X42958067Y-37469706D01*
X42836777Y-37679785D01*
X42836773Y-37679794D01*
X42743947Y-37903895D01*
X42681161Y-38138214D01*
X42649500Y-38378711D01*
X39787857Y-38378711D01*
X39785635Y-38353308D01*
X39726739Y-38133504D01*
X39630568Y-37927266D01*
X39500047Y-37740861D01*
X39500045Y-37740858D01*
X39339141Y-37579954D01*
X39152734Y-37449432D01*
X39152732Y-37449431D01*
X38946497Y-37353261D01*
X38946488Y-37353258D01*
X38726697Y-37294366D01*
X38726693Y-37294365D01*
X38726692Y-37294365D01*
X38726691Y-37294364D01*
X38726686Y-37294364D01*
X38500002Y-37274532D01*
X38499998Y-37274532D01*
X38273313Y-37294364D01*
X38273302Y-37294366D01*
X38053511Y-37353258D01*
X38053502Y-37353261D01*
X37847267Y-37449431D01*
X37847265Y-37449432D01*
X37660862Y-37579951D01*
X37633803Y-37607011D01*
X37597631Y-37643182D01*
X37536311Y-37676666D01*
X37509952Y-37679500D01*
X36025126Y-37679500D01*
X35958087Y-37659815D01*
X35912332Y-37607011D01*
X35901550Y-37545260D01*
X35903423Y-37522649D01*
X35905300Y-37500000D01*
X35886134Y-37268695D01*
X35843414Y-37100000D01*
X35829157Y-37043699D01*
X35735924Y-36831151D01*
X35608983Y-36636852D01*
X35608980Y-36636849D01*
X35608979Y-36636847D01*
X35451784Y-36466087D01*
X35451779Y-36466083D01*
X35451777Y-36466081D01*
X35268634Y-36323535D01*
X35268628Y-36323531D01*
X35064504Y-36213064D01*
X35064495Y-36213061D01*
X34844984Y-36137702D01*
X34673282Y-36109050D01*
X34616049Y-36099500D01*
X34383951Y-36099500D01*
X34338164Y-36107140D01*
X34155015Y-36137702D01*
X33935504Y-36213061D01*
X33935495Y-36213064D01*
X33731372Y-36323531D01*
X33605382Y-36421593D01*
X33540388Y-36447235D01*
X33471848Y-36433668D01*
X33421523Y-36385200D01*
X33414658Y-36371191D01*
X33384098Y-36297410D01*
X33287924Y-36172075D01*
X33162586Y-36075899D01*
X33016634Y-36015445D01*
X33016630Y-36015444D01*
X32899330Y-36000000D01*
X32360000Y-36000000D01*
X32360000Y-37292820D01*
X32320090Y-37223694D01*
X32236306Y-37139910D01*
X32133694Y-37080667D01*
X32019244Y-37050000D01*
X31900756Y-37050000D01*
X31786306Y-37080667D01*
X31683694Y-37139910D01*
X31599910Y-37223694D01*
X31540667Y-37326306D01*
X31510000Y-37440756D01*
X28134129Y-37440756D01*
X27946497Y-37353261D01*
X27946488Y-37353258D01*
X27726697Y-37294366D01*
X27726693Y-37294365D01*
X27726692Y-37294365D01*
X27726691Y-37294364D01*
X27726686Y-37294364D01*
X27500002Y-37274532D01*
X27499998Y-37274532D01*
X27273313Y-37294364D01*
X27273302Y-37294366D01*
X27053511Y-37353258D01*
X27053502Y-37353261D01*
X26847267Y-37449431D01*
X26847265Y-37449432D01*
X26660862Y-37579951D01*
X26633803Y-37607011D01*
X26597631Y-37643182D01*
X26536311Y-37676666D01*
X26509952Y-37679500D01*
X25025126Y-37679500D01*
X24958087Y-37659815D01*
X24912332Y-37607011D01*
X24901550Y-37545260D01*
X24903423Y-37522649D01*
X24905300Y-37500000D01*
X24886134Y-37268695D01*
X24843414Y-37100000D01*
X24829157Y-37043699D01*
X24735924Y-36831151D01*
X24608983Y-36636852D01*
X24608980Y-36636849D01*
X24608979Y-36636847D01*
X24538853Y-36560669D01*
X30460000Y-36560669D01*
X30460000Y-37100000D01*
X31560000Y-37100000D01*
X31560000Y-36000000D01*
X31020675Y-36000000D01*
X30903371Y-36015442D01*
X30903366Y-36015444D01*
X30757414Y-36075899D01*
X30632075Y-36172075D01*
X30535899Y-36297413D01*
X30475445Y-36443365D01*
X30475444Y-36443369D01*
X30460000Y-36560669D01*
X24538853Y-36560669D01*
X24451784Y-36466087D01*
X24451779Y-36466083D01*
X24451777Y-36466081D01*
X24268634Y-36323535D01*
X24268628Y-36323531D01*
X24064504Y-36213064D01*
X24064495Y-36213061D01*
X23844984Y-36137702D01*
X23673282Y-36109050D01*
X23616049Y-36099500D01*
X23383951Y-36099500D01*
X23338164Y-36107140D01*
X23155015Y-36137702D01*
X22935504Y-36213061D01*
X22935495Y-36213064D01*
X22731372Y-36323531D01*
X22605382Y-36421593D01*
X22540388Y-36447235D01*
X22471848Y-36433668D01*
X22421523Y-36385200D01*
X22414658Y-36371191D01*
X22384098Y-36297410D01*
X22287924Y-36172075D01*
X22162586Y-36075899D01*
X22016634Y-36015445D01*
X22016630Y-36015444D01*
X21899330Y-36000000D01*
X21360000Y-36000000D01*
X21360000Y-37292820D01*
X21320090Y-37223694D01*
X21236306Y-37139910D01*
X21133694Y-37080667D01*
X21019244Y-37050000D01*
X20900756Y-37050000D01*
X20786306Y-37080667D01*
X20683694Y-37139910D01*
X20599910Y-37223694D01*
X20540667Y-37326306D01*
X20510000Y-37440756D01*
X17134129Y-37440756D01*
X16946497Y-37353261D01*
X16946488Y-37353258D01*
X16726697Y-37294366D01*
X16726693Y-37294365D01*
X16726692Y-37294365D01*
X16726691Y-37294364D01*
X16726686Y-37294364D01*
X16500002Y-37274532D01*
X16499998Y-37274532D01*
X16273313Y-37294364D01*
X16273302Y-37294366D01*
X16053511Y-37353258D01*
X16053502Y-37353261D01*
X15847267Y-37449431D01*
X15847265Y-37449432D01*
X15660862Y-37579951D01*
X15633803Y-37607011D01*
X15597631Y-37643182D01*
X15536311Y-37676666D01*
X15509952Y-37679500D01*
X14025126Y-37679500D01*
X13958087Y-37659815D01*
X13912332Y-37607011D01*
X13901550Y-37545260D01*
X13903423Y-37522649D01*
X13905300Y-37500000D01*
X13886134Y-37268695D01*
X13843414Y-37100000D01*
X13829157Y-37043699D01*
X13735924Y-36831151D01*
X13608983Y-36636852D01*
X13608980Y-36636849D01*
X13608979Y-36636847D01*
X13538853Y-36560669D01*
X19460000Y-36560669D01*
X19460000Y-37100000D01*
X20560000Y-37100000D01*
X20560000Y-36000000D01*
X20020675Y-36000000D01*
X19903371Y-36015442D01*
X19903366Y-36015444D01*
X19757414Y-36075899D01*
X19632075Y-36172075D01*
X19535899Y-36297413D01*
X19475445Y-36443365D01*
X19475444Y-36443369D01*
X19460000Y-36560669D01*
X13538853Y-36560669D01*
X13451784Y-36466087D01*
X13451779Y-36466083D01*
X13451777Y-36466081D01*
X13268634Y-36323535D01*
X13268628Y-36323531D01*
X13064504Y-36213064D01*
X13064495Y-36213061D01*
X12844984Y-36137702D01*
X12673282Y-36109050D01*
X12616049Y-36099500D01*
X12383951Y-36099500D01*
X12338164Y-36107140D01*
X12155015Y-36137702D01*
X11935504Y-36213061D01*
X11935495Y-36213064D01*
X11731372Y-36323531D01*
X11605382Y-36421593D01*
X11540388Y-36447235D01*
X11471848Y-36433668D01*
X11421523Y-36385200D01*
X11414658Y-36371191D01*
X11384098Y-36297410D01*
X11287924Y-36172075D01*
X11162586Y-36075899D01*
X11016634Y-36015445D01*
X11016630Y-36015444D01*
X10899330Y-36000000D01*
X10360000Y-36000000D01*
X10360000Y-37292820D01*
X10320090Y-37223694D01*
X10236306Y-37139910D01*
X10133694Y-37080667D01*
X10019244Y-37050000D01*
X9900756Y-37050000D01*
X9786306Y-37080667D01*
X9683694Y-37139910D01*
X9599910Y-37223694D01*
X9540667Y-37326306D01*
X9510000Y-37440756D01*
X6019718Y-37440756D01*
X5931898Y-37326306D01*
X5894266Y-37277263D01*
X5894260Y-37277256D01*
X5722743Y-37105739D01*
X5722736Y-37105733D01*
X5530293Y-36958067D01*
X5530292Y-36958066D01*
X5530289Y-36958064D01*
X5320212Y-36836776D01*
X5306632Y-36831151D01*
X5096104Y-36743947D01*
X4861785Y-36681161D01*
X4621289Y-36649500D01*
X4621288Y-36649500D01*
X4378712Y-36649500D01*
X4378711Y-36649500D01*
X4138214Y-36681161D01*
X3903895Y-36743947D01*
X3679794Y-36836773D01*
X3679785Y-36836777D01*
X3469706Y-36958067D01*
X3277263Y-37105733D01*
X3277256Y-37105739D01*
X3105739Y-37277256D01*
X3105733Y-37277263D01*
X2958067Y-37469706D01*
X2836777Y-37679785D01*
X2836773Y-37679794D01*
X2743947Y-37903895D01*
X2681161Y-38138214D01*
X2649500Y-38378711D01*
X1500500Y-38378711D01*
X1500500Y-36560669D01*
X8460000Y-36560669D01*
X8460000Y-37100000D01*
X9560000Y-37100000D01*
X9560000Y-36000000D01*
X9020675Y-36000000D01*
X8903371Y-36015442D01*
X8903366Y-36015444D01*
X8757414Y-36075899D01*
X8632075Y-36172075D01*
X8535899Y-36297413D01*
X8475445Y-36443365D01*
X8475444Y-36443369D01*
X8460000Y-36560669D01*
X1500500Y-36560669D01*
X1500500Y-32520000D01*
X3105524Y-32520000D01*
X3123865Y-32592428D01*
X3220393Y-32812490D01*
X3351823Y-33013657D01*
X3351826Y-33013661D01*
X3514577Y-33190455D01*
X3704209Y-33338052D01*
X3915543Y-33452420D01*
X4100000Y-33515743D01*
X4900000Y-33515743D01*
X5084456Y-33452420D01*
X5295790Y-33338052D01*
X5485422Y-33190455D01*
X5648173Y-33013661D01*
X5648176Y-33013657D01*
X5779606Y-32812490D01*
X5876134Y-32592428D01*
X5894476Y-32520000D01*
X4900000Y-32520000D01*
X4900000Y-33515743D01*
X4100000Y-33515743D01*
X4100000Y-32520000D01*
X3105524Y-32520000D01*
X1500500Y-32520000D01*
X1500500Y-32054174D01*
X4000000Y-32054174D01*
X4000000Y-32185826D01*
X4034075Y-32312993D01*
X4099901Y-32427007D01*
X4192993Y-32520099D01*
X4307007Y-32585925D01*
X4434174Y-32620000D01*
X4565826Y-32620000D01*
X4692993Y-32585925D01*
X4807007Y-32520099D01*
X4900099Y-32427007D01*
X4965925Y-32312993D01*
X5000000Y-32185826D01*
X5000000Y-32054174D01*
X4965925Y-31927007D01*
X4900099Y-31812993D01*
X4818631Y-31731525D01*
X9334159Y-31731525D01*
X9435698Y-31786476D01*
X9435706Y-31786479D01*
X9655139Y-31861811D01*
X9883993Y-31900000D01*
X10116007Y-31900000D01*
X10344860Y-31861811D01*
X10564292Y-31786480D01*
X10665839Y-31731525D01*
X10000001Y-31065685D01*
X10000000Y-31065685D01*
X9334159Y-31731525D01*
X4818631Y-31731525D01*
X4807106Y-31720000D01*
X4900000Y-31720000D01*
X5894476Y-31720000D01*
X5876134Y-31647571D01*
X5779606Y-31427509D01*
X5648176Y-31226342D01*
X5648173Y-31226338D01*
X5485420Y-31049542D01*
X5485417Y-31049539D01*
X5354771Y-30947853D01*
X5313958Y-30891143D01*
X5310283Y-30821370D01*
X5344915Y-30760687D01*
X5354771Y-30752147D01*
X5485417Y-30650460D01*
X5485420Y-30650457D01*
X5623932Y-30499994D01*
X8595202Y-30499994D01*
X8595202Y-30500005D01*
X8614361Y-30731218D01*
X8671317Y-30956135D01*
X8764515Y-31168605D01*
X8764517Y-31168610D01*
X8764986Y-31169326D01*
X9434314Y-30500000D01*
X9381653Y-30447339D01*
X9600000Y-30447339D01*
X9600000Y-30552661D01*
X9627259Y-30654394D01*
X9679920Y-30745606D01*
X9754394Y-30820080D01*
X9845606Y-30872741D01*
X9947339Y-30900000D01*
X10052661Y-30900000D01*
X10154394Y-30872741D01*
X10245606Y-30820080D01*
X10320080Y-30745606D01*
X10372741Y-30654394D01*
X10400000Y-30552661D01*
X10400000Y-30447339D01*
X10372741Y-30345606D01*
X10320080Y-30254394D01*
X10245606Y-30179920D01*
X10154394Y-30127259D01*
X10052661Y-30100000D01*
X9947339Y-30100000D01*
X9845606Y-30127259D01*
X9754394Y-30179920D01*
X9679920Y-30254394D01*
X9627259Y-30345606D01*
X9600000Y-30447339D01*
X9381653Y-30447339D01*
X8764986Y-29830672D01*
X8764985Y-29830672D01*
X8764519Y-29831385D01*
X8764516Y-29831391D01*
X8671317Y-30043864D01*
X8614361Y-30268781D01*
X8595202Y-30499994D01*
X5623932Y-30499994D01*
X5648173Y-30473661D01*
X5648176Y-30473657D01*
X5779606Y-30272490D01*
X5876134Y-30052428D01*
X5894476Y-29980000D01*
X4900000Y-29980000D01*
X4900000Y-31720000D01*
X4807106Y-31720000D01*
X4807007Y-31719901D01*
X4692993Y-31654075D01*
X4565826Y-31620000D01*
X4434174Y-31620000D01*
X4307007Y-31654075D01*
X4192993Y-31719901D01*
X4099901Y-31812993D01*
X4034075Y-31927007D01*
X4000000Y-32054174D01*
X1500500Y-32054174D01*
X1500500Y-31720000D01*
X3105524Y-31720000D01*
X4100000Y-31720000D01*
X4100000Y-29980000D01*
X3105524Y-29980000D01*
X3123865Y-30052428D01*
X3220393Y-30272490D01*
X3351823Y-30473657D01*
X3351826Y-30473661D01*
X3514579Y-30650457D01*
X3514582Y-30650460D01*
X3645229Y-30752147D01*
X3686042Y-30808857D01*
X3689717Y-30878630D01*
X3655085Y-30939313D01*
X3645229Y-30947853D01*
X3514582Y-31049539D01*
X3514579Y-31049542D01*
X3351826Y-31226338D01*
X3351823Y-31226342D01*
X3220393Y-31427509D01*
X3123865Y-31647571D01*
X3105524Y-31720000D01*
X1500500Y-31720000D01*
X1500500Y-29514174D01*
X4000000Y-29514174D01*
X4000000Y-29645826D01*
X4034075Y-29772993D01*
X4099901Y-29887007D01*
X4192993Y-29980099D01*
X4307007Y-30045925D01*
X4434174Y-30080000D01*
X4565826Y-30080000D01*
X4692993Y-30045925D01*
X4807007Y-29980099D01*
X4900099Y-29887007D01*
X4965925Y-29772993D01*
X5000000Y-29645826D01*
X5000000Y-29514174D01*
X4965925Y-29387007D01*
X4900099Y-29272993D01*
X4895579Y-29268473D01*
X9334158Y-29268473D01*
X10000000Y-29934314D01*
X10000001Y-29934314D01*
X10665839Y-29268473D01*
X10665840Y-29268473D01*
X10564301Y-29213523D01*
X10564293Y-29213520D01*
X10344860Y-29138188D01*
X10116007Y-29100000D01*
X9883993Y-29100000D01*
X9655139Y-29138188D01*
X9435703Y-29213521D01*
X9435692Y-29213526D01*
X9334158Y-29268473D01*
X4895579Y-29268473D01*
X4807106Y-29180000D01*
X4900000Y-29180000D01*
X5894476Y-29180000D01*
X5876134Y-29107571D01*
X5779606Y-28887509D01*
X5648176Y-28686342D01*
X5648173Y-28686338D01*
X5485420Y-28509542D01*
X5485417Y-28509539D01*
X5354771Y-28407853D01*
X5313958Y-28351143D01*
X5310283Y-28281370D01*
X5344915Y-28220687D01*
X5354771Y-28212147D01*
X5485417Y-28110460D01*
X5485420Y-28110457D01*
X5648173Y-27933661D01*
X5648176Y-27933657D01*
X5779606Y-27732490D01*
X5876134Y-27512428D01*
X5894476Y-27440000D01*
X4900000Y-27440000D01*
X4900000Y-29180000D01*
X4807106Y-29180000D01*
X4807007Y-29179901D01*
X4692993Y-29114075D01*
X4565826Y-29080000D01*
X4434174Y-29080000D01*
X4307007Y-29114075D01*
X4192993Y-29179901D01*
X4099901Y-29272993D01*
X4034075Y-29387007D01*
X4000000Y-29514174D01*
X1500500Y-29514174D01*
X1500500Y-29180000D01*
X3105524Y-29180000D01*
X4100000Y-29180000D01*
X4100000Y-27440000D01*
X3105524Y-27440000D01*
X3123865Y-27512428D01*
X3220393Y-27732490D01*
X3351823Y-27933657D01*
X3351826Y-27933661D01*
X3514579Y-28110457D01*
X3514582Y-28110460D01*
X3645229Y-28212147D01*
X3686042Y-28268857D01*
X3689717Y-28338630D01*
X3655085Y-28399313D01*
X3645229Y-28407853D01*
X3514582Y-28509539D01*
X3514579Y-28509542D01*
X3351826Y-28686338D01*
X3351823Y-28686342D01*
X3220393Y-28887509D01*
X3123865Y-29107571D01*
X3105524Y-29180000D01*
X1500500Y-29180000D01*
X1500500Y-26974174D01*
X4000000Y-26974174D01*
X4000000Y-27105826D01*
X4034075Y-27232993D01*
X4099901Y-27347007D01*
X4192993Y-27440099D01*
X4307007Y-27505925D01*
X4434174Y-27540000D01*
X4565826Y-27540000D01*
X4692993Y-27505925D01*
X4807007Y-27440099D01*
X4900099Y-27347007D01*
X4965925Y-27232993D01*
X5000000Y-27105826D01*
X5000000Y-26974174D01*
X4965925Y-26847007D01*
X4900099Y-26732993D01*
X4807106Y-26640000D01*
X4900000Y-26640000D01*
X5894476Y-26640000D01*
X5876134Y-26567571D01*
X5779606Y-26347509D01*
X5648176Y-26146342D01*
X5648168Y-26146331D01*
X5641717Y-26139324D01*
X9300001Y-26139324D01*
X9315442Y-26256628D01*
X9315444Y-26256633D01*
X9375899Y-26402585D01*
X9472075Y-26527924D01*
X9597413Y-26624100D01*
X9743365Y-26684554D01*
X9743369Y-26684555D01*
X9860676Y-26699999D01*
X10299999Y-26699999D01*
X10300000Y-26699998D01*
X10300000Y-25700000D01*
X9300001Y-25700000D01*
X9300001Y-26139324D01*
X5641717Y-26139324D01*
X5588194Y-26081183D01*
X5557271Y-26018529D01*
X5565131Y-25949103D01*
X5609278Y-25894947D01*
X5631972Y-25882638D01*
X5652588Y-25874098D01*
X5777924Y-25777924D01*
X5874100Y-25652586D01*
X5934554Y-25506634D01*
X5934555Y-25506630D01*
X5949999Y-25389330D01*
X5950000Y-25389316D01*
X5950000Y-24900000D01*
X4900000Y-24900000D01*
X4900000Y-26640000D01*
X4807106Y-26640000D01*
X4807007Y-26639901D01*
X4692993Y-26574075D01*
X4565826Y-26540000D01*
X4434174Y-26540000D01*
X4307007Y-26574075D01*
X4192993Y-26639901D01*
X4099901Y-26732993D01*
X4034075Y-26847007D01*
X4000000Y-26974174D01*
X1500500Y-26974174D01*
X1500500Y-25389324D01*
X3050001Y-25389324D01*
X3065442Y-25506628D01*
X3065444Y-25506633D01*
X3125899Y-25652585D01*
X3222075Y-25777924D01*
X3347413Y-25874100D01*
X3368028Y-25882639D01*
X3422432Y-25926479D01*
X3444497Y-25992774D01*
X3427218Y-26060473D01*
X3411806Y-26081183D01*
X3351826Y-26146338D01*
X3351823Y-26146342D01*
X3220393Y-26347509D01*
X3123865Y-26567571D01*
X3105524Y-26640000D01*
X4100000Y-26640000D01*
X4100000Y-24900000D01*
X3050001Y-24900000D01*
X3050001Y-25389324D01*
X1500500Y-25389324D01*
X1500500Y-24434174D01*
X4000000Y-24434174D01*
X4000000Y-24565826D01*
X4034075Y-24692993D01*
X4099901Y-24807007D01*
X4192993Y-24900099D01*
X4307007Y-24965925D01*
X4434174Y-25000000D01*
X4565826Y-25000000D01*
X4692993Y-24965925D01*
X4807007Y-24900099D01*
X4900099Y-24807007D01*
X4965925Y-24692993D01*
X5000000Y-24565826D01*
X5000000Y-24460669D01*
X9300000Y-24460669D01*
X9300000Y-24900000D01*
X10300000Y-24900000D01*
X10300000Y-23900000D01*
X9860675Y-23900000D01*
X9743371Y-23915442D01*
X9743366Y-23915444D01*
X9597414Y-23975899D01*
X9472075Y-24072075D01*
X9375899Y-24197413D01*
X9315445Y-24343365D01*
X9315444Y-24343369D01*
X9300000Y-24460669D01*
X5000000Y-24460669D01*
X5000000Y-24434174D01*
X4965925Y-24307007D01*
X4900099Y-24192993D01*
X4807106Y-24100000D01*
X4900000Y-24100000D01*
X5949999Y-24100000D01*
X5949999Y-23610675D01*
X5934557Y-23493371D01*
X5934555Y-23493366D01*
X5874100Y-23347414D01*
X5777924Y-23222075D01*
X5652586Y-23125899D01*
X5506634Y-23065445D01*
X5506630Y-23065444D01*
X5389330Y-23050000D01*
X4900000Y-23050000D01*
X4900000Y-24100000D01*
X4807106Y-24100000D01*
X4807007Y-24099901D01*
X4692993Y-24034075D01*
X4565826Y-24000000D01*
X4434174Y-24000000D01*
X4307007Y-24034075D01*
X4192993Y-24099901D01*
X4099901Y-24192993D01*
X4034075Y-24307007D01*
X4000000Y-24434174D01*
X1500500Y-24434174D01*
X1500500Y-23610669D01*
X3050000Y-23610669D01*
X3050000Y-24100000D01*
X4100000Y-24100000D01*
X4100000Y-23050000D01*
X3610675Y-23050000D01*
X3493371Y-23065442D01*
X3493366Y-23065444D01*
X3347414Y-23125899D01*
X3222075Y-23222075D01*
X3125899Y-23347413D01*
X3065445Y-23493365D01*
X3065444Y-23493369D01*
X3050000Y-23610669D01*
X1500500Y-23610669D01*
X1500500Y-10879999D01*
X3144341Y-10879999D01*
X3144341Y-10880000D01*
X3164936Y-11115403D01*
X3164938Y-11115413D01*
X3226094Y-11343655D01*
X3226096Y-11343659D01*
X3226097Y-11343663D01*
X3325965Y-11557830D01*
X3325967Y-11557834D01*
X3461501Y-11751395D01*
X3461506Y-11751402D01*
X3563181Y-11853077D01*
X3596666Y-11914400D01*
X3599500Y-11940758D01*
X3599500Y-12359241D01*
X3579815Y-12426280D01*
X3563181Y-12446922D01*
X3461505Y-12548597D01*
X3325965Y-12742169D01*
X3325964Y-12742171D01*
X3226098Y-12956335D01*
X3226094Y-12956344D01*
X3164938Y-13184586D01*
X3164936Y-13184596D01*
X3144341Y-13419999D01*
X3144341Y-13420000D01*
X3164936Y-13655403D01*
X3164938Y-13655413D01*
X3226094Y-13883655D01*
X3226096Y-13883659D01*
X3226097Y-13883663D01*
X3246430Y-13927267D01*
X3325965Y-14097830D01*
X3325967Y-14097834D01*
X3461501Y-14291395D01*
X3461506Y-14291402D01*
X3563181Y-14393077D01*
X3596666Y-14454400D01*
X3599500Y-14480758D01*
X3599500Y-14899241D01*
X3579815Y-14966280D01*
X3563181Y-14986922D01*
X3461505Y-15088597D01*
X3325965Y-15282169D01*
X3325964Y-15282171D01*
X3226098Y-15496335D01*
X3226094Y-15496344D01*
X3164938Y-15724586D01*
X3164936Y-15724596D01*
X3144341Y-15959999D01*
X3144341Y-15960000D01*
X3164936Y-16195403D01*
X3164938Y-16195413D01*
X3226094Y-16423655D01*
X3226096Y-16423659D01*
X3226097Y-16423663D01*
X3239898Y-16453259D01*
X3325965Y-16637830D01*
X3325967Y-16637834D01*
X3461501Y-16831395D01*
X3461506Y-16831402D01*
X3563181Y-16933077D01*
X3596666Y-16994400D01*
X3599500Y-17020758D01*
X3599500Y-17048560D01*
X3579815Y-17115599D01*
X3527011Y-17161354D01*
X3518833Y-17164742D01*
X3407671Y-17206202D01*
X3407664Y-17206206D01*
X3292455Y-17292452D01*
X3292452Y-17292455D01*
X3206206Y-17407664D01*
X3206202Y-17407671D01*
X3155908Y-17542517D01*
X3149501Y-17602116D01*
X3149500Y-17602135D01*
X3149500Y-19397870D01*
X3149501Y-19397876D01*
X3155908Y-19457483D01*
X3206202Y-19592328D01*
X3206206Y-19592335D01*
X3292452Y-19707544D01*
X3292455Y-19707547D01*
X3407664Y-19793793D01*
X3407671Y-19793797D01*
X3542517Y-19844091D01*
X3542516Y-19844091D01*
X3549444Y-19844835D01*
X3602127Y-19850500D01*
X5397872Y-19850499D01*
X5457483Y-19844091D01*
X5592331Y-19793796D01*
X5707546Y-19707546D01*
X5793796Y-19592331D01*
X5801149Y-19572615D01*
X5835258Y-19481167D01*
X5877129Y-19425233D01*
X5942593Y-19400816D01*
X5951440Y-19400500D01*
X9968693Y-19400500D01*
X9968694Y-19400499D01*
X10142666Y-19365895D01*
X10224606Y-19331953D01*
X10306547Y-19298013D01*
X10306549Y-19298011D01*
X10306552Y-19298010D01*
X10394955Y-19238939D01*
X10394955Y-19238938D01*
X10394959Y-19238936D01*
X10454036Y-19199464D01*
X10633055Y-19020443D01*
X10694374Y-18986961D01*
X10709916Y-18984600D01*
X10926692Y-18965635D01*
X11146496Y-18906739D01*
X11352734Y-18810568D01*
X11539139Y-18680047D01*
X11700047Y-18519139D01*
X11830568Y-18332734D01*
X11857618Y-18274724D01*
X11903790Y-18222285D01*
X11970983Y-18203133D01*
X12037865Y-18223348D01*
X12082382Y-18274725D01*
X12109429Y-18332728D01*
X12109432Y-18332734D01*
X12239954Y-18519141D01*
X12400858Y-18680045D01*
X12400861Y-18680047D01*
X12587266Y-18810568D01*
X12793504Y-18906739D01*
X12793509Y-18906740D01*
X12793511Y-18906741D01*
X12969546Y-18953909D01*
X13029207Y-18990274D01*
X13059736Y-19053121D01*
X13051441Y-19122496D01*
X13025134Y-19161365D01*
X12540538Y-19645960D01*
X12540537Y-19645961D01*
X12501064Y-19705039D01*
X12501063Y-19705040D01*
X12441990Y-19793447D01*
X12441983Y-19793459D01*
X12418358Y-19850498D01*
X12418358Y-19850499D01*
X12374105Y-19957333D01*
X12374103Y-19957341D01*
X12339500Y-20131303D01*
X12339500Y-24309951D01*
X12319815Y-24376990D01*
X12303176Y-24397637D01*
X12294087Y-24406725D01*
X12232762Y-24440207D01*
X12163071Y-24435218D01*
X12107140Y-24393344D01*
X12086635Y-24351129D01*
X12084554Y-24343363D01*
X12024100Y-24197414D01*
X11927924Y-24072075D01*
X11802586Y-23975899D01*
X11656634Y-23915445D01*
X11656630Y-23915444D01*
X11539330Y-23900000D01*
X11100000Y-23900000D01*
X11100000Y-25247339D01*
X11072741Y-25145606D01*
X11020080Y-25054394D01*
X10945606Y-24979920D01*
X10854394Y-24927259D01*
X10752661Y-24900000D01*
X10647339Y-24900000D01*
X10545606Y-24927259D01*
X10454394Y-24979920D01*
X10379920Y-25054394D01*
X10327259Y-25145606D01*
X10300000Y-25247339D01*
X10300000Y-25352661D01*
X10327259Y-25454394D01*
X10379920Y-25545606D01*
X10454394Y-25620080D01*
X10545606Y-25672741D01*
X10647339Y-25700000D01*
X10752661Y-25700000D01*
X10854394Y-25672741D01*
X10945606Y-25620080D01*
X11020080Y-25545606D01*
X11072741Y-25454394D01*
X11100000Y-25352661D01*
X11100000Y-26699999D01*
X11539324Y-26699999D01*
X11656628Y-26684557D01*
X11656633Y-26684555D01*
X11802585Y-26624100D01*
X11927924Y-26527924D01*
X12024100Y-26402586D01*
X12084555Y-26256631D01*
X12086636Y-26248868D01*
X12122999Y-26189206D01*
X12185846Y-26158676D01*
X12255222Y-26166970D01*
X12294092Y-26193278D01*
X12303181Y-26202367D01*
X12336666Y-26263690D01*
X12339500Y-26290048D01*
X12339500Y-29075500D01*
X12319815Y-29142539D01*
X12267011Y-29188294D01*
X12215500Y-29199500D01*
X11652129Y-29199500D01*
X11652123Y-29199501D01*
X11592516Y-29205908D01*
X11457671Y-29256202D01*
X11457664Y-29256206D01*
X11342455Y-29342452D01*
X11342452Y-29342455D01*
X11256206Y-29457664D01*
X11256202Y-29457671D01*
X11205908Y-29592517D01*
X11199501Y-29652116D01*
X11199500Y-29652135D01*
X11199500Y-29814823D01*
X11179815Y-29881862D01*
X11163181Y-29902504D01*
X10565685Y-30500000D01*
X11163181Y-31097495D01*
X11196666Y-31158818D01*
X11199500Y-31185175D01*
X11199500Y-31347869D01*
X11199501Y-31347876D01*
X11205908Y-31407483D01*
X11256202Y-31542328D01*
X11256206Y-31542335D01*
X11342452Y-31657544D01*
X11342455Y-31657547D01*
X11457664Y-31743793D01*
X11457671Y-31743797D01*
X11592517Y-31794091D01*
X11592516Y-31794091D01*
X11599444Y-31794835D01*
X11652127Y-31800500D01*
X13347872Y-31800499D01*
X13407483Y-31794091D01*
X13542331Y-31743796D01*
X13558723Y-31731525D01*
X20334159Y-31731525D01*
X20435698Y-31786476D01*
X20435706Y-31786479D01*
X20655139Y-31861811D01*
X20883993Y-31900000D01*
X21116007Y-31900000D01*
X21344860Y-31861811D01*
X21564292Y-31786480D01*
X21665839Y-31731525D01*
X21000001Y-31065685D01*
X21000000Y-31065685D01*
X20334159Y-31731525D01*
X13558723Y-31731525D01*
X13657546Y-31657546D01*
X13743796Y-31542331D01*
X13794091Y-31407483D01*
X13800500Y-31347873D01*
X13800499Y-30524362D01*
X13807654Y-30499994D01*
X19595202Y-30499994D01*
X19595202Y-30500005D01*
X19614361Y-30731218D01*
X19671317Y-30956135D01*
X19764515Y-31168605D01*
X19764517Y-31168610D01*
X19764986Y-31169326D01*
X20434314Y-30500000D01*
X20381653Y-30447339D01*
X20600000Y-30447339D01*
X20600000Y-30552661D01*
X20627259Y-30654394D01*
X20679920Y-30745606D01*
X20754394Y-30820080D01*
X20845606Y-30872741D01*
X20947339Y-30900000D01*
X21052661Y-30900000D01*
X21154394Y-30872741D01*
X21245606Y-30820080D01*
X21320080Y-30745606D01*
X21372741Y-30654394D01*
X21400000Y-30552661D01*
X21400000Y-30447339D01*
X21372741Y-30345606D01*
X21320080Y-30254394D01*
X21245606Y-30179920D01*
X21154394Y-30127259D01*
X21052661Y-30100000D01*
X20947339Y-30100000D01*
X20845606Y-30127259D01*
X20754394Y-30179920D01*
X20679920Y-30254394D01*
X20627259Y-30345606D01*
X20600000Y-30447339D01*
X20381653Y-30447339D01*
X19764986Y-29830672D01*
X19764985Y-29830672D01*
X19764519Y-29831385D01*
X19764516Y-29831391D01*
X19671317Y-30043864D01*
X19614361Y-30268781D01*
X19595202Y-30499994D01*
X13807654Y-30499994D01*
X13820183Y-30457324D01*
X13836818Y-30436681D01*
X13939464Y-30334036D01*
X13992679Y-30254394D01*
X14004078Y-30237335D01*
X14004078Y-30237334D01*
X14038013Y-30186547D01*
X14084858Y-30073453D01*
X14105895Y-30022666D01*
X14140500Y-29848692D01*
X14140500Y-29671308D01*
X14140500Y-26290048D01*
X14160185Y-26223009D01*
X14176814Y-26202371D01*
X14240047Y-26139139D01*
X14370568Y-25952734D01*
X14397618Y-25894724D01*
X14443790Y-25842285D01*
X14510983Y-25823133D01*
X14577865Y-25843348D01*
X14622381Y-25894724D01*
X14636517Y-25925038D01*
X14649429Y-25952728D01*
X14649432Y-25952734D01*
X14779951Y-26139137D01*
X14779952Y-26139138D01*
X14779953Y-26139139D01*
X14843182Y-26202368D01*
X14876666Y-26263689D01*
X14879500Y-26290048D01*
X14879500Y-27788696D01*
X14914103Y-27962658D01*
X14914105Y-27962666D01*
X14948046Y-28044606D01*
X14948046Y-28044607D01*
X14981984Y-28126542D01*
X14981985Y-28126543D01*
X14981987Y-28126547D01*
X15026592Y-28193302D01*
X15026595Y-28193306D01*
X15026595Y-28193307D01*
X15044890Y-28220687D01*
X15080536Y-28274036D01*
X15159554Y-28353054D01*
X15193038Y-28414375D01*
X15195400Y-28429926D01*
X15214364Y-28646687D01*
X15214366Y-28646697D01*
X15273258Y-28866488D01*
X15273261Y-28866497D01*
X15369431Y-29072732D01*
X15369432Y-29072734D01*
X15499954Y-29259141D01*
X15660858Y-29420045D01*
X15660861Y-29420047D01*
X15847266Y-29550568D01*
X16053504Y-29646739D01*
X16273308Y-29705635D01*
X16435230Y-29719801D01*
X16499998Y-29725468D01*
X16500000Y-29725468D01*
X16500002Y-29725468D01*
X16556673Y-29720509D01*
X16726692Y-29705635D01*
X16946496Y-29646739D01*
X17152734Y-29550568D01*
X17339139Y-29420047D01*
X17490713Y-29268473D01*
X20334158Y-29268473D01*
X21000000Y-29934314D01*
X21000001Y-29934314D01*
X21665839Y-29268473D01*
X21665840Y-29268473D01*
X21564301Y-29213523D01*
X21564293Y-29213520D01*
X21344860Y-29138188D01*
X21116007Y-29100000D01*
X20883993Y-29100000D01*
X20655139Y-29138188D01*
X20435703Y-29213521D01*
X20435692Y-29213526D01*
X20334158Y-29268473D01*
X17490713Y-29268473D01*
X17500047Y-29259139D01*
X17630568Y-29072734D01*
X17726739Y-28866496D01*
X17785635Y-28646692D01*
X17805468Y-28420000D01*
X17785635Y-28193308D01*
X17726739Y-27973504D01*
X17630568Y-27767266D01*
X17500047Y-27580861D01*
X17500045Y-27580858D01*
X17339141Y-27419954D01*
X17152734Y-27289432D01*
X17152732Y-27289431D01*
X16946497Y-27193261D01*
X16946488Y-27193258D01*
X16772407Y-27146614D01*
X16712746Y-27110249D01*
X16682217Y-27047402D01*
X16680500Y-27026839D01*
X16680500Y-26290048D01*
X16700185Y-26223009D01*
X16716814Y-26202371D01*
X16780047Y-26139139D01*
X16910568Y-25952734D01*
X16937618Y-25894724D01*
X16983790Y-25842285D01*
X17050983Y-25823133D01*
X17117865Y-25843348D01*
X17162381Y-25894724D01*
X17176517Y-25925038D01*
X17189429Y-25952728D01*
X17189432Y-25952734D01*
X17319954Y-26139141D01*
X17480858Y-26300045D01*
X17480861Y-26300047D01*
X17667266Y-26430568D01*
X17873504Y-26526739D01*
X17873509Y-26526740D01*
X17873511Y-26526741D01*
X17922995Y-26540000D01*
X18093308Y-26585635D01*
X18255230Y-26599801D01*
X18319998Y-26605468D01*
X18320000Y-26605468D01*
X18320002Y-26605468D01*
X18376673Y-26600509D01*
X18546692Y-26585635D01*
X18766496Y-26526739D01*
X18972734Y-26430568D01*
X19159139Y-26300047D01*
X19319862Y-26139324D01*
X20300001Y-26139324D01*
X20315442Y-26256628D01*
X20315444Y-26256633D01*
X20375899Y-26402585D01*
X20472075Y-26527924D01*
X20597413Y-26624100D01*
X20743365Y-26684554D01*
X20743369Y-26684555D01*
X20860676Y-26699999D01*
X21299999Y-26699999D01*
X21300000Y-26699998D01*
X21300000Y-25700000D01*
X20300001Y-25700000D01*
X20300001Y-26139324D01*
X19319862Y-26139324D01*
X19320047Y-26139139D01*
X19450568Y-25952734D01*
X19546739Y-25746496D01*
X19605635Y-25526692D01*
X19625468Y-25300000D01*
X19605635Y-25073308D01*
X19546739Y-24853504D01*
X19450568Y-24647266D01*
X19320047Y-24460861D01*
X19320045Y-24460858D01*
X19319856Y-24460669D01*
X20300000Y-24460669D01*
X20300000Y-24900000D01*
X21300000Y-24900000D01*
X21300000Y-23900000D01*
X20860675Y-23900000D01*
X20743371Y-23915442D01*
X20743366Y-23915444D01*
X20597414Y-23975899D01*
X20472075Y-24072075D01*
X20375899Y-24197413D01*
X20315445Y-24343365D01*
X20315444Y-24343369D01*
X20300000Y-24460669D01*
X19319856Y-24460669D01*
X19256819Y-24397632D01*
X19223334Y-24336309D01*
X19220500Y-24309951D01*
X19220500Y-21484361D01*
X19240185Y-21417322D01*
X19256814Y-21396685D01*
X21633054Y-19020444D01*
X21694375Y-18986961D01*
X21709916Y-18984600D01*
X21926692Y-18965635D01*
X22146496Y-18906739D01*
X22352734Y-18810568D01*
X22539139Y-18680047D01*
X22700047Y-18519139D01*
X22830568Y-18332734D01*
X22857618Y-18274724D01*
X22903790Y-18222285D01*
X22970983Y-18203133D01*
X23037865Y-18223348D01*
X23082382Y-18274725D01*
X23109429Y-18332728D01*
X23109432Y-18332734D01*
X23239954Y-18519141D01*
X23400858Y-18680045D01*
X23400861Y-18680047D01*
X23587266Y-18810568D01*
X23793504Y-18906739D01*
X23793509Y-18906740D01*
X23793511Y-18906741D01*
X23969546Y-18953909D01*
X24029207Y-18990274D01*
X24059736Y-19053121D01*
X24051441Y-19122496D01*
X24025134Y-19161365D01*
X23540538Y-19645960D01*
X23540537Y-19645961D01*
X23501064Y-19705039D01*
X23501063Y-19705040D01*
X23441990Y-19793447D01*
X23441983Y-19793459D01*
X23418358Y-19850498D01*
X23418358Y-19850499D01*
X23374105Y-19957333D01*
X23374103Y-19957341D01*
X23339500Y-20131303D01*
X23339500Y-24309951D01*
X23319815Y-24376990D01*
X23303176Y-24397637D01*
X23294087Y-24406725D01*
X23232762Y-24440207D01*
X23163071Y-24435218D01*
X23107140Y-24393344D01*
X23086635Y-24351129D01*
X23084554Y-24343363D01*
X23024100Y-24197414D01*
X22927924Y-24072075D01*
X22802586Y-23975899D01*
X22656634Y-23915445D01*
X22656630Y-23915444D01*
X22539330Y-23900000D01*
X22100000Y-23900000D01*
X22100000Y-25247339D01*
X22072741Y-25145606D01*
X22020080Y-25054394D01*
X21945606Y-24979920D01*
X21854394Y-24927259D01*
X21752661Y-24900000D01*
X21647339Y-24900000D01*
X21545606Y-24927259D01*
X21454394Y-24979920D01*
X21379920Y-25054394D01*
X21327259Y-25145606D01*
X21300000Y-25247339D01*
X21300000Y-25352661D01*
X21327259Y-25454394D01*
X21379920Y-25545606D01*
X21454394Y-25620080D01*
X21545606Y-25672741D01*
X21647339Y-25700000D01*
X21752661Y-25700000D01*
X21854394Y-25672741D01*
X21945606Y-25620080D01*
X22020080Y-25545606D01*
X22072741Y-25454394D01*
X22100000Y-25352661D01*
X22100000Y-26699999D01*
X22539324Y-26699999D01*
X22656628Y-26684557D01*
X22656633Y-26684555D01*
X22802585Y-26624100D01*
X22927924Y-26527924D01*
X23024100Y-26402586D01*
X23084555Y-26256631D01*
X23086636Y-26248868D01*
X23122999Y-26189206D01*
X23185846Y-26158676D01*
X23255222Y-26166970D01*
X23294092Y-26193278D01*
X23303181Y-26202367D01*
X23336666Y-26263690D01*
X23339500Y-26290048D01*
X23339500Y-29075500D01*
X23319815Y-29142539D01*
X23267011Y-29188294D01*
X23215500Y-29199500D01*
X22652129Y-29199500D01*
X22652123Y-29199501D01*
X22592516Y-29205908D01*
X22457671Y-29256202D01*
X22457664Y-29256206D01*
X22342455Y-29342452D01*
X22342452Y-29342455D01*
X22256206Y-29457664D01*
X22256202Y-29457671D01*
X22205908Y-29592517D01*
X22199501Y-29652116D01*
X22199500Y-29652135D01*
X22199500Y-29814823D01*
X22179815Y-29881862D01*
X22163181Y-29902504D01*
X21565684Y-30500000D01*
X22163181Y-31097495D01*
X22196666Y-31158818D01*
X22199500Y-31185175D01*
X22199500Y-31347869D01*
X22199501Y-31347876D01*
X22205908Y-31407483D01*
X22256202Y-31542328D01*
X22256206Y-31542335D01*
X22342452Y-31657544D01*
X22342455Y-31657547D01*
X22457664Y-31743793D01*
X22457671Y-31743797D01*
X22592517Y-31794091D01*
X22592516Y-31794091D01*
X22599444Y-31794835D01*
X22652127Y-31800500D01*
X24347872Y-31800499D01*
X24407483Y-31794091D01*
X24542331Y-31743796D01*
X24558723Y-31731525D01*
X31334159Y-31731525D01*
X31435698Y-31786476D01*
X31435706Y-31786479D01*
X31655139Y-31861811D01*
X31883993Y-31900000D01*
X32116007Y-31900000D01*
X32344860Y-31861811D01*
X32564292Y-31786480D01*
X32665839Y-31731525D01*
X32000001Y-31065685D01*
X32000000Y-31065685D01*
X31334159Y-31731525D01*
X24558723Y-31731525D01*
X24657546Y-31657546D01*
X24743796Y-31542331D01*
X24794091Y-31407483D01*
X24800500Y-31347873D01*
X24800499Y-30524362D01*
X24807654Y-30499994D01*
X30595202Y-30499994D01*
X30595202Y-30500005D01*
X30614361Y-30731218D01*
X30671317Y-30956135D01*
X30764515Y-31168605D01*
X30764517Y-31168610D01*
X30764986Y-31169326D01*
X31434314Y-30500000D01*
X31381653Y-30447339D01*
X31600000Y-30447339D01*
X31600000Y-30552661D01*
X31627259Y-30654394D01*
X31679920Y-30745606D01*
X31754394Y-30820080D01*
X31845606Y-30872741D01*
X31947339Y-30900000D01*
X32052661Y-30900000D01*
X32154394Y-30872741D01*
X32245606Y-30820080D01*
X32320080Y-30745606D01*
X32372741Y-30654394D01*
X32400000Y-30552661D01*
X32400000Y-30447339D01*
X32372741Y-30345606D01*
X32320080Y-30254394D01*
X32245606Y-30179920D01*
X32154394Y-30127259D01*
X32052661Y-30100000D01*
X31947339Y-30100000D01*
X31845606Y-30127259D01*
X31754394Y-30179920D01*
X31679920Y-30254394D01*
X31627259Y-30345606D01*
X31600000Y-30447339D01*
X31381653Y-30447339D01*
X30764986Y-29830672D01*
X30764985Y-29830672D01*
X30764519Y-29831385D01*
X30764516Y-29831391D01*
X30671317Y-30043864D01*
X30614361Y-30268781D01*
X30595202Y-30499994D01*
X24807654Y-30499994D01*
X24820183Y-30457324D01*
X24836818Y-30436681D01*
X24939464Y-30334036D01*
X24992679Y-30254394D01*
X25004078Y-30237335D01*
X25004078Y-30237334D01*
X25038013Y-30186547D01*
X25084858Y-30073453D01*
X25105895Y-30022666D01*
X25140500Y-29848692D01*
X25140500Y-29671308D01*
X25140500Y-26290048D01*
X25160185Y-26223009D01*
X25176814Y-26202371D01*
X25240047Y-26139139D01*
X25370568Y-25952734D01*
X25397618Y-25894724D01*
X25443790Y-25842285D01*
X25510983Y-25823133D01*
X25577865Y-25843348D01*
X25622381Y-25894724D01*
X25636517Y-25925038D01*
X25649429Y-25952728D01*
X25649432Y-25952734D01*
X25779951Y-26139137D01*
X25779952Y-26139138D01*
X25779953Y-26139139D01*
X25843182Y-26202368D01*
X25876666Y-26263689D01*
X25879500Y-26290048D01*
X25879500Y-27788696D01*
X25914103Y-27962658D01*
X25914105Y-27962666D01*
X25948046Y-28044606D01*
X25948046Y-28044607D01*
X25981984Y-28126542D01*
X25981985Y-28126543D01*
X25981987Y-28126547D01*
X26026592Y-28193302D01*
X26026595Y-28193306D01*
X26026595Y-28193307D01*
X26044890Y-28220687D01*
X26080536Y-28274036D01*
X26159554Y-28353054D01*
X26193038Y-28414375D01*
X26195400Y-28429926D01*
X26214364Y-28646687D01*
X26214366Y-28646697D01*
X26273258Y-28866488D01*
X26273261Y-28866497D01*
X26369431Y-29072732D01*
X26369432Y-29072734D01*
X26499954Y-29259141D01*
X26660858Y-29420045D01*
X26660861Y-29420047D01*
X26847266Y-29550568D01*
X27053504Y-29646739D01*
X27273308Y-29705635D01*
X27435230Y-29719801D01*
X27499998Y-29725468D01*
X27500000Y-29725468D01*
X27500002Y-29725468D01*
X27556673Y-29720509D01*
X27726692Y-29705635D01*
X27946496Y-29646739D01*
X28152734Y-29550568D01*
X28339139Y-29420047D01*
X28490713Y-29268473D01*
X31334158Y-29268473D01*
X32000000Y-29934314D01*
X32000001Y-29934314D01*
X32665839Y-29268473D01*
X32665840Y-29268473D01*
X32564301Y-29213523D01*
X32564293Y-29213520D01*
X32344860Y-29138188D01*
X32116007Y-29100000D01*
X31883993Y-29100000D01*
X31655139Y-29138188D01*
X31435703Y-29213521D01*
X31435692Y-29213526D01*
X31334158Y-29268473D01*
X28490713Y-29268473D01*
X28500047Y-29259139D01*
X28630568Y-29072734D01*
X28726739Y-28866496D01*
X28785635Y-28646692D01*
X28805468Y-28420000D01*
X28785635Y-28193308D01*
X28726739Y-27973504D01*
X28630568Y-27767266D01*
X28500047Y-27580861D01*
X28500045Y-27580858D01*
X28339141Y-27419954D01*
X28152734Y-27289432D01*
X28152732Y-27289431D01*
X27946497Y-27193261D01*
X27946488Y-27193258D01*
X27772407Y-27146614D01*
X27712746Y-27110249D01*
X27682217Y-27047402D01*
X27680500Y-27026839D01*
X27680500Y-26290048D01*
X27700185Y-26223009D01*
X27716814Y-26202371D01*
X27780047Y-26139139D01*
X27910568Y-25952734D01*
X27937618Y-25894724D01*
X27983790Y-25842285D01*
X28050983Y-25823133D01*
X28117865Y-25843348D01*
X28162381Y-25894724D01*
X28176517Y-25925038D01*
X28189429Y-25952728D01*
X28189432Y-25952734D01*
X28319954Y-26139141D01*
X28480858Y-26300045D01*
X28480861Y-26300047D01*
X28667266Y-26430568D01*
X28873504Y-26526739D01*
X28873509Y-26526740D01*
X28873511Y-26526741D01*
X28922995Y-26540000D01*
X29093308Y-26585635D01*
X29255230Y-26599801D01*
X29319998Y-26605468D01*
X29320000Y-26605468D01*
X29320002Y-26605468D01*
X29376673Y-26600509D01*
X29546692Y-26585635D01*
X29766496Y-26526739D01*
X29972734Y-26430568D01*
X30159139Y-26300047D01*
X30319862Y-26139324D01*
X31300001Y-26139324D01*
X31315442Y-26256628D01*
X31315444Y-26256633D01*
X31375899Y-26402585D01*
X31472075Y-26527924D01*
X31597413Y-26624100D01*
X31743365Y-26684554D01*
X31743369Y-26684555D01*
X31860676Y-26699999D01*
X32299999Y-26699999D01*
X32300000Y-26699998D01*
X32300000Y-25700000D01*
X31300001Y-25700000D01*
X31300001Y-26139324D01*
X30319862Y-26139324D01*
X30320047Y-26139139D01*
X30450568Y-25952734D01*
X30546739Y-25746496D01*
X30605635Y-25526692D01*
X30625468Y-25300000D01*
X30605635Y-25073308D01*
X30546739Y-24853504D01*
X30450568Y-24647266D01*
X30320047Y-24460861D01*
X30320045Y-24460858D01*
X30319856Y-24460669D01*
X31300000Y-24460669D01*
X31300000Y-24900000D01*
X32300000Y-24900000D01*
X32300000Y-23900000D01*
X31860675Y-23900000D01*
X31743371Y-23915442D01*
X31743366Y-23915444D01*
X31597414Y-23975899D01*
X31472075Y-24072075D01*
X31375899Y-24197413D01*
X31315445Y-24343365D01*
X31315444Y-24343369D01*
X31300000Y-24460669D01*
X30319856Y-24460669D01*
X30256819Y-24397632D01*
X30223334Y-24336309D01*
X30220500Y-24309951D01*
X30220500Y-21484361D01*
X30240185Y-21417322D01*
X30256814Y-21396685D01*
X32633054Y-19020444D01*
X32694375Y-18986961D01*
X32709916Y-18984600D01*
X32926692Y-18965635D01*
X33146496Y-18906739D01*
X33352734Y-18810568D01*
X33539139Y-18680047D01*
X33700047Y-18519139D01*
X33830568Y-18332734D01*
X33857618Y-18274724D01*
X33903790Y-18222285D01*
X33970983Y-18203133D01*
X34037865Y-18223348D01*
X34082382Y-18274725D01*
X34109429Y-18332728D01*
X34109432Y-18332734D01*
X34239954Y-18519141D01*
X34400858Y-18680045D01*
X34400861Y-18680047D01*
X34587266Y-18810568D01*
X34793504Y-18906739D01*
X34793509Y-18906740D01*
X34793511Y-18906741D01*
X34969546Y-18953909D01*
X35029207Y-18990274D01*
X35059736Y-19053121D01*
X35051441Y-19122496D01*
X35025134Y-19161365D01*
X34540538Y-19645960D01*
X34540537Y-19645961D01*
X34501064Y-19705039D01*
X34501063Y-19705040D01*
X34441990Y-19793447D01*
X34441983Y-19793459D01*
X34418358Y-19850498D01*
X34418358Y-19850499D01*
X34374105Y-19957333D01*
X34374103Y-19957341D01*
X34339500Y-20131303D01*
X34339500Y-24309951D01*
X34319815Y-24376990D01*
X34303176Y-24397637D01*
X34294087Y-24406725D01*
X34232762Y-24440207D01*
X34163071Y-24435218D01*
X34107140Y-24393344D01*
X34086635Y-24351129D01*
X34084554Y-24343363D01*
X34024100Y-24197414D01*
X33927924Y-24072075D01*
X33802586Y-23975899D01*
X33656634Y-23915445D01*
X33656630Y-23915444D01*
X33539330Y-23900000D01*
X33100000Y-23900000D01*
X33100000Y-25247339D01*
X33072741Y-25145606D01*
X33020080Y-25054394D01*
X32945606Y-24979920D01*
X32854394Y-24927259D01*
X32752661Y-24900000D01*
X32647339Y-24900000D01*
X32545606Y-24927259D01*
X32454394Y-24979920D01*
X32379920Y-25054394D01*
X32327259Y-25145606D01*
X32300000Y-25247339D01*
X32300000Y-25352661D01*
X32327259Y-25454394D01*
X32379920Y-25545606D01*
X32454394Y-25620080D01*
X32545606Y-25672741D01*
X32647339Y-25700000D01*
X32752661Y-25700000D01*
X32854394Y-25672741D01*
X32945606Y-25620080D01*
X33020080Y-25545606D01*
X33072741Y-25454394D01*
X33100000Y-25352661D01*
X33100000Y-26699999D01*
X33539324Y-26699999D01*
X33656628Y-26684557D01*
X33656633Y-26684555D01*
X33802585Y-26624100D01*
X33927924Y-26527924D01*
X34024100Y-26402586D01*
X34084555Y-26256631D01*
X34086636Y-26248868D01*
X34122999Y-26189206D01*
X34185846Y-26158676D01*
X34255222Y-26166970D01*
X34294092Y-26193278D01*
X34303181Y-26202367D01*
X34336666Y-26263690D01*
X34339500Y-26290048D01*
X34339500Y-29075500D01*
X34319815Y-29142539D01*
X34267011Y-29188294D01*
X34215500Y-29199500D01*
X33652129Y-29199500D01*
X33652123Y-29199501D01*
X33592516Y-29205908D01*
X33457671Y-29256202D01*
X33457664Y-29256206D01*
X33342455Y-29342452D01*
X33342452Y-29342455D01*
X33256206Y-29457664D01*
X33256202Y-29457671D01*
X33205908Y-29592517D01*
X33199501Y-29652116D01*
X33199500Y-29652135D01*
X33199500Y-29814823D01*
X33179815Y-29881862D01*
X33163181Y-29902504D01*
X32565684Y-30500000D01*
X33163181Y-31097495D01*
X33196666Y-31158818D01*
X33199500Y-31185175D01*
X33199500Y-31347869D01*
X33199501Y-31347876D01*
X33205908Y-31407483D01*
X33256202Y-31542328D01*
X33256206Y-31542335D01*
X33342452Y-31657544D01*
X33342455Y-31657547D01*
X33457664Y-31743793D01*
X33457671Y-31743797D01*
X33592517Y-31794091D01*
X33592516Y-31794091D01*
X33599444Y-31794835D01*
X33652127Y-31800500D01*
X35347872Y-31800499D01*
X35407483Y-31794091D01*
X35542331Y-31743796D01*
X35657546Y-31657546D01*
X35743796Y-31542331D01*
X35794091Y-31407483D01*
X35800500Y-31347873D01*
X35800499Y-30524362D01*
X35820183Y-30457324D01*
X35836818Y-30436681D01*
X35939464Y-30334036D01*
X35992679Y-30254394D01*
X36004078Y-30237335D01*
X36004078Y-30237334D01*
X36038013Y-30186547D01*
X36084858Y-30073453D01*
X36105895Y-30022666D01*
X36140500Y-29848692D01*
X36140500Y-29671308D01*
X36140500Y-26290048D01*
X36160185Y-26223009D01*
X36176814Y-26202371D01*
X36240047Y-26139139D01*
X36370568Y-25952734D01*
X36397618Y-25894724D01*
X36443790Y-25842285D01*
X36510983Y-25823133D01*
X36577865Y-25843348D01*
X36622381Y-25894724D01*
X36636517Y-25925038D01*
X36649429Y-25952728D01*
X36649432Y-25952734D01*
X36779951Y-26139137D01*
X36779952Y-26139138D01*
X36779953Y-26139139D01*
X36843182Y-26202368D01*
X36876666Y-26263689D01*
X36879500Y-26290048D01*
X36879500Y-27788696D01*
X36914103Y-27962658D01*
X36914105Y-27962666D01*
X36948046Y-28044606D01*
X36948046Y-28044607D01*
X36981984Y-28126542D01*
X36981985Y-28126543D01*
X36981987Y-28126547D01*
X37026592Y-28193302D01*
X37026595Y-28193306D01*
X37026595Y-28193307D01*
X37044890Y-28220687D01*
X37080536Y-28274036D01*
X37159554Y-28353054D01*
X37193038Y-28414375D01*
X37195400Y-28429926D01*
X37214364Y-28646687D01*
X37214366Y-28646697D01*
X37273258Y-28866488D01*
X37273261Y-28866497D01*
X37369431Y-29072732D01*
X37369432Y-29072734D01*
X37499954Y-29259141D01*
X37660858Y-29420045D01*
X37660861Y-29420047D01*
X37847266Y-29550568D01*
X38053504Y-29646739D01*
X38273308Y-29705635D01*
X38435230Y-29719801D01*
X38499998Y-29725468D01*
X38500000Y-29725468D01*
X38500002Y-29725468D01*
X38556673Y-29720509D01*
X38726692Y-29705635D01*
X38946496Y-29646739D01*
X39152734Y-29550568D01*
X39339139Y-29420047D01*
X39500047Y-29259139D01*
X39630568Y-29072734D01*
X39726739Y-28866496D01*
X39785635Y-28646692D01*
X39805468Y-28420000D01*
X39785635Y-28193308D01*
X39726739Y-27973504D01*
X39630568Y-27767266D01*
X39500047Y-27580861D01*
X39500045Y-27580858D01*
X39339141Y-27419954D01*
X39152734Y-27289432D01*
X39152732Y-27289431D01*
X38946497Y-27193261D01*
X38946488Y-27193258D01*
X38772407Y-27146614D01*
X38712746Y-27110249D01*
X38682217Y-27047402D01*
X38680500Y-27026839D01*
X38680500Y-26290048D01*
X38700185Y-26223009D01*
X38716814Y-26202371D01*
X38780047Y-26139139D01*
X38910568Y-25952734D01*
X38937618Y-25894724D01*
X38983790Y-25842285D01*
X39050983Y-25823133D01*
X39117865Y-25843348D01*
X39162381Y-25894724D01*
X39176517Y-25925038D01*
X39189429Y-25952728D01*
X39189432Y-25952734D01*
X39319954Y-26139141D01*
X39480858Y-26300045D01*
X39480861Y-26300047D01*
X39667266Y-26430568D01*
X39873504Y-26526739D01*
X39873509Y-26526740D01*
X39873511Y-26526741D01*
X39922995Y-26540000D01*
X40093308Y-26585635D01*
X40255230Y-26599801D01*
X40319998Y-26605468D01*
X40320000Y-26605468D01*
X40320002Y-26605468D01*
X40376673Y-26600509D01*
X40546692Y-26585635D01*
X40766496Y-26526739D01*
X40972734Y-26430568D01*
X41159139Y-26300047D01*
X41320047Y-26139139D01*
X41450568Y-25952734D01*
X41546739Y-25746496D01*
X41605635Y-25526692D01*
X41624599Y-25309924D01*
X41650051Y-25244857D01*
X41660438Y-25233060D01*
X42673463Y-24220036D01*
X42707276Y-24169432D01*
X42772013Y-24072547D01*
X42805953Y-23990606D01*
X42839895Y-23908666D01*
X42874500Y-23734692D01*
X42874500Y-23557308D01*
X42874500Y-16302733D01*
X42872228Y-16291309D01*
X42839895Y-16128758D01*
X42772013Y-15964877D01*
X42772012Y-15964876D01*
X42772009Y-15964870D01*
X42673464Y-15817388D01*
X42673461Y-15817384D01*
X42344819Y-15488742D01*
X42311334Y-15427419D01*
X42308500Y-15401061D01*
X42308500Y-4819306D01*
X42308499Y-4819304D01*
X42273896Y-4645341D01*
X42273893Y-4645332D01*
X42206016Y-4481459D01*
X42206009Y-4481446D01*
X42137363Y-4378711D01*
X42649500Y-4378711D01*
X42649500Y-4621288D01*
X42681161Y-4861785D01*
X42743947Y-5096104D01*
X42836773Y-5320205D01*
X42836776Y-5320212D01*
X42958064Y-5530289D01*
X42958066Y-5530292D01*
X42958067Y-5530293D01*
X43105733Y-5722736D01*
X43105739Y-5722743D01*
X43277256Y-5894260D01*
X43277262Y-5894265D01*
X43469711Y-6041936D01*
X43679788Y-6163224D01*
X43903900Y-6256054D01*
X44138211Y-6318838D01*
X44318586Y-6342584D01*
X44378711Y-6350500D01*
X44378712Y-6350500D01*
X44621289Y-6350500D01*
X44669388Y-6344167D01*
X44861789Y-6318838D01*
X45096100Y-6256054D01*
X45320212Y-6163224D01*
X45530289Y-6041936D01*
X45722738Y-5894265D01*
X45894265Y-5722738D01*
X46041936Y-5530289D01*
X46163224Y-5320212D01*
X46256054Y-5096100D01*
X46318838Y-4861789D01*
X46350500Y-4621288D01*
X46350500Y-4378712D01*
X46318838Y-4138211D01*
X46256054Y-3903900D01*
X46163224Y-3679788D01*
X46041936Y-3469711D01*
X45894265Y-3277262D01*
X45894260Y-3277256D01*
X45722743Y-3105739D01*
X45722736Y-3105733D01*
X45530293Y-2958067D01*
X45530292Y-2958066D01*
X45530289Y-2958064D01*
X45320212Y-2836776D01*
X45320205Y-2836773D01*
X45096104Y-2743947D01*
X44861785Y-2681161D01*
X44621289Y-2649500D01*
X44621288Y-2649500D01*
X44378712Y-2649500D01*
X44378711Y-2649500D01*
X44138214Y-2681161D01*
X43903895Y-2743947D01*
X43679794Y-2836773D01*
X43679785Y-2836777D01*
X43469706Y-2958067D01*
X43277263Y-3105733D01*
X43277256Y-3105739D01*
X43105739Y-3277256D01*
X43105733Y-3277263D01*
X42958067Y-3469706D01*
X42836777Y-3679785D01*
X42836773Y-3679794D01*
X42743947Y-3903895D01*
X42681161Y-4138214D01*
X42649500Y-4378711D01*
X42137363Y-4378711D01*
X42107465Y-4333966D01*
X42088545Y-4315046D01*
X41982035Y-4208536D01*
X39840036Y-2066536D01*
X39840035Y-2066535D01*
X39840030Y-2066531D01*
X39780961Y-2027064D01*
X39780960Y-2027063D01*
X39692544Y-1967985D01*
X39692542Y-1967984D01*
X39610607Y-1934046D01*
X39610606Y-1934046D01*
X39528666Y-1900105D01*
X39528658Y-1900103D01*
X39354696Y-1865500D01*
X39354692Y-1865500D01*
X39354691Y-1865500D01*
X33903581Y-1865500D01*
X11903581Y-1865500D01*
X11726198Y-1865500D01*
X11726195Y-1865500D01*
X11552291Y-1900091D01*
X11552292Y-1900092D01*
X11552229Y-1900104D01*
X11552219Y-1900107D01*
X11388349Y-1967983D01*
X11388336Y-1967990D01*
X11240856Y-2066534D01*
X11240854Y-2066537D01*
X10146535Y-3160854D01*
X10146533Y-3160856D01*
X10125362Y-3192544D01*
X10125360Y-3192547D01*
X10047985Y-3308345D01*
X10014046Y-3390283D01*
X9980107Y-3472217D01*
X9980103Y-3472231D01*
X9958049Y-3583103D01*
X9958050Y-3583104D01*
X9945500Y-3646200D01*
X9945500Y-13014696D01*
X9980103Y-13188658D01*
X9980105Y-13188666D01*
X10014046Y-13270606D01*
X10014046Y-13270607D01*
X10047984Y-13352542D01*
X10047985Y-13352544D01*
X10093054Y-13419995D01*
X10093055Y-13419996D01*
X10093058Y-13420000D01*
X10112724Y-13449432D01*
X10146537Y-13500038D01*
X10146538Y-13500039D01*
X11138818Y-14492318D01*
X11172303Y-14553641D01*
X11167319Y-14623332D01*
X11138818Y-14667680D01*
X10000540Y-15805958D01*
X10000534Y-15805965D01*
X9963456Y-15861458D01*
X9963456Y-15861459D01*
X9947414Y-15885468D01*
X9901987Y-15953452D01*
X9880444Y-16005463D01*
X9834105Y-16117333D01*
X9834103Y-16117341D01*
X9799500Y-16291303D01*
X9799500Y-16689951D01*
X9779815Y-16756990D01*
X9763181Y-16777632D01*
X9699954Y-16840858D01*
X9569432Y-17027265D01*
X9569431Y-17027267D01*
X9473261Y-17233502D01*
X9473258Y-17233511D01*
X9414366Y-17453302D01*
X9414364Y-17453313D01*
X9411478Y-17486307D01*
X9386026Y-17551376D01*
X9329435Y-17592355D01*
X9287950Y-17599500D01*
X5951440Y-17599500D01*
X5884401Y-17579815D01*
X5838646Y-17527011D01*
X5835258Y-17518833D01*
X5793797Y-17407671D01*
X5793793Y-17407664D01*
X5707547Y-17292455D01*
X5707544Y-17292452D01*
X5592335Y-17206206D01*
X5592329Y-17206203D01*
X5481166Y-17164741D01*
X5425233Y-17122869D01*
X5400816Y-17057405D01*
X5400500Y-17048559D01*
X5400500Y-17020758D01*
X5420185Y-16953719D01*
X5436819Y-16933077D01*
X5538495Y-16831401D01*
X5674035Y-16637830D01*
X5773903Y-16423663D01*
X5835063Y-16195408D01*
X5855659Y-15960000D01*
X5835063Y-15724592D01*
X5773903Y-15496337D01*
X5674035Y-15282171D01*
X5538495Y-15088599D01*
X5538494Y-15088597D01*
X5436819Y-14986922D01*
X5403334Y-14925599D01*
X5400500Y-14899241D01*
X5400500Y-14480758D01*
X5420185Y-14413719D01*
X5436819Y-14393077D01*
X5476594Y-14353302D01*
X5538495Y-14291401D01*
X5674035Y-14097830D01*
X5773903Y-13883663D01*
X5835063Y-13655408D01*
X5855659Y-13420000D01*
X5835063Y-13184592D01*
X5773903Y-12956337D01*
X5674035Y-12742171D01*
X5567008Y-12589319D01*
X5538494Y-12548597D01*
X5436819Y-12446922D01*
X5403334Y-12385599D01*
X5400500Y-12359241D01*
X5400500Y-11940758D01*
X5420185Y-11873719D01*
X5436819Y-11853077D01*
X5538495Y-11751401D01*
X5674035Y-11557830D01*
X5773903Y-11343663D01*
X5835063Y-11115408D01*
X5855659Y-10880000D01*
X5835063Y-10644592D01*
X5773903Y-10416337D01*
X5674035Y-10202171D01*
X5538495Y-10008599D01*
X5538494Y-10008597D01*
X5371402Y-9841506D01*
X5371395Y-9841501D01*
X5177834Y-9705967D01*
X5177830Y-9705965D01*
X5177828Y-9705964D01*
X4963663Y-9606097D01*
X4963659Y-9606096D01*
X4963655Y-9606094D01*
X4735413Y-9544938D01*
X4735403Y-9544936D01*
X4500001Y-9524341D01*
X4499999Y-9524341D01*
X4264596Y-9544936D01*
X4264586Y-9544938D01*
X4036344Y-9606094D01*
X4036335Y-9606098D01*
X3822171Y-9705964D01*
X3822169Y-9705965D01*
X3628597Y-9841505D01*
X3461505Y-10008597D01*
X3325965Y-10202169D01*
X3325964Y-10202171D01*
X3226098Y-10416335D01*
X3226094Y-10416344D01*
X3164938Y-10644586D01*
X3164936Y-10644596D01*
X3144341Y-10879999D01*
X1500500Y-10879999D01*
X1500500Y-4503246D01*
X1500670Y-4496756D01*
X1506857Y-4378711D01*
X2649500Y-4378711D01*
X2649500Y-4621288D01*
X2681161Y-4861785D01*
X2743947Y-5096104D01*
X2836773Y-5320205D01*
X2836776Y-5320212D01*
X2958064Y-5530289D01*
X2958066Y-5530292D01*
X2958067Y-5530293D01*
X3105733Y-5722736D01*
X3105739Y-5722743D01*
X3277256Y-5894260D01*
X3277262Y-5894265D01*
X3469711Y-6041936D01*
X3679788Y-6163224D01*
X3903900Y-6256054D01*
X4138211Y-6318838D01*
X4318586Y-6342584D01*
X4378711Y-6350500D01*
X4378712Y-6350500D01*
X4621289Y-6350500D01*
X4669388Y-6344167D01*
X4861789Y-6318838D01*
X5096100Y-6256054D01*
X5320212Y-6163224D01*
X5530289Y-6041936D01*
X5722738Y-5894265D01*
X5894265Y-5722738D01*
X6041936Y-5530289D01*
X6163224Y-5320212D01*
X6256054Y-5096100D01*
X6318838Y-4861789D01*
X6350500Y-4621288D01*
X6350500Y-4378712D01*
X6318838Y-4138211D01*
X6256054Y-3903900D01*
X6163224Y-3679788D01*
X6041936Y-3469711D01*
X5894265Y-3277262D01*
X5894260Y-3277256D01*
X5722743Y-3105739D01*
X5722736Y-3105733D01*
X5530293Y-2958067D01*
X5530292Y-2958066D01*
X5530289Y-2958064D01*
X5320212Y-2836776D01*
X5320205Y-2836773D01*
X5096104Y-2743947D01*
X4861785Y-2681161D01*
X4621289Y-2649500D01*
X4621288Y-2649500D01*
X4378712Y-2649500D01*
X4378711Y-2649500D01*
X4138214Y-2681161D01*
X3903895Y-2743947D01*
X3679794Y-2836773D01*
X3679785Y-2836777D01*
X3469706Y-2958067D01*
X3277263Y-3105733D01*
X3277256Y-3105739D01*
X3105739Y-3277256D01*
X3105733Y-3277263D01*
X2958067Y-3469706D01*
X2836777Y-3679785D01*
X2836773Y-3679794D01*
X2743947Y-3903895D01*
X2681161Y-4138214D01*
X2649500Y-4378711D01*
X1506857Y-4378711D01*
X1516592Y-4192953D01*
X1517949Y-4180046D01*
X1550660Y-3973511D01*
X1565029Y-3882786D01*
X1567723Y-3870107D01*
X1645627Y-3579368D01*
X1649636Y-3567033D01*
X1686027Y-3472231D01*
X1757493Y-3286054D01*
X1762763Y-3274215D01*
X1899415Y-3006023D01*
X1905891Y-2994808D01*
X2069819Y-2742380D01*
X2077434Y-2731899D01*
X2266858Y-2497979D01*
X2275525Y-2488354D01*
X2488354Y-2275525D01*
X2497979Y-2266858D01*
X2731899Y-2077434D01*
X2742380Y-2069819D01*
X2994808Y-1905891D01*
X3006023Y-1899415D01*
X3274215Y-1762763D01*
X3286054Y-1757493D01*
X3567040Y-1649633D01*
X3579368Y-1645627D01*
X3870107Y-1567723D01*
X3882786Y-1565029D01*
X4180046Y-1517949D01*
X4192951Y-1516592D01*
X4496756Y-1500669D01*
X4503246Y-1500500D01*
X4565892Y-1500500D01*
X44434108Y-1500500D01*
X44496754Y-1500500D01*
X44503244Y-1500670D01*
G37*
%TD.AperFunction*%
%TD*%
M02*
