%TF.GenerationSoftware,KiCad,Pcbnew,8.0.6*%
%TF.CreationDate,2024-11-24T10:26:00-05:00*%
%TF.ProjectId,triple_555,74726970-6c65-45f3-9535-352e6b696361,rev?*%
%TF.SameCoordinates,PX717cbc0PY4add0a0*%
%TF.FileFunction,Copper,L2,Bot*%
%TF.FilePolarity,Positive*%
%FSLAX46Y46*%
G04 Gerber Fmt 4.6, Leading zero omitted, Abs format (unit mm)*
G04 Created by KiCad (PCBNEW 8.0.6) date 2024-11-24 10:26:00*
%MOMM*%
%LPD*%
G01*
G04 APERTURE LIST*
%TA.AperFunction,ComponentPad*%
%ADD10R,1.700000X1.700000*%
%TD*%
%TA.AperFunction,ComponentPad*%
%ADD11C,1.700000*%
%TD*%
%TA.AperFunction,ComponentPad*%
%ADD12C,3.500000*%
%TD*%
%TA.AperFunction,ComponentPad*%
%ADD13O,1.600000X1.600000*%
%TD*%
%TA.AperFunction,ComponentPad*%
%ADD14C,1.600000*%
%TD*%
%TA.AperFunction,ComponentPad*%
%ADD15R,1.600000X1.600000*%
%TD*%
%TA.AperFunction,ComponentPad*%
%ADD16O,1.700000X1.700000*%
%TD*%
%TA.AperFunction,ComponentPad*%
%ADD17R,1.800000X1.800000*%
%TD*%
%TA.AperFunction,ComponentPad*%
%ADD18C,1.800000*%
%TD*%
%TA.AperFunction,Conductor*%
%ADD19C,0.800000*%
%TD*%
G04 APERTURE END LIST*
D10*
%TO.P,J3,1,VBUS*%
%TO.N,VCC*%
X11077500Y-22750000D03*
D11*
%TO.P,J3,2,D-*%
%TO.N,unconnected-(J3-D--Pad2)*%
X11077500Y-20250000D03*
%TO.P,J3,3,D+*%
%TO.N,unconnected-(J3-D+-Pad3)*%
X8923500Y-20250000D03*
%TO.P,J3,4,GND*%
%TO.N,GND*%
X8923500Y-22750000D03*
D12*
%TO.P,J3,5,Shield*%
X6367500Y-27520000D03*
X6367500Y-15480000D03*
%TD*%
D13*
%TO.P,R1,2*%
%TO.N,Net-(U1-DIS)*%
X15500000Y-4420000D03*
D14*
%TO.P,R1,1*%
%TO.N,VCC*%
X15500000Y-14580000D03*
%TD*%
D15*
%TO.P,U3,1,GND*%
%TO.N,GND*%
X38200000Y-25300000D03*
D13*
%TO.P,U3,2,TR*%
%TO.N,Net-(U3-THR)*%
X40740000Y-25300000D03*
%TO.P,U3,3,Q*%
%TO.N,Net-(U3-Q)*%
X43280000Y-25300000D03*
%TO.P,U3,4,R*%
%TO.N,VCC*%
X45820000Y-25300000D03*
%TO.P,U3,5,CV*%
%TO.N,unconnected-(U3-CV-Pad5)*%
X45820000Y-17680000D03*
%TO.P,U3,6,THR*%
%TO.N,Net-(U3-THR)*%
X43280000Y-17680000D03*
%TO.P,U3,7,DIS*%
%TO.N,Net-(U3-DIS)*%
X40740000Y-17680000D03*
%TO.P,U3,8,VCC*%
%TO.N,VCC*%
X38200000Y-17680000D03*
%TD*%
%TO.P,R5,2*%
%TO.N,Net-(U2-THR)*%
X32000000Y-14580000D03*
D14*
%TO.P,R5,1*%
%TO.N,Net-(U2-DIS)*%
X32000000Y-4420000D03*
%TD*%
D10*
%TO.P,J2,1,Pin_1*%
%TO.N,GND*%
X3000000Y-32500000D03*
D16*
%TO.P,J2,2,Pin_2*%
X5540000Y-32500000D03*
%TO.P,J2,3,Pin_3*%
X8080000Y-32500000D03*
%TO.P,J2,4,Pin_4*%
X10620000Y-32500000D03*
%TD*%
D14*
%TO.P,R6,1*%
%TO.N,Net-(U2-Q)*%
X32500000Y-28420000D03*
D13*
%TO.P,R6,2*%
%TO.N,Net-(D2-A)*%
X32500000Y-38580000D03*
%TD*%
%TO.P,R7,2*%
%TO.N,Net-(U3-DIS)*%
X38500000Y-4420000D03*
D14*
%TO.P,R7,1*%
%TO.N,VCC*%
X38500000Y-14580000D03*
%TD*%
D17*
%TO.P,D3,1,K*%
%TO.N,GND*%
X37460000Y-37500000D03*
D18*
%TO.P,D3,2,A*%
%TO.N,Net-(D3-A)*%
X40000000Y-37500000D03*
%TD*%
D17*
%TO.P,D1,1,K*%
%TO.N,GND*%
X14460000Y-37500000D03*
D18*
%TO.P,D1,2,A*%
%TO.N,Net-(D1-A)*%
X17000000Y-37500000D03*
%TD*%
D15*
%TO.P,U1,1,GND*%
%TO.N,GND*%
X15200000Y-25300000D03*
D13*
%TO.P,U1,2,TR*%
%TO.N,Net-(U1-THR)*%
X17740000Y-25300000D03*
%TO.P,U1,3,Q*%
%TO.N,Net-(U1-Q)*%
X20280000Y-25300000D03*
%TO.P,U1,4,R*%
%TO.N,VCC*%
X22820000Y-25300000D03*
%TO.P,U1,5,CV*%
%TO.N,unconnected-(U1-CV-Pad5)*%
X22820000Y-17680000D03*
%TO.P,U1,6,THR*%
%TO.N,Net-(U1-THR)*%
X20280000Y-17680000D03*
%TO.P,U1,7,DIS*%
%TO.N,Net-(U1-DIS)*%
X17740000Y-17680000D03*
%TO.P,U1,8,VCC*%
%TO.N,VCC*%
X15200000Y-17680000D03*
%TD*%
%TO.P,R4,2*%
%TO.N,Net-(U2-DIS)*%
X27000000Y-4420000D03*
D14*
%TO.P,R4,1*%
%TO.N,VCC*%
X27000000Y-14580000D03*
%TD*%
D17*
%TO.P,D2,1,K*%
%TO.N,GND*%
X25960000Y-37500000D03*
D18*
%TO.P,D2,2,A*%
%TO.N,Net-(D2-A)*%
X28500000Y-37500000D03*
%TD*%
D15*
%TO.P,U2,1,GND*%
%TO.N,GND*%
X26700000Y-25300000D03*
D13*
%TO.P,U2,2,TR*%
%TO.N,Net-(U2-THR)*%
X29240000Y-25300000D03*
%TO.P,U2,3,Q*%
%TO.N,Net-(U2-Q)*%
X31780000Y-25300000D03*
%TO.P,U2,4,R*%
%TO.N,VCC*%
X34320000Y-25300000D03*
%TO.P,U2,5,CV*%
%TO.N,unconnected-(U2-CV-Pad5)*%
X34320000Y-17680000D03*
%TO.P,U2,6,THR*%
%TO.N,Net-(U2-THR)*%
X31780000Y-17680000D03*
%TO.P,U2,7,DIS*%
%TO.N,Net-(U2-DIS)*%
X29240000Y-17680000D03*
%TO.P,U2,8,VCC*%
%TO.N,VCC*%
X26700000Y-17680000D03*
%TD*%
D15*
%TO.P,C3,1*%
%TO.N,Net-(U3-THR)*%
X40000000Y-30500000D03*
D14*
%TO.P,C3,2*%
%TO.N,GND*%
X37500000Y-30500000D03*
%TD*%
D15*
%TO.P,C1,1*%
%TO.N,Net-(U1-THR)*%
X17000000Y-30500000D03*
D14*
%TO.P,C1,2*%
%TO.N,GND*%
X14500000Y-30500000D03*
%TD*%
D10*
%TO.P,J1,1,Pin_1*%
%TO.N,VCC*%
X3000000Y-10500000D03*
D16*
%TO.P,J1,2,Pin_2*%
X5540000Y-10500000D03*
%TO.P,J1,3,Pin_3*%
X8080000Y-10500000D03*
%TO.P,J1,4,Pin_4*%
X10620000Y-10500000D03*
%TD*%
D14*
%TO.P,R9,1*%
%TO.N,Net-(U3-Q)*%
X44000000Y-28420000D03*
D13*
%TO.P,R9,2*%
%TO.N,Net-(D3-A)*%
X44000000Y-38580000D03*
%TD*%
D14*
%TO.P,R3,1*%
%TO.N,Net-(U1-Q)*%
X21000000Y-28420000D03*
D13*
%TO.P,R3,2*%
%TO.N,Net-(D1-A)*%
X21000000Y-38580000D03*
%TD*%
%TO.P,R8,2*%
%TO.N,Net-(U3-THR)*%
X43500000Y-14580000D03*
D14*
%TO.P,R8,1*%
%TO.N,Net-(U3-DIS)*%
X43500000Y-4420000D03*
%TD*%
%TO.P,R2,1*%
%TO.N,Net-(U1-DIS)*%
X20500000Y-4420000D03*
D13*
%TO.P,R2,2*%
%TO.N,Net-(U1-THR)*%
X20500000Y-14580000D03*
%TD*%
D15*
%TO.P,C2,1*%
%TO.N,Net-(U2-THR)*%
X28500000Y-30500000D03*
D14*
%TO.P,C2,2*%
%TO.N,GND*%
X26000000Y-30500000D03*
%TD*%
D19*
%TO.N,Net-(U1-DIS)*%
X15500000Y-4420000D02*
X20500000Y-4420000D01*
%TO.N,Net-(U2-DIS)*%
X27000000Y-4420000D02*
X32000000Y-4420000D01*
%TO.N,Net-(U3-DIS)*%
X38500000Y-4420000D02*
X43500000Y-4420000D01*
X38500000Y-4420000D02*
X40740000Y-6660000D01*
X40740000Y-6660000D02*
X40740000Y-17680000D01*
%TO.N,Net-(U2-DIS)*%
X27000000Y-4420000D02*
X29240000Y-6660000D01*
X29240000Y-6660000D02*
X29240000Y-17680000D01*
%TO.N,Net-(U1-DIS)*%
X15500000Y-4420000D02*
X17740000Y-6660000D01*
X17740000Y-6660000D02*
X17740000Y-17680000D01*
%TO.N,Net-(U3-THR)*%
X43280000Y-17680000D02*
X43280000Y-14800000D01*
X43280000Y-14800000D02*
X43500000Y-14580000D01*
%TO.N,Net-(U2-THR)*%
X31780000Y-17680000D02*
X31780000Y-14800000D01*
X31780000Y-14800000D02*
X32000000Y-14580000D01*
%TO.N,Net-(U1-THR)*%
X20280000Y-17680000D02*
X20280000Y-14800000D01*
X20280000Y-14800000D02*
X20500000Y-14580000D01*
%TO.N,VCC*%
X11077500Y-22750000D02*
X11250000Y-22750000D01*
X11250000Y-22750000D02*
X15200000Y-18800000D01*
X15200000Y-18800000D02*
X15200000Y-17680000D01*
%TO.N,Net-(U1-THR)*%
X17740000Y-20220000D02*
X20280000Y-17680000D01*
X17740000Y-25300000D02*
X17740000Y-20220000D01*
X17740000Y-29760000D02*
X17000000Y-30500000D01*
X17740000Y-25300000D02*
X17740000Y-29760000D01*
%TO.N,Net-(U2-THR)*%
X29240000Y-25300000D02*
X29240000Y-29760000D01*
X29240000Y-25300000D02*
X29240000Y-20220000D01*
X29240000Y-29760000D02*
X28500000Y-30500000D01*
X29240000Y-20220000D02*
X31780000Y-17680000D01*
%TO.N,Net-(U3-THR)*%
X40740000Y-20220000D02*
X43280000Y-17680000D01*
X40740000Y-29760000D02*
X40000000Y-30500000D01*
X40740000Y-25300000D02*
X40740000Y-20220000D01*
X40740000Y-25300000D02*
X40740000Y-29760000D01*
%TO.N,Net-(D1-A)*%
X18080000Y-38580000D02*
X17000000Y-37500000D01*
X21000000Y-38580000D02*
X18080000Y-38580000D01*
%TO.N,Net-(D2-A)*%
X29580000Y-38580000D02*
X28500000Y-37500000D01*
X32500000Y-38580000D02*
X29580000Y-38580000D01*
%TO.N,Net-(D3-A)*%
X41080000Y-38580000D02*
X40000000Y-37500000D01*
X44000000Y-38580000D02*
X41080000Y-38580000D01*
%TO.N,Net-(U1-Q)*%
X20280000Y-25300000D02*
X20280000Y-27700000D01*
X20280000Y-27700000D02*
X21000000Y-28420000D01*
%TO.N,Net-(U2-Q)*%
X31780000Y-27700000D02*
X32500000Y-28420000D01*
X31780000Y-25300000D02*
X31780000Y-27700000D01*
%TO.N,Net-(U3-Q)*%
X43280000Y-27700000D02*
X44000000Y-28420000D01*
X43280000Y-25300000D02*
X43280000Y-27700000D01*
%TD*%
%TA.AperFunction,Conductor*%
%TO.N,GND*%
G36*
X4974362Y-13525185D02*
G01*
X4995004Y-13541819D01*
X5876071Y-14422886D01*
X5756907Y-14483603D01*
X5608554Y-14591388D01*
X5478888Y-14721054D01*
X5371103Y-14869407D01*
X5310386Y-14988571D01*
X4446663Y-14124848D01*
X4327977Y-14302474D01*
X4327968Y-14302488D01*
X4191732Y-14578747D01*
X4191723Y-14578768D01*
X4092706Y-14870461D01*
X4092703Y-14870475D01*
X4032608Y-15172594D01*
X4032606Y-15172606D01*
X4012458Y-15480000D01*
X4032606Y-15787393D01*
X4032608Y-15787405D01*
X4092703Y-16089524D01*
X4092706Y-16089538D01*
X4191723Y-16381231D01*
X4191732Y-16381252D01*
X4327971Y-16657517D01*
X4446663Y-16835150D01*
X5310385Y-15971428D01*
X5371103Y-16090593D01*
X5478888Y-16238946D01*
X5608554Y-16368612D01*
X5756907Y-16476397D01*
X5876070Y-16537113D01*
X5012347Y-17400836D01*
X5189982Y-17519528D01*
X5466247Y-17655767D01*
X5466268Y-17655776D01*
X5757961Y-17754793D01*
X5757975Y-17754796D01*
X6060094Y-17814891D01*
X6060106Y-17814893D01*
X6367500Y-17835041D01*
X6674893Y-17814893D01*
X6674905Y-17814891D01*
X6977024Y-17754796D01*
X6977038Y-17754793D01*
X7268731Y-17655776D01*
X7268752Y-17655767D01*
X7545017Y-17519528D01*
X7722651Y-17400836D01*
X6858928Y-16537113D01*
X6978093Y-16476397D01*
X7126446Y-16368612D01*
X7256112Y-16238946D01*
X7363897Y-16090593D01*
X7424613Y-15971428D01*
X8288336Y-16835151D01*
X8407028Y-16657517D01*
X8543267Y-16381252D01*
X8543276Y-16381231D01*
X8642293Y-16089538D01*
X8642296Y-16089524D01*
X8702391Y-15787405D01*
X8702393Y-15787393D01*
X8722541Y-15480000D01*
X8702393Y-15172606D01*
X8702391Y-15172594D01*
X8642296Y-14870475D01*
X8642293Y-14870461D01*
X8543276Y-14578768D01*
X8543267Y-14578747D01*
X8407028Y-14302482D01*
X8288336Y-14124847D01*
X7424613Y-14988570D01*
X7363897Y-14869407D01*
X7256112Y-14721054D01*
X7126446Y-14591388D01*
X6978093Y-14483603D01*
X6858929Y-14422886D01*
X7739995Y-13541819D01*
X7801318Y-13508334D01*
X7827676Y-13505500D01*
X11870500Y-13505500D01*
X11937539Y-13525185D01*
X11983294Y-13577989D01*
X11994500Y-13629500D01*
X11994500Y-19005231D01*
X11974815Y-19072270D01*
X11922011Y-19118025D01*
X11852853Y-19127969D01*
X11799378Y-19106807D01*
X11755332Y-19075966D01*
X11755330Y-19075965D01*
X11747406Y-19072270D01*
X11541163Y-18976097D01*
X11541159Y-18976096D01*
X11541155Y-18976094D01*
X11312913Y-18914938D01*
X11312903Y-18914936D01*
X11077501Y-18894341D01*
X11077499Y-18894341D01*
X10842096Y-18914936D01*
X10842086Y-18914938D01*
X10613844Y-18976094D01*
X10613835Y-18976098D01*
X10399671Y-19075964D01*
X10399669Y-19075965D01*
X10206100Y-19211503D01*
X10088180Y-19329423D01*
X10026857Y-19362907D01*
X9957165Y-19357923D01*
X9912818Y-19329422D01*
X9794902Y-19211506D01*
X9794895Y-19211501D01*
X9601334Y-19075967D01*
X9601330Y-19075965D01*
X9593406Y-19072270D01*
X9387163Y-18976097D01*
X9387159Y-18976096D01*
X9387155Y-18976094D01*
X9158913Y-18914938D01*
X9158903Y-18914936D01*
X8923501Y-18894341D01*
X8923499Y-18894341D01*
X8688096Y-18914936D01*
X8688086Y-18914938D01*
X8459844Y-18976094D01*
X8459835Y-18976098D01*
X8245671Y-19075964D01*
X8245669Y-19075965D01*
X8052097Y-19211505D01*
X7885005Y-19378597D01*
X7749465Y-19572169D01*
X7749464Y-19572171D01*
X7649598Y-19786335D01*
X7649594Y-19786344D01*
X7588438Y-20014586D01*
X7588436Y-20014596D01*
X7567841Y-20249999D01*
X7567841Y-20250000D01*
X7588436Y-20485403D01*
X7588438Y-20485413D01*
X7649594Y-20713655D01*
X7649596Y-20713659D01*
X7649597Y-20713663D01*
X7749465Y-20927830D01*
X7749467Y-20927834D01*
X7846500Y-21066410D01*
X7885005Y-21121401D01*
X8052099Y-21288495D01*
X8120161Y-21336152D01*
X8168084Y-21369709D01*
X8211709Y-21424286D01*
X8218451Y-21479267D01*
X8923500Y-22184315D01*
X9045702Y-22306517D01*
X8984060Y-22290000D01*
X8862940Y-22290000D01*
X8745947Y-22321349D01*
X8641054Y-22381909D01*
X8555409Y-22467554D01*
X8494849Y-22572447D01*
X8463500Y-22689440D01*
X8463500Y-22810560D01*
X8494849Y-22927553D01*
X8555409Y-23032446D01*
X8641054Y-23118091D01*
X8745947Y-23178651D01*
X8862940Y-23210000D01*
X8984060Y-23210000D01*
X9045699Y-23193483D01*
X8220770Y-24018413D01*
X8339044Y-24082421D01*
X8339050Y-24082423D01*
X8566323Y-24160446D01*
X8803351Y-24200000D01*
X9043649Y-24200000D01*
X9280676Y-24160446D01*
X9507949Y-24082423D01*
X9507955Y-24082421D01*
X9719294Y-23968050D01*
X9725332Y-23963350D01*
X9790324Y-23937703D01*
X9858865Y-23951265D01*
X9875809Y-23961929D01*
X9945853Y-24014364D01*
X9985169Y-24043796D01*
X9985171Y-24043797D01*
X10120017Y-24094091D01*
X10120016Y-24094091D01*
X10126944Y-24094835D01*
X10179627Y-24100500D01*
X11975372Y-24100499D01*
X12034983Y-24094091D01*
X12169831Y-24043796D01*
X12285046Y-23957546D01*
X12371296Y-23842331D01*
X12421591Y-23707483D01*
X12428000Y-23647873D01*
X12427999Y-22896860D01*
X12447683Y-22829822D01*
X12464313Y-22809185D01*
X13231681Y-22041819D01*
X13293004Y-22008334D01*
X13319362Y-22005500D01*
X16715500Y-22005500D01*
X16782539Y-22025185D01*
X16828294Y-22077989D01*
X16839500Y-22129500D01*
X16839500Y-24309951D01*
X16819815Y-24376990D01*
X16803176Y-24397637D01*
X16794087Y-24406725D01*
X16732762Y-24440207D01*
X16663071Y-24435218D01*
X16607140Y-24393344D01*
X16586635Y-24351129D01*
X16584554Y-24343363D01*
X16524100Y-24197414D01*
X16427924Y-24072075D01*
X16302586Y-23975899D01*
X16156634Y-23915445D01*
X16156630Y-23915444D01*
X16039330Y-23900000D01*
X15600000Y-23900000D01*
X15600000Y-25247339D01*
X15572741Y-25145606D01*
X15520080Y-25054394D01*
X15445606Y-24979920D01*
X15354394Y-24927259D01*
X15252661Y-24900000D01*
X15147339Y-24900000D01*
X15045606Y-24927259D01*
X14954394Y-24979920D01*
X14879920Y-25054394D01*
X14827259Y-25145606D01*
X14800000Y-25247339D01*
X14800000Y-25352661D01*
X14827259Y-25454394D01*
X14879920Y-25545606D01*
X14954394Y-25620080D01*
X15045606Y-25672741D01*
X15147339Y-25700000D01*
X15252661Y-25700000D01*
X15354394Y-25672741D01*
X15445606Y-25620080D01*
X15520080Y-25545606D01*
X15572741Y-25454394D01*
X15600000Y-25352661D01*
X15600000Y-26699999D01*
X16039324Y-26699999D01*
X16156628Y-26684557D01*
X16156633Y-26684555D01*
X16302585Y-26624100D01*
X16427924Y-26527924D01*
X16524100Y-26402586D01*
X16584555Y-26256631D01*
X16586636Y-26248868D01*
X16622999Y-26189206D01*
X16685846Y-26158676D01*
X16755222Y-26166970D01*
X16794092Y-26193278D01*
X16803181Y-26202367D01*
X16836666Y-26263690D01*
X16839500Y-26290048D01*
X16839500Y-29075500D01*
X16819815Y-29142539D01*
X16767011Y-29188294D01*
X16715500Y-29199500D01*
X16152129Y-29199500D01*
X16152123Y-29199501D01*
X16092516Y-29205908D01*
X15957671Y-29256202D01*
X15957664Y-29256206D01*
X15842455Y-29342452D01*
X15842452Y-29342455D01*
X15756206Y-29457664D01*
X15756202Y-29457671D01*
X15705908Y-29592517D01*
X15699501Y-29652116D01*
X15699500Y-29652135D01*
X15699500Y-29814823D01*
X15679815Y-29881862D01*
X15663181Y-29902504D01*
X15065685Y-30500000D01*
X15663181Y-31097495D01*
X15696666Y-31158818D01*
X15699500Y-31185175D01*
X15699500Y-31347869D01*
X15699501Y-31347876D01*
X15705908Y-31407483D01*
X15756202Y-31542328D01*
X15756206Y-31542335D01*
X15842452Y-31657544D01*
X15842455Y-31657547D01*
X15957664Y-31743793D01*
X15957671Y-31743797D01*
X16092517Y-31794091D01*
X16092516Y-31794091D01*
X16099444Y-31794835D01*
X16152127Y-31800500D01*
X17847872Y-31800499D01*
X17907483Y-31794091D01*
X18042331Y-31743796D01*
X18058723Y-31731525D01*
X25334159Y-31731525D01*
X25435698Y-31786476D01*
X25435706Y-31786479D01*
X25655139Y-31861811D01*
X25883993Y-31900000D01*
X26116007Y-31900000D01*
X26344860Y-31861811D01*
X26564292Y-31786480D01*
X26665839Y-31731525D01*
X26000001Y-31065685D01*
X26000000Y-31065685D01*
X25334159Y-31731525D01*
X18058723Y-31731525D01*
X18157546Y-31657546D01*
X18243796Y-31542331D01*
X18294091Y-31407483D01*
X18300500Y-31347873D01*
X18300499Y-30524362D01*
X18307654Y-30499994D01*
X24595202Y-30499994D01*
X24595202Y-30500005D01*
X24614361Y-30731218D01*
X24671317Y-30956135D01*
X24764515Y-31168605D01*
X24764517Y-31168610D01*
X24764986Y-31169326D01*
X25434314Y-30500000D01*
X25381653Y-30447339D01*
X25600000Y-30447339D01*
X25600000Y-30552661D01*
X25627259Y-30654394D01*
X25679920Y-30745606D01*
X25754394Y-30820080D01*
X25845606Y-30872741D01*
X25947339Y-30900000D01*
X26052661Y-30900000D01*
X26154394Y-30872741D01*
X26245606Y-30820080D01*
X26320080Y-30745606D01*
X26372741Y-30654394D01*
X26400000Y-30552661D01*
X26400000Y-30447339D01*
X26372741Y-30345606D01*
X26320080Y-30254394D01*
X26245606Y-30179920D01*
X26154394Y-30127259D01*
X26052661Y-30100000D01*
X25947339Y-30100000D01*
X25845606Y-30127259D01*
X25754394Y-30179920D01*
X25679920Y-30254394D01*
X25627259Y-30345606D01*
X25600000Y-30447339D01*
X25381653Y-30447339D01*
X24764986Y-29830672D01*
X24764985Y-29830672D01*
X24764519Y-29831385D01*
X24764516Y-29831391D01*
X24671317Y-30043864D01*
X24614361Y-30268781D01*
X24595202Y-30499994D01*
X18307654Y-30499994D01*
X18320183Y-30457324D01*
X18336818Y-30436681D01*
X18439464Y-30334036D01*
X18492679Y-30254394D01*
X18504078Y-30237335D01*
X18504078Y-30237334D01*
X18538013Y-30186547D01*
X18584858Y-30073453D01*
X18605895Y-30022666D01*
X18640500Y-29848692D01*
X18640500Y-29671308D01*
X18640500Y-26290048D01*
X18660185Y-26223009D01*
X18676814Y-26202371D01*
X18740047Y-26139139D01*
X18870568Y-25952734D01*
X18897618Y-25894724D01*
X18943790Y-25842285D01*
X19010983Y-25823133D01*
X19077865Y-25843348D01*
X19122382Y-25894725D01*
X19149429Y-25952728D01*
X19149432Y-25952734D01*
X19279951Y-26139137D01*
X19279952Y-26139138D01*
X19279953Y-26139139D01*
X19343182Y-26202368D01*
X19376666Y-26263689D01*
X19379500Y-26290048D01*
X19379500Y-27788696D01*
X19414103Y-27962658D01*
X19414105Y-27962666D01*
X19448046Y-28044606D01*
X19448046Y-28044607D01*
X19481984Y-28126542D01*
X19481985Y-28126543D01*
X19481987Y-28126547D01*
X19526596Y-28193308D01*
X19580536Y-28274036D01*
X19659554Y-28353054D01*
X19693038Y-28414375D01*
X19695400Y-28429926D01*
X19714364Y-28646687D01*
X19714366Y-28646697D01*
X19773258Y-28866488D01*
X19773261Y-28866497D01*
X19869431Y-29072732D01*
X19869432Y-29072734D01*
X19999954Y-29259141D01*
X20160858Y-29420045D01*
X20160861Y-29420047D01*
X20347266Y-29550568D01*
X20553504Y-29646739D01*
X20773308Y-29705635D01*
X20935230Y-29719801D01*
X20999998Y-29725468D01*
X21000000Y-29725468D01*
X21000002Y-29725468D01*
X21056673Y-29720509D01*
X21226692Y-29705635D01*
X21446496Y-29646739D01*
X21652734Y-29550568D01*
X21839139Y-29420047D01*
X21990713Y-29268473D01*
X25334158Y-29268473D01*
X26000000Y-29934314D01*
X26000001Y-29934314D01*
X26665839Y-29268473D01*
X26665840Y-29268473D01*
X26564301Y-29213523D01*
X26564293Y-29213520D01*
X26344860Y-29138188D01*
X26116007Y-29100000D01*
X25883993Y-29100000D01*
X25655139Y-29138188D01*
X25435703Y-29213521D01*
X25435692Y-29213526D01*
X25334158Y-29268473D01*
X21990713Y-29268473D01*
X22000047Y-29259139D01*
X22130568Y-29072734D01*
X22226739Y-28866496D01*
X22285635Y-28646692D01*
X22304600Y-28429926D01*
X22305468Y-28420001D01*
X22305468Y-28419998D01*
X22285635Y-28193313D01*
X22285635Y-28193308D01*
X22226739Y-27973504D01*
X22130568Y-27767266D01*
X22000047Y-27580861D01*
X22000045Y-27580858D01*
X21839141Y-27419954D01*
X21652734Y-27289432D01*
X21652732Y-27289431D01*
X21446497Y-27193261D01*
X21446488Y-27193258D01*
X21272407Y-27146614D01*
X21212746Y-27110249D01*
X21182217Y-27047402D01*
X21180500Y-27026839D01*
X21180500Y-26290048D01*
X21200185Y-26223009D01*
X21216814Y-26202371D01*
X21280047Y-26139139D01*
X21410568Y-25952734D01*
X21437618Y-25894724D01*
X21483790Y-25842285D01*
X21550983Y-25823133D01*
X21617865Y-25843348D01*
X21662382Y-25894725D01*
X21689429Y-25952728D01*
X21689432Y-25952734D01*
X21819954Y-26139141D01*
X21980858Y-26300045D01*
X21980861Y-26300047D01*
X22167266Y-26430568D01*
X22373504Y-26526739D01*
X22373509Y-26526740D01*
X22373511Y-26526741D01*
X22426415Y-26540916D01*
X22593308Y-26585635D01*
X22755230Y-26599801D01*
X22819998Y-26605468D01*
X22820000Y-26605468D01*
X22820002Y-26605468D01*
X22876673Y-26600509D01*
X23046692Y-26585635D01*
X23176675Y-26550806D01*
X23246521Y-26552469D01*
X23304383Y-26591631D01*
X23324479Y-26629495D01*
X23324605Y-26629438D01*
X23325567Y-26631546D01*
X23327740Y-26635639D01*
X23328286Y-26637499D01*
X23328290Y-26637507D01*
X23406072Y-26758537D01*
X23406080Y-26758548D01*
X23451824Y-26811340D01*
X23451827Y-26811343D01*
X23451831Y-26811347D01*
X23560565Y-26905567D01*
X23560568Y-26905568D01*
X23560569Y-26905569D01*
X23667305Y-26954315D01*
X23691442Y-26965338D01*
X23758481Y-26985023D01*
X23758485Y-26985024D01*
X23900901Y-27005500D01*
X23900904Y-27005500D01*
X24375990Y-27005500D01*
X24376000Y-27005500D01*
X24483456Y-26993947D01*
X24534967Y-26982741D01*
X24569197Y-26971347D01*
X24637497Y-26948616D01*
X24637501Y-26948613D01*
X24637504Y-26948613D01*
X24758543Y-26870825D01*
X24811347Y-26825070D01*
X24905567Y-26716336D01*
X24965338Y-26585459D01*
X24985023Y-26518420D01*
X24985024Y-26518416D01*
X25005500Y-26376000D01*
X25005500Y-26139324D01*
X25300001Y-26139324D01*
X25315442Y-26256628D01*
X25315444Y-26256633D01*
X25375899Y-26402585D01*
X25472075Y-26527924D01*
X25597413Y-26624100D01*
X25743365Y-26684554D01*
X25743369Y-26684555D01*
X25860676Y-26699999D01*
X26299999Y-26699999D01*
X26300000Y-26699998D01*
X26300000Y-25700000D01*
X25300001Y-25700000D01*
X25300001Y-26139324D01*
X25005500Y-26139324D01*
X25005500Y-24460669D01*
X25300000Y-24460669D01*
X25300000Y-24900000D01*
X26300000Y-24900000D01*
X26300000Y-23900000D01*
X25860675Y-23900000D01*
X25743371Y-23915442D01*
X25743366Y-23915444D01*
X25597414Y-23975899D01*
X25472075Y-24072075D01*
X25375899Y-24197413D01*
X25315445Y-24343365D01*
X25315444Y-24343369D01*
X25300000Y-24460669D01*
X25005500Y-24460669D01*
X25005500Y-22129500D01*
X25025185Y-22062461D01*
X25077989Y-22016706D01*
X25129500Y-22005500D01*
X28215500Y-22005500D01*
X28282539Y-22025185D01*
X28328294Y-22077989D01*
X28339500Y-22129500D01*
X28339500Y-24309951D01*
X28319815Y-24376990D01*
X28303176Y-24397637D01*
X28294087Y-24406725D01*
X28232762Y-24440207D01*
X28163071Y-24435218D01*
X28107140Y-24393344D01*
X28086635Y-24351129D01*
X28084554Y-24343363D01*
X28024100Y-24197414D01*
X27927924Y-24072075D01*
X27802586Y-23975899D01*
X27656634Y-23915445D01*
X27656630Y-23915444D01*
X27539330Y-23900000D01*
X27100000Y-23900000D01*
X27100000Y-25247339D01*
X27072741Y-25145606D01*
X27020080Y-25054394D01*
X26945606Y-24979920D01*
X26854394Y-24927259D01*
X26752661Y-24900000D01*
X26647339Y-24900000D01*
X26545606Y-24927259D01*
X26454394Y-24979920D01*
X26379920Y-25054394D01*
X26327259Y-25145606D01*
X26300000Y-25247339D01*
X26300000Y-25352661D01*
X26327259Y-25454394D01*
X26379920Y-25545606D01*
X26454394Y-25620080D01*
X26545606Y-25672741D01*
X26647339Y-25700000D01*
X26752661Y-25700000D01*
X26854394Y-25672741D01*
X26945606Y-25620080D01*
X27020080Y-25545606D01*
X27072741Y-25454394D01*
X27100000Y-25352661D01*
X27100000Y-26699999D01*
X27539324Y-26699999D01*
X27656628Y-26684557D01*
X27656633Y-26684555D01*
X27802585Y-26624100D01*
X27927924Y-26527924D01*
X28024100Y-26402586D01*
X28084555Y-26256631D01*
X28086636Y-26248868D01*
X28122999Y-26189206D01*
X28185846Y-26158676D01*
X28255222Y-26166970D01*
X28294092Y-26193278D01*
X28303181Y-26202367D01*
X28336666Y-26263690D01*
X28339500Y-26290048D01*
X28339500Y-29075500D01*
X28319815Y-29142539D01*
X28267011Y-29188294D01*
X28215500Y-29199500D01*
X27652129Y-29199500D01*
X27652123Y-29199501D01*
X27592516Y-29205908D01*
X27457671Y-29256202D01*
X27457664Y-29256206D01*
X27342455Y-29342452D01*
X27342452Y-29342455D01*
X27256206Y-29457664D01*
X27256202Y-29457671D01*
X27205908Y-29592517D01*
X27199501Y-29652116D01*
X27199500Y-29652135D01*
X27199500Y-29814823D01*
X27179815Y-29881862D01*
X27163181Y-29902504D01*
X26565684Y-30500000D01*
X27163181Y-31097495D01*
X27196666Y-31158818D01*
X27199500Y-31185175D01*
X27199500Y-31347869D01*
X27199501Y-31347876D01*
X27205908Y-31407483D01*
X27256202Y-31542328D01*
X27256206Y-31542335D01*
X27342452Y-31657544D01*
X27342455Y-31657547D01*
X27457664Y-31743793D01*
X27457671Y-31743797D01*
X27592517Y-31794091D01*
X27592516Y-31794091D01*
X27599444Y-31794835D01*
X27652127Y-31800500D01*
X29347872Y-31800499D01*
X29407483Y-31794091D01*
X29542331Y-31743796D01*
X29558723Y-31731525D01*
X36834159Y-31731525D01*
X36935698Y-31786476D01*
X36935706Y-31786479D01*
X37155139Y-31861811D01*
X37383993Y-31900000D01*
X37616007Y-31900000D01*
X37844860Y-31861811D01*
X38064292Y-31786480D01*
X38165839Y-31731525D01*
X37500001Y-31065685D01*
X37500000Y-31065685D01*
X36834159Y-31731525D01*
X29558723Y-31731525D01*
X29657546Y-31657546D01*
X29743796Y-31542331D01*
X29794091Y-31407483D01*
X29800500Y-31347873D01*
X29800499Y-30524362D01*
X29807654Y-30499994D01*
X36095202Y-30499994D01*
X36095202Y-30500005D01*
X36114361Y-30731218D01*
X36171317Y-30956135D01*
X36264515Y-31168605D01*
X36264517Y-31168610D01*
X36264986Y-31169326D01*
X36934314Y-30500000D01*
X36881653Y-30447339D01*
X37100000Y-30447339D01*
X37100000Y-30552661D01*
X37127259Y-30654394D01*
X37179920Y-30745606D01*
X37254394Y-30820080D01*
X37345606Y-30872741D01*
X37447339Y-30900000D01*
X37552661Y-30900000D01*
X37654394Y-30872741D01*
X37745606Y-30820080D01*
X37820080Y-30745606D01*
X37872741Y-30654394D01*
X37900000Y-30552661D01*
X37900000Y-30447339D01*
X37872741Y-30345606D01*
X37820080Y-30254394D01*
X37745606Y-30179920D01*
X37654394Y-30127259D01*
X37552661Y-30100000D01*
X37447339Y-30100000D01*
X37345606Y-30127259D01*
X37254394Y-30179920D01*
X37179920Y-30254394D01*
X37127259Y-30345606D01*
X37100000Y-30447339D01*
X36881653Y-30447339D01*
X36264986Y-29830672D01*
X36264985Y-29830672D01*
X36264519Y-29831385D01*
X36264516Y-29831391D01*
X36171317Y-30043864D01*
X36114361Y-30268781D01*
X36095202Y-30499994D01*
X29807654Y-30499994D01*
X29820183Y-30457324D01*
X29836818Y-30436681D01*
X29939464Y-30334036D01*
X29992679Y-30254394D01*
X30004078Y-30237335D01*
X30004078Y-30237334D01*
X30038013Y-30186547D01*
X30084858Y-30073453D01*
X30105895Y-30022666D01*
X30140500Y-29848692D01*
X30140500Y-29671308D01*
X30140500Y-26290048D01*
X30160185Y-26223009D01*
X30176814Y-26202371D01*
X30240047Y-26139139D01*
X30370568Y-25952734D01*
X30397618Y-25894724D01*
X30443790Y-25842285D01*
X30510983Y-25823133D01*
X30577865Y-25843348D01*
X30622382Y-25894725D01*
X30649429Y-25952728D01*
X30649432Y-25952734D01*
X30779951Y-26139137D01*
X30779952Y-26139138D01*
X30779953Y-26139139D01*
X30843182Y-26202368D01*
X30876666Y-26263689D01*
X30879500Y-26290048D01*
X30879500Y-27788696D01*
X30914103Y-27962658D01*
X30914105Y-27962666D01*
X30948046Y-28044606D01*
X30948046Y-28044607D01*
X30981984Y-28126542D01*
X30981985Y-28126543D01*
X30981987Y-28126547D01*
X31026596Y-28193308D01*
X31080536Y-28274036D01*
X31159554Y-28353054D01*
X31193038Y-28414375D01*
X31195400Y-28429926D01*
X31214364Y-28646687D01*
X31214366Y-28646697D01*
X31273258Y-28866488D01*
X31273261Y-28866497D01*
X31369431Y-29072732D01*
X31369432Y-29072734D01*
X31499954Y-29259141D01*
X31660858Y-29420045D01*
X31660861Y-29420047D01*
X31847266Y-29550568D01*
X32053504Y-29646739D01*
X32273308Y-29705635D01*
X32435230Y-29719801D01*
X32499998Y-29725468D01*
X32500000Y-29725468D01*
X32500002Y-29725468D01*
X32556673Y-29720509D01*
X32726692Y-29705635D01*
X32946496Y-29646739D01*
X33152734Y-29550568D01*
X33339139Y-29420047D01*
X33490713Y-29268473D01*
X36834158Y-29268473D01*
X37500000Y-29934314D01*
X37500001Y-29934314D01*
X38165839Y-29268473D01*
X38165840Y-29268473D01*
X38064301Y-29213523D01*
X38064293Y-29213520D01*
X37844860Y-29138188D01*
X37616007Y-29100000D01*
X37383993Y-29100000D01*
X37155139Y-29138188D01*
X36935703Y-29213521D01*
X36935692Y-29213526D01*
X36834158Y-29268473D01*
X33490713Y-29268473D01*
X33500047Y-29259139D01*
X33630568Y-29072734D01*
X33726739Y-28866496D01*
X33785635Y-28646692D01*
X33804600Y-28429926D01*
X33805468Y-28420001D01*
X33805468Y-28419998D01*
X33785635Y-28193313D01*
X33785635Y-28193308D01*
X33726739Y-27973504D01*
X33630568Y-27767266D01*
X33500047Y-27580861D01*
X33500045Y-27580858D01*
X33339141Y-27419954D01*
X33152734Y-27289432D01*
X33152732Y-27289431D01*
X32946497Y-27193261D01*
X32946488Y-27193258D01*
X32772407Y-27146614D01*
X32712746Y-27110249D01*
X32682217Y-27047402D01*
X32680500Y-27026839D01*
X32680500Y-26290048D01*
X32700185Y-26223009D01*
X32716814Y-26202371D01*
X32780047Y-26139139D01*
X32910568Y-25952734D01*
X32937618Y-25894724D01*
X32983790Y-25842285D01*
X33050983Y-25823133D01*
X33117865Y-25843348D01*
X33162382Y-25894725D01*
X33189429Y-25952728D01*
X33189432Y-25952734D01*
X33319954Y-26139141D01*
X33480858Y-26300045D01*
X33480861Y-26300047D01*
X33667266Y-26430568D01*
X33873504Y-26526739D01*
X33873509Y-26526740D01*
X33873511Y-26526741D01*
X33926415Y-26540916D01*
X34093308Y-26585635D01*
X34255230Y-26599801D01*
X34319998Y-26605468D01*
X34320000Y-26605468D01*
X34320002Y-26605468D01*
X34376673Y-26600509D01*
X34546692Y-26585635D01*
X34676675Y-26550806D01*
X34746521Y-26552469D01*
X34804383Y-26591631D01*
X34824479Y-26629495D01*
X34824605Y-26629438D01*
X34825567Y-26631546D01*
X34827740Y-26635639D01*
X34828286Y-26637499D01*
X34828290Y-26637507D01*
X34906072Y-26758537D01*
X34906080Y-26758548D01*
X34951824Y-26811340D01*
X34951827Y-26811343D01*
X34951831Y-26811347D01*
X35060565Y-26905567D01*
X35060568Y-26905568D01*
X35060569Y-26905569D01*
X35167305Y-26954315D01*
X35191442Y-26965338D01*
X35258481Y-26985023D01*
X35258485Y-26985024D01*
X35400901Y-27005500D01*
X35400904Y-27005500D01*
X35875990Y-27005500D01*
X35876000Y-27005500D01*
X35983456Y-26993947D01*
X36034967Y-26982741D01*
X36069197Y-26971347D01*
X36137497Y-26948616D01*
X36137501Y-26948613D01*
X36137504Y-26948613D01*
X36258543Y-26870825D01*
X36311347Y-26825070D01*
X36405567Y-26716336D01*
X36465338Y-26585459D01*
X36485023Y-26518420D01*
X36485024Y-26518416D01*
X36505500Y-26376000D01*
X36505500Y-26139324D01*
X36800001Y-26139324D01*
X36815442Y-26256628D01*
X36815444Y-26256633D01*
X36875899Y-26402585D01*
X36972075Y-26527924D01*
X37097413Y-26624100D01*
X37243365Y-26684554D01*
X37243369Y-26684555D01*
X37360676Y-26699999D01*
X37799999Y-26699999D01*
X37800000Y-26699998D01*
X37800000Y-25700000D01*
X36800001Y-25700000D01*
X36800001Y-26139324D01*
X36505500Y-26139324D01*
X36505500Y-24460669D01*
X36800000Y-24460669D01*
X36800000Y-24900000D01*
X37800000Y-24900000D01*
X37800000Y-23900000D01*
X37360675Y-23900000D01*
X37243371Y-23915442D01*
X37243366Y-23915444D01*
X37097414Y-23975899D01*
X36972075Y-24072075D01*
X36875899Y-24197413D01*
X36815445Y-24343365D01*
X36815444Y-24343369D01*
X36800000Y-24460669D01*
X36505500Y-24460669D01*
X36505500Y-22129500D01*
X36525185Y-22062461D01*
X36577989Y-22016706D01*
X36629500Y-22005500D01*
X39715500Y-22005500D01*
X39782539Y-22025185D01*
X39828294Y-22077989D01*
X39839500Y-22129500D01*
X39839500Y-24309951D01*
X39819815Y-24376990D01*
X39803176Y-24397637D01*
X39794087Y-24406725D01*
X39732762Y-24440207D01*
X39663071Y-24435218D01*
X39607140Y-24393344D01*
X39586635Y-24351129D01*
X39584554Y-24343363D01*
X39524100Y-24197414D01*
X39427924Y-24072075D01*
X39302586Y-23975899D01*
X39156634Y-23915445D01*
X39156630Y-23915444D01*
X39039330Y-23900000D01*
X38600000Y-23900000D01*
X38600000Y-25247339D01*
X38572741Y-25145606D01*
X38520080Y-25054394D01*
X38445606Y-24979920D01*
X38354394Y-24927259D01*
X38252661Y-24900000D01*
X38147339Y-24900000D01*
X38045606Y-24927259D01*
X37954394Y-24979920D01*
X37879920Y-25054394D01*
X37827259Y-25145606D01*
X37800000Y-25247339D01*
X37800000Y-25352661D01*
X37827259Y-25454394D01*
X37879920Y-25545606D01*
X37954394Y-25620080D01*
X38045606Y-25672741D01*
X38147339Y-25700000D01*
X38252661Y-25700000D01*
X38354394Y-25672741D01*
X38445606Y-25620080D01*
X38520080Y-25545606D01*
X38572741Y-25454394D01*
X38600000Y-25352661D01*
X38600000Y-26699999D01*
X39039324Y-26699999D01*
X39156628Y-26684557D01*
X39156633Y-26684555D01*
X39302585Y-26624100D01*
X39427924Y-26527924D01*
X39524100Y-26402586D01*
X39584555Y-26256631D01*
X39586636Y-26248868D01*
X39622999Y-26189206D01*
X39685846Y-26158676D01*
X39755222Y-26166970D01*
X39794092Y-26193278D01*
X39803181Y-26202367D01*
X39836666Y-26263690D01*
X39839500Y-26290048D01*
X39839500Y-29075500D01*
X39819815Y-29142539D01*
X39767011Y-29188294D01*
X39715500Y-29199500D01*
X39152129Y-29199500D01*
X39152123Y-29199501D01*
X39092516Y-29205908D01*
X38957671Y-29256202D01*
X38957664Y-29256206D01*
X38842455Y-29342452D01*
X38842452Y-29342455D01*
X38756206Y-29457664D01*
X38756202Y-29457671D01*
X38705908Y-29592517D01*
X38699501Y-29652116D01*
X38699500Y-29652135D01*
X38699500Y-29814823D01*
X38679815Y-29881862D01*
X38663181Y-29902504D01*
X38065684Y-30500000D01*
X38663181Y-31097495D01*
X38696666Y-31158818D01*
X38699500Y-31185175D01*
X38699500Y-31347869D01*
X38699501Y-31347876D01*
X38705908Y-31407483D01*
X38756202Y-31542328D01*
X38756206Y-31542335D01*
X38842452Y-31657544D01*
X38842455Y-31657547D01*
X38957664Y-31743793D01*
X38957671Y-31743797D01*
X39092517Y-31794091D01*
X39092516Y-31794091D01*
X39099444Y-31794835D01*
X39152127Y-31800500D01*
X40847872Y-31800499D01*
X40907483Y-31794091D01*
X41042331Y-31743796D01*
X41157546Y-31657546D01*
X41243796Y-31542331D01*
X41294091Y-31407483D01*
X41300500Y-31347873D01*
X41300499Y-30524362D01*
X41320183Y-30457324D01*
X41336818Y-30436681D01*
X41439464Y-30334036D01*
X41492679Y-30254394D01*
X41504078Y-30237335D01*
X41504078Y-30237334D01*
X41538013Y-30186547D01*
X41584858Y-30073453D01*
X41605895Y-30022666D01*
X41640500Y-29848692D01*
X41640500Y-29671308D01*
X41640500Y-26290048D01*
X41660185Y-26223009D01*
X41676814Y-26202371D01*
X41740047Y-26139139D01*
X41870568Y-25952734D01*
X41897618Y-25894724D01*
X41943790Y-25842285D01*
X42010983Y-25823133D01*
X42077865Y-25843348D01*
X42122382Y-25894725D01*
X42149429Y-25952728D01*
X42149432Y-25952734D01*
X42279951Y-26139137D01*
X42279952Y-26139138D01*
X42279953Y-26139139D01*
X42343182Y-26202368D01*
X42376666Y-26263689D01*
X42379500Y-26290048D01*
X42379500Y-27788696D01*
X42414103Y-27962658D01*
X42414105Y-27962666D01*
X42448046Y-28044606D01*
X42448046Y-28044607D01*
X42481984Y-28126542D01*
X42481985Y-28126543D01*
X42481987Y-28126547D01*
X42526596Y-28193308D01*
X42580536Y-28274036D01*
X42659554Y-28353054D01*
X42693038Y-28414375D01*
X42695400Y-28429926D01*
X42714364Y-28646687D01*
X42714366Y-28646697D01*
X42773258Y-28866488D01*
X42773261Y-28866497D01*
X42869431Y-29072732D01*
X42869432Y-29072734D01*
X42999954Y-29259141D01*
X43160858Y-29420045D01*
X43160861Y-29420047D01*
X43347266Y-29550568D01*
X43553504Y-29646739D01*
X43773308Y-29705635D01*
X43935230Y-29719801D01*
X43999998Y-29725468D01*
X44000000Y-29725468D01*
X44000002Y-29725468D01*
X44056673Y-29720509D01*
X44226692Y-29705635D01*
X44446496Y-29646739D01*
X44652734Y-29550568D01*
X44839139Y-29420047D01*
X45000047Y-29259139D01*
X45130568Y-29072734D01*
X45226739Y-28866496D01*
X45285635Y-28646692D01*
X45304600Y-28429926D01*
X45305468Y-28420001D01*
X45305468Y-28419998D01*
X45285635Y-28193313D01*
X45285635Y-28193308D01*
X45226739Y-27973504D01*
X45130568Y-27767266D01*
X45000047Y-27580861D01*
X45000045Y-27580858D01*
X44839141Y-27419954D01*
X44652734Y-27289432D01*
X44652732Y-27289431D01*
X44446497Y-27193261D01*
X44446488Y-27193258D01*
X44272407Y-27146614D01*
X44212746Y-27110249D01*
X44182217Y-27047402D01*
X44180500Y-27026839D01*
X44180500Y-26290048D01*
X44200185Y-26223009D01*
X44216814Y-26202371D01*
X44280047Y-26139139D01*
X44410568Y-25952734D01*
X44437618Y-25894724D01*
X44483790Y-25842285D01*
X44550983Y-25823133D01*
X44617865Y-25843348D01*
X44662382Y-25894725D01*
X44689429Y-25952728D01*
X44689432Y-25952734D01*
X44819954Y-26139141D01*
X44980858Y-26300045D01*
X44980861Y-26300047D01*
X45167266Y-26430568D01*
X45373504Y-26526739D01*
X45373509Y-26526740D01*
X45373511Y-26526741D01*
X45426415Y-26540916D01*
X45593308Y-26585635D01*
X45755230Y-26599801D01*
X45819998Y-26605468D01*
X45820000Y-26605468D01*
X45820002Y-26605468D01*
X45876673Y-26600509D01*
X46046692Y-26585635D01*
X46176675Y-26550806D01*
X46246521Y-26552469D01*
X46304383Y-26591631D01*
X46324479Y-26629495D01*
X46324605Y-26629438D01*
X46325567Y-26631546D01*
X46327740Y-26635639D01*
X46328286Y-26637499D01*
X46328290Y-26637507D01*
X46406072Y-26758537D01*
X46406080Y-26758548D01*
X46451824Y-26811340D01*
X46451827Y-26811343D01*
X46451831Y-26811347D01*
X46560565Y-26905567D01*
X46560568Y-26905568D01*
X46560569Y-26905569D01*
X46667305Y-26954315D01*
X46691442Y-26965338D01*
X46758481Y-26985023D01*
X46758485Y-26985024D01*
X46900901Y-27005500D01*
X46900904Y-27005500D01*
X47375990Y-27005500D01*
X47376000Y-27005500D01*
X47483456Y-26993947D01*
X47534967Y-26982741D01*
X47569197Y-26971347D01*
X47637497Y-26948616D01*
X47637501Y-26948613D01*
X47637504Y-26948613D01*
X47758543Y-26870825D01*
X47811347Y-26825070D01*
X47905567Y-26716336D01*
X47965338Y-26585459D01*
X47985023Y-26518420D01*
X47985024Y-26518416D01*
X48005500Y-26376000D01*
X48005500Y-22129500D01*
X48025185Y-22062461D01*
X48077989Y-22016706D01*
X48129500Y-22005500D01*
X51900626Y-22005500D01*
X51967665Y-22025185D01*
X52013420Y-22077989D01*
X52024626Y-22129500D01*
X52024626Y-38496753D01*
X52024456Y-38503243D01*
X52008533Y-38807049D01*
X52007176Y-38819956D01*
X51960097Y-39117207D01*
X51957399Y-39129903D01*
X51879500Y-39420627D01*
X51875489Y-39432971D01*
X51767636Y-39713940D01*
X51762357Y-39725798D01*
X51625716Y-39993971D01*
X51619232Y-40005203D01*
X51455307Y-40257627D01*
X51447685Y-40268118D01*
X51258275Y-40502020D01*
X51249590Y-40511665D01*
X51036780Y-40724476D01*
X51027135Y-40733161D01*
X50793239Y-40922569D01*
X50782739Y-40930198D01*
X50530322Y-41094121D01*
X50519081Y-41100611D01*
X50250924Y-41237245D01*
X50239067Y-41242524D01*
X49958088Y-41350383D01*
X49945745Y-41354394D01*
X49655028Y-41432294D01*
X49642332Y-41434992D01*
X49345077Y-41482075D01*
X49332169Y-41483432D01*
X49028861Y-41499330D01*
X49022370Y-41499500D01*
X4503246Y-41499500D01*
X4496756Y-41499330D01*
X4192953Y-41483407D01*
X4180046Y-41482050D01*
X3882794Y-41434971D01*
X3870097Y-41432273D01*
X3579376Y-41354374D01*
X3567033Y-41350363D01*
X3286064Y-41242510D01*
X3274206Y-41237231D01*
X3006036Y-41100591D01*
X2994796Y-41094101D01*
X2742391Y-40930187D01*
X2731890Y-40922558D01*
X2497989Y-40733149D01*
X2488344Y-40724464D01*
X2275535Y-40511655D01*
X2266850Y-40502010D01*
X2077441Y-40268109D01*
X2069812Y-40257608D01*
X2008517Y-40163222D01*
X1905896Y-40005199D01*
X1899408Y-39993963D01*
X1834021Y-39865635D01*
X1762767Y-39725790D01*
X1757489Y-39713935D01*
X1686994Y-39530289D01*
X1649635Y-39432965D01*
X1645625Y-39420623D01*
X1645228Y-39419141D01*
X1567724Y-39129896D01*
X1565028Y-39117209D01*
X1517949Y-38819953D01*
X1516592Y-38807046D01*
X1500670Y-38503243D01*
X1500500Y-38496753D01*
X1500500Y-38378711D01*
X2649500Y-38378711D01*
X2649500Y-38621288D01*
X2681161Y-38861785D01*
X2743947Y-39096104D01*
X2819898Y-39279465D01*
X2836776Y-39320212D01*
X2958064Y-39530289D01*
X2958066Y-39530292D01*
X2958067Y-39530293D01*
X3105733Y-39722736D01*
X3105739Y-39722743D01*
X3277256Y-39894260D01*
X3277262Y-39894265D01*
X3469711Y-40041936D01*
X3679788Y-40163224D01*
X3903900Y-40256054D01*
X4138211Y-40318838D01*
X4318586Y-40342584D01*
X4378711Y-40350500D01*
X4378712Y-40350500D01*
X4621289Y-40350500D01*
X4669388Y-40344167D01*
X4861789Y-40318838D01*
X5096100Y-40256054D01*
X5320212Y-40163224D01*
X5530289Y-40041936D01*
X5722738Y-39894265D01*
X5894265Y-39722738D01*
X6041936Y-39530289D01*
X6163224Y-39320212D01*
X6256054Y-39096100D01*
X6318838Y-38861789D01*
X6350500Y-38621288D01*
X6350500Y-38439324D01*
X12960001Y-38439324D01*
X12975442Y-38556628D01*
X12975444Y-38556633D01*
X13035899Y-38702585D01*
X13132075Y-38827924D01*
X13257413Y-38924100D01*
X13403365Y-38984554D01*
X13403369Y-38984555D01*
X13520676Y-38999999D01*
X14059999Y-38999999D01*
X14060000Y-38999998D01*
X14060000Y-37900000D01*
X12960001Y-37900000D01*
X12960001Y-38439324D01*
X6350500Y-38439324D01*
X6350500Y-38378712D01*
X6318838Y-38138211D01*
X6256054Y-37903900D01*
X6163224Y-37679788D01*
X6041936Y-37469711D01*
X6019718Y-37440756D01*
X14010000Y-37440756D01*
X14010000Y-37559244D01*
X14040667Y-37673694D01*
X14099910Y-37776306D01*
X14183694Y-37860090D01*
X14286306Y-37919333D01*
X14400756Y-37950000D01*
X14519244Y-37950000D01*
X14633694Y-37919333D01*
X14736306Y-37860090D01*
X14820090Y-37776306D01*
X14860000Y-37707179D01*
X14860000Y-38999999D01*
X15399324Y-38999999D01*
X15516628Y-38984557D01*
X15516633Y-38984555D01*
X15662585Y-38924100D01*
X15787924Y-38827924D01*
X15884099Y-38702587D01*
X15914658Y-38628809D01*
X15958498Y-38574405D01*
X16024792Y-38552339D01*
X16092492Y-38569617D01*
X16105375Y-38578402D01*
X16231374Y-38676470D01*
X16435497Y-38786936D01*
X16531672Y-38819953D01*
X16655015Y-38862297D01*
X16655017Y-38862297D01*
X16655019Y-38862298D01*
X16883951Y-38900500D01*
X16883952Y-38900500D01*
X17075639Y-38900500D01*
X17142678Y-38920185D01*
X17163320Y-38936819D01*
X17380536Y-39154035D01*
X17505965Y-39279464D01*
X17653453Y-39378013D01*
X17701452Y-39397895D01*
X17817334Y-39445895D01*
X17991304Y-39480499D01*
X17991308Y-39480500D01*
X17991309Y-39480500D01*
X20009952Y-39480500D01*
X20076991Y-39500185D01*
X20097628Y-39516814D01*
X20160861Y-39580047D01*
X20347266Y-39710568D01*
X20553504Y-39806739D01*
X20773308Y-39865635D01*
X20935230Y-39879801D01*
X20999998Y-39885468D01*
X21000000Y-39885468D01*
X21000002Y-39885468D01*
X21056673Y-39880509D01*
X21226692Y-39865635D01*
X21446496Y-39806739D01*
X21652734Y-39710568D01*
X21839139Y-39580047D01*
X22000047Y-39419139D01*
X22130568Y-39232734D01*
X22226739Y-39026496D01*
X22285635Y-38806692D01*
X22305468Y-38580000D01*
X22293160Y-38439324D01*
X24460001Y-38439324D01*
X24475442Y-38556628D01*
X24475444Y-38556633D01*
X24535899Y-38702585D01*
X24632075Y-38827924D01*
X24757413Y-38924100D01*
X24903365Y-38984554D01*
X24903369Y-38984555D01*
X25020676Y-38999999D01*
X25559999Y-38999999D01*
X25560000Y-38999998D01*
X25560000Y-37900000D01*
X24460001Y-37900000D01*
X24460001Y-38439324D01*
X22293160Y-38439324D01*
X22285635Y-38353308D01*
X22226739Y-38133504D01*
X22130568Y-37927266D01*
X22000047Y-37740861D01*
X22000045Y-37740858D01*
X21839141Y-37579954D01*
X21652734Y-37449432D01*
X21652732Y-37449431D01*
X21634129Y-37440756D01*
X25510000Y-37440756D01*
X25510000Y-37559244D01*
X25540667Y-37673694D01*
X25599910Y-37776306D01*
X25683694Y-37860090D01*
X25786306Y-37919333D01*
X25900756Y-37950000D01*
X26019244Y-37950000D01*
X26133694Y-37919333D01*
X26236306Y-37860090D01*
X26320090Y-37776306D01*
X26360000Y-37707179D01*
X26360000Y-38999999D01*
X26899324Y-38999999D01*
X27016628Y-38984557D01*
X27016633Y-38984555D01*
X27162585Y-38924100D01*
X27287924Y-38827924D01*
X27384099Y-38702587D01*
X27414658Y-38628809D01*
X27458498Y-38574405D01*
X27524792Y-38552339D01*
X27592492Y-38569617D01*
X27605375Y-38578402D01*
X27731374Y-38676470D01*
X27935497Y-38786936D01*
X28031672Y-38819953D01*
X28155015Y-38862297D01*
X28155017Y-38862297D01*
X28155019Y-38862298D01*
X28383951Y-38900500D01*
X28383952Y-38900500D01*
X28575639Y-38900500D01*
X28642678Y-38920185D01*
X28663320Y-38936819D01*
X28880536Y-39154035D01*
X29005965Y-39279464D01*
X29153453Y-39378013D01*
X29201452Y-39397895D01*
X29317334Y-39445895D01*
X29491304Y-39480499D01*
X29491308Y-39480500D01*
X29491309Y-39480500D01*
X31509952Y-39480500D01*
X31576991Y-39500185D01*
X31597628Y-39516814D01*
X31660861Y-39580047D01*
X31847266Y-39710568D01*
X32053504Y-39806739D01*
X32273308Y-39865635D01*
X32435230Y-39879801D01*
X32499998Y-39885468D01*
X32500000Y-39885468D01*
X32500002Y-39885468D01*
X32556673Y-39880509D01*
X32726692Y-39865635D01*
X32946496Y-39806739D01*
X33152734Y-39710568D01*
X33339139Y-39580047D01*
X33500047Y-39419139D01*
X33630568Y-39232734D01*
X33726739Y-39026496D01*
X33785635Y-38806692D01*
X33805468Y-38580000D01*
X33793160Y-38439324D01*
X35960001Y-38439324D01*
X35975442Y-38556628D01*
X35975444Y-38556633D01*
X36035899Y-38702585D01*
X36132075Y-38827924D01*
X36257413Y-38924100D01*
X36403365Y-38984554D01*
X36403369Y-38984555D01*
X36520676Y-38999999D01*
X37059999Y-38999999D01*
X37060000Y-38999998D01*
X37060000Y-37900000D01*
X35960001Y-37900000D01*
X35960001Y-38439324D01*
X33793160Y-38439324D01*
X33785635Y-38353308D01*
X33726739Y-38133504D01*
X33630568Y-37927266D01*
X33500047Y-37740861D01*
X33500045Y-37740858D01*
X33339141Y-37579954D01*
X33152734Y-37449432D01*
X33152732Y-37449431D01*
X33134129Y-37440756D01*
X37010000Y-37440756D01*
X37010000Y-37559244D01*
X37040667Y-37673694D01*
X37099910Y-37776306D01*
X37183694Y-37860090D01*
X37286306Y-37919333D01*
X37400756Y-37950000D01*
X37519244Y-37950000D01*
X37633694Y-37919333D01*
X37736306Y-37860090D01*
X37820090Y-37776306D01*
X37860000Y-37707179D01*
X37860000Y-38999999D01*
X38399324Y-38999999D01*
X38516628Y-38984557D01*
X38516633Y-38984555D01*
X38662585Y-38924100D01*
X38787924Y-38827924D01*
X38884099Y-38702587D01*
X38914658Y-38628809D01*
X38958498Y-38574405D01*
X39024792Y-38552339D01*
X39092492Y-38569617D01*
X39105375Y-38578402D01*
X39231374Y-38676470D01*
X39435497Y-38786936D01*
X39531672Y-38819953D01*
X39655015Y-38862297D01*
X39655017Y-38862297D01*
X39655019Y-38862298D01*
X39883951Y-38900500D01*
X39883952Y-38900500D01*
X40075639Y-38900500D01*
X40142678Y-38920185D01*
X40163320Y-38936819D01*
X40380536Y-39154035D01*
X40505965Y-39279464D01*
X40653453Y-39378013D01*
X40701452Y-39397895D01*
X40817334Y-39445895D01*
X40991304Y-39480499D01*
X40991308Y-39480500D01*
X40991309Y-39480500D01*
X43009952Y-39480500D01*
X43076991Y-39500185D01*
X43097628Y-39516814D01*
X43160861Y-39580047D01*
X43347266Y-39710568D01*
X43553504Y-39806739D01*
X43773308Y-39865635D01*
X43935230Y-39879801D01*
X43999998Y-39885468D01*
X44000000Y-39885468D01*
X44000002Y-39885468D01*
X44056673Y-39880509D01*
X44226692Y-39865635D01*
X44446496Y-39806739D01*
X44652734Y-39710568D01*
X44839139Y-39580047D01*
X45000047Y-39419139D01*
X45130568Y-39232734D01*
X45226739Y-39026496D01*
X45285635Y-38806692D01*
X45305468Y-38580000D01*
X45287857Y-38378711D01*
X47149500Y-38378711D01*
X47149500Y-38621288D01*
X47181161Y-38861785D01*
X47243947Y-39096104D01*
X47319898Y-39279465D01*
X47336776Y-39320212D01*
X47458064Y-39530289D01*
X47458066Y-39530292D01*
X47458067Y-39530293D01*
X47605733Y-39722736D01*
X47605739Y-39722743D01*
X47777256Y-39894260D01*
X47777262Y-39894265D01*
X47969711Y-40041936D01*
X48179788Y-40163224D01*
X48403900Y-40256054D01*
X48638211Y-40318838D01*
X48818586Y-40342584D01*
X48878711Y-40350500D01*
X48878712Y-40350500D01*
X49121289Y-40350500D01*
X49169388Y-40344167D01*
X49361789Y-40318838D01*
X49596100Y-40256054D01*
X49820212Y-40163224D01*
X50030289Y-40041936D01*
X50222738Y-39894265D01*
X50394265Y-39722738D01*
X50541936Y-39530289D01*
X50663224Y-39320212D01*
X50756054Y-39096100D01*
X50818838Y-38861789D01*
X50850500Y-38621288D01*
X50850500Y-38378712D01*
X50818838Y-38138211D01*
X50756054Y-37903900D01*
X50663224Y-37679788D01*
X50541936Y-37469711D01*
X50431898Y-37326306D01*
X50394266Y-37277263D01*
X50394260Y-37277256D01*
X50222743Y-37105739D01*
X50222736Y-37105733D01*
X50030293Y-36958067D01*
X50030292Y-36958066D01*
X50030289Y-36958064D01*
X49820212Y-36836776D01*
X49806632Y-36831151D01*
X49596104Y-36743947D01*
X49361785Y-36681161D01*
X49121289Y-36649500D01*
X49121288Y-36649500D01*
X48878712Y-36649500D01*
X48878711Y-36649500D01*
X48638214Y-36681161D01*
X48403895Y-36743947D01*
X48179794Y-36836773D01*
X48179785Y-36836777D01*
X47969706Y-36958067D01*
X47777263Y-37105733D01*
X47777256Y-37105739D01*
X47605739Y-37277256D01*
X47605733Y-37277263D01*
X47458067Y-37469706D01*
X47336777Y-37679785D01*
X47336773Y-37679794D01*
X47243947Y-37903895D01*
X47181161Y-38138214D01*
X47149500Y-38378711D01*
X45287857Y-38378711D01*
X45285635Y-38353308D01*
X45226739Y-38133504D01*
X45130568Y-37927266D01*
X45000047Y-37740861D01*
X45000045Y-37740858D01*
X44839141Y-37579954D01*
X44652734Y-37449432D01*
X44652732Y-37449431D01*
X44446497Y-37353261D01*
X44446488Y-37353258D01*
X44226697Y-37294366D01*
X44226693Y-37294365D01*
X44226692Y-37294365D01*
X44226691Y-37294364D01*
X44226686Y-37294364D01*
X44000002Y-37274532D01*
X43999998Y-37274532D01*
X43773313Y-37294364D01*
X43773302Y-37294366D01*
X43553511Y-37353258D01*
X43553502Y-37353261D01*
X43347267Y-37449431D01*
X43347265Y-37449432D01*
X43160862Y-37579951D01*
X43133803Y-37607011D01*
X43097631Y-37643182D01*
X43036311Y-37676666D01*
X43009952Y-37679500D01*
X41525126Y-37679500D01*
X41458087Y-37659815D01*
X41412332Y-37607011D01*
X41401550Y-37545260D01*
X41403423Y-37522649D01*
X41405300Y-37500000D01*
X41386134Y-37268695D01*
X41343414Y-37100000D01*
X41329157Y-37043699D01*
X41235924Y-36831151D01*
X41108983Y-36636852D01*
X41108980Y-36636849D01*
X41108979Y-36636847D01*
X40951784Y-36466087D01*
X40951779Y-36466083D01*
X40951777Y-36466081D01*
X40768634Y-36323535D01*
X40768628Y-36323531D01*
X40564504Y-36213064D01*
X40564495Y-36213061D01*
X40344984Y-36137702D01*
X40173282Y-36109050D01*
X40116049Y-36099500D01*
X39883951Y-36099500D01*
X39838164Y-36107140D01*
X39655015Y-36137702D01*
X39435504Y-36213061D01*
X39435495Y-36213064D01*
X39231372Y-36323531D01*
X39105382Y-36421593D01*
X39040388Y-36447235D01*
X38971848Y-36433668D01*
X38921523Y-36385200D01*
X38914658Y-36371191D01*
X38884098Y-36297410D01*
X38787924Y-36172075D01*
X38662586Y-36075899D01*
X38516634Y-36015445D01*
X38516630Y-36015444D01*
X38399330Y-36000000D01*
X37860000Y-36000000D01*
X37860000Y-37292820D01*
X37820090Y-37223694D01*
X37736306Y-37139910D01*
X37633694Y-37080667D01*
X37519244Y-37050000D01*
X37400756Y-37050000D01*
X37286306Y-37080667D01*
X37183694Y-37139910D01*
X37099910Y-37223694D01*
X37040667Y-37326306D01*
X37010000Y-37440756D01*
X33134129Y-37440756D01*
X32946497Y-37353261D01*
X32946488Y-37353258D01*
X32726697Y-37294366D01*
X32726693Y-37294365D01*
X32726692Y-37294365D01*
X32726691Y-37294364D01*
X32726686Y-37294364D01*
X32500002Y-37274532D01*
X32499998Y-37274532D01*
X32273313Y-37294364D01*
X32273302Y-37294366D01*
X32053511Y-37353258D01*
X32053502Y-37353261D01*
X31847267Y-37449431D01*
X31847265Y-37449432D01*
X31660862Y-37579951D01*
X31633803Y-37607011D01*
X31597631Y-37643182D01*
X31536311Y-37676666D01*
X31509952Y-37679500D01*
X30025126Y-37679500D01*
X29958087Y-37659815D01*
X29912332Y-37607011D01*
X29901550Y-37545260D01*
X29903423Y-37522649D01*
X29905300Y-37500000D01*
X29886134Y-37268695D01*
X29843414Y-37100000D01*
X29829157Y-37043699D01*
X29735924Y-36831151D01*
X29608983Y-36636852D01*
X29608980Y-36636849D01*
X29608979Y-36636847D01*
X29538853Y-36560669D01*
X35960000Y-36560669D01*
X35960000Y-37100000D01*
X37060000Y-37100000D01*
X37060000Y-36000000D01*
X36520675Y-36000000D01*
X36403371Y-36015442D01*
X36403366Y-36015444D01*
X36257414Y-36075899D01*
X36132075Y-36172075D01*
X36035899Y-36297413D01*
X35975445Y-36443365D01*
X35975444Y-36443369D01*
X35960000Y-36560669D01*
X29538853Y-36560669D01*
X29451784Y-36466087D01*
X29451779Y-36466083D01*
X29451777Y-36466081D01*
X29268634Y-36323535D01*
X29268628Y-36323531D01*
X29064504Y-36213064D01*
X29064495Y-36213061D01*
X28844984Y-36137702D01*
X28673282Y-36109050D01*
X28616049Y-36099500D01*
X28383951Y-36099500D01*
X28338164Y-36107140D01*
X28155015Y-36137702D01*
X27935504Y-36213061D01*
X27935495Y-36213064D01*
X27731372Y-36323531D01*
X27605382Y-36421593D01*
X27540388Y-36447235D01*
X27471848Y-36433668D01*
X27421523Y-36385200D01*
X27414658Y-36371191D01*
X27384098Y-36297410D01*
X27287924Y-36172075D01*
X27162586Y-36075899D01*
X27016634Y-36015445D01*
X27016630Y-36015444D01*
X26899330Y-36000000D01*
X26360000Y-36000000D01*
X26360000Y-37292820D01*
X26320090Y-37223694D01*
X26236306Y-37139910D01*
X26133694Y-37080667D01*
X26019244Y-37050000D01*
X25900756Y-37050000D01*
X25786306Y-37080667D01*
X25683694Y-37139910D01*
X25599910Y-37223694D01*
X25540667Y-37326306D01*
X25510000Y-37440756D01*
X21634129Y-37440756D01*
X21446497Y-37353261D01*
X21446488Y-37353258D01*
X21226697Y-37294366D01*
X21226693Y-37294365D01*
X21226692Y-37294365D01*
X21226691Y-37294364D01*
X21226686Y-37294364D01*
X21000002Y-37274532D01*
X20999998Y-37274532D01*
X20773313Y-37294364D01*
X20773302Y-37294366D01*
X20553511Y-37353258D01*
X20553502Y-37353261D01*
X20347267Y-37449431D01*
X20347265Y-37449432D01*
X20160862Y-37579951D01*
X20133803Y-37607011D01*
X20097631Y-37643182D01*
X20036311Y-37676666D01*
X20009952Y-37679500D01*
X18525126Y-37679500D01*
X18458087Y-37659815D01*
X18412332Y-37607011D01*
X18401550Y-37545260D01*
X18403423Y-37522649D01*
X18405300Y-37500000D01*
X18386134Y-37268695D01*
X18343414Y-37100000D01*
X18329157Y-37043699D01*
X18235924Y-36831151D01*
X18108983Y-36636852D01*
X18108980Y-36636849D01*
X18108979Y-36636847D01*
X18038853Y-36560669D01*
X24460000Y-36560669D01*
X24460000Y-37100000D01*
X25560000Y-37100000D01*
X25560000Y-36000000D01*
X25020675Y-36000000D01*
X24903371Y-36015442D01*
X24903366Y-36015444D01*
X24757414Y-36075899D01*
X24632075Y-36172075D01*
X24535899Y-36297413D01*
X24475445Y-36443365D01*
X24475444Y-36443369D01*
X24460000Y-36560669D01*
X18038853Y-36560669D01*
X17951784Y-36466087D01*
X17951779Y-36466083D01*
X17951777Y-36466081D01*
X17768634Y-36323535D01*
X17768628Y-36323531D01*
X17564504Y-36213064D01*
X17564495Y-36213061D01*
X17344984Y-36137702D01*
X17173282Y-36109050D01*
X17116049Y-36099500D01*
X16883951Y-36099500D01*
X16838164Y-36107140D01*
X16655015Y-36137702D01*
X16435504Y-36213061D01*
X16435495Y-36213064D01*
X16231372Y-36323531D01*
X16105382Y-36421593D01*
X16040388Y-36447235D01*
X15971848Y-36433668D01*
X15921523Y-36385200D01*
X15914658Y-36371191D01*
X15884098Y-36297410D01*
X15787924Y-36172075D01*
X15662586Y-36075899D01*
X15516634Y-36015445D01*
X15516630Y-36015444D01*
X15399330Y-36000000D01*
X14860000Y-36000000D01*
X14860000Y-37292820D01*
X14820090Y-37223694D01*
X14736306Y-37139910D01*
X14633694Y-37080667D01*
X14519244Y-37050000D01*
X14400756Y-37050000D01*
X14286306Y-37080667D01*
X14183694Y-37139910D01*
X14099910Y-37223694D01*
X14040667Y-37326306D01*
X14010000Y-37440756D01*
X6019718Y-37440756D01*
X5931898Y-37326306D01*
X5894266Y-37277263D01*
X5894260Y-37277256D01*
X5722743Y-37105739D01*
X5722736Y-37105733D01*
X5530293Y-36958067D01*
X5530292Y-36958066D01*
X5530289Y-36958064D01*
X5320212Y-36836776D01*
X5306632Y-36831151D01*
X5096104Y-36743947D01*
X4861785Y-36681161D01*
X4621289Y-36649500D01*
X4621288Y-36649500D01*
X4378712Y-36649500D01*
X4378711Y-36649500D01*
X4138214Y-36681161D01*
X3903895Y-36743947D01*
X3679794Y-36836773D01*
X3679785Y-36836777D01*
X3469706Y-36958067D01*
X3277263Y-37105733D01*
X3277256Y-37105739D01*
X3105739Y-37277256D01*
X3105733Y-37277263D01*
X2958067Y-37469706D01*
X2836777Y-37679785D01*
X2836773Y-37679794D01*
X2743947Y-37903895D01*
X2681161Y-38138214D01*
X2649500Y-38378711D01*
X1500500Y-38378711D01*
X1500500Y-36560669D01*
X12960000Y-36560669D01*
X12960000Y-37100000D01*
X14060000Y-37100000D01*
X14060000Y-36000000D01*
X13520675Y-36000000D01*
X13403371Y-36015442D01*
X13403366Y-36015444D01*
X13257414Y-36075899D01*
X13132075Y-36172075D01*
X13035899Y-36297413D01*
X12975445Y-36443365D01*
X12975444Y-36443369D01*
X12960000Y-36560669D01*
X1500500Y-36560669D01*
X1500500Y-33854454D01*
X1520185Y-33787415D01*
X1572989Y-33741660D01*
X1642147Y-33731716D01*
X1705703Y-33760741D01*
X1718922Y-33774772D01*
X1722070Y-33777920D01*
X1847413Y-33874100D01*
X1993365Y-33934554D01*
X1993369Y-33934555D01*
X2110676Y-33949999D01*
X2599999Y-33949999D01*
X3400000Y-33949999D01*
X3889324Y-33949999D01*
X4006628Y-33934557D01*
X4006633Y-33934555D01*
X4152585Y-33874100D01*
X4277924Y-33777924D01*
X4374098Y-33652588D01*
X4381538Y-33634626D01*
X4425377Y-33580221D01*
X4491671Y-33558154D01*
X4559371Y-33575431D01*
X4572263Y-33584221D01*
X4744209Y-33718052D01*
X4955543Y-33832420D01*
X5140000Y-33895743D01*
X5940000Y-33895743D01*
X6124456Y-33832420D01*
X6335790Y-33718052D01*
X6525422Y-33570455D01*
X6688177Y-33393657D01*
X6706191Y-33366085D01*
X6759338Y-33320728D01*
X6828569Y-33311304D01*
X6891905Y-33340806D01*
X6913809Y-33366085D01*
X6931822Y-33393657D01*
X7094577Y-33570455D01*
X7284209Y-33718052D01*
X7495543Y-33832420D01*
X7680000Y-33895743D01*
X8480000Y-33895743D01*
X8664456Y-33832420D01*
X8875790Y-33718052D01*
X9065422Y-33570455D01*
X9228177Y-33393657D01*
X9246191Y-33366085D01*
X9299338Y-33320728D01*
X9368569Y-33311304D01*
X9431905Y-33340806D01*
X9453809Y-33366085D01*
X9471822Y-33393657D01*
X9634577Y-33570455D01*
X9824209Y-33718052D01*
X10035543Y-33832420D01*
X10220000Y-33895743D01*
X11020000Y-33895743D01*
X11204456Y-33832420D01*
X11415790Y-33718052D01*
X11605422Y-33570455D01*
X11768173Y-33393661D01*
X11768176Y-33393657D01*
X11899606Y-33192490D01*
X11996134Y-32972428D01*
X12014476Y-32900000D01*
X11020000Y-32900000D01*
X11020000Y-33895743D01*
X10220000Y-33895743D01*
X10220000Y-32900000D01*
X8480000Y-32900000D01*
X8480000Y-33895743D01*
X7680000Y-33895743D01*
X7680000Y-32900000D01*
X5940000Y-32900000D01*
X5940000Y-33895743D01*
X5140000Y-33895743D01*
X5140000Y-32900000D01*
X3400000Y-32900000D01*
X3400000Y-33949999D01*
X2599999Y-33949999D01*
X2600000Y-33949998D01*
X2600000Y-32807106D01*
X2692993Y-32900099D01*
X2807007Y-32965925D01*
X2934174Y-33000000D01*
X3065826Y-33000000D01*
X3192993Y-32965925D01*
X3307007Y-32900099D01*
X3400099Y-32807007D01*
X3465925Y-32692993D01*
X3500000Y-32565826D01*
X3500000Y-32434174D01*
X5040000Y-32434174D01*
X5040000Y-32565826D01*
X5074075Y-32692993D01*
X5139901Y-32807007D01*
X5232993Y-32900099D01*
X5347007Y-32965925D01*
X5474174Y-33000000D01*
X5605826Y-33000000D01*
X5732993Y-32965925D01*
X5847007Y-32900099D01*
X5940099Y-32807007D01*
X6005925Y-32692993D01*
X6040000Y-32565826D01*
X6040000Y-32434174D01*
X7580000Y-32434174D01*
X7580000Y-32565826D01*
X7614075Y-32692993D01*
X7679901Y-32807007D01*
X7772993Y-32900099D01*
X7887007Y-32965925D01*
X8014174Y-33000000D01*
X8145826Y-33000000D01*
X8272993Y-32965925D01*
X8387007Y-32900099D01*
X8480099Y-32807007D01*
X8545925Y-32692993D01*
X8580000Y-32565826D01*
X8580000Y-32434174D01*
X10120000Y-32434174D01*
X10120000Y-32565826D01*
X10154075Y-32692993D01*
X10219901Y-32807007D01*
X10312993Y-32900099D01*
X10427007Y-32965925D01*
X10554174Y-33000000D01*
X10685826Y-33000000D01*
X10812993Y-32965925D01*
X10927007Y-32900099D01*
X11020099Y-32807007D01*
X11085925Y-32692993D01*
X11120000Y-32565826D01*
X11120000Y-32434174D01*
X11085925Y-32307007D01*
X11020099Y-32192993D01*
X10927106Y-32100000D01*
X11020000Y-32100000D01*
X12014476Y-32100000D01*
X11996134Y-32027571D01*
X11899606Y-31807509D01*
X11849963Y-31731525D01*
X13834159Y-31731525D01*
X13935698Y-31786476D01*
X13935706Y-31786479D01*
X14155139Y-31861811D01*
X14383993Y-31900000D01*
X14616007Y-31900000D01*
X14844860Y-31861811D01*
X15064292Y-31786480D01*
X15165839Y-31731525D01*
X14500001Y-31065685D01*
X14500000Y-31065685D01*
X13834159Y-31731525D01*
X11849963Y-31731525D01*
X11768176Y-31606342D01*
X11768173Y-31606338D01*
X11605422Y-31429544D01*
X11415790Y-31281947D01*
X11204455Y-31167578D01*
X11204450Y-31167576D01*
X11020000Y-31104255D01*
X11020000Y-32100000D01*
X10927106Y-32100000D01*
X10927007Y-32099901D01*
X10812993Y-32034075D01*
X10685826Y-32000000D01*
X10554174Y-32000000D01*
X10427007Y-32034075D01*
X10312993Y-32099901D01*
X10219901Y-32192993D01*
X10154075Y-32307007D01*
X10120000Y-32434174D01*
X8580000Y-32434174D01*
X8545925Y-32307007D01*
X8480099Y-32192993D01*
X8387007Y-32099901D01*
X8272993Y-32034075D01*
X8145826Y-32000000D01*
X8014174Y-32000000D01*
X7887007Y-32034075D01*
X7772993Y-32099901D01*
X7679901Y-32192993D01*
X7614075Y-32307007D01*
X7580000Y-32434174D01*
X6040000Y-32434174D01*
X6005925Y-32307007D01*
X5940099Y-32192993D01*
X5847007Y-32099901D01*
X5732993Y-32034075D01*
X5605826Y-32000000D01*
X5474174Y-32000000D01*
X5347007Y-32034075D01*
X5232993Y-32099901D01*
X5139901Y-32192993D01*
X5074075Y-32307007D01*
X5040000Y-32434174D01*
X3500000Y-32434174D01*
X3465925Y-32307007D01*
X3400099Y-32192993D01*
X3307106Y-32100000D01*
X3400000Y-32100000D01*
X5140000Y-32100000D01*
X5140000Y-31104255D01*
X5940000Y-31104255D01*
X5940000Y-32100000D01*
X7680000Y-32100000D01*
X7680000Y-31104255D01*
X8480000Y-31104255D01*
X8480000Y-32100000D01*
X10220000Y-32100000D01*
X10220000Y-31104255D01*
X10035549Y-31167576D01*
X10035544Y-31167578D01*
X9824209Y-31281947D01*
X9634577Y-31429544D01*
X9471826Y-31606338D01*
X9471823Y-31606342D01*
X9453808Y-31633917D01*
X9400662Y-31679274D01*
X9331430Y-31688697D01*
X9268095Y-31659194D01*
X9246192Y-31633917D01*
X9228176Y-31606342D01*
X9228173Y-31606338D01*
X9065422Y-31429544D01*
X8875790Y-31281947D01*
X8664455Y-31167578D01*
X8664450Y-31167576D01*
X8480000Y-31104255D01*
X7680000Y-31104255D01*
X7495549Y-31167576D01*
X7495544Y-31167578D01*
X7284209Y-31281947D01*
X7094577Y-31429544D01*
X6931826Y-31606338D01*
X6931823Y-31606342D01*
X6913808Y-31633917D01*
X6860662Y-31679274D01*
X6791430Y-31688697D01*
X6728095Y-31659194D01*
X6706192Y-31633917D01*
X6688176Y-31606342D01*
X6688173Y-31606338D01*
X6525422Y-31429544D01*
X6335790Y-31281947D01*
X6124455Y-31167578D01*
X6124450Y-31167576D01*
X5940000Y-31104255D01*
X5140000Y-31104255D01*
X4955549Y-31167576D01*
X4955544Y-31167578D01*
X4744209Y-31281948D01*
X4572263Y-31415778D01*
X4507269Y-31441420D01*
X4438729Y-31427853D01*
X4388404Y-31379385D01*
X4381539Y-31365374D01*
X4374099Y-31347413D01*
X4277924Y-31222075D01*
X4152586Y-31125899D01*
X4006634Y-31065445D01*
X4006630Y-31065444D01*
X3889330Y-31050000D01*
X3400000Y-31050000D01*
X3400000Y-32100000D01*
X3307106Y-32100000D01*
X3307007Y-32099901D01*
X3192993Y-32034075D01*
X3065826Y-32000000D01*
X2934174Y-32000000D01*
X2807007Y-32034075D01*
X2692993Y-32099901D01*
X2600000Y-32192894D01*
X2600000Y-31050000D01*
X2110675Y-31050000D01*
X1993371Y-31065442D01*
X1993366Y-31065444D01*
X1847414Y-31125899D01*
X1722070Y-31222079D01*
X1716328Y-31227822D01*
X1715167Y-31226661D01*
X1666443Y-31262236D01*
X1596697Y-31266388D01*
X1535778Y-31232173D01*
X1503028Y-31170454D01*
X1500500Y-31145545D01*
X1500500Y-30499994D01*
X13095202Y-30499994D01*
X13095202Y-30500005D01*
X13114361Y-30731218D01*
X13171317Y-30956135D01*
X13264515Y-31168605D01*
X13264517Y-31168610D01*
X13264986Y-31169326D01*
X13934314Y-30500000D01*
X13881653Y-30447339D01*
X14100000Y-30447339D01*
X14100000Y-30552661D01*
X14127259Y-30654394D01*
X14179920Y-30745606D01*
X14254394Y-30820080D01*
X14345606Y-30872741D01*
X14447339Y-30900000D01*
X14552661Y-30900000D01*
X14654394Y-30872741D01*
X14745606Y-30820080D01*
X14820080Y-30745606D01*
X14872741Y-30654394D01*
X14900000Y-30552661D01*
X14900000Y-30447339D01*
X14872741Y-30345606D01*
X14820080Y-30254394D01*
X14745606Y-30179920D01*
X14654394Y-30127259D01*
X14552661Y-30100000D01*
X14447339Y-30100000D01*
X14345606Y-30127259D01*
X14254394Y-30179920D01*
X14179920Y-30254394D01*
X14127259Y-30345606D01*
X14100000Y-30447339D01*
X13881653Y-30447339D01*
X13264986Y-29830672D01*
X13264985Y-29830672D01*
X13264519Y-29831385D01*
X13264516Y-29831391D01*
X13171317Y-30043864D01*
X13114361Y-30268781D01*
X13095202Y-30499994D01*
X1500500Y-30499994D01*
X1500500Y-27520000D01*
X4012458Y-27520000D01*
X4032606Y-27827393D01*
X4032608Y-27827405D01*
X4092703Y-28129524D01*
X4092706Y-28129538D01*
X4191723Y-28421231D01*
X4191732Y-28421252D01*
X4327971Y-28697517D01*
X4446663Y-28875150D01*
X5310385Y-28011428D01*
X5371103Y-28130593D01*
X5478888Y-28278946D01*
X5608554Y-28408612D01*
X5756907Y-28516397D01*
X5876070Y-28577113D01*
X5012347Y-29440836D01*
X5189982Y-29559528D01*
X5466247Y-29695767D01*
X5466268Y-29695776D01*
X5757961Y-29794793D01*
X5757975Y-29794796D01*
X6060094Y-29854891D01*
X6060106Y-29854893D01*
X6367500Y-29875041D01*
X6674893Y-29854893D01*
X6674905Y-29854891D01*
X6977024Y-29794796D01*
X6977038Y-29794793D01*
X7268731Y-29695776D01*
X7268752Y-29695767D01*
X7545017Y-29559528D01*
X7722651Y-29440836D01*
X7550288Y-29268473D01*
X13834158Y-29268473D01*
X14500000Y-29934314D01*
X14500001Y-29934314D01*
X15165839Y-29268473D01*
X15165840Y-29268473D01*
X15064301Y-29213523D01*
X15064293Y-29213520D01*
X14844860Y-29138188D01*
X14616007Y-29100000D01*
X14383993Y-29100000D01*
X14155139Y-29138188D01*
X13935703Y-29213521D01*
X13935692Y-29213526D01*
X13834158Y-29268473D01*
X7550288Y-29268473D01*
X6858928Y-28577113D01*
X6978093Y-28516397D01*
X7126446Y-28408612D01*
X7256112Y-28278946D01*
X7363897Y-28130593D01*
X7424613Y-28011428D01*
X8288336Y-28875151D01*
X8407028Y-28697517D01*
X8543267Y-28421252D01*
X8543276Y-28421231D01*
X8642293Y-28129538D01*
X8642296Y-28129524D01*
X8702391Y-27827405D01*
X8702393Y-27827393D01*
X8722541Y-27520000D01*
X8702393Y-27212606D01*
X8702391Y-27212594D01*
X8642296Y-26910475D01*
X8642293Y-26910461D01*
X8543276Y-26618768D01*
X8543267Y-26618747D01*
X8407028Y-26342482D01*
X8288336Y-26164847D01*
X7424613Y-27028570D01*
X7363897Y-26909407D01*
X7256112Y-26761054D01*
X7126446Y-26631388D01*
X6978093Y-26523603D01*
X6858928Y-26462886D01*
X7182490Y-26139324D01*
X13800001Y-26139324D01*
X13815442Y-26256628D01*
X13815444Y-26256633D01*
X13875899Y-26402585D01*
X13972075Y-26527924D01*
X14097413Y-26624100D01*
X14243365Y-26684554D01*
X14243369Y-26684555D01*
X14360676Y-26699999D01*
X14799999Y-26699999D01*
X14800000Y-26699998D01*
X14800000Y-25700000D01*
X13800001Y-25700000D01*
X13800001Y-26139324D01*
X7182490Y-26139324D01*
X7722650Y-25599163D01*
X7545016Y-25480471D01*
X7545017Y-25480471D01*
X7268752Y-25344232D01*
X7268731Y-25344223D01*
X6977038Y-25245206D01*
X6977024Y-25245203D01*
X6674905Y-25185108D01*
X6674893Y-25185106D01*
X6367500Y-25164958D01*
X6060106Y-25185106D01*
X6060094Y-25185108D01*
X5757975Y-25245203D01*
X5757961Y-25245206D01*
X5466268Y-25344223D01*
X5466247Y-25344232D01*
X5189988Y-25480468D01*
X5189974Y-25480477D01*
X5012348Y-25599163D01*
X5876071Y-26462886D01*
X5756907Y-26523603D01*
X5608554Y-26631388D01*
X5478888Y-26761054D01*
X5371103Y-26909407D01*
X5310386Y-27028571D01*
X4446663Y-26164848D01*
X4327977Y-26342474D01*
X4327968Y-26342488D01*
X4191732Y-26618747D01*
X4191723Y-26618768D01*
X4092706Y-26910461D01*
X4092703Y-26910475D01*
X4032608Y-27212594D01*
X4032606Y-27212606D01*
X4012458Y-27520000D01*
X1500500Y-27520000D01*
X1500500Y-24460669D01*
X13800000Y-24460669D01*
X13800000Y-24900000D01*
X14800000Y-24900000D01*
X14800000Y-23900000D01*
X14360675Y-23900000D01*
X14243371Y-23915442D01*
X14243366Y-23915444D01*
X14097414Y-23975899D01*
X13972075Y-24072075D01*
X13875899Y-24197413D01*
X13815445Y-24343365D01*
X13815444Y-24343369D01*
X13800000Y-24460669D01*
X1500500Y-24460669D01*
X1500500Y-22749994D01*
X7468531Y-22749994D01*
X7468531Y-22750005D01*
X7488374Y-22989476D01*
X7547365Y-23222428D01*
X7643890Y-23442483D01*
X7643891Y-23442485D01*
X7652362Y-23455451D01*
X8357815Y-22750000D01*
X7652361Y-22044546D01*
X7643895Y-22057506D01*
X7643893Y-22057509D01*
X7547365Y-22277571D01*
X7488374Y-22510523D01*
X7468531Y-22749994D01*
X1500500Y-22749994D01*
X1500500Y-13629500D01*
X1520185Y-13562461D01*
X1572989Y-13516706D01*
X1624500Y-13505500D01*
X4907323Y-13505500D01*
X4974362Y-13525185D01*
G37*
%TD.AperFunction*%
%TA.AperFunction,Conductor*%
G36*
X9401503Y-22662318D02*
G01*
X9434988Y-22723641D01*
X9430004Y-22793333D01*
X9401503Y-22837680D01*
X9366983Y-22872199D01*
X9383500Y-22810560D01*
X9383500Y-22689440D01*
X9366982Y-22627797D01*
X9401503Y-22662318D01*
G37*
%TD.AperFunction*%
%TD*%
%TA.AperFunction,Conductor*%
%TO.N,VCC*%
G36*
X49028365Y-1500670D02*
G01*
X49332168Y-1516594D01*
X49345074Y-1517950D01*
X49642327Y-1565032D01*
X49655020Y-1567730D01*
X49945736Y-1645629D01*
X49958080Y-1649640D01*
X50239056Y-1757499D01*
X50250906Y-1762774D01*
X50519076Y-1899415D01*
X50530308Y-1905900D01*
X50782728Y-2069825D01*
X50793224Y-2077451D01*
X51027118Y-2266857D01*
X51036763Y-2275542D01*
X51249575Y-2488355D01*
X51258260Y-2498001D01*
X51447660Y-2731892D01*
X51455289Y-2742392D01*
X51619207Y-2994805D01*
X51625697Y-3006046D01*
X51762331Y-3274209D01*
X51767610Y-3286066D01*
X51875465Y-3567039D01*
X51879476Y-3579382D01*
X51957373Y-3870097D01*
X51960070Y-3882792D01*
X51983611Y-4031420D01*
X52007152Y-4180047D01*
X52008509Y-4192956D01*
X52024456Y-4497253D01*
X52024626Y-4503742D01*
X52024626Y-21376000D01*
X52004941Y-21443039D01*
X51952137Y-21488794D01*
X51900626Y-21500000D01*
X47500000Y-21500000D01*
X47500000Y-26376000D01*
X47480315Y-26443039D01*
X47427511Y-26488794D01*
X47376000Y-26500000D01*
X46900901Y-26500000D01*
X46833862Y-26480315D01*
X46788107Y-26427511D01*
X46778163Y-26358353D01*
X46807188Y-26294797D01*
X46809671Y-26292017D01*
X46928585Y-26162842D01*
X47055483Y-25968609D01*
X47148681Y-25756137D01*
X47162897Y-25700000D01*
X45872661Y-25700000D01*
X45974394Y-25672741D01*
X46065606Y-25620080D01*
X46140080Y-25545606D01*
X46192741Y-25454394D01*
X46220000Y-25352661D01*
X46220000Y-25247339D01*
X46192741Y-25145606D01*
X46140080Y-25054394D01*
X46065606Y-24979920D01*
X45974394Y-24927259D01*
X45872661Y-24900000D01*
X46220000Y-24900000D01*
X47162898Y-24900000D01*
X47162897Y-24899999D01*
X47148681Y-24843862D01*
X47055483Y-24631390D01*
X46928585Y-24437157D01*
X46771441Y-24266454D01*
X46771437Y-24266451D01*
X46588355Y-24123952D01*
X46588351Y-24123949D01*
X46384302Y-24013523D01*
X46384293Y-24013520D01*
X46220000Y-23957118D01*
X46220000Y-24900000D01*
X45872661Y-24900000D01*
X45767339Y-24900000D01*
X45665606Y-24927259D01*
X45574394Y-24979920D01*
X45499920Y-25054394D01*
X45447259Y-25145606D01*
X45420000Y-25247339D01*
X45420000Y-23957118D01*
X45255706Y-24013520D01*
X45255697Y-24013523D01*
X45051648Y-24123949D01*
X45051644Y-24123952D01*
X44868562Y-24266451D01*
X44868552Y-24266460D01*
X44715229Y-24433013D01*
X44655342Y-24469004D01*
X44585504Y-24466903D01*
X44527888Y-24427379D01*
X44500787Y-24362979D01*
X44500000Y-24349030D01*
X44500000Y-21500000D01*
X41764500Y-21500000D01*
X41697461Y-21480315D01*
X41651706Y-21427511D01*
X41640500Y-21376000D01*
X41640500Y-20644361D01*
X41660185Y-20577322D01*
X41676819Y-20556680D01*
X42440046Y-19793453D01*
X43213054Y-19020444D01*
X43274375Y-18986961D01*
X43289916Y-18984600D01*
X43506692Y-18965635D01*
X43726496Y-18906739D01*
X43932734Y-18810568D01*
X44119139Y-18680047D01*
X44280047Y-18519139D01*
X44410568Y-18332734D01*
X44437618Y-18274724D01*
X44483790Y-18222285D01*
X44550983Y-18203133D01*
X44617865Y-18223348D01*
X44662382Y-18274725D01*
X44689429Y-18332728D01*
X44689432Y-18332734D01*
X44819954Y-18519141D01*
X44980858Y-18680045D01*
X44980861Y-18680047D01*
X45167266Y-18810568D01*
X45373504Y-18906739D01*
X45373509Y-18906740D01*
X45373511Y-18906741D01*
X45426415Y-18920916D01*
X45593308Y-18965635D01*
X45755230Y-18979801D01*
X45819998Y-18985468D01*
X45820000Y-18985468D01*
X45820002Y-18985468D01*
X45876673Y-18980509D01*
X46046692Y-18965635D01*
X46266496Y-18906739D01*
X46472734Y-18810568D01*
X46659139Y-18680047D01*
X46820047Y-18519139D01*
X46950568Y-18332734D01*
X47046739Y-18126496D01*
X47105635Y-17906692D01*
X47125468Y-17680000D01*
X47105635Y-17453308D01*
X47046739Y-17233504D01*
X46950568Y-17027266D01*
X46820047Y-16840861D01*
X46820045Y-16840858D01*
X46659141Y-16679954D01*
X46472734Y-16549432D01*
X46472732Y-16549431D01*
X46266497Y-16453261D01*
X46266488Y-16453258D01*
X46046697Y-16394366D01*
X46046693Y-16394365D01*
X46046692Y-16394365D01*
X46046691Y-16394364D01*
X46046686Y-16394364D01*
X45820002Y-16374532D01*
X45819998Y-16374532D01*
X45593313Y-16394364D01*
X45593302Y-16394366D01*
X45373511Y-16453258D01*
X45373502Y-16453261D01*
X45167267Y-16549431D01*
X45167265Y-16549432D01*
X44980858Y-16679954D01*
X44819954Y-16840858D01*
X44689432Y-17027265D01*
X44689431Y-17027267D01*
X44662382Y-17085275D01*
X44616209Y-17137714D01*
X44549016Y-17156866D01*
X44482135Y-17136650D01*
X44437618Y-17085275D01*
X44420605Y-17048791D01*
X44410568Y-17027266D01*
X44280047Y-16840861D01*
X44280045Y-16840858D01*
X44216819Y-16777632D01*
X44183334Y-16716309D01*
X44180500Y-16689951D01*
X44180500Y-15755676D01*
X44200185Y-15688637D01*
X44233375Y-15654102D01*
X44339139Y-15580047D01*
X44500047Y-15419139D01*
X44630568Y-15232734D01*
X44726739Y-15026496D01*
X44785635Y-14806692D01*
X44805468Y-14580000D01*
X44805467Y-14579994D01*
X44785635Y-14353313D01*
X44785635Y-14353308D01*
X44726739Y-14133504D01*
X44630568Y-13927266D01*
X44500047Y-13740861D01*
X44500045Y-13740858D01*
X44339141Y-13579954D01*
X44152734Y-13449432D01*
X44152732Y-13449431D01*
X43946497Y-13353261D01*
X43946488Y-13353258D01*
X43726697Y-13294366D01*
X43726693Y-13294365D01*
X43726692Y-13294365D01*
X43726691Y-13294364D01*
X43726686Y-13294364D01*
X43500002Y-13274532D01*
X43499998Y-13274532D01*
X43273313Y-13294364D01*
X43273302Y-13294366D01*
X43053511Y-13353258D01*
X43053502Y-13353261D01*
X42847267Y-13449431D01*
X42847265Y-13449432D01*
X42660858Y-13579954D01*
X42499954Y-13740858D01*
X42369432Y-13927265D01*
X42369431Y-13927267D01*
X42273261Y-14133502D01*
X42273258Y-14133511D01*
X42214366Y-14353302D01*
X42214364Y-14353313D01*
X42194532Y-14579998D01*
X42194532Y-14580001D01*
X42214364Y-14806686D01*
X42214366Y-14806697D01*
X42273258Y-15026488D01*
X42273260Y-15026492D01*
X42273261Y-15026496D01*
X42277756Y-15036135D01*
X42367882Y-15229410D01*
X42379500Y-15281815D01*
X42379500Y-16689951D01*
X42359815Y-16756990D01*
X42343181Y-16777632D01*
X42279954Y-16840858D01*
X42149432Y-17027265D01*
X42149431Y-17027267D01*
X42122382Y-17085275D01*
X42076209Y-17137714D01*
X42009016Y-17156866D01*
X41942135Y-17136650D01*
X41897618Y-17085275D01*
X41880605Y-17048791D01*
X41870568Y-17027266D01*
X41740047Y-16840861D01*
X41740045Y-16840858D01*
X41676819Y-16777632D01*
X41643334Y-16716309D01*
X41640500Y-16689951D01*
X41640500Y-6571306D01*
X41640499Y-6571304D01*
X41605896Y-6397341D01*
X41605893Y-6397332D01*
X41538016Y-6233459D01*
X41538009Y-6233446D01*
X41439465Y-6085966D01*
X41395431Y-6041932D01*
X41314035Y-5960536D01*
X40885680Y-5532181D01*
X40852195Y-5470858D01*
X40857179Y-5401166D01*
X40899051Y-5345233D01*
X40964515Y-5320816D01*
X40973361Y-5320500D01*
X42509952Y-5320500D01*
X42576991Y-5340185D01*
X42597628Y-5356814D01*
X42660861Y-5420047D01*
X42847266Y-5550568D01*
X43053504Y-5646739D01*
X43273308Y-5705635D01*
X43435230Y-5719801D01*
X43499998Y-5725468D01*
X43500000Y-5725468D01*
X43500002Y-5725468D01*
X43556673Y-5720509D01*
X43726692Y-5705635D01*
X43946496Y-5646739D01*
X44152734Y-5550568D01*
X44339139Y-5420047D01*
X44500047Y-5259139D01*
X44630568Y-5072734D01*
X44726739Y-4866496D01*
X44785635Y-4646692D01*
X44805468Y-4420000D01*
X44801856Y-4378711D01*
X47149500Y-4378711D01*
X47149500Y-4621288D01*
X47181161Y-4861785D01*
X47243947Y-5096104D01*
X47336773Y-5320205D01*
X47336776Y-5320212D01*
X47458064Y-5530289D01*
X47458066Y-5530292D01*
X47458067Y-5530293D01*
X47605733Y-5722736D01*
X47605739Y-5722743D01*
X47777256Y-5894260D01*
X47777263Y-5894266D01*
X47890321Y-5981018D01*
X47969711Y-6041936D01*
X48179788Y-6163224D01*
X48403900Y-6256054D01*
X48638211Y-6318838D01*
X48818586Y-6342584D01*
X48878711Y-6350500D01*
X48878712Y-6350500D01*
X49121289Y-6350500D01*
X49169388Y-6344167D01*
X49361789Y-6318838D01*
X49596100Y-6256054D01*
X49820212Y-6163224D01*
X50030289Y-6041936D01*
X50222738Y-5894265D01*
X50394265Y-5722738D01*
X50541936Y-5530289D01*
X50663224Y-5320212D01*
X50756054Y-5096100D01*
X50818838Y-4861789D01*
X50850500Y-4621288D01*
X50850500Y-4378712D01*
X50818838Y-4138211D01*
X50756054Y-3903900D01*
X50663224Y-3679788D01*
X50541936Y-3469711D01*
X50481018Y-3390321D01*
X50394266Y-3277263D01*
X50394260Y-3277256D01*
X50222743Y-3105739D01*
X50222736Y-3105733D01*
X50030293Y-2958067D01*
X50030292Y-2958066D01*
X50030289Y-2958064D01*
X49820212Y-2836776D01*
X49820205Y-2836773D01*
X49596104Y-2743947D01*
X49361785Y-2681161D01*
X49121289Y-2649500D01*
X49121288Y-2649500D01*
X48878712Y-2649500D01*
X48878711Y-2649500D01*
X48638214Y-2681161D01*
X48403895Y-2743947D01*
X48179794Y-2836773D01*
X48179785Y-2836777D01*
X47969706Y-2958067D01*
X47777263Y-3105733D01*
X47777256Y-3105739D01*
X47605739Y-3277256D01*
X47605733Y-3277263D01*
X47458067Y-3469706D01*
X47336777Y-3679785D01*
X47336773Y-3679794D01*
X47243947Y-3903895D01*
X47181161Y-4138214D01*
X47149500Y-4378711D01*
X44801856Y-4378711D01*
X44785635Y-4193308D01*
X44726739Y-3973504D01*
X44630568Y-3767266D01*
X44500047Y-3580861D01*
X44500045Y-3580858D01*
X44339141Y-3419954D01*
X44152734Y-3289432D01*
X44152732Y-3289431D01*
X43946497Y-3193261D01*
X43946488Y-3193258D01*
X43726697Y-3134366D01*
X43726693Y-3134365D01*
X43726692Y-3134365D01*
X43726691Y-3134364D01*
X43726686Y-3134364D01*
X43500002Y-3114532D01*
X43499998Y-3114532D01*
X43273313Y-3134364D01*
X43273302Y-3134366D01*
X43053511Y-3193258D01*
X43053502Y-3193261D01*
X42847267Y-3289431D01*
X42847265Y-3289432D01*
X42660862Y-3419951D01*
X42629248Y-3451566D01*
X42597631Y-3483182D01*
X42536311Y-3516666D01*
X42509952Y-3519500D01*
X39490048Y-3519500D01*
X39423009Y-3499815D01*
X39402371Y-3483185D01*
X39339139Y-3419953D01*
X39339138Y-3419952D01*
X39339137Y-3419951D01*
X39152734Y-3289432D01*
X39152732Y-3289431D01*
X38946497Y-3193261D01*
X38946488Y-3193258D01*
X38726697Y-3134366D01*
X38726693Y-3134365D01*
X38726692Y-3134365D01*
X38726691Y-3134364D01*
X38726686Y-3134364D01*
X38500002Y-3114532D01*
X38499998Y-3114532D01*
X38273313Y-3134364D01*
X38273302Y-3134366D01*
X38053511Y-3193258D01*
X38053502Y-3193261D01*
X37847267Y-3289431D01*
X37847265Y-3289432D01*
X37660858Y-3419954D01*
X37499954Y-3580858D01*
X37369432Y-3767265D01*
X37369431Y-3767267D01*
X37273261Y-3973502D01*
X37273258Y-3973511D01*
X37214366Y-4193302D01*
X37214364Y-4193313D01*
X37194532Y-4419998D01*
X37194532Y-4420001D01*
X37214364Y-4646686D01*
X37214366Y-4646697D01*
X37273258Y-4866488D01*
X37273261Y-4866497D01*
X37369431Y-5072732D01*
X37369432Y-5072734D01*
X37499954Y-5259141D01*
X37660858Y-5420045D01*
X37660861Y-5420047D01*
X37847266Y-5550568D01*
X38053504Y-5646739D01*
X38273308Y-5705635D01*
X38490073Y-5724599D01*
X38555141Y-5750051D01*
X38566946Y-5760446D01*
X39803181Y-6996680D01*
X39836666Y-7058003D01*
X39839500Y-7084361D01*
X39839500Y-13783997D01*
X39819815Y-13851036D01*
X39767011Y-13896791D01*
X39745334Y-13900350D01*
X39065684Y-14580000D01*
X39746396Y-15260710D01*
X39771501Y-15265356D01*
X39822424Y-15313195D01*
X39839500Y-15375990D01*
X39839500Y-16689951D01*
X39819815Y-16756990D01*
X39803181Y-16777632D01*
X39739953Y-16840859D01*
X39629943Y-16997972D01*
X39575366Y-17041597D01*
X39505868Y-17048791D01*
X39443513Y-17017268D01*
X39424559Y-16994670D01*
X39308585Y-16817157D01*
X39151441Y-16646454D01*
X39151437Y-16646451D01*
X38968355Y-16503952D01*
X38968351Y-16503949D01*
X38764302Y-16393523D01*
X38764293Y-16393520D01*
X38600000Y-16337118D01*
X38600000Y-17627339D01*
X38572741Y-17525606D01*
X38520080Y-17434394D01*
X38445606Y-17359920D01*
X38354394Y-17307259D01*
X38252661Y-17280000D01*
X38147339Y-17280000D01*
X38045606Y-17307259D01*
X37954394Y-17359920D01*
X37879920Y-17434394D01*
X37827259Y-17525606D01*
X37800000Y-17627339D01*
X37800000Y-17732661D01*
X37827259Y-17834394D01*
X37879920Y-17925606D01*
X37954394Y-18000080D01*
X38045606Y-18052741D01*
X38147339Y-18080000D01*
X38252661Y-18080000D01*
X38354394Y-18052741D01*
X38445606Y-18000080D01*
X38520080Y-17925606D01*
X38572741Y-17834394D01*
X38600000Y-17732661D01*
X38600000Y-19022881D01*
X38764293Y-18966479D01*
X38764302Y-18966476D01*
X38968351Y-18856050D01*
X38968355Y-18856047D01*
X39151437Y-18713548D01*
X39151441Y-18713545D01*
X39308585Y-18542842D01*
X39424559Y-18365329D01*
X39477705Y-18319972D01*
X39546936Y-18310548D01*
X39610272Y-18340050D01*
X39629943Y-18362027D01*
X39739954Y-18519141D01*
X39900858Y-18680045D01*
X39900861Y-18680047D01*
X40087266Y-18810568D01*
X40293504Y-18906739D01*
X40293509Y-18906740D01*
X40293511Y-18906741D01*
X40469546Y-18953909D01*
X40529207Y-18990274D01*
X40559736Y-19053121D01*
X40551441Y-19122496D01*
X40525134Y-19161365D01*
X40040538Y-19645960D01*
X40040537Y-19645961D01*
X40001064Y-19705039D01*
X40001063Y-19705040D01*
X39941985Y-19793455D01*
X39908046Y-19875393D01*
X39874106Y-19957329D01*
X39874103Y-19957341D01*
X39839500Y-20131303D01*
X39839500Y-21376000D01*
X39819815Y-21443039D01*
X39767011Y-21488794D01*
X39715500Y-21500000D01*
X36000000Y-21500000D01*
X36000000Y-26376000D01*
X35980315Y-26443039D01*
X35927511Y-26488794D01*
X35876000Y-26500000D01*
X35400901Y-26500000D01*
X35333862Y-26480315D01*
X35288107Y-26427511D01*
X35278163Y-26358353D01*
X35307188Y-26294797D01*
X35309671Y-26292017D01*
X35428585Y-26162842D01*
X35555483Y-25968609D01*
X35648681Y-25756137D01*
X35662897Y-25700000D01*
X34372661Y-25700000D01*
X34474394Y-25672741D01*
X34565606Y-25620080D01*
X34640080Y-25545606D01*
X34692741Y-25454394D01*
X34720000Y-25352661D01*
X34720000Y-25247339D01*
X34692741Y-25145606D01*
X34640080Y-25054394D01*
X34565606Y-24979920D01*
X34474394Y-24927259D01*
X34372661Y-24900000D01*
X34720000Y-24900000D01*
X35662898Y-24900000D01*
X35662897Y-24899999D01*
X35648681Y-24843862D01*
X35555483Y-24631390D01*
X35428585Y-24437157D01*
X35271441Y-24266454D01*
X35271437Y-24266451D01*
X35088355Y-24123952D01*
X35088351Y-24123949D01*
X34884302Y-24013523D01*
X34884293Y-24013520D01*
X34720000Y-23957118D01*
X34720000Y-24900000D01*
X34372661Y-24900000D01*
X34267339Y-24900000D01*
X34165606Y-24927259D01*
X34074394Y-24979920D01*
X33999920Y-25054394D01*
X33947259Y-25145606D01*
X33920000Y-25247339D01*
X33920000Y-23957118D01*
X33755706Y-24013520D01*
X33755697Y-24013523D01*
X33551648Y-24123949D01*
X33551644Y-24123952D01*
X33368562Y-24266451D01*
X33368552Y-24266460D01*
X33215229Y-24433013D01*
X33155342Y-24469004D01*
X33085504Y-24466903D01*
X33027888Y-24427379D01*
X33000787Y-24362979D01*
X33000000Y-24349030D01*
X33000000Y-21500000D01*
X30264500Y-21500000D01*
X30197461Y-21480315D01*
X30151706Y-21427511D01*
X30140500Y-21376000D01*
X30140500Y-20644361D01*
X30160185Y-20577322D01*
X30176819Y-20556680D01*
X30940046Y-19793453D01*
X31713054Y-19020444D01*
X31774375Y-18986961D01*
X31789916Y-18984600D01*
X32006692Y-18965635D01*
X32226496Y-18906739D01*
X32432734Y-18810568D01*
X32619139Y-18680047D01*
X32780047Y-18519139D01*
X32910568Y-18332734D01*
X32937618Y-18274724D01*
X32983790Y-18222285D01*
X33050983Y-18203133D01*
X33117865Y-18223348D01*
X33162382Y-18274725D01*
X33189429Y-18332728D01*
X33189432Y-18332734D01*
X33319954Y-18519141D01*
X33480858Y-18680045D01*
X33480861Y-18680047D01*
X33667266Y-18810568D01*
X33873504Y-18906739D01*
X33873509Y-18906740D01*
X33873511Y-18906741D01*
X33926415Y-18920916D01*
X34093308Y-18965635D01*
X34255230Y-18979801D01*
X34319998Y-18985468D01*
X34320000Y-18985468D01*
X34320002Y-18985468D01*
X34376673Y-18980509D01*
X34546692Y-18965635D01*
X34766496Y-18906739D01*
X34972734Y-18810568D01*
X35159139Y-18680047D01*
X35320047Y-18519139D01*
X35450568Y-18332734D01*
X35546739Y-18126496D01*
X35559198Y-18080000D01*
X36857102Y-18080000D01*
X36871318Y-18136137D01*
X36964516Y-18348609D01*
X37091414Y-18542842D01*
X37248558Y-18713545D01*
X37248562Y-18713548D01*
X37431644Y-18856047D01*
X37431648Y-18856050D01*
X37635697Y-18966476D01*
X37635706Y-18966479D01*
X37799999Y-19022881D01*
X37800000Y-19022881D01*
X37800000Y-18080000D01*
X36857102Y-18080000D01*
X35559198Y-18080000D01*
X35605635Y-17906692D01*
X35625468Y-17680000D01*
X35605635Y-17453308D01*
X35559197Y-17279999D01*
X36857102Y-17279999D01*
X36857102Y-17280000D01*
X37800000Y-17280000D01*
X37800000Y-16337118D01*
X37635706Y-16393520D01*
X37635697Y-16393523D01*
X37431648Y-16503949D01*
X37431644Y-16503952D01*
X37248562Y-16646451D01*
X37248558Y-16646454D01*
X37091414Y-16817157D01*
X36964516Y-17011390D01*
X36871318Y-17223862D01*
X36857102Y-17279999D01*
X35559197Y-17279999D01*
X35546739Y-17233504D01*
X35450568Y-17027266D01*
X35320047Y-16840861D01*
X35320045Y-16840858D01*
X35159141Y-16679954D01*
X34972734Y-16549432D01*
X34972732Y-16549431D01*
X34766497Y-16453261D01*
X34766488Y-16453258D01*
X34546697Y-16394366D01*
X34546693Y-16394365D01*
X34546692Y-16394365D01*
X34546691Y-16394364D01*
X34546686Y-16394364D01*
X34320002Y-16374532D01*
X34319998Y-16374532D01*
X34093313Y-16394364D01*
X34093302Y-16394366D01*
X33873511Y-16453258D01*
X33873502Y-16453261D01*
X33667267Y-16549431D01*
X33667265Y-16549432D01*
X33480858Y-16679954D01*
X33319954Y-16840858D01*
X33189432Y-17027265D01*
X33189431Y-17027267D01*
X33162382Y-17085275D01*
X33116209Y-17137714D01*
X33049016Y-17156866D01*
X32982135Y-17136650D01*
X32937618Y-17085275D01*
X32920605Y-17048791D01*
X32910568Y-17027266D01*
X32780047Y-16840861D01*
X32780045Y-16840858D01*
X32716819Y-16777632D01*
X32683334Y-16716309D01*
X32680500Y-16689951D01*
X32680500Y-15811525D01*
X37834159Y-15811525D01*
X37935698Y-15866476D01*
X37935706Y-15866479D01*
X38155139Y-15941811D01*
X38383993Y-15980000D01*
X38616007Y-15980000D01*
X38844860Y-15941811D01*
X39064292Y-15866480D01*
X39165839Y-15811525D01*
X38500001Y-15145685D01*
X38500000Y-15145685D01*
X37834159Y-15811525D01*
X32680500Y-15811525D01*
X32680500Y-15755676D01*
X32700185Y-15688637D01*
X32733375Y-15654102D01*
X32839139Y-15580047D01*
X33000047Y-15419139D01*
X33130568Y-15232734D01*
X33226739Y-15026496D01*
X33285635Y-14806692D01*
X33305468Y-14580000D01*
X33305467Y-14579994D01*
X37095202Y-14579994D01*
X37095202Y-14580005D01*
X37114361Y-14811218D01*
X37171317Y-15036135D01*
X37264515Y-15248605D01*
X37264517Y-15248610D01*
X37264986Y-15249326D01*
X37934314Y-14580000D01*
X37881653Y-14527339D01*
X38100000Y-14527339D01*
X38100000Y-14632661D01*
X38127259Y-14734394D01*
X38179920Y-14825606D01*
X38254394Y-14900080D01*
X38345606Y-14952741D01*
X38447339Y-14980000D01*
X38552661Y-14980000D01*
X38654394Y-14952741D01*
X38745606Y-14900080D01*
X38820080Y-14825606D01*
X38872741Y-14734394D01*
X38900000Y-14632661D01*
X38900000Y-14527339D01*
X38872741Y-14425606D01*
X38820080Y-14334394D01*
X38745606Y-14259920D01*
X38654394Y-14207259D01*
X38552661Y-14180000D01*
X38447339Y-14180000D01*
X38345606Y-14207259D01*
X38254394Y-14259920D01*
X38179920Y-14334394D01*
X38127259Y-14425606D01*
X38100000Y-14527339D01*
X37881653Y-14527339D01*
X37264986Y-13910672D01*
X37264985Y-13910672D01*
X37264519Y-13911385D01*
X37264516Y-13911391D01*
X37171317Y-14123864D01*
X37114361Y-14348781D01*
X37095202Y-14579994D01*
X33305467Y-14579994D01*
X33285635Y-14353313D01*
X33285635Y-14353308D01*
X33226739Y-14133504D01*
X33130568Y-13927266D01*
X33000047Y-13740861D01*
X33000045Y-13740858D01*
X32839141Y-13579954D01*
X32652734Y-13449432D01*
X32652732Y-13449431D01*
X32446497Y-13353261D01*
X32446488Y-13353258D01*
X32428630Y-13348473D01*
X37834158Y-13348473D01*
X38500000Y-14014314D01*
X38500001Y-14014314D01*
X39165839Y-13348473D01*
X39165840Y-13348473D01*
X39064301Y-13293523D01*
X39064293Y-13293520D01*
X38844860Y-13218188D01*
X38616007Y-13180000D01*
X38383993Y-13180000D01*
X38155139Y-13218188D01*
X37935703Y-13293521D01*
X37935692Y-13293526D01*
X37834158Y-13348473D01*
X32428630Y-13348473D01*
X32226697Y-13294366D01*
X32226693Y-13294365D01*
X32226692Y-13294365D01*
X32226691Y-13294364D01*
X32226686Y-13294364D01*
X32000002Y-13274532D01*
X31999998Y-13274532D01*
X31773313Y-13294364D01*
X31773302Y-13294366D01*
X31553511Y-13353258D01*
X31553502Y-13353261D01*
X31347267Y-13449431D01*
X31347265Y-13449432D01*
X31160858Y-13579954D01*
X30999954Y-13740858D01*
X30869432Y-13927265D01*
X30869431Y-13927267D01*
X30773261Y-14133502D01*
X30773258Y-14133511D01*
X30714366Y-14353302D01*
X30714364Y-14353313D01*
X30694532Y-14579998D01*
X30694532Y-14580001D01*
X30714364Y-14806686D01*
X30714366Y-14806697D01*
X30773258Y-15026488D01*
X30773260Y-15026492D01*
X30773261Y-15026496D01*
X30777756Y-15036135D01*
X30867882Y-15229410D01*
X30879500Y-15281815D01*
X30879500Y-16689951D01*
X30859815Y-16756990D01*
X30843181Y-16777632D01*
X30779954Y-16840858D01*
X30649432Y-17027265D01*
X30649431Y-17027267D01*
X30622382Y-17085275D01*
X30576209Y-17137714D01*
X30509016Y-17156866D01*
X30442135Y-17136650D01*
X30397618Y-17085275D01*
X30380605Y-17048791D01*
X30370568Y-17027266D01*
X30240047Y-16840861D01*
X30240045Y-16840858D01*
X30176819Y-16777632D01*
X30143334Y-16716309D01*
X30140500Y-16689951D01*
X30140500Y-6571306D01*
X30140499Y-6571304D01*
X30105896Y-6397341D01*
X30105893Y-6397332D01*
X30038016Y-6233459D01*
X30038009Y-6233446D01*
X29939465Y-6085966D01*
X29895431Y-6041932D01*
X29814035Y-5960536D01*
X29385680Y-5532181D01*
X29352195Y-5470858D01*
X29357179Y-5401166D01*
X29399051Y-5345233D01*
X29464515Y-5320816D01*
X29473361Y-5320500D01*
X31009952Y-5320500D01*
X31076991Y-5340185D01*
X31097628Y-5356814D01*
X31160861Y-5420047D01*
X31347266Y-5550568D01*
X31553504Y-5646739D01*
X31773308Y-5705635D01*
X31935230Y-5719801D01*
X31999998Y-5725468D01*
X32000000Y-5725468D01*
X32000002Y-5725468D01*
X32056673Y-5720509D01*
X32226692Y-5705635D01*
X32446496Y-5646739D01*
X32652734Y-5550568D01*
X32839139Y-5420047D01*
X33000047Y-5259139D01*
X33130568Y-5072734D01*
X33226739Y-4866496D01*
X33285635Y-4646692D01*
X33305468Y-4420000D01*
X33285635Y-4193308D01*
X33226739Y-3973504D01*
X33130568Y-3767266D01*
X33000047Y-3580861D01*
X33000045Y-3580858D01*
X32839141Y-3419954D01*
X32652734Y-3289432D01*
X32652732Y-3289431D01*
X32446497Y-3193261D01*
X32446488Y-3193258D01*
X32226697Y-3134366D01*
X32226693Y-3134365D01*
X32226692Y-3134365D01*
X32226691Y-3134364D01*
X32226686Y-3134364D01*
X32000002Y-3114532D01*
X31999998Y-3114532D01*
X31773313Y-3134364D01*
X31773302Y-3134366D01*
X31553511Y-3193258D01*
X31553502Y-3193261D01*
X31347267Y-3289431D01*
X31347265Y-3289432D01*
X31160862Y-3419951D01*
X31129248Y-3451566D01*
X31097631Y-3483182D01*
X31036311Y-3516666D01*
X31009952Y-3519500D01*
X27990048Y-3519500D01*
X27923009Y-3499815D01*
X27902371Y-3483185D01*
X27839139Y-3419953D01*
X27839138Y-3419952D01*
X27839137Y-3419951D01*
X27652734Y-3289432D01*
X27652732Y-3289431D01*
X27446497Y-3193261D01*
X27446488Y-3193258D01*
X27226697Y-3134366D01*
X27226693Y-3134365D01*
X27226692Y-3134365D01*
X27226691Y-3134364D01*
X27226686Y-3134364D01*
X27000002Y-3114532D01*
X26999998Y-3114532D01*
X26773313Y-3134364D01*
X26773302Y-3134366D01*
X26553511Y-3193258D01*
X26553502Y-3193261D01*
X26347267Y-3289431D01*
X26347265Y-3289432D01*
X26160858Y-3419954D01*
X25999954Y-3580858D01*
X25869432Y-3767265D01*
X25869431Y-3767267D01*
X25773261Y-3973502D01*
X25773258Y-3973511D01*
X25714366Y-4193302D01*
X25714364Y-4193313D01*
X25694532Y-4419998D01*
X25694532Y-4420001D01*
X25714364Y-4646686D01*
X25714366Y-4646697D01*
X25773258Y-4866488D01*
X25773261Y-4866497D01*
X25869431Y-5072732D01*
X25869432Y-5072734D01*
X25999954Y-5259141D01*
X26160858Y-5420045D01*
X26160861Y-5420047D01*
X26347266Y-5550568D01*
X26553504Y-5646739D01*
X26773308Y-5705635D01*
X26990073Y-5724599D01*
X27055141Y-5750051D01*
X27066946Y-5760446D01*
X28303181Y-6996680D01*
X28336666Y-7058003D01*
X28339500Y-7084361D01*
X28339500Y-13783997D01*
X28319815Y-13851036D01*
X28267011Y-13896791D01*
X28245334Y-13900350D01*
X27565684Y-14580000D01*
X28246396Y-15260710D01*
X28271501Y-15265356D01*
X28322424Y-15313195D01*
X28339500Y-15375990D01*
X28339500Y-16689951D01*
X28319815Y-16756990D01*
X28303181Y-16777632D01*
X28239953Y-16840859D01*
X28129943Y-16997972D01*
X28075366Y-17041597D01*
X28005868Y-17048791D01*
X27943513Y-17017268D01*
X27924559Y-16994670D01*
X27808585Y-16817157D01*
X27651441Y-16646454D01*
X27651437Y-16646451D01*
X27468355Y-16503952D01*
X27468351Y-16503949D01*
X27264302Y-16393523D01*
X27264293Y-16393520D01*
X27100000Y-16337118D01*
X27100000Y-17627339D01*
X27072741Y-17525606D01*
X27020080Y-17434394D01*
X26945606Y-17359920D01*
X26854394Y-17307259D01*
X26752661Y-17280000D01*
X26647339Y-17280000D01*
X26545606Y-17307259D01*
X26454394Y-17359920D01*
X26379920Y-17434394D01*
X26327259Y-17525606D01*
X26300000Y-17627339D01*
X26300000Y-17732661D01*
X26327259Y-17834394D01*
X26379920Y-17925606D01*
X26454394Y-18000080D01*
X26545606Y-18052741D01*
X26647339Y-18080000D01*
X26752661Y-18080000D01*
X26854394Y-18052741D01*
X26945606Y-18000080D01*
X27020080Y-17925606D01*
X27072741Y-17834394D01*
X27100000Y-17732661D01*
X27100000Y-19022881D01*
X27264293Y-18966479D01*
X27264302Y-18966476D01*
X27468351Y-18856050D01*
X27468355Y-18856047D01*
X27651437Y-18713548D01*
X27651441Y-18713545D01*
X27808585Y-18542842D01*
X27924559Y-18365329D01*
X27977705Y-18319972D01*
X28046936Y-18310548D01*
X28110272Y-18340050D01*
X28129943Y-18362027D01*
X28239954Y-18519141D01*
X28400858Y-18680045D01*
X28400861Y-18680047D01*
X28587266Y-18810568D01*
X28793504Y-18906739D01*
X28793509Y-18906740D01*
X28793511Y-18906741D01*
X28969546Y-18953909D01*
X29029207Y-18990274D01*
X29059736Y-19053121D01*
X29051441Y-19122496D01*
X29025134Y-19161365D01*
X28540538Y-19645960D01*
X28540537Y-19645961D01*
X28501064Y-19705039D01*
X28501063Y-19705040D01*
X28441985Y-19793455D01*
X28408046Y-19875393D01*
X28374106Y-19957329D01*
X28374103Y-19957341D01*
X28339500Y-20131303D01*
X28339500Y-21376000D01*
X28319815Y-21443039D01*
X28267011Y-21488794D01*
X28215500Y-21500000D01*
X24500000Y-21500000D01*
X24500000Y-26376000D01*
X24480315Y-26443039D01*
X24427511Y-26488794D01*
X24376000Y-26500000D01*
X23900901Y-26500000D01*
X23833862Y-26480315D01*
X23788107Y-26427511D01*
X23778163Y-26358353D01*
X23807188Y-26294797D01*
X23809671Y-26292017D01*
X23928585Y-26162842D01*
X24055483Y-25968609D01*
X24148681Y-25756137D01*
X24162897Y-25700000D01*
X22872661Y-25700000D01*
X22974394Y-25672741D01*
X23065606Y-25620080D01*
X23140080Y-25545606D01*
X23192741Y-25454394D01*
X23220000Y-25352661D01*
X23220000Y-25247339D01*
X23192741Y-25145606D01*
X23140080Y-25054394D01*
X23065606Y-24979920D01*
X22974394Y-24927259D01*
X22872661Y-24900000D01*
X23220000Y-24900000D01*
X24162898Y-24900000D01*
X24162897Y-24899999D01*
X24148681Y-24843862D01*
X24055483Y-24631390D01*
X23928585Y-24437157D01*
X23771441Y-24266454D01*
X23771437Y-24266451D01*
X23588355Y-24123952D01*
X23588351Y-24123949D01*
X23384302Y-24013523D01*
X23384293Y-24013520D01*
X23220000Y-23957118D01*
X23220000Y-24900000D01*
X22872661Y-24900000D01*
X22767339Y-24900000D01*
X22665606Y-24927259D01*
X22574394Y-24979920D01*
X22499920Y-25054394D01*
X22447259Y-25145606D01*
X22420000Y-25247339D01*
X22420000Y-23957118D01*
X22255706Y-24013520D01*
X22255697Y-24013523D01*
X22051648Y-24123949D01*
X22051644Y-24123952D01*
X21868562Y-24266451D01*
X21868552Y-24266460D01*
X21715229Y-24433013D01*
X21655342Y-24469004D01*
X21585504Y-24466903D01*
X21527888Y-24427379D01*
X21500787Y-24362979D01*
X21500000Y-24349030D01*
X21500000Y-21500000D01*
X18764500Y-21500000D01*
X18697461Y-21480315D01*
X18651706Y-21427511D01*
X18640500Y-21376000D01*
X18640500Y-20644361D01*
X18660185Y-20577322D01*
X18676819Y-20556680D01*
X19440046Y-19793453D01*
X20213054Y-19020444D01*
X20274375Y-18986961D01*
X20289916Y-18984600D01*
X20506692Y-18965635D01*
X20726496Y-18906739D01*
X20932734Y-18810568D01*
X21119139Y-18680047D01*
X21280047Y-18519139D01*
X21410568Y-18332734D01*
X21437618Y-18274724D01*
X21483790Y-18222285D01*
X21550983Y-18203133D01*
X21617865Y-18223348D01*
X21662382Y-18274725D01*
X21689429Y-18332728D01*
X21689432Y-18332734D01*
X21819954Y-18519141D01*
X21980858Y-18680045D01*
X21980861Y-18680047D01*
X22167266Y-18810568D01*
X22373504Y-18906739D01*
X22373509Y-18906740D01*
X22373511Y-18906741D01*
X22426415Y-18920916D01*
X22593308Y-18965635D01*
X22755230Y-18979801D01*
X22819998Y-18985468D01*
X22820000Y-18985468D01*
X22820002Y-18985468D01*
X22876673Y-18980509D01*
X23046692Y-18965635D01*
X23266496Y-18906739D01*
X23472734Y-18810568D01*
X23659139Y-18680047D01*
X23820047Y-18519139D01*
X23950568Y-18332734D01*
X24046739Y-18126496D01*
X24059198Y-18080000D01*
X25357102Y-18080000D01*
X25371318Y-18136137D01*
X25464516Y-18348609D01*
X25591414Y-18542842D01*
X25748558Y-18713545D01*
X25748562Y-18713548D01*
X25931644Y-18856047D01*
X25931648Y-18856050D01*
X26135697Y-18966476D01*
X26135706Y-18966479D01*
X26299999Y-19022881D01*
X26300000Y-19022881D01*
X26300000Y-18080000D01*
X25357102Y-18080000D01*
X24059198Y-18080000D01*
X24105635Y-17906692D01*
X24125468Y-17680000D01*
X24105635Y-17453308D01*
X24059197Y-17279999D01*
X25357102Y-17279999D01*
X25357102Y-17280000D01*
X26300000Y-17280000D01*
X26300000Y-16337118D01*
X26135706Y-16393520D01*
X26135697Y-16393523D01*
X25931648Y-16503949D01*
X25931644Y-16503952D01*
X25748562Y-16646451D01*
X25748558Y-16646454D01*
X25591414Y-16817157D01*
X25464516Y-17011390D01*
X25371318Y-17223862D01*
X25357102Y-17279999D01*
X24059197Y-17279999D01*
X24046739Y-17233504D01*
X23950568Y-17027266D01*
X23820047Y-16840861D01*
X23820045Y-16840858D01*
X23659141Y-16679954D01*
X23472734Y-16549432D01*
X23472732Y-16549431D01*
X23266497Y-16453261D01*
X23266488Y-16453258D01*
X23046697Y-16394366D01*
X23046693Y-16394365D01*
X23046692Y-16394365D01*
X23046691Y-16394364D01*
X23046686Y-16394364D01*
X22820002Y-16374532D01*
X22819998Y-16374532D01*
X22593313Y-16394364D01*
X22593302Y-16394366D01*
X22373511Y-16453258D01*
X22373502Y-16453261D01*
X22167267Y-16549431D01*
X22167265Y-16549432D01*
X21980858Y-16679954D01*
X21819954Y-16840858D01*
X21689432Y-17027265D01*
X21689431Y-17027267D01*
X21662382Y-17085275D01*
X21616209Y-17137714D01*
X21549016Y-17156866D01*
X21482135Y-17136650D01*
X21437618Y-17085275D01*
X21420605Y-17048791D01*
X21410568Y-17027266D01*
X21280047Y-16840861D01*
X21280045Y-16840858D01*
X21216819Y-16777632D01*
X21183334Y-16716309D01*
X21180500Y-16689951D01*
X21180500Y-15811525D01*
X26334159Y-15811525D01*
X26435698Y-15866476D01*
X26435706Y-15866479D01*
X26655139Y-15941811D01*
X26883993Y-15980000D01*
X27116007Y-15980000D01*
X27344860Y-15941811D01*
X27564292Y-15866480D01*
X27665839Y-15811525D01*
X27000001Y-15145685D01*
X27000000Y-15145685D01*
X26334159Y-15811525D01*
X21180500Y-15811525D01*
X21180500Y-15755676D01*
X21200185Y-15688637D01*
X21233375Y-15654102D01*
X21339139Y-15580047D01*
X21500047Y-15419139D01*
X21630568Y-15232734D01*
X21726739Y-15026496D01*
X21785635Y-14806692D01*
X21805468Y-14580000D01*
X21805467Y-14579994D01*
X25595202Y-14579994D01*
X25595202Y-14580005D01*
X25614361Y-14811218D01*
X25671317Y-15036135D01*
X25764515Y-15248605D01*
X25764517Y-15248610D01*
X25764986Y-15249326D01*
X26434314Y-14580000D01*
X26381653Y-14527339D01*
X26600000Y-14527339D01*
X26600000Y-14632661D01*
X26627259Y-14734394D01*
X26679920Y-14825606D01*
X26754394Y-14900080D01*
X26845606Y-14952741D01*
X26947339Y-14980000D01*
X27052661Y-14980000D01*
X27154394Y-14952741D01*
X27245606Y-14900080D01*
X27320080Y-14825606D01*
X27372741Y-14734394D01*
X27400000Y-14632661D01*
X27400000Y-14527339D01*
X27372741Y-14425606D01*
X27320080Y-14334394D01*
X27245606Y-14259920D01*
X27154394Y-14207259D01*
X27052661Y-14180000D01*
X26947339Y-14180000D01*
X26845606Y-14207259D01*
X26754394Y-14259920D01*
X26679920Y-14334394D01*
X26627259Y-14425606D01*
X26600000Y-14527339D01*
X26381653Y-14527339D01*
X25764986Y-13910672D01*
X25764985Y-13910672D01*
X25764519Y-13911385D01*
X25764516Y-13911391D01*
X25671317Y-14123864D01*
X25614361Y-14348781D01*
X25595202Y-14579994D01*
X21805467Y-14579994D01*
X21785635Y-14353313D01*
X21785635Y-14353308D01*
X21726739Y-14133504D01*
X21630568Y-13927266D01*
X21500047Y-13740861D01*
X21500045Y-13740858D01*
X21339141Y-13579954D01*
X21152734Y-13449432D01*
X21152732Y-13449431D01*
X20946497Y-13353261D01*
X20946488Y-13353258D01*
X20928630Y-13348473D01*
X26334158Y-13348473D01*
X27000000Y-14014314D01*
X27000001Y-14014314D01*
X27665839Y-13348473D01*
X27665840Y-13348473D01*
X27564301Y-13293523D01*
X27564293Y-13293520D01*
X27344860Y-13218188D01*
X27116007Y-13180000D01*
X26883993Y-13180000D01*
X26655139Y-13218188D01*
X26435703Y-13293521D01*
X26435692Y-13293526D01*
X26334158Y-13348473D01*
X20928630Y-13348473D01*
X20726697Y-13294366D01*
X20726693Y-13294365D01*
X20726692Y-13294365D01*
X20726691Y-13294364D01*
X20726686Y-13294364D01*
X20500002Y-13274532D01*
X20499998Y-13274532D01*
X20273313Y-13294364D01*
X20273302Y-13294366D01*
X20053511Y-13353258D01*
X20053502Y-13353261D01*
X19847267Y-13449431D01*
X19847265Y-13449432D01*
X19660858Y-13579954D01*
X19499954Y-13740858D01*
X19369432Y-13927265D01*
X19369431Y-13927267D01*
X19273261Y-14133502D01*
X19273258Y-14133511D01*
X19214366Y-14353302D01*
X19214364Y-14353313D01*
X19194532Y-14579998D01*
X19194532Y-14580001D01*
X19214364Y-14806686D01*
X19214366Y-14806697D01*
X19273258Y-15026488D01*
X19273260Y-15026492D01*
X19273261Y-15026496D01*
X19277756Y-15036135D01*
X19367882Y-15229410D01*
X19379500Y-15281815D01*
X19379500Y-16689951D01*
X19359815Y-16756990D01*
X19343181Y-16777632D01*
X19279954Y-16840858D01*
X19149432Y-17027265D01*
X19149431Y-17027267D01*
X19122382Y-17085275D01*
X19076209Y-17137714D01*
X19009016Y-17156866D01*
X18942135Y-17136650D01*
X18897618Y-17085275D01*
X18880605Y-17048791D01*
X18870568Y-17027266D01*
X18740047Y-16840861D01*
X18740045Y-16840858D01*
X18676819Y-16777632D01*
X18643334Y-16716309D01*
X18640500Y-16689951D01*
X18640500Y-6571306D01*
X18640499Y-6571304D01*
X18605896Y-6397341D01*
X18605893Y-6397332D01*
X18538016Y-6233459D01*
X18538009Y-6233446D01*
X18439465Y-6085966D01*
X18395431Y-6041932D01*
X18314035Y-5960536D01*
X17885680Y-5532181D01*
X17852195Y-5470858D01*
X17857179Y-5401166D01*
X17899051Y-5345233D01*
X17964515Y-5320816D01*
X17973361Y-5320500D01*
X19509952Y-5320500D01*
X19576991Y-5340185D01*
X19597628Y-5356814D01*
X19660861Y-5420047D01*
X19847266Y-5550568D01*
X20053504Y-5646739D01*
X20273308Y-5705635D01*
X20435230Y-5719801D01*
X20499998Y-5725468D01*
X20500000Y-5725468D01*
X20500002Y-5725468D01*
X20556673Y-5720509D01*
X20726692Y-5705635D01*
X20946496Y-5646739D01*
X21152734Y-5550568D01*
X21339139Y-5420047D01*
X21500047Y-5259139D01*
X21630568Y-5072734D01*
X21726739Y-4866496D01*
X21785635Y-4646692D01*
X21805468Y-4420000D01*
X21785635Y-4193308D01*
X21726739Y-3973504D01*
X21630568Y-3767266D01*
X21500047Y-3580861D01*
X21500045Y-3580858D01*
X21339141Y-3419954D01*
X21152734Y-3289432D01*
X21152732Y-3289431D01*
X20946497Y-3193261D01*
X20946488Y-3193258D01*
X20726697Y-3134366D01*
X20726693Y-3134365D01*
X20726692Y-3134365D01*
X20726691Y-3134364D01*
X20726686Y-3134364D01*
X20500002Y-3114532D01*
X20499998Y-3114532D01*
X20273313Y-3134364D01*
X20273302Y-3134366D01*
X20053511Y-3193258D01*
X20053502Y-3193261D01*
X19847267Y-3289431D01*
X19847265Y-3289432D01*
X19660862Y-3419951D01*
X19629248Y-3451566D01*
X19597631Y-3483182D01*
X19536311Y-3516666D01*
X19509952Y-3519500D01*
X16490048Y-3519500D01*
X16423009Y-3499815D01*
X16402371Y-3483185D01*
X16339139Y-3419953D01*
X16339138Y-3419952D01*
X16339137Y-3419951D01*
X16152734Y-3289432D01*
X16152732Y-3289431D01*
X15946497Y-3193261D01*
X15946488Y-3193258D01*
X15726697Y-3134366D01*
X15726693Y-3134365D01*
X15726692Y-3134365D01*
X15726691Y-3134364D01*
X15726686Y-3134364D01*
X15500002Y-3114532D01*
X15499998Y-3114532D01*
X15273313Y-3134364D01*
X15273302Y-3134366D01*
X15053511Y-3193258D01*
X15053502Y-3193261D01*
X14847267Y-3289431D01*
X14847265Y-3289432D01*
X14660858Y-3419954D01*
X14499954Y-3580858D01*
X14369432Y-3767265D01*
X14369431Y-3767267D01*
X14273261Y-3973502D01*
X14273258Y-3973511D01*
X14214366Y-4193302D01*
X14214364Y-4193313D01*
X14194532Y-4419998D01*
X14194532Y-4420001D01*
X14214364Y-4646686D01*
X14214366Y-4646697D01*
X14273258Y-4866488D01*
X14273261Y-4866497D01*
X14369431Y-5072732D01*
X14369432Y-5072734D01*
X14499954Y-5259141D01*
X14660858Y-5420045D01*
X14660861Y-5420047D01*
X14847266Y-5550568D01*
X15053504Y-5646739D01*
X15273308Y-5705635D01*
X15490073Y-5724599D01*
X15555141Y-5750051D01*
X15566946Y-5760446D01*
X16803181Y-6996680D01*
X16836666Y-7058003D01*
X16839500Y-7084361D01*
X16839500Y-13783997D01*
X16819815Y-13851036D01*
X16767011Y-13896791D01*
X16745334Y-13900350D01*
X16065684Y-14580000D01*
X16746396Y-15260710D01*
X16771501Y-15265356D01*
X16822424Y-15313195D01*
X16839500Y-15375990D01*
X16839500Y-16689951D01*
X16819815Y-16756990D01*
X16803181Y-16777632D01*
X16739953Y-16840859D01*
X16629943Y-16997972D01*
X16575366Y-17041597D01*
X16505868Y-17048791D01*
X16443513Y-17017268D01*
X16424559Y-16994670D01*
X16308585Y-16817157D01*
X16151441Y-16646454D01*
X16151437Y-16646451D01*
X15968355Y-16503952D01*
X15968351Y-16503949D01*
X15764302Y-16393523D01*
X15764293Y-16393520D01*
X15600000Y-16337118D01*
X15600000Y-17627339D01*
X15572741Y-17525606D01*
X15520080Y-17434394D01*
X15445606Y-17359920D01*
X15354394Y-17307259D01*
X15252661Y-17280000D01*
X15147339Y-17280000D01*
X15045606Y-17307259D01*
X14954394Y-17359920D01*
X14879920Y-17434394D01*
X14827259Y-17525606D01*
X14800000Y-17627339D01*
X14800000Y-17732661D01*
X14827259Y-17834394D01*
X14879920Y-17925606D01*
X14954394Y-18000080D01*
X15045606Y-18052741D01*
X15147339Y-18080000D01*
X15252661Y-18080000D01*
X15354394Y-18052741D01*
X15445606Y-18000080D01*
X15520080Y-17925606D01*
X15572741Y-17834394D01*
X15600000Y-17732661D01*
X15600000Y-19022881D01*
X15764293Y-18966479D01*
X15764302Y-18966476D01*
X15968351Y-18856050D01*
X15968355Y-18856047D01*
X16151437Y-18713548D01*
X16151441Y-18713545D01*
X16308585Y-18542842D01*
X16424559Y-18365329D01*
X16477705Y-18319972D01*
X16546936Y-18310548D01*
X16610272Y-18340050D01*
X16629943Y-18362027D01*
X16739954Y-18519141D01*
X16900858Y-18680045D01*
X16900861Y-18680047D01*
X17087266Y-18810568D01*
X17293504Y-18906739D01*
X17293509Y-18906740D01*
X17293511Y-18906741D01*
X17469546Y-18953909D01*
X17529207Y-18990274D01*
X17559736Y-19053121D01*
X17551441Y-19122496D01*
X17525134Y-19161365D01*
X17040538Y-19645960D01*
X17040537Y-19645961D01*
X17001064Y-19705039D01*
X17001063Y-19705040D01*
X16941985Y-19793455D01*
X16908046Y-19875393D01*
X16874106Y-19957329D01*
X16874103Y-19957341D01*
X16839500Y-20131303D01*
X16839500Y-21376000D01*
X16819815Y-21443039D01*
X16767011Y-21488794D01*
X16715500Y-21500000D01*
X12624000Y-21500000D01*
X12556961Y-21480315D01*
X12511206Y-21427511D01*
X12500000Y-21376000D01*
X12500000Y-18080000D01*
X13857102Y-18080000D01*
X13871318Y-18136137D01*
X13964516Y-18348609D01*
X14091414Y-18542842D01*
X14248558Y-18713545D01*
X14248562Y-18713548D01*
X14431644Y-18856047D01*
X14431648Y-18856050D01*
X14635697Y-18966476D01*
X14635706Y-18966479D01*
X14799999Y-19022881D01*
X14800000Y-19022881D01*
X14800000Y-18080000D01*
X13857102Y-18080000D01*
X12500000Y-18080000D01*
X12500000Y-17279999D01*
X13857102Y-17279999D01*
X13857102Y-17280000D01*
X14800000Y-17280000D01*
X14800000Y-16337118D01*
X14635706Y-16393520D01*
X14635697Y-16393523D01*
X14431648Y-16503949D01*
X14431644Y-16503952D01*
X14248562Y-16646451D01*
X14248558Y-16646454D01*
X14091414Y-16817157D01*
X13964516Y-17011390D01*
X13871318Y-17223862D01*
X13857102Y-17279999D01*
X12500000Y-17279999D01*
X12500000Y-15811525D01*
X14834159Y-15811525D01*
X14935698Y-15866476D01*
X14935706Y-15866479D01*
X15155139Y-15941811D01*
X15383993Y-15980000D01*
X15616007Y-15980000D01*
X15844860Y-15941811D01*
X16064292Y-15866480D01*
X16165839Y-15811525D01*
X15500001Y-15145685D01*
X15500000Y-15145685D01*
X14834159Y-15811525D01*
X12500000Y-15811525D01*
X12500000Y-14579994D01*
X14095202Y-14579994D01*
X14095202Y-14580005D01*
X14114361Y-14811218D01*
X14171317Y-15036135D01*
X14264515Y-15248605D01*
X14264517Y-15248610D01*
X14264986Y-15249326D01*
X14934314Y-14580000D01*
X14881653Y-14527339D01*
X15100000Y-14527339D01*
X15100000Y-14632661D01*
X15127259Y-14734394D01*
X15179920Y-14825606D01*
X15254394Y-14900080D01*
X15345606Y-14952741D01*
X15447339Y-14980000D01*
X15552661Y-14980000D01*
X15654394Y-14952741D01*
X15745606Y-14900080D01*
X15820080Y-14825606D01*
X15872741Y-14734394D01*
X15900000Y-14632661D01*
X15900000Y-14527339D01*
X15872741Y-14425606D01*
X15820080Y-14334394D01*
X15745606Y-14259920D01*
X15654394Y-14207259D01*
X15552661Y-14180000D01*
X15447339Y-14180000D01*
X15345606Y-14207259D01*
X15254394Y-14259920D01*
X15179920Y-14334394D01*
X15127259Y-14425606D01*
X15100000Y-14527339D01*
X14881653Y-14527339D01*
X14264986Y-13910672D01*
X14264985Y-13910672D01*
X14264519Y-13911385D01*
X14264516Y-13911391D01*
X14171317Y-14123864D01*
X14114361Y-14348781D01*
X14095202Y-14579994D01*
X12500000Y-14579994D01*
X12500000Y-13348473D01*
X14834158Y-13348473D01*
X15500000Y-14014314D01*
X15500001Y-14014314D01*
X16165839Y-13348473D01*
X16165840Y-13348473D01*
X16064301Y-13293523D01*
X16064293Y-13293520D01*
X15844860Y-13218188D01*
X15616007Y-13180000D01*
X15383993Y-13180000D01*
X15155139Y-13218188D01*
X14935703Y-13293521D01*
X14935692Y-13293526D01*
X14834158Y-13348473D01*
X12500000Y-13348473D01*
X12500000Y-13000000D01*
X1624500Y-13000000D01*
X1557461Y-12980315D01*
X1511706Y-12927511D01*
X1500500Y-12876000D01*
X1500500Y-11854454D01*
X1520185Y-11787415D01*
X1572989Y-11741660D01*
X1642147Y-11731716D01*
X1705703Y-11760741D01*
X1718922Y-11774772D01*
X1722070Y-11777920D01*
X1847413Y-11874100D01*
X1993365Y-11934554D01*
X1993369Y-11934555D01*
X2110676Y-11949999D01*
X2599999Y-11949999D01*
X3400000Y-11949999D01*
X3889324Y-11949999D01*
X4006628Y-11934557D01*
X4006633Y-11934555D01*
X4152585Y-11874100D01*
X4277924Y-11777924D01*
X4374098Y-11652588D01*
X4381538Y-11634626D01*
X4425377Y-11580221D01*
X4491671Y-11558154D01*
X4559371Y-11575431D01*
X4572263Y-11584221D01*
X4744209Y-11718052D01*
X4955543Y-11832420D01*
X5140000Y-11895743D01*
X5940000Y-11895743D01*
X6124456Y-11832420D01*
X6335790Y-11718052D01*
X6525422Y-11570455D01*
X6688177Y-11393657D01*
X6706191Y-11366085D01*
X6759338Y-11320728D01*
X6828569Y-11311304D01*
X6891905Y-11340806D01*
X6913809Y-11366085D01*
X6931822Y-11393657D01*
X7094577Y-11570455D01*
X7284209Y-11718052D01*
X7495543Y-11832420D01*
X7680000Y-11895743D01*
X8480000Y-11895743D01*
X8664456Y-11832420D01*
X8875790Y-11718052D01*
X9065422Y-11570455D01*
X9228177Y-11393657D01*
X9246191Y-11366085D01*
X9299338Y-11320728D01*
X9368569Y-11311304D01*
X9431905Y-11340806D01*
X9453809Y-11366085D01*
X9471822Y-11393657D01*
X9634577Y-11570455D01*
X9824209Y-11718052D01*
X10035543Y-11832420D01*
X10220000Y-11895743D01*
X11020000Y-11895743D01*
X11204456Y-11832420D01*
X11415790Y-11718052D01*
X11605422Y-11570455D01*
X11768173Y-11393661D01*
X11768176Y-11393657D01*
X11899606Y-11192490D01*
X11996134Y-10972428D01*
X12014476Y-10900000D01*
X11020000Y-10900000D01*
X11020000Y-11895743D01*
X10220000Y-11895743D01*
X10220000Y-10900000D01*
X8480000Y-10900000D01*
X8480000Y-11895743D01*
X7680000Y-11895743D01*
X7680000Y-10900000D01*
X5940000Y-10900000D01*
X5940000Y-11895743D01*
X5140000Y-11895743D01*
X5140000Y-10900000D01*
X3400000Y-10900000D01*
X3400000Y-11949999D01*
X2599999Y-11949999D01*
X2600000Y-11949998D01*
X2600000Y-10807106D01*
X2692993Y-10900099D01*
X2807007Y-10965925D01*
X2934174Y-11000000D01*
X3065826Y-11000000D01*
X3192993Y-10965925D01*
X3307007Y-10900099D01*
X3400099Y-10807007D01*
X3465925Y-10692993D01*
X3500000Y-10565826D01*
X3500000Y-10434174D01*
X5040000Y-10434174D01*
X5040000Y-10565826D01*
X5074075Y-10692993D01*
X5139901Y-10807007D01*
X5232993Y-10900099D01*
X5347007Y-10965925D01*
X5474174Y-11000000D01*
X5605826Y-11000000D01*
X5732993Y-10965925D01*
X5847007Y-10900099D01*
X5940099Y-10807007D01*
X6005925Y-10692993D01*
X6040000Y-10565826D01*
X6040000Y-10434174D01*
X7580000Y-10434174D01*
X7580000Y-10565826D01*
X7614075Y-10692993D01*
X7679901Y-10807007D01*
X7772993Y-10900099D01*
X7887007Y-10965925D01*
X8014174Y-11000000D01*
X8145826Y-11000000D01*
X8272993Y-10965925D01*
X8387007Y-10900099D01*
X8480099Y-10807007D01*
X8545925Y-10692993D01*
X8580000Y-10565826D01*
X8580000Y-10434174D01*
X10120000Y-10434174D01*
X10120000Y-10565826D01*
X10154075Y-10692993D01*
X10219901Y-10807007D01*
X10312993Y-10900099D01*
X10427007Y-10965925D01*
X10554174Y-11000000D01*
X10685826Y-11000000D01*
X10812993Y-10965925D01*
X10927007Y-10900099D01*
X11020099Y-10807007D01*
X11085925Y-10692993D01*
X11120000Y-10565826D01*
X11120000Y-10434174D01*
X11085925Y-10307007D01*
X11020099Y-10192993D01*
X10927106Y-10100000D01*
X11020000Y-10100000D01*
X12014476Y-10100000D01*
X11996134Y-10027571D01*
X11899606Y-9807509D01*
X11768176Y-9606342D01*
X11768173Y-9606338D01*
X11605422Y-9429544D01*
X11415790Y-9281947D01*
X11204455Y-9167578D01*
X11204450Y-9167576D01*
X11020000Y-9104255D01*
X11020000Y-10100000D01*
X10927106Y-10100000D01*
X10927007Y-10099901D01*
X10812993Y-10034075D01*
X10685826Y-10000000D01*
X10554174Y-10000000D01*
X10427007Y-10034075D01*
X10312993Y-10099901D01*
X10219901Y-10192993D01*
X10154075Y-10307007D01*
X10120000Y-10434174D01*
X8580000Y-10434174D01*
X8545925Y-10307007D01*
X8480099Y-10192993D01*
X8387007Y-10099901D01*
X8272993Y-10034075D01*
X8145826Y-10000000D01*
X8014174Y-10000000D01*
X7887007Y-10034075D01*
X7772993Y-10099901D01*
X7679901Y-10192993D01*
X7614075Y-10307007D01*
X7580000Y-10434174D01*
X6040000Y-10434174D01*
X6005925Y-10307007D01*
X5940099Y-10192993D01*
X5847007Y-10099901D01*
X5732993Y-10034075D01*
X5605826Y-10000000D01*
X5474174Y-10000000D01*
X5347007Y-10034075D01*
X5232993Y-10099901D01*
X5139901Y-10192993D01*
X5074075Y-10307007D01*
X5040000Y-10434174D01*
X3500000Y-10434174D01*
X3465925Y-10307007D01*
X3400099Y-10192993D01*
X3307106Y-10100000D01*
X3400000Y-10100000D01*
X5140000Y-10100000D01*
X5140000Y-9104255D01*
X5940000Y-9104255D01*
X5940000Y-10100000D01*
X7680000Y-10100000D01*
X7680000Y-9104255D01*
X8480000Y-9104255D01*
X8480000Y-10100000D01*
X10220000Y-10100000D01*
X10220000Y-9104255D01*
X10035549Y-9167576D01*
X10035544Y-9167578D01*
X9824209Y-9281947D01*
X9634577Y-9429544D01*
X9471826Y-9606338D01*
X9471823Y-9606342D01*
X9453808Y-9633917D01*
X9400662Y-9679274D01*
X9331430Y-9688697D01*
X9268095Y-9659194D01*
X9246192Y-9633917D01*
X9228176Y-9606342D01*
X9228173Y-9606338D01*
X9065422Y-9429544D01*
X8875790Y-9281947D01*
X8664455Y-9167578D01*
X8664450Y-9167576D01*
X8480000Y-9104255D01*
X7680000Y-9104255D01*
X7495549Y-9167576D01*
X7495544Y-9167578D01*
X7284209Y-9281947D01*
X7094577Y-9429544D01*
X6931826Y-9606338D01*
X6931823Y-9606342D01*
X6913808Y-9633917D01*
X6860662Y-9679274D01*
X6791430Y-9688697D01*
X6728095Y-9659194D01*
X6706192Y-9633917D01*
X6688176Y-9606342D01*
X6688173Y-9606338D01*
X6525422Y-9429544D01*
X6335790Y-9281947D01*
X6124455Y-9167578D01*
X6124450Y-9167576D01*
X5940000Y-9104255D01*
X5140000Y-9104255D01*
X4955549Y-9167576D01*
X4955544Y-9167578D01*
X4744209Y-9281948D01*
X4572263Y-9415778D01*
X4507269Y-9441420D01*
X4438729Y-9427853D01*
X4388404Y-9379385D01*
X4381539Y-9365374D01*
X4374099Y-9347413D01*
X4277924Y-9222075D01*
X4152586Y-9125899D01*
X4006634Y-9065445D01*
X4006630Y-9065444D01*
X3889330Y-9050000D01*
X3400000Y-9050000D01*
X3400000Y-10100000D01*
X3307106Y-10100000D01*
X3307007Y-10099901D01*
X3192993Y-10034075D01*
X3065826Y-10000000D01*
X2934174Y-10000000D01*
X2807007Y-10034075D01*
X2692993Y-10099901D01*
X2600000Y-10192894D01*
X2600000Y-9050000D01*
X2110675Y-9050000D01*
X1993371Y-9065442D01*
X1993366Y-9065444D01*
X1847414Y-9125899D01*
X1722070Y-9222079D01*
X1716328Y-9227822D01*
X1715167Y-9226661D01*
X1666443Y-9262236D01*
X1596697Y-9266388D01*
X1535778Y-9232173D01*
X1503028Y-9170454D01*
X1500500Y-9145545D01*
X1500500Y-4503246D01*
X1500670Y-4496756D01*
X1506857Y-4378711D01*
X2649500Y-4378711D01*
X2649500Y-4621288D01*
X2681161Y-4861785D01*
X2743947Y-5096104D01*
X2836773Y-5320205D01*
X2836776Y-5320212D01*
X2958064Y-5530289D01*
X2958066Y-5530292D01*
X2958067Y-5530293D01*
X3105733Y-5722736D01*
X3105739Y-5722743D01*
X3277256Y-5894260D01*
X3277263Y-5894266D01*
X3390321Y-5981018D01*
X3469711Y-6041936D01*
X3679788Y-6163224D01*
X3903900Y-6256054D01*
X4138211Y-6318838D01*
X4318586Y-6342584D01*
X4378711Y-6350500D01*
X4378712Y-6350500D01*
X4621289Y-6350500D01*
X4669388Y-6344167D01*
X4861789Y-6318838D01*
X5096100Y-6256054D01*
X5320212Y-6163224D01*
X5530289Y-6041936D01*
X5722738Y-5894265D01*
X5894265Y-5722738D01*
X6041936Y-5530289D01*
X6163224Y-5320212D01*
X6256054Y-5096100D01*
X6318838Y-4861789D01*
X6350500Y-4621288D01*
X6350500Y-4378712D01*
X6318838Y-4138211D01*
X6256054Y-3903900D01*
X6163224Y-3679788D01*
X6041936Y-3469711D01*
X5981018Y-3390321D01*
X5894266Y-3277263D01*
X5894260Y-3277256D01*
X5722743Y-3105739D01*
X5722736Y-3105733D01*
X5530293Y-2958067D01*
X5530292Y-2958066D01*
X5530289Y-2958064D01*
X5320212Y-2836776D01*
X5320205Y-2836773D01*
X5096104Y-2743947D01*
X4861785Y-2681161D01*
X4621289Y-2649500D01*
X4621288Y-2649500D01*
X4378712Y-2649500D01*
X4378711Y-2649500D01*
X4138214Y-2681161D01*
X3903895Y-2743947D01*
X3679794Y-2836773D01*
X3679785Y-2836777D01*
X3469706Y-2958067D01*
X3277263Y-3105733D01*
X3277256Y-3105739D01*
X3105739Y-3277256D01*
X3105733Y-3277263D01*
X2958067Y-3469706D01*
X2836777Y-3679785D01*
X2836773Y-3679794D01*
X2743947Y-3903895D01*
X2681161Y-4138214D01*
X2649500Y-4378711D01*
X1506857Y-4378711D01*
X1516592Y-4192953D01*
X1517949Y-4180046D01*
X1550660Y-3973511D01*
X1565029Y-3882786D01*
X1567723Y-3870107D01*
X1645627Y-3579368D01*
X1649636Y-3567033D01*
X1757493Y-3286054D01*
X1762767Y-3274209D01*
X1899415Y-3006023D01*
X1905893Y-2994805D01*
X2069819Y-2742380D01*
X2077440Y-2731892D01*
X2266858Y-2497979D01*
X2275525Y-2488354D01*
X2488354Y-2275525D01*
X2497981Y-2266857D01*
X2731899Y-2077434D01*
X2742380Y-2069819D01*
X2994808Y-1905891D01*
X3006023Y-1899415D01*
X3274215Y-1762763D01*
X3286054Y-1757493D01*
X3567040Y-1649633D01*
X3579368Y-1645627D01*
X3870107Y-1567723D01*
X3882786Y-1565029D01*
X4180046Y-1517949D01*
X4192951Y-1516592D01*
X4496756Y-1500669D01*
X4503246Y-1500500D01*
X4565892Y-1500500D01*
X48959230Y-1500500D01*
X49021874Y-1500500D01*
X49028365Y-1500670D01*
G37*
%TD.AperFunction*%
%TA.AperFunction,Conductor*%
G36*
X22447259Y-25454394D02*
G01*
X22499920Y-25545606D01*
X22574394Y-25620080D01*
X22665606Y-25672741D01*
X22767339Y-25700000D01*
X22544000Y-25700000D01*
X22476961Y-25680315D01*
X22431206Y-25627511D01*
X22420000Y-25576000D01*
X22420000Y-25352661D01*
X22447259Y-25454394D01*
G37*
%TD.AperFunction*%
%TA.AperFunction,Conductor*%
G36*
X33947259Y-25454394D02*
G01*
X33999920Y-25545606D01*
X34074394Y-25620080D01*
X34165606Y-25672741D01*
X34267339Y-25700000D01*
X34044000Y-25700000D01*
X33976961Y-25680315D01*
X33931206Y-25627511D01*
X33920000Y-25576000D01*
X33920000Y-25352661D01*
X33947259Y-25454394D01*
G37*
%TD.AperFunction*%
%TA.AperFunction,Conductor*%
G36*
X45447259Y-25454394D02*
G01*
X45499920Y-25545606D01*
X45574394Y-25620080D01*
X45665606Y-25672741D01*
X45767339Y-25700000D01*
X45544000Y-25700000D01*
X45476961Y-25680315D01*
X45431206Y-25627511D01*
X45420000Y-25576000D01*
X45420000Y-25352661D01*
X45447259Y-25454394D01*
G37*
%TD.AperFunction*%
%TD*%
M02*
