M48
; DRILL file {KiCad 8.0.6} date 2024-11-22T18:21:11-0500
; FORMAT={-:-/ absolute / inch / decimal}
; #@! TF.CreationDate,2024-11-22T18:21:11-05:00
; #@! TF.GenerationSoftware,Kicad,Pcbnew,8.0.6
; #@! TF.FileFunction,MixedPlating,1,2
FMAT,2
INCH
; #@! TA.AperFunction,Plated,PTH,ComponentDrill
T1C0.0315
; #@! TA.AperFunction,Plated,PTH,ComponentDrill
T2C0.0354
; #@! TA.AperFunction,Plated,PTH,ComponentDrill
T3C0.0394
; #@! TA.AperFunction,NonPlated,NPTH,ComponentDrill
T4C0.1260
%
G90
G05
T1
X0.3937Y-1.2008
X0.4213Y-0.6961
X0.4213Y-0.9961
X0.4921Y-0.174
X0.4921Y-0.574
X0.4921Y-1.2008
X0.5213Y-0.6961
X0.5213Y-0.9961
X0.6213Y-0.6961
X0.6213Y-0.9961
X0.6496Y-0.174
X0.6496Y-0.574
X0.6496Y-1.1189
X0.6496Y-1.5189
X0.7213Y-0.6961
X0.7213Y-0.9961
X0.8268Y-1.2008
X0.8543Y-0.6961
X0.8543Y-0.9961
X0.9252Y-0.174
X0.9252Y-0.574
X0.9252Y-1.2008
X0.9543Y-0.6961
X0.9543Y-0.9961
X1.0543Y-0.6961
X1.0543Y-0.9961
X1.0827Y-0.174
X1.0827Y-0.574
X1.0827Y-1.1189
X1.0827Y-1.5189
X1.1543Y-0.6961
X1.1543Y-0.9961
X1.2598Y-1.2008
X1.2874Y-0.6961
X1.2874Y-0.9961
X1.3583Y-0.174
X1.3583Y-0.574
X1.3583Y-1.2008
X1.3874Y-0.6961
X1.3874Y-0.9961
X1.4874Y-0.6961
X1.4874Y-0.9961
X1.5157Y-0.174
X1.5157Y-0.574
X1.5157Y-1.1189
X1.5157Y-1.5189
X1.5874Y-0.6961
X1.5874Y-0.9961
T2
X0.3921Y-1.4764
X0.4921Y-1.4764
X0.8252Y-1.4764
X0.9252Y-1.4764
X1.2583Y-1.4764
X1.3583Y-1.4764
T3
X0.1772Y-0.4283
X0.1772Y-0.5283
X0.1772Y-0.6283
X0.1772Y-0.7283
X0.1772Y-0.9646
X0.1772Y-1.0646
X0.1772Y-1.1646
X0.1772Y-1.2646
T4
X0.1772Y-0.1772
X0.1772Y-1.5157
X1.752Y-0.1772
X1.752Y-1.5157
M30
