M48
; DRILL file {KiCad 8.0.6} date 2024-11-24T10:20:19-0500
; FORMAT={-:-/ absolute / inch / decimal}
; #@! TF.CreationDate,2024-11-24T10:20:19-05:00
; #@! TF.GenerationSoftware,Kicad,Pcbnew,8.0.6
; #@! TF.FileFunction,MixedPlating,1,2
FMAT,2
INCH
; #@! TA.AperFunction,Plated,PTH,ComponentDrill
T1C0.0315
; #@! TA.AperFunction,Plated,PTH,ComponentDrill
T2C0.0354
; #@! TA.AperFunction,Plated,PTH,ComponentDrill
T3C0.0362
; #@! TA.AperFunction,Plated,PTH,ComponentDrill
T4C0.0394
; #@! TA.AperFunction,Plated,PTH,ComponentDrill
T5C0.0917
; #@! TA.AperFunction,NonPlated,NPTH,ComponentDrill
T6C0.1260
%
G90
G05
T1
X0.5709Y-1.2008
X0.5984Y-0.6961
X0.5984Y-0.9961
X0.6102Y-0.174
X0.6102Y-0.574
X0.6693Y-1.2008
X0.6984Y-0.6961
X0.6984Y-0.9961
X0.7984Y-0.6961
X0.7984Y-0.9961
X0.8071Y-0.174
X0.8071Y-0.574
X0.8268Y-1.1189
X0.8268Y-1.5189
X0.8984Y-0.6961
X0.8984Y-0.9961
X1.0236Y-1.2008
X1.0512Y-0.6961
X1.0512Y-0.9961
X1.063Y-0.174
X1.063Y-0.574
X1.122Y-1.2008
X1.1512Y-0.6961
X1.1512Y-0.9961
X1.2512Y-0.6961
X1.2512Y-0.9961
X1.2598Y-0.174
X1.2598Y-0.574
X1.2795Y-1.1189
X1.2795Y-1.5189
X1.3512Y-0.6961
X1.3512Y-0.9961
X1.4764Y-1.2008
X1.5039Y-0.6961
X1.5039Y-0.9961
X1.5157Y-0.174
X1.5157Y-0.574
X1.5748Y-1.2008
X1.6039Y-0.6961
X1.6039Y-0.9961
X1.7039Y-0.6961
X1.7039Y-0.9961
X1.7126Y-0.174
X1.7126Y-0.574
X1.7323Y-1.1189
X1.7323Y-1.5189
X1.8039Y-0.6961
X1.8039Y-0.9961
T2
X0.5693Y-1.4764
X0.6693Y-1.4764
X1.022Y-1.4764
X1.122Y-1.4764
X1.4748Y-1.4764
X1.5748Y-1.4764
T3
X0.3513Y-0.7972
X0.3513Y-0.8957
X0.4361Y-0.7972
X0.4361Y-0.8957
T4
X0.1181Y-0.4134
X0.1181Y-1.2795
X0.2181Y-0.4134
X0.2181Y-1.2795
X0.3181Y-0.4134
X0.3181Y-1.2795
X0.4181Y-0.4134
X0.4181Y-1.2795
T5
X0.2507Y-0.6094
X0.2507Y-1.0835
T6
X0.1772Y-0.1772
X0.1772Y-1.5157
X1.9291Y-0.1772
X1.9291Y-1.5157
M30
