%TF.GenerationSoftware,KiCad,Pcbnew,8.0.3*%
%TF.CreationDate,2024-06-12T20:35:37-04:00*%
%TF.ProjectId,usbA_breadboard,75736241-5f62-4726-9561-64626f617264,rev?*%
%TF.SameCoordinates,PX6cb8080PY3a2c940*%
%TF.FileFunction,Copper,L2,Bot*%
%TF.FilePolarity,Positive*%
%FSLAX46Y46*%
G04 Gerber Fmt 4.6, Leading zero omitted, Abs format (unit mm)*
G04 Created by KiCad (PCBNEW 8.0.3) date 2024-06-12 20:35:37*
%MOMM*%
%LPD*%
G01*
G04 APERTURE LIST*
%TA.AperFunction,ComponentPad*%
%ADD10C,1.600000*%
%TD*%
%TA.AperFunction,ComponentPad*%
%ADD11O,1.600000X1.600000*%
%TD*%
%TA.AperFunction,ComponentPad*%
%ADD12R,1.700000X1.700000*%
%TD*%
%TA.AperFunction,ComponentPad*%
%ADD13O,1.700000X1.700000*%
%TD*%
%TA.AperFunction,ComponentPad*%
%ADD14R,1.524000X1.524000*%
%TD*%
%TA.AperFunction,ComponentPad*%
%ADD15C,1.524000*%
%TD*%
%TA.AperFunction,ComponentPad*%
%ADD16C,3.500000*%
%TD*%
%TA.AperFunction,Conductor*%
%ADD17C,1.000000*%
%TD*%
G04 APERTURE END LIST*
D10*
%TO.P,R2,1*%
%TO.N,Net-(J1-D-)*%
X16820000Y-9500000D03*
D11*
%TO.P,R2,2*%
%TO.N,Net-(J2-Pin_2)*%
X26980000Y-9500000D03*
%TD*%
D10*
%TO.P,R1,1*%
%TO.N,Net-(J1-D+)*%
X16820000Y-12500000D03*
D11*
%TO.P,R1,2*%
%TO.N,Net-(J2-Pin_3)*%
X26980000Y-12500000D03*
%TD*%
D12*
%TO.P,J2,1,Pin_1*%
%TO.N,+5V*%
X29900000Y-7200000D03*
D13*
%TO.P,J2,2,Pin_2*%
%TO.N,Net-(J2-Pin_2)*%
X29900000Y-9740000D03*
%TO.P,J2,3,Pin_3*%
%TO.N,Net-(J2-Pin_3)*%
X29900000Y-12280000D03*
%TO.P,J2,4,Pin_4*%
%TO.N,GND*%
X29900000Y-14820000D03*
%TD*%
D14*
%TO.P,J1,1,VBUS*%
%TO.N,+5V*%
X13227500Y-7500000D03*
D15*
%TO.P,J1,2,D-*%
%TO.N,Net-(J1-D-)*%
X13227500Y-10000000D03*
%TO.P,J1,3,D+*%
%TO.N,Net-(J1-D+)*%
X13227500Y-12000000D03*
%TO.P,J1,4,GND*%
%TO.N,GND*%
X13227500Y-14500000D03*
D16*
%TO.P,J1,5,Shield*%
X10517500Y-4430000D03*
X10517500Y-17570000D03*
%TD*%
D17*
%TO.N,Net-(J1-D+)*%
X16820000Y-12500000D02*
X13727500Y-12500000D01*
X13727500Y-12500000D02*
X13227500Y-12000000D01*
%TO.N,Net-(J2-Pin_3)*%
X26980000Y-12500000D02*
X29680000Y-12500000D01*
X29680000Y-12500000D02*
X29900000Y-12280000D01*
%TO.N,Net-(J2-Pin_2)*%
X26980000Y-9500000D02*
X29660000Y-9500000D01*
X29660000Y-9500000D02*
X29900000Y-9740000D01*
%TO.N,Net-(J1-D-)*%
X13227500Y-10000000D02*
X16320000Y-10000000D01*
X16320000Y-10000000D02*
X16820000Y-9500000D01*
%TO.N,+5V*%
X29900000Y-7200000D02*
X13527500Y-7200000D01*
X13527500Y-7200000D02*
X13227500Y-7500000D01*
%TD*%
%TA.AperFunction,Conductor*%
%TO.N,GND*%
G36*
X30008081Y-1501078D02*
G01*
X30197213Y-1514605D01*
X30229257Y-1519212D01*
X30406613Y-1557793D01*
X30437659Y-1566909D01*
X30607710Y-1630336D01*
X30637158Y-1643784D01*
X30796441Y-1730759D01*
X30823686Y-1748268D01*
X30968970Y-1857027D01*
X30993446Y-1878236D01*
X31121763Y-2006553D01*
X31142972Y-2031029D01*
X31251731Y-2176313D01*
X31269242Y-2203561D01*
X31356212Y-2362835D01*
X31369666Y-2392295D01*
X31433086Y-2562329D01*
X31442208Y-2593396D01*
X31480785Y-2770730D01*
X31485394Y-2802786D01*
X31498922Y-2991917D01*
X31499500Y-3008112D01*
X31499500Y-5836381D01*
X31479875Y-5928710D01*
X31424393Y-6005075D01*
X31342647Y-6052271D01*
X31248772Y-6062137D01*
X31159000Y-6032969D01*
X31111987Y-5996894D01*
X31107547Y-5992454D01*
X30992335Y-5906206D01*
X30992328Y-5906202D01*
X30857486Y-5855910D01*
X30857485Y-5855909D01*
X30857483Y-5855909D01*
X30857481Y-5855908D01*
X30857478Y-5855908D01*
X30797873Y-5849500D01*
X29002133Y-5849500D01*
X28942515Y-5855909D01*
X28807670Y-5906203D01*
X28807664Y-5906206D01*
X28692453Y-5992453D01*
X28605554Y-6108537D01*
X28534512Y-6170689D01*
X28444333Y-6198572D01*
X28423832Y-6199500D01*
X13428958Y-6199500D01*
X13380635Y-6209112D01*
X13332312Y-6218724D01*
X13259847Y-6233138D01*
X13215562Y-6237500D01*
X12417626Y-6237500D01*
X12417625Y-6237501D01*
X12387802Y-6240706D01*
X12293904Y-6231059D01*
X12212048Y-6184054D01*
X12156388Y-6107819D01*
X12136548Y-6015536D01*
X12155957Y-5923161D01*
X12192880Y-5865333D01*
X12271396Y-5775802D01*
X12432045Y-5535375D01*
X12432049Y-5535369D01*
X12559947Y-5276018D01*
X12559951Y-5276009D01*
X12652901Y-5002187D01*
X12652903Y-5002179D01*
X12709319Y-4718563D01*
X12709320Y-4718555D01*
X12728233Y-4430000D01*
X12728233Y-4429999D01*
X12709320Y-4141444D01*
X12709319Y-4141436D01*
X12652903Y-3857820D01*
X12652901Y-3857812D01*
X12559951Y-3583990D01*
X12559947Y-3583981D01*
X12432049Y-3324631D01*
X12334518Y-3178666D01*
X11563461Y-3949722D01*
X11501068Y-3827269D01*
X11394671Y-3680825D01*
X11266675Y-3552829D01*
X11120231Y-3446432D01*
X10997776Y-3384037D01*
X11768832Y-2612980D01*
X11622867Y-2515449D01*
X11363518Y-2387552D01*
X11363509Y-2387548D01*
X11089687Y-2294598D01*
X11089679Y-2294596D01*
X10806063Y-2238180D01*
X10806055Y-2238179D01*
X10517500Y-2219267D01*
X10228944Y-2238179D01*
X10228936Y-2238180D01*
X9945320Y-2294596D01*
X9945312Y-2294598D01*
X9671490Y-2387548D01*
X9671482Y-2387552D01*
X9412131Y-2515450D01*
X9412128Y-2515452D01*
X9266166Y-2612980D01*
X10037223Y-3384037D01*
X9914769Y-3446432D01*
X9768325Y-3552829D01*
X9640329Y-3680825D01*
X9533932Y-3827269D01*
X9471537Y-3949723D01*
X8700480Y-3178666D01*
X8602952Y-3324628D01*
X8602950Y-3324631D01*
X8475052Y-3583982D01*
X8475048Y-3583990D01*
X8382098Y-3857812D01*
X8382096Y-3857820D01*
X8325680Y-4141436D01*
X8325679Y-4141444D01*
X8306767Y-4429999D01*
X8306767Y-4430000D01*
X8325679Y-4718555D01*
X8325680Y-4718563D01*
X8382096Y-5002179D01*
X8382098Y-5002187D01*
X8475048Y-5276009D01*
X8475052Y-5276018D01*
X8602949Y-5535367D01*
X8700480Y-5681332D01*
X9471537Y-4910275D01*
X9533932Y-5032731D01*
X9640329Y-5179175D01*
X9768325Y-5307171D01*
X9914769Y-5413568D01*
X10037222Y-5475961D01*
X9266165Y-6247019D01*
X9412127Y-6344547D01*
X9412130Y-6344549D01*
X9671481Y-6472447D01*
X9671490Y-6472451D01*
X9945312Y-6565401D01*
X9945320Y-6565403D01*
X10228936Y-6621819D01*
X10228944Y-6621820D01*
X10517500Y-6640733D01*
X10806055Y-6621820D01*
X10806063Y-6621819D01*
X11089679Y-6565403D01*
X11089687Y-6565401D01*
X11363509Y-6472451D01*
X11363518Y-6472447D01*
X11622869Y-6344549D01*
X11622870Y-6344548D01*
X11644727Y-6329944D01*
X11732398Y-6294965D01*
X11826718Y-6298670D01*
X11911376Y-6340417D01*
X11971735Y-6412989D01*
X11997358Y-6503836D01*
X11983815Y-6597251D01*
X11983532Y-6598012D01*
X11971411Y-6630510D01*
X11971408Y-6630521D01*
X11965000Y-6690126D01*
X11965000Y-8309866D01*
X11971409Y-8369484D01*
X12021703Y-8504329D01*
X12021706Y-8504335D01*
X12107953Y-8619546D01*
X12223164Y-8705793D01*
X12223166Y-8705793D01*
X12223169Y-8705796D01*
X12265923Y-8721742D01*
X12345572Y-8772395D01*
X12397734Y-8851065D01*
X12413388Y-8944150D01*
X12389827Y-9035554D01*
X12347110Y-9094942D01*
X12256678Y-9185374D01*
X12129966Y-9366338D01*
X12036607Y-9566548D01*
X12036603Y-9566559D01*
X11979431Y-9779927D01*
X11979429Y-9779934D01*
X11960177Y-9999997D01*
X11960177Y-10000002D01*
X11979429Y-10220065D01*
X11979431Y-10220072D01*
X12032420Y-10417830D01*
X12036606Y-10433450D01*
X12129966Y-10633662D01*
X12256674Y-10814620D01*
X12256680Y-10814626D01*
X12281540Y-10839486D01*
X12332950Y-10918649D01*
X12347716Y-11011879D01*
X12323285Y-11103055D01*
X12281543Y-11160510D01*
X12256676Y-11185376D01*
X12129966Y-11366338D01*
X12036607Y-11566548D01*
X12036603Y-11566559D01*
X11979431Y-11779927D01*
X11979429Y-11779934D01*
X11960177Y-11999997D01*
X11960177Y-12000002D01*
X11979429Y-12220065D01*
X11979430Y-12220068D01*
X12036606Y-12433450D01*
X12129966Y-12633662D01*
X12256674Y-12814620D01*
X12412880Y-12970826D01*
X12593838Y-13097534D01*
X12593844Y-13097537D01*
X12598571Y-13100266D01*
X12601473Y-13102879D01*
X12601957Y-13103218D01*
X12601915Y-13103277D01*
X12668719Y-13163426D01*
X12707112Y-13249657D01*
X12708624Y-13336274D01*
X12696757Y-13403573D01*
X13227500Y-13934315D01*
X13349702Y-14056517D01*
X13288060Y-14040000D01*
X13166940Y-14040000D01*
X13049947Y-14071349D01*
X12945054Y-14131909D01*
X12859409Y-14217554D01*
X12798849Y-14322447D01*
X12767500Y-14439440D01*
X12767500Y-14560560D01*
X12798849Y-14677553D01*
X12859409Y-14782446D01*
X12945054Y-14868091D01*
X13049947Y-14928651D01*
X13166940Y-14960000D01*
X13288060Y-14960000D01*
X13405053Y-14928651D01*
X13509946Y-14868091D01*
X13595591Y-14782446D01*
X13656151Y-14677553D01*
X13687500Y-14560560D01*
X13687500Y-14439440D01*
X13670982Y-14377797D01*
X14323925Y-15030740D01*
X14376419Y-14918166D01*
X14376419Y-14918165D01*
X14431577Y-14712312D01*
X14431577Y-14712311D01*
X14450153Y-14500001D01*
X14450153Y-14499998D01*
X14431577Y-14287688D01*
X14431577Y-14287687D01*
X14376419Y-14081832D01*
X14376416Y-14081825D01*
X14286348Y-13888674D01*
X14286345Y-13888668D01*
X14264662Y-13857702D01*
X14227780Y-13770814D01*
X14229427Y-13676437D01*
X14269318Y-13590889D01*
X14340557Y-13528962D01*
X14430824Y-13501364D01*
X14450609Y-13500500D01*
X15909936Y-13500500D01*
X16002265Y-13520125D01*
X16040138Y-13541553D01*
X16167258Y-13630563D01*
X16167261Y-13630564D01*
X16167266Y-13630568D01*
X16373504Y-13726739D01*
X16593308Y-13785635D01*
X16800166Y-13803732D01*
X16819999Y-13805468D01*
X16820000Y-13805468D01*
X16820001Y-13805468D01*
X16838238Y-13803872D01*
X17046692Y-13785635D01*
X17266496Y-13726739D01*
X17472734Y-13630568D01*
X17659139Y-13500047D01*
X17820047Y-13339139D01*
X17950568Y-13152734D01*
X18046739Y-12946496D01*
X18105635Y-12726692D01*
X18125468Y-12500000D01*
X18105635Y-12273308D01*
X18046739Y-12053504D01*
X17950568Y-11847266D01*
X17820047Y-11660861D01*
X17820044Y-11660858D01*
X17820042Y-11660855D01*
X17659144Y-11499957D01*
X17659140Y-11499954D01*
X17659139Y-11499953D01*
X17480565Y-11374915D01*
X17472736Y-11369433D01*
X17466099Y-11366338D01*
X17266496Y-11273261D01*
X17266491Y-11273259D01*
X17266490Y-11273259D01*
X17064979Y-11219265D01*
X16980875Y-11176413D01*
X16921472Y-11103056D01*
X16897041Y-11011881D01*
X16911807Y-10918651D01*
X16963216Y-10839487D01*
X17042380Y-10788077D01*
X17064979Y-10780735D01*
X17073339Y-10778495D01*
X17266496Y-10726739D01*
X17472734Y-10630568D01*
X17659139Y-10500047D01*
X17820047Y-10339139D01*
X17950568Y-10152734D01*
X18046739Y-9946496D01*
X18105635Y-9726692D01*
X18125468Y-9500000D01*
X18105635Y-9273308D01*
X18046739Y-9053504D01*
X17950568Y-8847266D01*
X17820047Y-8660861D01*
X17820044Y-8660858D01*
X17820042Y-8660855D01*
X17747200Y-8588013D01*
X17695790Y-8508850D01*
X17681024Y-8415620D01*
X17705455Y-8324444D01*
X17764857Y-8251088D01*
X17848961Y-8208235D01*
X17907713Y-8200500D01*
X25892287Y-8200500D01*
X25984616Y-8220125D01*
X26060981Y-8275607D01*
X26108177Y-8357353D01*
X26118043Y-8451228D01*
X26088875Y-8541000D01*
X26052800Y-8588013D01*
X25979957Y-8660855D01*
X25849433Y-8847263D01*
X25813467Y-8924393D01*
X25761632Y-9035554D01*
X25753259Y-9053509D01*
X25753259Y-9053510D01*
X25694365Y-9273306D01*
X25694365Y-9273307D01*
X25674532Y-9499998D01*
X25674532Y-9500001D01*
X25694365Y-9726692D01*
X25694365Y-9726693D01*
X25708631Y-9779934D01*
X25753261Y-9946496D01*
X25849432Y-10152734D01*
X25849433Y-10152736D01*
X25896577Y-10220065D01*
X25956776Y-10306039D01*
X25979957Y-10339144D01*
X26140855Y-10500042D01*
X26140858Y-10500044D01*
X26140861Y-10500047D01*
X26327266Y-10630568D01*
X26533504Y-10726739D01*
X26533508Y-10726740D01*
X26735021Y-10780735D01*
X26819124Y-10823588D01*
X26878527Y-10896944D01*
X26902958Y-10988119D01*
X26888192Y-11081349D01*
X26836783Y-11160513D01*
X26757619Y-11211923D01*
X26735021Y-11219265D01*
X26533508Y-11273259D01*
X26327263Y-11369433D01*
X26140855Y-11499957D01*
X25979957Y-11660855D01*
X25849433Y-11847263D01*
X25849432Y-11847266D01*
X25778211Y-12000000D01*
X25753259Y-12053509D01*
X25753259Y-12053510D01*
X25694365Y-12273306D01*
X25694365Y-12273307D01*
X25680355Y-12433447D01*
X25674532Y-12500000D01*
X25694365Y-12726692D01*
X25753261Y-12946496D01*
X25798892Y-13044351D01*
X25849433Y-13152736D01*
X25907540Y-13235722D01*
X25965500Y-13318498D01*
X25979957Y-13339144D01*
X26140855Y-13500042D01*
X26140858Y-13500044D01*
X26140861Y-13500047D01*
X26327266Y-13630568D01*
X26533504Y-13726739D01*
X26753308Y-13785635D01*
X26960166Y-13803732D01*
X26979999Y-13805468D01*
X26980000Y-13805468D01*
X26980001Y-13805468D01*
X26998238Y-13803872D01*
X27206692Y-13785635D01*
X27426496Y-13726739D01*
X27632734Y-13630568D01*
X27759862Y-13541553D01*
X27846750Y-13504671D01*
X27890064Y-13500500D01*
X28824511Y-13500500D01*
X28916840Y-13520125D01*
X28993205Y-13575607D01*
X29040401Y-13657353D01*
X29050267Y-13751228D01*
X29021099Y-13841000D01*
X28985024Y-13888013D01*
X28895723Y-13977313D01*
X28895720Y-13977316D01*
X28764652Y-14164502D01*
X28764650Y-14164506D01*
X28668072Y-14371617D01*
X28668070Y-14371622D01*
X28655107Y-14420000D01*
X29592894Y-14420000D01*
X29499901Y-14512993D01*
X29434075Y-14627007D01*
X29400000Y-14754174D01*
X29400000Y-14885826D01*
X29434075Y-15012993D01*
X29499901Y-15127007D01*
X29592993Y-15220099D01*
X29707007Y-15285925D01*
X29834174Y-15320000D01*
X29965826Y-15320000D01*
X30092993Y-15285925D01*
X30207007Y-15220099D01*
X30300000Y-15127106D01*
X30300000Y-16064890D01*
X30300001Y-16064890D01*
X30348381Y-16051928D01*
X30555496Y-15955348D01*
X30555498Y-15955347D01*
X30742689Y-15824273D01*
X30904273Y-15662689D01*
X31035347Y-15475498D01*
X31035351Y-15475492D01*
X31066768Y-15408118D01*
X31123574Y-15332733D01*
X31206131Y-15286971D01*
X31300164Y-15278744D01*
X31389413Y-15309475D01*
X31458447Y-15373850D01*
X31495329Y-15460738D01*
X31499500Y-15504052D01*
X31499500Y-18991887D01*
X31498922Y-19008082D01*
X31485394Y-19197213D01*
X31480785Y-19229269D01*
X31442209Y-19406599D01*
X31433086Y-19437670D01*
X31369666Y-19607704D01*
X31356212Y-19637164D01*
X31269242Y-19796438D01*
X31251731Y-19823686D01*
X31142972Y-19968970D01*
X31121763Y-19993446D01*
X30993446Y-20121763D01*
X30968970Y-20142972D01*
X30823686Y-20251731D01*
X30796438Y-20269242D01*
X30637164Y-20356212D01*
X30607704Y-20369666D01*
X30437670Y-20433086D01*
X30406599Y-20442209D01*
X30268277Y-20472299D01*
X30229269Y-20480785D01*
X30197213Y-20485394D01*
X30018238Y-20498195D01*
X30008080Y-20498922D01*
X29991887Y-20499500D01*
X3008113Y-20499500D01*
X2991919Y-20498922D01*
X2980833Y-20498129D01*
X2802786Y-20485394D01*
X2770730Y-20480785D01*
X2593396Y-20442208D01*
X2562329Y-20433086D01*
X2392295Y-20369666D01*
X2362835Y-20356212D01*
X2203561Y-20269242D01*
X2176313Y-20251731D01*
X2031029Y-20142972D01*
X2006553Y-20121763D01*
X1878236Y-19993446D01*
X1857027Y-19968970D01*
X1748268Y-19823686D01*
X1730757Y-19796438D01*
X1643784Y-19637158D01*
X1630336Y-19607710D01*
X1566909Y-19437659D01*
X1557793Y-19406613D01*
X1519212Y-19229257D01*
X1514605Y-19197212D01*
X1501078Y-19008081D01*
X1500500Y-18991887D01*
X1500500Y-17569999D01*
X8306767Y-17569999D01*
X8306767Y-17570000D01*
X8325679Y-17858555D01*
X8325680Y-17858563D01*
X8382096Y-18142179D01*
X8382098Y-18142187D01*
X8475048Y-18416009D01*
X8475052Y-18416018D01*
X8602949Y-18675367D01*
X8700480Y-18821332D01*
X9471537Y-18050275D01*
X9533932Y-18172731D01*
X9640329Y-18319175D01*
X9768325Y-18447171D01*
X9914769Y-18553568D01*
X10037222Y-18615961D01*
X9266165Y-19387019D01*
X9412127Y-19484547D01*
X9412130Y-19484549D01*
X9671481Y-19612447D01*
X9671490Y-19612451D01*
X9945312Y-19705401D01*
X9945320Y-19705403D01*
X10228936Y-19761819D01*
X10228944Y-19761820D01*
X10517500Y-19780733D01*
X10806055Y-19761820D01*
X10806063Y-19761819D01*
X11089679Y-19705403D01*
X11089687Y-19705401D01*
X11363509Y-19612451D01*
X11363518Y-19612447D01*
X11622869Y-19484549D01*
X11622875Y-19484545D01*
X11768833Y-19387019D01*
X11768833Y-19387018D01*
X10997777Y-18615961D01*
X11120231Y-18553568D01*
X11266675Y-18447171D01*
X11394671Y-18319175D01*
X11501068Y-18172731D01*
X11563461Y-18050276D01*
X12334518Y-18821333D01*
X12334519Y-18821333D01*
X12432045Y-18675375D01*
X12432049Y-18675369D01*
X12559947Y-18416018D01*
X12559951Y-18416009D01*
X12652901Y-18142187D01*
X12652903Y-18142179D01*
X12709319Y-17858563D01*
X12709320Y-17858555D01*
X12728233Y-17570000D01*
X12728233Y-17569999D01*
X12709320Y-17281444D01*
X12709319Y-17281436D01*
X12652903Y-16997820D01*
X12652901Y-16997812D01*
X12559951Y-16723990D01*
X12559947Y-16723981D01*
X12432049Y-16464631D01*
X12334518Y-16318666D01*
X11563461Y-17089722D01*
X11501068Y-16967269D01*
X11394671Y-16820825D01*
X11266675Y-16692829D01*
X11120231Y-16586432D01*
X10997776Y-16524037D01*
X11768832Y-15752980D01*
X11622867Y-15655449D01*
X11503178Y-15596425D01*
X12696758Y-15596425D01*
X12809325Y-15648916D01*
X12809332Y-15648919D01*
X13015188Y-15704077D01*
X13227499Y-15722653D01*
X13227501Y-15722653D01*
X13439811Y-15704077D01*
X13439812Y-15704077D01*
X13645665Y-15648919D01*
X13645666Y-15648919D01*
X13758240Y-15596425D01*
X13381816Y-15220000D01*
X28655108Y-15220000D01*
X28668070Y-15268377D01*
X28668074Y-15268386D01*
X28764648Y-15475492D01*
X28764652Y-15475498D01*
X28895726Y-15662689D01*
X29057310Y-15824273D01*
X29244501Y-15955347D01*
X29244503Y-15955348D01*
X29451618Y-16051928D01*
X29499998Y-16064890D01*
X29500000Y-16064890D01*
X29500000Y-15220000D01*
X28655108Y-15220000D01*
X13381816Y-15220000D01*
X13227501Y-15065685D01*
X13227500Y-15065685D01*
X12696758Y-15596425D01*
X11503178Y-15596425D01*
X11363518Y-15527552D01*
X11363509Y-15527548D01*
X11089687Y-15434598D01*
X11089679Y-15434596D01*
X10806063Y-15378180D01*
X10806055Y-15378179D01*
X10517500Y-15359267D01*
X10228944Y-15378179D01*
X10228936Y-15378180D01*
X9945320Y-15434596D01*
X9945312Y-15434598D01*
X9671490Y-15527548D01*
X9671482Y-15527552D01*
X9412131Y-15655450D01*
X9412128Y-15655452D01*
X9266166Y-15752980D01*
X10037223Y-16524037D01*
X9914769Y-16586432D01*
X9768325Y-16692829D01*
X9640329Y-16820825D01*
X9533932Y-16967269D01*
X9471537Y-17089723D01*
X8700480Y-16318666D01*
X8602952Y-16464628D01*
X8602950Y-16464631D01*
X8475052Y-16723982D01*
X8475048Y-16723990D01*
X8382098Y-16997812D01*
X8382096Y-16997820D01*
X8325680Y-17281436D01*
X8325679Y-17281444D01*
X8306767Y-17569999D01*
X1500500Y-17569999D01*
X1500500Y-14499998D01*
X12004847Y-14499998D01*
X12004847Y-14500001D01*
X12023422Y-14712311D01*
X12023422Y-14712312D01*
X12078582Y-14918173D01*
X12131072Y-15030741D01*
X12131073Y-15030741D01*
X12661815Y-14500000D01*
X12661815Y-14499999D01*
X12131073Y-13969257D01*
X12078581Y-14081830D01*
X12078580Y-14081831D01*
X12023422Y-14287687D01*
X12023422Y-14287688D01*
X12004847Y-14499998D01*
X1500500Y-14499998D01*
X1500500Y-3008112D01*
X1501078Y-2991918D01*
X1514605Y-2802787D01*
X1519211Y-2770744D01*
X1557794Y-2593383D01*
X1566908Y-2562343D01*
X1630338Y-2392283D01*
X1643781Y-2362846D01*
X1730762Y-2203552D01*
X1748263Y-2176319D01*
X1857030Y-2031024D01*
X1878229Y-2006560D01*
X2006560Y-1878229D01*
X2031024Y-1857030D01*
X2176319Y-1748263D01*
X2203552Y-1730762D01*
X2362846Y-1643781D01*
X2392283Y-1630338D01*
X2562343Y-1566908D01*
X2593383Y-1557794D01*
X2770744Y-1519211D01*
X2802784Y-1514605D01*
X2991919Y-1501078D01*
X3008113Y-1500500D01*
X3065892Y-1500500D01*
X29934108Y-1500500D01*
X29991887Y-1500500D01*
X30008081Y-1501078D01*
G37*
%TD.AperFunction*%
%TD*%
M02*
