%TF.GenerationSoftware,KiCad,Pcbnew,9.0.0*%
%TF.CreationDate,2025-03-07T11:18:17-05:00*%
%TF.ProjectId,current_sink,63757272-656e-4745-9f73-696e6b2e6b69,rev?*%
%TF.SameCoordinates,Original*%
%TF.FileFunction,Legend,Top*%
%TF.FilePolarity,Positive*%
%FSLAX46Y46*%
G04 Gerber Fmt 4.6, Leading zero omitted, Abs format (unit mm)*
G04 Created by KiCad (PCBNEW 9.0.0) date 2025-03-07 11:18:17*
%MOMM*%
%LPD*%
G01*
G04 APERTURE LIST*
%ADD10C,0.150000*%
%ADD11C,0.120000*%
G04 APERTURE END LIST*
D10*
X12733333Y-15554819D02*
X12400000Y-15078628D01*
X12161905Y-15554819D02*
X12161905Y-14554819D01*
X12161905Y-14554819D02*
X12542857Y-14554819D01*
X12542857Y-14554819D02*
X12638095Y-14602438D01*
X12638095Y-14602438D02*
X12685714Y-14650057D01*
X12685714Y-14650057D02*
X12733333Y-14745295D01*
X12733333Y-14745295D02*
X12733333Y-14888152D01*
X12733333Y-14888152D02*
X12685714Y-14983390D01*
X12685714Y-14983390D02*
X12638095Y-15031009D01*
X12638095Y-15031009D02*
X12542857Y-15078628D01*
X12542857Y-15078628D02*
X12161905Y-15078628D01*
X13114286Y-14650057D02*
X13161905Y-14602438D01*
X13161905Y-14602438D02*
X13257143Y-14554819D01*
X13257143Y-14554819D02*
X13495238Y-14554819D01*
X13495238Y-14554819D02*
X13590476Y-14602438D01*
X13590476Y-14602438D02*
X13638095Y-14650057D01*
X13638095Y-14650057D02*
X13685714Y-14745295D01*
X13685714Y-14745295D02*
X13685714Y-14840533D01*
X13685714Y-14840533D02*
X13638095Y-14983390D01*
X13638095Y-14983390D02*
X13066667Y-15554819D01*
X13066667Y-15554819D02*
X13685714Y-15554819D01*
X8749819Y-11133333D02*
X9464104Y-11133333D01*
X9464104Y-11133333D02*
X9606961Y-11180952D01*
X9606961Y-11180952D02*
X9702200Y-11276190D01*
X9702200Y-11276190D02*
X9749819Y-11419047D01*
X9749819Y-11419047D02*
X9749819Y-11514285D01*
X9749819Y-10133333D02*
X9749819Y-10704761D01*
X9749819Y-10419047D02*
X8749819Y-10419047D01*
X8749819Y-10419047D02*
X8892676Y-10514285D01*
X8892676Y-10514285D02*
X8987914Y-10609523D01*
X8987914Y-10609523D02*
X9035533Y-10704761D01*
X6634819Y-30131904D02*
X7444342Y-30131904D01*
X7444342Y-30131904D02*
X7539580Y-30084285D01*
X7539580Y-30084285D02*
X7587200Y-30036666D01*
X7587200Y-30036666D02*
X7634819Y-29941428D01*
X7634819Y-29941428D02*
X7634819Y-29750952D01*
X7634819Y-29750952D02*
X7587200Y-29655714D01*
X7587200Y-29655714D02*
X7539580Y-29608095D01*
X7539580Y-29608095D02*
X7444342Y-29560476D01*
X7444342Y-29560476D02*
X6634819Y-29560476D01*
X7634819Y-28560476D02*
X7634819Y-29131904D01*
X7634819Y-28846190D02*
X6634819Y-28846190D01*
X6634819Y-28846190D02*
X6777676Y-28941428D01*
X6777676Y-28941428D02*
X6872914Y-29036666D01*
X6872914Y-29036666D02*
X6920533Y-29131904D01*
X17270057Y-21305238D02*
X17222438Y-21400476D01*
X17222438Y-21400476D02*
X17127200Y-21495714D01*
X17127200Y-21495714D02*
X16984342Y-21638571D01*
X16984342Y-21638571D02*
X16936723Y-21733809D01*
X16936723Y-21733809D02*
X16936723Y-21829047D01*
X17174819Y-21781428D02*
X17127200Y-21876666D01*
X17127200Y-21876666D02*
X17031961Y-21971904D01*
X17031961Y-21971904D02*
X16841485Y-22019523D01*
X16841485Y-22019523D02*
X16508152Y-22019523D01*
X16508152Y-22019523D02*
X16317676Y-21971904D01*
X16317676Y-21971904D02*
X16222438Y-21876666D01*
X16222438Y-21876666D02*
X16174819Y-21781428D01*
X16174819Y-21781428D02*
X16174819Y-21590952D01*
X16174819Y-21590952D02*
X16222438Y-21495714D01*
X16222438Y-21495714D02*
X16317676Y-21400476D01*
X16317676Y-21400476D02*
X16508152Y-21352857D01*
X16508152Y-21352857D02*
X16841485Y-21352857D01*
X16841485Y-21352857D02*
X17031961Y-21400476D01*
X17031961Y-21400476D02*
X17127200Y-21495714D01*
X17127200Y-21495714D02*
X17174819Y-21590952D01*
X17174819Y-21590952D02*
X17174819Y-21781428D01*
X17174819Y-20400476D02*
X17174819Y-20971904D01*
X17174819Y-20686190D02*
X16174819Y-20686190D01*
X16174819Y-20686190D02*
X16317676Y-20781428D01*
X16317676Y-20781428D02*
X16412914Y-20876666D01*
X16412914Y-20876666D02*
X16460533Y-20971904D01*
X12633333Y-35954819D02*
X12300000Y-35478628D01*
X12061905Y-35954819D02*
X12061905Y-34954819D01*
X12061905Y-34954819D02*
X12442857Y-34954819D01*
X12442857Y-34954819D02*
X12538095Y-35002438D01*
X12538095Y-35002438D02*
X12585714Y-35050057D01*
X12585714Y-35050057D02*
X12633333Y-35145295D01*
X12633333Y-35145295D02*
X12633333Y-35288152D01*
X12633333Y-35288152D02*
X12585714Y-35383390D01*
X12585714Y-35383390D02*
X12538095Y-35431009D01*
X12538095Y-35431009D02*
X12442857Y-35478628D01*
X12442857Y-35478628D02*
X12061905Y-35478628D01*
X13585714Y-35954819D02*
X13014286Y-35954819D01*
X13300000Y-35954819D02*
X13300000Y-34954819D01*
X13300000Y-34954819D02*
X13204762Y-35097676D01*
X13204762Y-35097676D02*
X13109524Y-35192914D01*
X13109524Y-35192914D02*
X13014286Y-35240533D01*
X7730057Y-21285238D02*
X7682438Y-21380476D01*
X7682438Y-21380476D02*
X7587200Y-21475714D01*
X7587200Y-21475714D02*
X7444342Y-21618571D01*
X7444342Y-21618571D02*
X7396723Y-21713809D01*
X7396723Y-21713809D02*
X7396723Y-21809047D01*
X7634819Y-21761428D02*
X7587200Y-21856666D01*
X7587200Y-21856666D02*
X7491961Y-21951904D01*
X7491961Y-21951904D02*
X7301485Y-21999523D01*
X7301485Y-21999523D02*
X6968152Y-21999523D01*
X6968152Y-21999523D02*
X6777676Y-21951904D01*
X6777676Y-21951904D02*
X6682438Y-21856666D01*
X6682438Y-21856666D02*
X6634819Y-21761428D01*
X6634819Y-21761428D02*
X6634819Y-21570952D01*
X6634819Y-21570952D02*
X6682438Y-21475714D01*
X6682438Y-21475714D02*
X6777676Y-21380476D01*
X6777676Y-21380476D02*
X6968152Y-21332857D01*
X6968152Y-21332857D02*
X7301485Y-21332857D01*
X7301485Y-21332857D02*
X7491961Y-21380476D01*
X7491961Y-21380476D02*
X7587200Y-21475714D01*
X7587200Y-21475714D02*
X7634819Y-21570952D01*
X7634819Y-21570952D02*
X7634819Y-21761428D01*
X6730057Y-20951904D02*
X6682438Y-20904285D01*
X6682438Y-20904285D02*
X6634819Y-20809047D01*
X6634819Y-20809047D02*
X6634819Y-20570952D01*
X6634819Y-20570952D02*
X6682438Y-20475714D01*
X6682438Y-20475714D02*
X6730057Y-20428095D01*
X6730057Y-20428095D02*
X6825295Y-20380476D01*
X6825295Y-20380476D02*
X6920533Y-20380476D01*
X6920533Y-20380476D02*
X7063390Y-20428095D01*
X7063390Y-20428095D02*
X7634819Y-20999523D01*
X7634819Y-20999523D02*
X7634819Y-20380476D01*
D11*
%TO.C,R2*%
X8860000Y-15100000D02*
X9630000Y-15100000D01*
X9630000Y-13730000D02*
X9630000Y-16470000D01*
X9630000Y-16470000D02*
X16170000Y-16470000D01*
X16170000Y-13730000D02*
X9630000Y-13730000D01*
X16170000Y-16470000D02*
X16170000Y-13730000D01*
X16940000Y-15100000D02*
X16170000Y-15100000D01*
%TO.C,J1*%
X10295000Y-12130000D02*
X10295000Y-10800000D01*
X11625000Y-12130000D02*
X10295000Y-12130000D01*
X12895000Y-9470000D02*
X15495000Y-9470000D01*
X12895000Y-12130000D02*
X12895000Y-9470000D01*
X12895000Y-12130000D02*
X15495000Y-12130000D01*
X15495000Y-12130000D02*
X15495000Y-9470000D01*
%TO.C,U1*%
X13220000Y-31180000D02*
X13220000Y-27580000D01*
X9020000Y-28270000D02*
G75*
G02*
X10271629Y-27024542I2350000J-1110000D01*
G01*
X10266158Y-31747199D02*
G75*
G02*
X9020000Y-30520000I1103842J2367199D01*
G01*
X12492795Y-27055816D02*
G75*
G02*
X13220000Y-27580000I-1122795J-2324184D01*
G01*
X13220000Y-31180000D02*
G75*
G02*
X12492795Y-31704184I-1850000J1800000D01*
G01*
%TO.C,J2*%
X2470000Y-9470000D02*
X3800000Y-9470000D01*
X2470000Y-10800000D02*
X2470000Y-9470000D01*
X2470000Y-12070000D02*
X2470000Y-19750000D01*
X2470000Y-12070000D02*
X5130000Y-12070000D01*
X2470000Y-19750000D02*
X5130000Y-19750000D01*
X5130000Y-12070000D02*
X5130000Y-19750000D01*
%TO.C,Q1*%
X13580000Y-19400000D02*
X13580000Y-23000000D01*
X13580000Y-19400000D02*
G75*
G02*
X14307205Y-18875816I1850000J-1800000D01*
G01*
X14307205Y-23524184D02*
G75*
G02*
X13580000Y-23000000I1122795J2324184D01*
G01*
X16533842Y-18832801D02*
G75*
G02*
X17780000Y-20060000I-1103842J-2367199D01*
G01*
X17780000Y-22310000D02*
G75*
G02*
X16528371Y-23555458I-2350000J1110000D01*
G01*
%TO.C,R1*%
X8760000Y-35500000D02*
X9530000Y-35500000D01*
X9530000Y-34130000D02*
X9530000Y-36870000D01*
X9530000Y-36870000D02*
X16070000Y-36870000D01*
X16070000Y-34130000D02*
X9530000Y-34130000D01*
X16070000Y-36870000D02*
X16070000Y-34130000D01*
X16840000Y-35500000D02*
X16070000Y-35500000D01*
%TO.C,J3*%
X2470000Y-34230000D02*
X2470000Y-26550000D01*
X5130000Y-26550000D02*
X2470000Y-26550000D01*
X5130000Y-34230000D02*
X2470000Y-34230000D01*
X5130000Y-34230000D02*
X5130000Y-26550000D01*
X5130000Y-35500000D02*
X5130000Y-36830000D01*
X5130000Y-36830000D02*
X3800000Y-36830000D01*
%TO.C,Q2*%
X13220000Y-23000000D02*
X13220000Y-19400000D01*
X9020000Y-20090000D02*
G75*
G02*
X10271629Y-18844542I2350000J-1110000D01*
G01*
X10266158Y-23567199D02*
G75*
G02*
X9020000Y-22340000I1103842J2367199D01*
G01*
X12492795Y-18875816D02*
G75*
G02*
X13220000Y-19400000I-1122795J-2324184D01*
G01*
X13220000Y-23000000D02*
G75*
G02*
X12492795Y-23524184I-1850000J1800000D01*
G01*
%TD*%
M02*
