%TF.GenerationSoftware,KiCad,Pcbnew,8.0.6*%
%TF.CreationDate,2024-12-21T12:39:34-05:00*%
%TF.ProjectId,photointerrupter_breakout,70686f74-6f69-46e7-9465-727275707465,rev?*%
%TF.SameCoordinates,PX7c745a0PY4ead9a0*%
%TF.FileFunction,Legend,Top*%
%TF.FilePolarity,Positive*%
%FSLAX46Y46*%
G04 Gerber Fmt 4.6, Leading zero omitted, Abs format (unit mm)*
G04 Created by KiCad (PCBNEW 8.0.6) date 2024-12-21 12:39:34*
%MOMM*%
%LPD*%
G01*
G04 APERTURE LIST*
%ADD10C,0.285714*%
%ADD11C,0.150000*%
%ADD12C,0.120000*%
%ADD13C,0.360000*%
G04 APERTURE END LIST*
D10*
X10370380Y-19383459D02*
X10370380Y-20335840D01*
X10370380Y-20335840D02*
X11322761Y-20431078D01*
X11322761Y-20431078D02*
X11227522Y-20335840D01*
X11227522Y-20335840D02*
X11132284Y-20145364D01*
X11132284Y-20145364D02*
X11132284Y-19669173D01*
X11132284Y-19669173D02*
X11227522Y-19478697D01*
X11227522Y-19478697D02*
X11322761Y-19383459D01*
X11322761Y-19383459D02*
X11513237Y-19288221D01*
X11513237Y-19288221D02*
X11989427Y-19288221D01*
X11989427Y-19288221D02*
X12179903Y-19383459D01*
X12179903Y-19383459D02*
X12275142Y-19478697D01*
X12275142Y-19478697D02*
X12370380Y-19669173D01*
X12370380Y-19669173D02*
X12370380Y-20145364D01*
X12370380Y-20145364D02*
X12275142Y-20335840D01*
X12275142Y-20335840D02*
X12179903Y-20431078D01*
X10370380Y-18716792D02*
X12370380Y-18050126D01*
X12370380Y-18050126D02*
X10370380Y-17383459D01*
X13410380Y-19954888D02*
X13410380Y-19573935D01*
X13410380Y-19573935D02*
X13505618Y-19383459D01*
X13505618Y-19383459D02*
X13696094Y-19192983D01*
X13696094Y-19192983D02*
X14077046Y-19097745D01*
X14077046Y-19097745D02*
X14743713Y-19097745D01*
X14743713Y-19097745D02*
X15124665Y-19192983D01*
X15124665Y-19192983D02*
X15315142Y-19383459D01*
X15315142Y-19383459D02*
X15410380Y-19573935D01*
X15410380Y-19573935D02*
X15410380Y-19954888D01*
X15410380Y-19954888D02*
X15315142Y-20145364D01*
X15315142Y-20145364D02*
X15124665Y-20335840D01*
X15124665Y-20335840D02*
X14743713Y-20431078D01*
X14743713Y-20431078D02*
X14077046Y-20431078D01*
X14077046Y-20431078D02*
X13696094Y-20335840D01*
X13696094Y-20335840D02*
X13505618Y-20145364D01*
X13505618Y-20145364D02*
X13410380Y-19954888D01*
X13410380Y-18240602D02*
X15029427Y-18240602D01*
X15029427Y-18240602D02*
X15219903Y-18145364D01*
X15219903Y-18145364D02*
X15315142Y-18050126D01*
X15315142Y-18050126D02*
X15410380Y-17859650D01*
X15410380Y-17859650D02*
X15410380Y-17478697D01*
X15410380Y-17478697D02*
X15315142Y-17288221D01*
X15315142Y-17288221D02*
X15219903Y-17192983D01*
X15219903Y-17192983D02*
X15029427Y-17097745D01*
X15029427Y-17097745D02*
X13410380Y-17097745D01*
X13410380Y-16431078D02*
X13410380Y-15288221D01*
X15410380Y-15859650D02*
X13410380Y-15859650D01*
X16545618Y-19288221D02*
X16450380Y-19478697D01*
X16450380Y-19478697D02*
X16450380Y-19764411D01*
X16450380Y-19764411D02*
X16545618Y-20050126D01*
X16545618Y-20050126D02*
X16736094Y-20240602D01*
X16736094Y-20240602D02*
X16926570Y-20335840D01*
X16926570Y-20335840D02*
X17307522Y-20431078D01*
X17307522Y-20431078D02*
X17593237Y-20431078D01*
X17593237Y-20431078D02*
X17974189Y-20335840D01*
X17974189Y-20335840D02*
X18164665Y-20240602D01*
X18164665Y-20240602D02*
X18355142Y-20050126D01*
X18355142Y-20050126D02*
X18450380Y-19764411D01*
X18450380Y-19764411D02*
X18450380Y-19573935D01*
X18450380Y-19573935D02*
X18355142Y-19288221D01*
X18355142Y-19288221D02*
X18259903Y-19192983D01*
X18259903Y-19192983D02*
X17593237Y-19192983D01*
X17593237Y-19192983D02*
X17593237Y-19573935D01*
X18450380Y-18335840D02*
X16450380Y-18335840D01*
X16450380Y-18335840D02*
X18450380Y-17192983D01*
X18450380Y-17192983D02*
X16450380Y-17192983D01*
X18450380Y-16240602D02*
X16450380Y-16240602D01*
X16450380Y-16240602D02*
X16450380Y-15764412D01*
X16450380Y-15764412D02*
X16545618Y-15478697D01*
X16545618Y-15478697D02*
X16736094Y-15288221D01*
X16736094Y-15288221D02*
X16926570Y-15192983D01*
X16926570Y-15192983D02*
X17307522Y-15097745D01*
X17307522Y-15097745D02*
X17593237Y-15097745D01*
X17593237Y-15097745D02*
X17974189Y-15192983D01*
X17974189Y-15192983D02*
X18164665Y-15288221D01*
X18164665Y-15288221D02*
X18355142Y-15478697D01*
X18355142Y-15478697D02*
X18450380Y-15764412D01*
X18450380Y-15764412D02*
X18450380Y-16240602D01*
D11*
X8919279Y-5767319D02*
X8919279Y-6576842D01*
X8919279Y-6576842D02*
X8966898Y-6672080D01*
X8966898Y-6672080D02*
X9014517Y-6719700D01*
X9014517Y-6719700D02*
X9109755Y-6767319D01*
X9109755Y-6767319D02*
X9300231Y-6767319D01*
X9300231Y-6767319D02*
X9395469Y-6719700D01*
X9395469Y-6719700D02*
X9443088Y-6672080D01*
X9443088Y-6672080D02*
X9490707Y-6576842D01*
X9490707Y-6576842D02*
X9490707Y-5767319D01*
X10490707Y-6767319D02*
X9919279Y-6767319D01*
X10204993Y-6767319D02*
X10204993Y-5767319D01*
X10204993Y-5767319D02*
X10109755Y-5910176D01*
X10109755Y-5910176D02*
X10014517Y-6005414D01*
X10014517Y-6005414D02*
X9919279Y-6053033D01*
D12*
%TO.C,J1*%
X10645000Y-24330000D02*
X10645000Y-23000000D01*
X11975000Y-24330000D02*
X10645000Y-24330000D01*
X13245000Y-21670000D02*
X18385000Y-21670000D01*
X13245000Y-24330000D02*
X13245000Y-21670000D01*
X13245000Y-24330000D02*
X18385000Y-24330000D01*
X18385000Y-24330000D02*
X18385000Y-21670000D01*
%TO.C,U1*%
X7702500Y-7202500D02*
X7702500Y-9082500D01*
X7702500Y-7202500D02*
X9582500Y-7202500D01*
X7962500Y-7462500D02*
X21202500Y-7462500D01*
X7962500Y-13702500D02*
X7962500Y-7462500D01*
X10882500Y-10082500D02*
X11382500Y-11082500D01*
X11382500Y-10082500D02*
X11382500Y-9082500D01*
X11382500Y-11082500D02*
X11382500Y-12082500D01*
X11382500Y-11082500D02*
X11882500Y-10082500D01*
X11882500Y-10082500D02*
X10882500Y-10082500D01*
X11882500Y-11082500D02*
X10882500Y-11082500D01*
X12202500Y-13682500D02*
X12202500Y-7462500D01*
X16962500Y-13682500D02*
X16962500Y-7462500D01*
X21202500Y-7462500D02*
X21202500Y-13702500D01*
X21202500Y-13702500D02*
X7962500Y-13702500D01*
D13*
X18012500Y-11852500D02*
G75*
G02*
X17652500Y-11852500I-180000J0D01*
G01*
X17652500Y-11852500D02*
G75*
G02*
X18012500Y-11852500I180000J0D01*
G01*
%TD*%
M02*
