%TF.GenerationSoftware,KiCad,Pcbnew,8.0.1*%
%TF.CreationDate,2024-04-20T17:27:10-04:00*%
%TF.ProjectId,ideal_diode,69646561-6c5f-4646-996f-64652e6b6963,rev?*%
%TF.SameCoordinates,PX8c61800PY5bbe540*%
%TF.FileFunction,Copper,L2,Bot*%
%TF.FilePolarity,Positive*%
%FSLAX46Y46*%
G04 Gerber Fmt 4.6, Leading zero omitted, Abs format (unit mm)*
G04 Created by KiCad (PCBNEW 8.0.1) date 2024-04-20 17:27:10*
%MOMM*%
%LPD*%
G01*
G04 APERTURE LIST*
G04 Aperture macros list*
%AMRoundRect*
0 Rectangle with rounded corners*
0 $1 Rounding radius*
0 $2 $3 $4 $5 $6 $7 $8 $9 X,Y pos of 4 corners*
0 Add a 4 corners polygon primitive as box body*
4,1,4,$2,$3,$4,$5,$6,$7,$8,$9,$2,$3,0*
0 Add four circle primitives for the rounded corners*
1,1,$1+$1,$2,$3*
1,1,$1+$1,$4,$5*
1,1,$1+$1,$6,$7*
1,1,$1+$1,$8,$9*
0 Add four rect primitives between the rounded corners*
20,1,$1+$1,$2,$3,$4,$5,0*
20,1,$1+$1,$4,$5,$6,$7,0*
20,1,$1+$1,$6,$7,$8,$9,0*
20,1,$1+$1,$8,$9,$2,$3,0*%
G04 Aperture macros list end*
%TA.AperFunction,ComponentPad*%
%ADD10R,1.700000X1.700000*%
%TD*%
%TA.AperFunction,ComponentPad*%
%ADD11O,1.700000X1.700000*%
%TD*%
%TA.AperFunction,SMDPad,CuDef*%
%ADD12RoundRect,0.250000X0.350000X0.450000X-0.350000X0.450000X-0.350000X-0.450000X0.350000X-0.450000X0*%
%TD*%
%TA.AperFunction,SMDPad,CuDef*%
%ADD13RoundRect,0.200000X-0.750000X-0.200000X0.750000X-0.200000X0.750000X0.200000X-0.750000X0.200000X0*%
%TD*%
%TA.AperFunction,SMDPad,CuDef*%
%ADD14RoundRect,0.200000X0.750000X0.200000X-0.750000X0.200000X-0.750000X-0.200000X0.750000X-0.200000X0*%
%TD*%
%TA.AperFunction,Conductor*%
%ADD15C,0.800000*%
%TD*%
G04 APERTURE END LIST*
D10*
%TO.P,J4,1,Pin_1*%
%TO.N,GND*%
X20580000Y-11420000D03*
D11*
%TO.P,J4,2,Pin_2*%
X20580000Y-13960000D03*
%TD*%
%TO.P,J3,2,Pin_2*%
%TO.N,/Vout*%
X20580000Y-6340000D03*
D10*
%TO.P,J3,1,Pin_1*%
X20580000Y-3800000D03*
%TD*%
%TO.P,J2,1,Pin_1*%
%TO.N,GND*%
X2800000Y-11420000D03*
D11*
%TO.P,J2,2,Pin_2*%
X2800000Y-13960000D03*
%TD*%
%TO.P,J1,2,Pin_2*%
%TO.N,/Vin*%
X2800000Y-6340000D03*
D10*
%TO.P,J1,1,Pin_1*%
X2800000Y-3800000D03*
%TD*%
D12*
%TO.P,R2,1*%
%TO.N,Net-(Q1-G)*%
X16800000Y-11400000D03*
%TO.P,R2,2*%
%TO.N,GND*%
X14800000Y-11400000D03*
%TD*%
%TO.P,R1,1*%
%TO.N,Net-(Q2-B)*%
X9700000Y-11400000D03*
%TO.P,R1,2*%
%TO.N,GND*%
X7700000Y-11400000D03*
%TD*%
D13*
%TO.P,Q3,1,B*%
%TO.N,Net-(Q2-B)*%
X13800000Y-9350000D03*
%TO.P,Q3,2,E*%
%TO.N,/Vout*%
X13800000Y-7450000D03*
%TO.P,Q3,3,C*%
%TO.N,Net-(Q1-G)*%
X16800000Y-8400000D03*
%TD*%
%TO.P,Q2,1,B*%
%TO.N,Net-(Q2-B)*%
X6700000Y-9350000D03*
%TO.P,Q2,2,E*%
%TO.N,/Vin*%
X6700000Y-7450000D03*
%TO.P,Q2,3,C*%
%TO.N,Net-(Q2-B)*%
X9700000Y-8400000D03*
%TD*%
D14*
%TO.P,Q1,1,G*%
%TO.N,Net-(Q1-G)*%
X13190000Y-3450000D03*
%TO.P,Q1,2,S*%
%TO.N,/Vout*%
X13190000Y-5350000D03*
%TO.P,Q1,3,D*%
%TO.N,/Vin*%
X10190000Y-4400000D03*
%TD*%
D15*
%TO.N,Net-(Q1-G)*%
X16800000Y-8400000D02*
X21400000Y-8400000D01*
X21400000Y-8400000D02*
X22378157Y-7421843D01*
X22378157Y-7421843D02*
X22378157Y-2178157D01*
X22378157Y-2178157D02*
X22200000Y-2000000D01*
X22200000Y-2000000D02*
X14640000Y-2000000D01*
X14640000Y-2000000D02*
X13190000Y-3450000D01*
%TO.N,GND*%
X20580000Y-13960000D02*
X15200000Y-13960000D01*
X15200000Y-13960000D02*
X2800000Y-13960000D01*
X14800000Y-11400000D02*
X14800000Y-13560000D01*
X14800000Y-13560000D02*
X15200000Y-13960000D01*
X7700000Y-11400000D02*
X2820000Y-11400000D01*
X2820000Y-11400000D02*
X2800000Y-11420000D01*
X2800000Y-13960000D02*
X2800000Y-11420000D01*
%TO.N,/Vout*%
X13190000Y-6840000D02*
X13800000Y-7450000D01*
X14910000Y-6340000D02*
X13800000Y-7450000D01*
X13190000Y-5350000D02*
X13190000Y-6840000D01*
X20580000Y-6340000D02*
X14910000Y-6340000D01*
X20580000Y-3800000D02*
X20580000Y-6340000D01*
%TO.N,/Vin*%
X6700000Y-7450000D02*
X7140000Y-7450000D01*
X6700000Y-7450000D02*
X3910000Y-7450000D01*
X2800000Y-3800000D02*
X2800000Y-6340000D01*
X7140000Y-7450000D02*
X10190000Y-4400000D01*
X3910000Y-7450000D02*
X2800000Y-6340000D01*
%TO.N,GND*%
X20580000Y-11420000D02*
X20580000Y-13960000D01*
%TO.N,Net-(Q2-B)*%
X6700000Y-9350000D02*
X8750000Y-9350000D01*
X8750000Y-9350000D02*
X9700000Y-8400000D01*
X13800000Y-9350000D02*
X10650000Y-9350000D01*
X9700000Y-8400000D02*
X9700000Y-11400000D01*
X10650000Y-9350000D02*
X9700000Y-8400000D01*
%TO.N,Net-(Q1-G)*%
X16800000Y-11400000D02*
X16800000Y-8400000D01*
%TD*%
M02*
