M48
; DRILL file {KiCad 8.0.2} date 2024-05-09T08:54:59-0400
; FORMAT={-:-/ absolute / inch / decimal}
; #@! TF.CreationDate,2024-05-09T08:54:59-04:00
; #@! TF.GenerationSoftware,Kicad,Pcbnew,8.0.2
; #@! TF.FileFunction,MixedPlating,1,2
FMAT,2
INCH
; #@! TA.AperFunction,Plated,PTH,ViaDrill
T1C0.0315
; #@! TA.AperFunction,Plated,PTH,ComponentDrill
T2C0.0315
; #@! TA.AperFunction,Plated,PTH,ComponentDrill
T3C0.0394
; #@! TA.AperFunction,Plated,PTH,ComponentDrill
T4C0.0472
; #@! TA.AperFunction,Plated,PTH,ComponentDrill
T5C0.0512
; #@! TA.AperFunction,Plated,PTH,ComponentDrill
T6C0.1260
%
G90
G05
T1
X1.2087Y-0.4882
X1.7992Y-0.4882
X2.1496Y-0.5591
X2.1496Y-0.9567
T2
X1.128Y-1.2323
X1.2087Y-0.5768
X1.2087Y-1.0768
X1.374Y-0.6772
X1.374Y-0.874
X1.5276Y-0.6774
X1.5276Y-0.9774
X1.6276Y-0.6774
X1.6276Y-0.9774
X1.628Y-1.2323
X1.7276Y-0.6774
X1.7276Y-0.9774
X1.75Y-1.2323
X1.8276Y-0.6774
X1.8276Y-0.9774
X2.0197Y-0.7795
X2.0197Y-0.9764
X2.25Y-1.2323
T3
X0.1703Y-0.6142
X0.1703Y-0.9961
X0.1703Y-1.378
X0.2703Y-0.6142
X0.2703Y-0.9961
X0.2703Y-1.378
X1.0305Y-1.4173
X1.1305Y-1.4173
X1.2305Y-1.4173
X1.463Y-0.2333
X1.5472Y-1.7923
X1.5472Y-1.8923
X1.563Y-0.2333
X1.663Y-0.2333
X1.9104Y-0.2307
X1.9104Y-0.3307
X1.9104Y-0.4307
T4
X0.6772Y-0.6132
X0.6772Y-0.8101
X0.6772Y-1.1802
X0.6772Y-1.377
X0.8346Y-1.8425
X1.0315Y-1.8425
X1.2283Y-1.8425
X1.8661Y-1.8425
X2.063Y-1.8425
X2.2598Y-1.8425
X2.7795Y-1.0354
X2.7795Y-1.2323
X2.7795Y-1.4291
T5
X2.2664Y-0.3097
X2.4633Y-0.3097
T6
X0.1969Y-0.1969
X0.1969Y-1.9016
X2.8386Y-0.1969
X2.8386Y-1.9016
M30
