%TF.GenerationSoftware,KiCad,Pcbnew,8.0.1*%
%TF.CreationDate,2024-04-13T16:01:53-04:00*%
%TF.ProjectId,xtal_tester,7874616c-5f74-4657-9374-65722e6b6963,rev?*%
%TF.SameCoordinates,PX6bc3e40PY51bada0*%
%TF.FileFunction,Copper,L2,Bot*%
%TF.FilePolarity,Positive*%
%FSLAX46Y46*%
G04 Gerber Fmt 4.6, Leading zero omitted, Abs format (unit mm)*
G04 Created by KiCad (PCBNEW 8.0.1) date 2024-04-13 16:01:53*
%MOMM*%
%LPD*%
G01*
G04 APERTURE LIST*
%TA.AperFunction,ComponentPad*%
%ADD10C,1.600000*%
%TD*%
%TA.AperFunction,ComponentPad*%
%ADD11O,1.600000X1.600000*%
%TD*%
%TA.AperFunction,ComponentPad*%
%ADD12R,1.800000X1.800000*%
%TD*%
%TA.AperFunction,ComponentPad*%
%ADD13C,1.800000*%
%TD*%
%TA.AperFunction,ComponentPad*%
%ADD14C,1.500000*%
%TD*%
%TA.AperFunction,ComponentPad*%
%ADD15R,1.700000X1.700000*%
%TD*%
%TA.AperFunction,ComponentPad*%
%ADD16O,1.700000X1.700000*%
%TD*%
%TA.AperFunction,ComponentPad*%
%ADD17R,1.600000X1.600000*%
%TD*%
%TA.AperFunction,ComponentPad*%
%ADD18R,1.500000X1.500000*%
%TD*%
%TA.AperFunction,Conductor*%
%ADD19C,0.800000*%
%TD*%
G04 APERTURE END LIST*
D10*
%TO.P,C2,1*%
%TO.N,Net-(Q1-E)*%
X16800000Y-24500000D03*
%TO.P,C2,2*%
%TO.N,GND*%
X16800000Y-29500000D03*
%TD*%
%TO.P,C1,1*%
%TO.N,Net-(Q1-B)*%
X11800000Y-16400000D03*
%TO.P,C1,2*%
%TO.N,Net-(Q1-E)*%
X11800000Y-21400000D03*
%TD*%
%TO.P,C4,1*%
%TO.N,Net-(D3-K)*%
X37100000Y-24750000D03*
D11*
%TO.P,C4,2*%
%TO.N,GND*%
X37100000Y-32250000D03*
%TD*%
D12*
%TO.P,D1,1,K*%
%TO.N,Net-(D1-K)*%
X42640000Y-13700000D03*
D13*
%TO.P,D1,2,A*%
%TO.N,VCC*%
X40100000Y-13700000D03*
%TD*%
D14*
%TO.P,Y1,1,1*%
%TO.N,GND*%
X4800000Y-21250000D03*
%TO.P,Y1,2,2*%
%TO.N,Net-(Q1-B)*%
X4800000Y-16350000D03*
%TD*%
D10*
%TO.P,R2,1*%
%TO.N,Net-(Q1-E)*%
X21100000Y-24520000D03*
D11*
%TO.P,R2,2*%
%TO.N,GND*%
X21100000Y-34680000D03*
%TD*%
D15*
%TO.P,J1,1,Pin_1*%
%TO.N,VCC*%
X2800000Y-9800000D03*
D16*
%TO.P,J1,2,Pin_2*%
X5340000Y-9800000D03*
%TO.P,J1,3,Pin_3*%
X7880000Y-9800000D03*
%TO.P,J1,4,Pin_4*%
X10420000Y-9800000D03*
%TD*%
D15*
%TO.P,J2,1,Pin_1*%
%TO.N,GND*%
X2800000Y-27800000D03*
D16*
%TO.P,J2,2,Pin_2*%
X5340000Y-27800000D03*
%TO.P,J2,3,Pin_3*%
X7880000Y-27800000D03*
%TO.P,J2,4,Pin_4*%
X10420000Y-27800000D03*
%TD*%
D17*
%TO.P,D3,1,K*%
%TO.N,Net-(D3-K)*%
X37110000Y-21400000D03*
D11*
%TO.P,D3,2,A*%
%TO.N,Net-(D2-K)*%
X29490000Y-21400000D03*
%TD*%
D10*
%TO.P,C3,1*%
%TO.N,Net-(Q1-E)*%
X21100000Y-21400000D03*
%TO.P,C3,2*%
%TO.N,Net-(D2-K)*%
X26100000Y-21400000D03*
%TD*%
D17*
%TO.P,D2,1,K*%
%TO.N,Net-(D2-K)*%
X26100000Y-24990000D03*
D11*
%TO.P,D2,2,A*%
%TO.N,GND*%
X26100000Y-32610000D03*
%TD*%
D15*
%TO.P,J3,1,Pin_1*%
%TO.N,Net-(D2-K)*%
X24420000Y-13100000D03*
D16*
%TO.P,J3,2,Pin_2*%
X26960000Y-13100000D03*
%TO.P,J3,3,Pin_3*%
X29500000Y-13100000D03*
%TO.P,J3,4,Pin_4*%
X32040000Y-13100000D03*
%TD*%
D18*
%TO.P,Q2,1,E*%
%TO.N,GND*%
X42400000Y-26440000D03*
D14*
%TO.P,Q2,2,C*%
%TO.N,Net-(Q2-C)*%
X42400000Y-23900000D03*
%TO.P,Q2,3,B*%
%TO.N,Net-(D3-K)*%
X42400000Y-21360000D03*
%TD*%
D18*
%TO.P,Q1,1,E*%
%TO.N,Net-(Q1-E)*%
X16760000Y-21440000D03*
D14*
%TO.P,Q1,2,C*%
%TO.N,VCC*%
X16760000Y-18900000D03*
%TO.P,Q1,3,B*%
%TO.N,Net-(Q1-B)*%
X16760000Y-16360000D03*
%TD*%
D10*
%TO.P,R1,1*%
%TO.N,VCC*%
X16700000Y-3020000D03*
D11*
%TO.P,R1,2*%
%TO.N,Net-(Q1-B)*%
X16700000Y-13180000D03*
%TD*%
D10*
%TO.P,R3,1*%
%TO.N,Net-(D1-K)*%
X47000000Y-13720000D03*
D11*
%TO.P,R3,2*%
%TO.N,Net-(Q2-C)*%
X47000000Y-23880000D03*
%TD*%
D19*
%TO.N,VCC*%
X40100000Y-13700000D02*
X40100000Y-6000000D01*
X40100000Y-6000000D02*
X37120000Y-3020000D01*
X37120000Y-3020000D02*
X16700000Y-3020000D01*
%TO.N,Net-(D1-K)*%
X42640000Y-13700000D02*
X46980000Y-13700000D01*
X46980000Y-13700000D02*
X47000000Y-13720000D01*
%TO.N,Net-(Q1-E)*%
X16760000Y-21440000D02*
X11840000Y-21440000D01*
X11840000Y-21440000D02*
X11800000Y-21400000D01*
X16800000Y-24500000D02*
X16800000Y-21480000D01*
X16800000Y-21480000D02*
X16760000Y-21440000D01*
X16800000Y-24500000D02*
X21080000Y-24500000D01*
X21080000Y-24500000D02*
X21100000Y-24520000D01*
X21100000Y-24520000D02*
X21100000Y-21400000D01*
%TO.N,Net-(D2-K)*%
X26100000Y-21400000D02*
X26100000Y-24990000D01*
X26100000Y-21400000D02*
X29490000Y-21400000D01*
X26960000Y-13100000D02*
X24420000Y-13100000D01*
X26960000Y-13100000D02*
X29500000Y-13100000D01*
X29500000Y-13100000D02*
X32040000Y-13100000D01*
X29490000Y-21400000D02*
X29490000Y-13110000D01*
X29490000Y-13110000D02*
X29500000Y-13100000D01*
%TO.N,Net-(D3-K)*%
X37110000Y-21400000D02*
X37110000Y-24740000D01*
X37110000Y-24740000D02*
X37100000Y-24750000D01*
X42400000Y-21360000D02*
X37150000Y-21360000D01*
X37150000Y-21360000D02*
X37110000Y-21400000D01*
%TO.N,Net-(Q2-C)*%
X42400000Y-23900000D02*
X46980000Y-23900000D01*
X46980000Y-23900000D02*
X47000000Y-23880000D01*
%TO.N,GND*%
X37100000Y-32250000D02*
X41650000Y-32250000D01*
X41650000Y-32250000D02*
X42400000Y-31500000D01*
X42400000Y-31500000D02*
X42400000Y-26440000D01*
X26100000Y-32610000D02*
X36740000Y-32610000D01*
X36740000Y-32610000D02*
X37100000Y-32250000D01*
X21100000Y-34680000D02*
X24920000Y-34680000D01*
X24920000Y-34680000D02*
X26100000Y-33500000D01*
X26100000Y-33500000D02*
X26100000Y-32610000D01*
X21100000Y-34680000D02*
X18080000Y-34680000D01*
X18080000Y-34680000D02*
X16800000Y-33400000D01*
X16800000Y-33400000D02*
X16800000Y-29500000D01*
X16800000Y-29500000D02*
X12120000Y-29500000D01*
X12120000Y-29500000D02*
X10420000Y-27800000D01*
X7880000Y-27800000D02*
X10420000Y-27800000D01*
X5340000Y-27800000D02*
X7880000Y-27800000D01*
X2800000Y-27800000D02*
X5340000Y-27800000D01*
X4800000Y-21250000D02*
X4800000Y-25800000D01*
X4800000Y-25800000D02*
X2800000Y-27800000D01*
%TO.N,VCC*%
X10420000Y-9800000D02*
X14900000Y-9800000D01*
X14900000Y-9800000D02*
X16700000Y-8000000D01*
X16700000Y-8000000D02*
X16700000Y-3020000D01*
X7880000Y-9800000D02*
X10420000Y-9800000D01*
X5340000Y-9800000D02*
X7880000Y-9800000D01*
X2800000Y-9800000D02*
X5340000Y-9800000D01*
X16760000Y-18900000D02*
X19700000Y-15960000D01*
X19700000Y-15960000D02*
X19700000Y-6020000D01*
X19700000Y-6020000D02*
X16700000Y-3020000D01*
%TO.N,Net-(Q1-B)*%
X16760000Y-16360000D02*
X16760000Y-13240000D01*
X16760000Y-13240000D02*
X16700000Y-13180000D01*
X11800000Y-16400000D02*
X16720000Y-16400000D01*
X16720000Y-16400000D02*
X16760000Y-16360000D01*
X4800000Y-16350000D02*
X11750000Y-16350000D01*
X11750000Y-16350000D02*
X11800000Y-16400000D01*
%TD*%
M02*
