M48
; DRILL file {KiCad 8.0.1} date 2024-04-13T16:01:55-0400
; FORMAT={-:-/ absolute / inch / decimal}
; #@! TF.CreationDate,2024-04-13T16:01:55-04:00
; #@! TF.GenerationSoftware,Kicad,Pcbnew,8.0.1
; #@! TF.FileFunction,MixedPlating,1,2
FMAT,2
INCH
; #@! TA.AperFunction,Plated,PTH,ComponentDrill
T1C0.0315
; #@! TA.AperFunction,Plated,PTH,ComponentDrill
T2C0.0354
; #@! TA.AperFunction,Plated,PTH,ComponentDrill
T3C0.0394
; #@! TA.AperFunction,NonPlated,NPTH,ComponentDrill
T4C0.1260
%
G90
G05
T1
X0.189Y-0.6437
X0.189Y-0.8366
X0.4646Y-0.6457
X0.4646Y-0.8425
X0.6575Y-0.1189
X0.6575Y-0.5189
X0.6598Y-0.6441
X0.6598Y-0.7441
X0.6598Y-0.8441
X0.6614Y-0.9646
X0.6614Y-1.1614
X0.8307Y-0.8425
X0.8307Y-0.9654
X0.8307Y-1.3654
X1.0276Y-0.8425
X1.0276Y-0.9839
X1.0276Y-1.2839
X1.161Y-0.8425
X1.4606Y-0.9744
X1.4606Y-1.2697
X1.461Y-0.8425
X1.6693Y-0.8409
X1.6693Y-0.9409
X1.6693Y-1.0409
X1.8504Y-0.5402
X1.8504Y-0.9402
T2
X1.5787Y-0.5394
X1.6787Y-0.5394
T3
X0.1102Y-0.3858
X0.1102Y-1.0945
X0.2102Y-0.3858
X0.2102Y-1.0945
X0.3102Y-0.3858
X0.3102Y-1.0945
X0.4102Y-0.3858
X0.4102Y-1.0945
X0.9614Y-0.5157
X1.0614Y-0.5157
X1.1614Y-0.5157
X1.2614Y-0.5157
T4
X0.1772Y-0.1772
X0.1772Y-1.3031
X1.811Y-0.1772
X1.811Y-1.3031
M30
